<?xml version="1.0" encoding="utf-8"?>
<!-- Generator: Adobe Illustrator 15.0.2, SVG Export Plug-In . SVG Version: 6.00 Build 0)  -->
<!DOCTYPE svg PUBLIC "-//W3C//DTD SVG 1.1//EN" "http://www.w3.org/Graphics/SVG/1.1/DTD/svg11.dtd">
<svg version="1.1" xmlns="http://www.w3.org/2000/svg" xmlns:xlink="http://www.w3.org/1999/xlink" x="0px" y="0px"
	 width="841.89px" height="595.28px" viewBox="0 0 841.89 595.28" enable-background="new 0 0 841.89 595.28" xml:space="preserve">
<g id="_x30_">
	<g>
		<path d="M538.09,67.28l-0.084-0.731h-0.036c-0.323,0.456-0.947,0.863-1.775,0.863c-1.175,0-1.774-0.828-1.774-1.667
			c0-1.403,1.247-2.171,3.49-2.159v-0.12c0-0.479-0.132-1.343-1.319-1.343c-0.54,0-1.104,0.168-1.512,0.432l-0.239-0.695
			c0.479-0.312,1.175-0.516,1.906-0.516c1.775,0,2.207,1.211,2.207,2.375v2.171c0,0.503,0.024,0.995,0.096,1.391H538.09z
			 M537.934,64.318c-1.151-0.024-2.458,0.18-2.458,1.307c0,0.684,0.455,1.008,0.995,1.008c0.756,0,1.235-0.48,1.403-0.972
			c0.036-0.108,0.06-0.228,0.06-0.336V64.318z"/>
		<path d="M540.66,58.765h1.055v8.515h-1.055V58.765z"/>
		<path d="M543.492,58.765h1.055v8.515h-1.055V58.765z"/>
		<path d="M553.88,58.765v7.016c0,0.516,0.012,1.103,0.048,1.499h-0.947l-0.048-1.007h-0.024c-0.323,0.647-1.031,1.139-1.979,1.139
			c-1.403,0-2.482-1.188-2.482-2.95c-0.013-1.931,1.188-3.118,2.603-3.118c0.888,0,1.487,0.419,1.751,0.887h0.023v-3.466H553.88z
			 M552.824,63.838c0-0.132-0.012-0.312-0.048-0.444c-0.155-0.672-0.731-1.224-1.522-1.224c-1.092,0-1.739,0.959-1.739,2.243
			c0,1.175,0.575,2.146,1.715,2.146c0.708,0,1.355-0.468,1.547-1.259c0.036-0.144,0.048-0.288,0.048-0.456V63.838z"/>
		<path d="M556.811,59.844c0.012,0.36-0.252,0.648-0.672,0.648c-0.371,0-0.636-0.288-0.636-0.648c0-0.372,0.276-0.66,0.66-0.66
			C556.559,59.185,556.811,59.473,556.811,59.844z M555.636,67.28v-5.805h1.055v5.805H555.636z"/>
		<path d="M558.443,63.046c0-0.6-0.013-1.091-0.049-1.571h0.924l0.048,0.936h0.036c0.324-0.552,0.863-1.067,1.823-1.067
			c0.791,0,1.391,0.479,1.643,1.163h0.024c0.18-0.324,0.407-0.576,0.647-0.755c0.348-0.264,0.731-0.408,1.283-0.408
			c0.768,0,1.907,0.503,1.907,2.519v3.418h-1.031v-3.286c0-1.115-0.408-1.787-1.26-1.787c-0.6,0-1.067,0.444-1.247,0.959
			c-0.048,0.144-0.084,0.336-0.084,0.528v3.586h-1.031v-3.478c0-0.923-0.408-1.595-1.212-1.595c-0.659,0-1.139,0.528-1.307,1.056
			c-0.061,0.156-0.084,0.335-0.084,0.516v3.502h-1.031V63.046z"/>
		<path d="M569.038,64.57c0.024,1.427,0.936,2.015,1.991,2.015c0.756,0,1.211-0.132,1.607-0.3l0.18,0.756
			c-0.372,0.168-1.008,0.36-1.931,0.36c-1.787,0-2.854-1.176-2.854-2.927s1.031-3.13,2.723-3.13c1.895,0,2.398,1.667,2.398,2.734
			c0,0.216-0.024,0.384-0.036,0.492H569.038z M572.133,63.814c0.012-0.671-0.276-1.715-1.463-1.715
			c-1.067,0-1.535,0.983-1.619,1.715H572.133z"/>
		<path d="M574.464,63.046c0-0.6-0.013-1.091-0.049-1.571h0.936l0.061,0.959h0.023c0.288-0.552,0.96-1.091,1.919-1.091
			c0.804,0,2.051,0.479,2.051,2.47v3.466h-1.055v-3.346c0-0.936-0.348-1.715-1.344-1.715c-0.695,0-1.235,0.492-1.415,1.079
			c-0.048,0.132-0.072,0.312-0.072,0.492v3.49h-1.055V63.046z"/>
		<path d="M580.979,66.201c0.312,0.204,0.863,0.42,1.392,0.42c0.768,0,1.127-0.384,1.127-0.863c0-0.504-0.3-0.78-1.079-1.068
			c-1.044-0.372-1.535-0.947-1.535-1.643c0-0.935,0.756-1.703,2.003-1.703c0.588,0,1.104,0.167,1.427,0.359l-0.264,0.768
			c-0.228-0.144-0.647-0.335-1.188-0.335c-0.623,0-0.971,0.36-0.971,0.792c0,0.479,0.348,0.695,1.103,0.983
			c1.008,0.384,1.523,0.888,1.523,1.751c0,1.02-0.791,1.739-2.171,1.739c-0.636,0-1.223-0.156-1.631-0.396L580.979,66.201z"/>
		<path d="M587.05,59.844c0.012,0.36-0.252,0.648-0.672,0.648c-0.371,0-0.636-0.288-0.636-0.648c0-0.372,0.276-0.66,0.66-0.66
			C586.798,59.185,587.05,59.473,587.05,59.844z M585.875,67.28v-5.805h1.055v5.805H585.875z"/>
		<path d="M593.937,64.33c0,2.146-1.487,3.082-2.891,3.082c-1.571,0-2.782-1.151-2.782-2.986c0-1.943,1.271-3.082,2.878-3.082
			C592.809,61.344,593.937,62.555,593.937,64.33z M589.331,64.39c0,1.271,0.731,2.231,1.763,2.231c1.008,0,1.763-0.947,1.763-2.255
			c0-0.983-0.491-2.23-1.738-2.23C589.87,62.135,589.331,63.287,589.331,64.39z"/>
		<path d="M595.271,63.046c0-0.6-0.013-1.091-0.049-1.571h0.936l0.061,0.959h0.023c0.288-0.552,0.96-1.091,1.919-1.091
			c0.804,0,2.051,0.479,2.051,2.47v3.466h-1.055v-3.346c0-0.936-0.349-1.715-1.344-1.715c-0.695,0-1.235,0.492-1.415,1.079
			c-0.048,0.132-0.072,0.312-0.072,0.492v3.49h-1.055V63.046z"/>
		<path d="M601.786,66.201c0.312,0.204,0.863,0.42,1.392,0.42c0.768,0,1.127-0.384,1.127-0.863c0-0.504-0.3-0.78-1.079-1.068
			c-1.044-0.372-1.535-0.947-1.535-1.643c0-0.935,0.756-1.703,2.003-1.703c0.588,0,1.104,0.167,1.427,0.359l-0.264,0.768
			c-0.228-0.144-0.647-0.335-1.188-0.335c-0.623,0-0.971,0.36-0.971,0.792c0,0.479,0.348,0.695,1.103,0.983
			c1.008,0.384,1.523,0.888,1.523,1.751c0,1.02-0.791,1.739-2.171,1.739c-0.636,0-1.223-0.156-1.631-0.396L601.786,66.201z"/>
		<path d="M610.401,59.844c0.012,0.36-0.252,0.648-0.672,0.648c-0.371,0-0.636-0.288-0.636-0.648c0-0.372,0.276-0.66,0.66-0.66
			C610.149,59.185,610.401,59.473,610.401,59.844z M609.227,67.28v-5.805h1.055v5.805H609.227z"/>
		<path d="M612.035,63.046c0-0.6-0.013-1.091-0.049-1.571h0.936l0.061,0.959h0.023c0.288-0.552,0.96-1.091,1.919-1.091
			c0.804,0,2.051,0.479,2.051,2.47v3.466h-1.055v-3.346c0-0.936-0.349-1.715-1.344-1.715c-0.695,0-1.235,0.492-1.415,1.079
			c-0.048,0.132-0.072,0.312-0.072,0.492v3.49h-1.055V63.046z"/>
		<path d="M622.413,59.844c0.012,0.36-0.252,0.648-0.672,0.648c-0.371,0-0.636-0.288-0.636-0.648c0-0.372,0.276-0.66,0.66-0.66
			C622.161,59.185,622.413,59.473,622.413,59.844z M621.238,67.28v-5.805h1.055v5.805H621.238z"/>
		<path d="M624.047,63.046c0-0.6-0.013-1.091-0.049-1.571h0.936l0.061,0.959h0.023c0.288-0.552,0.96-1.091,1.919-1.091
			c0.804,0,2.051,0.479,2.051,2.47v3.466h-1.055v-3.346c0-0.936-0.349-1.715-1.344-1.715c-0.695,0-1.235,0.492-1.415,1.079
			c-0.048,0.132-0.072,0.312-0.072,0.492v3.49h-1.055V63.046z"/>
		<path d="M634.844,67.064c-0.276,0.144-0.888,0.336-1.668,0.336c-1.751,0-2.89-1.188-2.89-2.962c0-1.787,1.223-3.083,3.118-3.083
			c0.623,0,1.175,0.156,1.463,0.3l-0.24,0.815c-0.251-0.144-0.647-0.275-1.223-0.275c-1.331,0-2.051,0.983-2.051,2.194
			c0,1.343,0.863,2.171,2.015,2.171c0.6,0,0.995-0.156,1.295-0.288L634.844,67.064z"/>
		<path d="M636.082,58.765h1.055v3.622h0.024c0.168-0.3,0.432-0.563,0.756-0.743c0.312-0.18,0.684-0.3,1.079-0.3
			c0.779,0,2.026,0.479,2.026,2.482v3.454h-1.055v-3.334c0-0.936-0.349-1.727-1.344-1.727c-0.684,0-1.224,0.479-1.415,1.055
			c-0.06,0.144-0.072,0.3-0.072,0.504v3.502h-1.055V58.765z"/>
		<path d="M643.329,64.57c0.024,1.427,0.936,2.015,1.991,2.015c0.756,0,1.211-0.132,1.607-0.3l0.18,0.756
			c-0.372,0.168-1.008,0.36-1.931,0.36c-1.787,0-2.854-1.176-2.854-2.927s1.031-3.13,2.723-3.13c1.895,0,2.398,1.667,2.398,2.734
			c0,0.216-0.024,0.384-0.036,0.492H643.329z M646.424,63.814c0.012-0.671-0.276-1.715-1.463-1.715
			c-1.067,0-1.535,0.983-1.619,1.715H646.424z"/>
		<path d="M648.609,66.201c0.312,0.204,0.863,0.42,1.392,0.42c0.768,0,1.127-0.384,1.127-0.863c0-0.504-0.3-0.78-1.079-1.068
			c-1.044-0.372-1.535-0.947-1.535-1.643c0-0.935,0.756-1.703,2.003-1.703c0.588,0,1.104,0.167,1.427,0.359l-0.264,0.768
			c-0.228-0.144-0.647-0.335-1.188-0.335c-0.623,0-0.971,0.36-0.971,0.792c0,0.479,0.348,0.695,1.103,0.983
			c1.008,0.384,1.523,0.888,1.523,1.751c0,1.02-0.791,1.739-2.171,1.739c-0.636,0-1.223-0.156-1.631-0.396L648.609,66.201z"/>
	</g>
</g>
<g id="Visible__x28_ANSI_x29_">
	<g id="LINE_28_">
		
			<line fill="none" stroke="#000000" stroke-width="1.4173" stroke-linecap="round" stroke-linejoin="round" stroke-miterlimit="10" x1="482.685" y1="74.201" x2="482.685" y2="47.151"/>
	</g>
	<g id="LINE_29_">
		
			<line fill="none" stroke="#000000" stroke-width="1.4173" stroke-linecap="round" stroke-linejoin="round" stroke-miterlimit="10" x1="473.668" y1="74.201" x2="482.685" y2="74.201"/>
	</g>
	<g id="ARC">
		
			<path fill="none" stroke="#000000" stroke-width="1.4173" stroke-linecap="round" stroke-linejoin="round" stroke-miterlimit="10" d="
			M473.668,74.201c-4.979,0-9.017,4.037-9.017,9.017c0,4.98,4.037,9.017,9.017,9.017"/>
	</g>
	<g id="LINE_30_">
		
			<line fill="none" stroke="#000000" stroke-width="1.4173" stroke-linecap="round" stroke-linejoin="round" stroke-miterlimit="10" x1="482.685" y1="92.234" x2="473.668" y2="92.234"/>
	</g>
	<g id="LINE_31_">
		
			<line fill="none" stroke="#000000" stroke-width="1.4173" stroke-linecap="round" stroke-linejoin="round" stroke-miterlimit="10" x1="482.685" y1="103.956" x2="482.685" y2="92.234"/>
	</g>
	<g id="LINE_32_">
		
			<line fill="none" stroke="#000000" stroke-width="1.4173" stroke-linecap="round" stroke-linejoin="round" stroke-miterlimit="10" x1="594.49" y1="103.956" x2="482.685" y2="103.956"/>
	</g>
	<g id="LINE_33_">
		
			<line fill="none" stroke="#000000" stroke-width="1.4173" stroke-linecap="round" stroke-linejoin="round" stroke-miterlimit="10" x1="601.704" y1="111.169" x2="594.49" y2="103.956"/>
	</g>
	<g id="LINE_34_">
		
			<line fill="none" stroke="#000000" stroke-width="1.4173" stroke-linecap="round" stroke-linejoin="round" stroke-miterlimit="10" x1="601.704" y1="200.434" x2="601.704" y2="111.169"/>
	</g>
	<g id="LINE_35_">
		
			<line fill="none" stroke="#000000" stroke-width="1.4173" stroke-linecap="round" stroke-linejoin="round" stroke-miterlimit="10" x1="594.49" y1="207.647" x2="601.704" y2="200.434"/>
	</g>
	<g id="LINE_36_">
		
			<line fill="none" stroke="#000000" stroke-width="1.4173" stroke-linecap="round" stroke-linejoin="round" stroke-miterlimit="10" x1="496.209" y1="207.647" x2="594.49" y2="207.647"/>
	</g>
	<g id="ARC_1_">
		
			<path fill="none" stroke="#000000" stroke-width="1.4173" stroke-linecap="round" stroke-linejoin="round" stroke-miterlimit="10" d="
			M496.209,207.647c-7.469,0-13.524,6.055-13.524,13.525s6.056,13.525,13.524,13.525"/>
	</g>
	<g id="LINE_37_">
		
			<line fill="none" stroke="#000000" stroke-width="1.4173" stroke-linecap="round" stroke-linejoin="round" stroke-miterlimit="10" x1="594.49" y1="234.697" x2="496.209" y2="234.697"/>
	</g>
	<g id="LINE_38_">
		
			<line fill="none" stroke="#000000" stroke-width="1.4173" stroke-linecap="round" stroke-linejoin="round" stroke-miterlimit="10" x1="601.704" y1="241.91" x2="594.49" y2="234.697"/>
	</g>
	<g id="LINE_39_">
		
			<line fill="none" stroke="#000000" stroke-width="1.4173" stroke-linecap="round" stroke-linejoin="round" stroke-miterlimit="10" x1="601.704" y1="385.274" x2="601.704" y2="241.91"/>
	</g>
	<g id="LINE_40_">
		
			<line fill="none" stroke="#000000" stroke-width="1.4173" stroke-linecap="round" stroke-linejoin="round" stroke-miterlimit="10" x1="594.49" y1="392.488" x2="601.704" y2="385.274"/>
	</g>
	<g id="LINE_41_">
		
			<line fill="none" stroke="#000000" stroke-width="1.4173" stroke-linecap="round" stroke-linejoin="round" stroke-miterlimit="10" x1="482.685" y1="392.488" x2="594.49" y2="392.488"/>
	</g>
	<g id="LINE_42_">
		
			<line fill="none" stroke="#000000" stroke-width="1.4173" stroke-linecap="round" stroke-linejoin="round" stroke-miterlimit="10" x1="482.685" y1="404.21" x2="482.685" y2="392.488"/>
	</g>
	<g id="LINE_43_">
		
			<line fill="none" stroke="#000000" stroke-width="1.4173" stroke-linecap="round" stroke-linejoin="round" stroke-miterlimit="10" x1="473.668" y1="404.21" x2="482.685" y2="404.21"/>
	</g>
	<g id="ARC_2_">
		
			<path fill="none" stroke="#000000" stroke-width="1.4173" stroke-linecap="round" stroke-linejoin="round" stroke-miterlimit="10" d="
			M473.668,404.21c-4.979,0-9.017,4.037-9.017,9.017s4.037,9.017,9.017,9.017"/>
	</g>
	<g id="LINE_44_">
		
			<line fill="none" stroke="#000000" stroke-width="1.4173" stroke-linecap="round" stroke-linejoin="round" stroke-miterlimit="10" x1="482.685" y1="422.243" x2="473.668" y2="422.243"/>
	</g>
	<g id="LINE_45_">
		
			<line fill="none" stroke="#000000" stroke-width="1.4173" stroke-linecap="round" stroke-linejoin="round" stroke-miterlimit="10" x1="482.685" y1="449.293" x2="482.685" y2="422.243"/>
	</g>
	<g id="LINE_46_">
		
			<line fill="none" stroke="#000000" stroke-width="1.4173" stroke-linecap="round" stroke-linejoin="round" stroke-miterlimit="10" x1="167.102" y1="449.293" x2="482.685" y2="449.293"/>
	</g>
	<g id="LINE_47_">
		
			<line fill="none" stroke="#000000" stroke-width="1.4173" stroke-linecap="round" stroke-linejoin="round" stroke-miterlimit="10" x1="167.102" y1="422.243" x2="167.102" y2="449.293"/>
	</g>
	<g id="LINE_48_">
		
			<line fill="none" stroke="#000000" stroke-width="1.4173" stroke-linecap="round" stroke-linejoin="round" stroke-miterlimit="10" x1="176.119" y1="422.243" x2="167.102" y2="422.243"/>
	</g>
	<g id="ARC_3_">
		
			<path fill="none" stroke="#000000" stroke-width="1.4173" stroke-linecap="round" stroke-linejoin="round" stroke-miterlimit="10" d="
			M176.119,422.243c4.98,0,9.017-4.037,9.017-9.017s-4.037-9.017-9.017-9.017"/>
	</g>
	<g id="LINE_49_">
		
			<line fill="none" stroke="#000000" stroke-width="1.4173" stroke-linecap="round" stroke-linejoin="round" stroke-miterlimit="10" x1="167.102" y1="404.21" x2="176.119" y2="404.21"/>
	</g>
	<g id="LINE_50_">
		
			<line fill="none" stroke="#000000" stroke-width="1.4173" stroke-linecap="round" stroke-linejoin="round" stroke-miterlimit="10" x1="167.102" y1="92.234" x2="167.102" y2="404.21"/>
	</g>
	<g id="LINE_51_">
		
			<line fill="none" stroke="#000000" stroke-width="1.4173" stroke-linecap="round" stroke-linejoin="round" stroke-miterlimit="10" x1="176.119" y1="92.234" x2="167.102" y2="92.234"/>
	</g>
	<g id="ARC_4_">
		
			<path fill="none" stroke="#000000" stroke-width="1.4173" stroke-linecap="round" stroke-linejoin="round" stroke-miterlimit="10" d="
			M176.119,92.234c4.98,0,9.017-4.037,9.017-9.017c0-4.979-4.037-9.017-9.017-9.017"/>
	</g>
	<g id="LINE_52_">
		
			<line fill="none" stroke="#000000" stroke-width="1.4173" stroke-linecap="round" stroke-linejoin="round" stroke-miterlimit="10" x1="167.102" y1="74.201" x2="176.119" y2="74.201"/>
	</g>
	<g id="LINE_53_">
		
			<line fill="none" stroke="#000000" stroke-width="1.4173" stroke-linecap="round" stroke-linejoin="round" stroke-miterlimit="10" x1="167.102" y1="47.151" x2="167.102" y2="74.201"/>
	</g>
	<g id="LINE_54_">
		
			<line fill="none" stroke="#000000" stroke-width="1.4173" stroke-linecap="round" stroke-linejoin="round" stroke-miterlimit="10" x1="482.685" y1="47.151" x2="167.102" y2="47.151"/>
	</g>
</g>
<g id="Dimension__x28_ANSI_x29_">
	<g id="DIMENSION">
		<g id="LINE_55_">
			
				<line fill="none" stroke="#000000" stroke-width="0.7087" stroke-linecap="round" stroke-linejoin="round" stroke-miterlimit="10" x1="164.848" y1="74.201" x2="142.828" y2="74.201"/>
		</g>
		<g id="LINE_56_">
			
				<line fill="none" stroke="#000000" stroke-width="0.7087" stroke-linecap="round" stroke-linejoin="round" stroke-miterlimit="10" x1="164.848" y1="92.234" x2="142.828" y2="92.234"/>
		</g>
		<g id="LINE_57_">
			
				<line fill="none" stroke="#000000" stroke-width="0.7087" stroke-linecap="round" stroke-linejoin="round" stroke-miterlimit="10" x1="147.336" y1="77.75" x2="147.336" y2="79.829"/>
		</g>
		<g id="LINE_58_">
			
				<line fill="none" stroke="#000000" stroke-width="0.7087" stroke-linecap="round" stroke-linejoin="round" stroke-miterlimit="10" x1="147.336" y1="88.684" x2="147.336" y2="86.606"/>
		</g>
		<g id="SOLID">
			<polygon points="146.745,77.75 147.928,77.75 147.336,74.201 			"/>
		</g>
		<g id="SOLID_1_">
			<polygon points="146.745,88.684 147.928,88.684 147.336,92.234 			"/>
		</g>
		<g id="MTEXT_17_">
			<g>
				<path d="M144.396,85.338h-0.743v-0.886h0.743V85.338z"/>
				<path d="M148.206,83.022c0,0.831-0.121,1.44-0.362,1.829s-0.614,0.583-1.117,0.583c-0.51,0-0.884-0.198-1.122-0.594
					s-0.357-1-0.357-1.812c0-0.835,0.121-1.446,0.362-1.832c0.241-0.387,0.614-0.58,1.117-0.58c0.51,0,0.884,0.2,1.122,0.6
					C148.087,81.617,148.206,82.219,148.206,83.022z M147.411,84.434c0.06-0.153,0.103-0.347,0.127-0.581s0.037-0.511,0.037-0.83
					c0-0.316-0.012-0.593-0.037-0.826c-0.025-0.234-0.068-0.43-0.13-0.585c-0.063-0.157-0.148-0.276-0.256-0.358
					c-0.109-0.082-0.25-0.123-0.424-0.123c-0.172,0-0.313,0.041-0.424,0.123s-0.198,0.203-0.263,0.365
					c-0.062,0.157-0.104,0.356-0.127,0.597c-0.022,0.24-0.034,0.512-0.034,0.814c0,0.322,0.01,0.593,0.03,0.811
					c0.02,0.218,0.063,0.412,0.129,0.584c0.06,0.16,0.146,0.282,0.256,0.368c0.111,0.087,0.255,0.13,0.434,0.13
					c0.172,0,0.313-0.041,0.424-0.123S147.349,84.595,147.411,84.434z"/>
				<path d="M151.606,83.865c0,0.224-0.036,0.431-0.107,0.621c-0.071,0.19-0.171,0.355-0.3,0.494
					c-0.13,0.141-0.292,0.252-0.486,0.333c-0.194,0.08-0.411,0.121-0.651,0.121c-0.222,0-0.439-0.024-0.654-0.073
					s-0.4-0.112-0.558-0.191v-0.655h0.043c0.048,0.035,0.116,0.075,0.205,0.119c0.089,0.045,0.188,0.087,0.295,0.126
					c0.122,0.044,0.234,0.077,0.335,0.102c0.102,0.023,0.216,0.035,0.342,0.035c0.124,0,0.245-0.022,0.363-0.066
					c0.118-0.045,0.22-0.117,0.305-0.216c0.077-0.092,0.135-0.198,0.176-0.32c0.04-0.122,0.061-0.267,0.061-0.433
					c0-0.163-0.022-0.298-0.067-0.403c-0.044-0.106-0.109-0.193-0.194-0.262c-0.089-0.078-0.198-0.134-0.328-0.166
					c-0.13-0.032-0.274-0.048-0.434-0.048c-0.168,0-0.337,0.013-0.507,0.039c-0.17,0.025-0.306,0.05-0.407,0.072V80.71h2.539v0.544
					h-1.939v1.231c0.075-0.009,0.148-0.015,0.221-0.019c0.072-0.005,0.139-0.007,0.199-0.007c0.236,0,0.436,0.02,0.6,0.06
					c0.164,0.039,0.321,0.115,0.473,0.229c0.153,0.116,0.271,0.261,0.353,0.436C151.565,83.358,151.606,83.585,151.606,83.865z"/>
			</g>
		</g>
		<g id="POINT">
			
				<line fill="none" stroke="#000000" stroke-width="0" stroke-linecap="round" stroke-linejoin="round" stroke-miterlimit="10" x1="167.102" y1="74.201" x2="167.102" y2="74.201"/>
		</g>
		<g id="POINT_1_">
			
				<line fill="none" stroke="#000000" stroke-width="0" stroke-linecap="round" stroke-linejoin="round" stroke-miterlimit="10" x1="167.102" y1="92.234" x2="167.102" y2="92.234"/>
		</g>
		<g id="POINT_2_">
			
				<line fill="none" stroke="#000000" stroke-width="0" stroke-linecap="round" stroke-linejoin="round" stroke-miterlimit="10" x1="147.336" y1="92.234" x2="147.336" y2="92.234"/>
		</g>
	</g>
	<g id="DIMENSION_1_">
		<g id="LINE_59_">
			
				<line fill="none" stroke="#000000" stroke-width="0.7087" stroke-linecap="round" stroke-linejoin="round" stroke-miterlimit="10" x1="185.135" y1="80.963" x2="185.135" y2="55.99"/>
		</g>
		<g id="LINE_60_">
			
				<line fill="none" stroke="#000000" stroke-width="0.7087" stroke-linecap="round" stroke-linejoin="round" stroke-miterlimit="10" x1="167.102" y1="71.947" x2="167.102" y2="55.99"/>
		</g>
		<g id="LINE_61_">
			
				<line fill="none" stroke="#000000" stroke-width="0.7087" stroke-linecap="round" stroke-linejoin="round" stroke-miterlimit="10" x1="170.652" y1="60.499" x2="181.585" y2="60.499"/>
		</g>
		<g id="LINE_62_">
			
				<line fill="none" stroke="#000000" stroke-width="0.7087" stroke-linecap="round" stroke-linejoin="round" stroke-miterlimit="10" x1="185.135" y1="60.499" x2="189.912" y2="60.499"/>
		</g>
		<g id="SOLID_2_">
			<polygon points="170.652,59.907 170.652,61.09 167.102,60.499 			"/>
		</g>
		<g id="SOLID_3_">
			<polygon points="181.585,59.907 181.585,61.09 185.135,60.499 			"/>
		</g>
		<g id="MTEXT_18_">
			<g>
				<path d="M191.827,62.619h-0.743v-0.886h0.743V62.619z"/>
				<path d="M195.637,60.304c0,0.831-0.121,1.44-0.362,1.829s-0.614,0.583-1.117,0.583c-0.51,0-0.884-0.198-1.122-0.594
					s-0.357-1-0.357-1.812c0-0.835,0.121-1.446,0.362-1.832c0.241-0.387,0.614-0.58,1.117-0.58c0.51,0,0.884,0.2,1.122,0.6
					C195.518,58.898,195.637,59.5,195.637,60.304z M194.841,61.715c0.06-0.153,0.103-0.347,0.127-0.581s0.037-0.511,0.037-0.83
					c0-0.316-0.012-0.593-0.037-0.826c-0.025-0.234-0.068-0.43-0.13-0.585c-0.063-0.157-0.148-0.276-0.256-0.358
					c-0.109-0.082-0.25-0.123-0.424-0.123c-0.172,0-0.313,0.041-0.424,0.123s-0.198,0.203-0.263,0.365
					c-0.062,0.157-0.104,0.356-0.127,0.597c-0.022,0.24-0.034,0.512-0.034,0.814c0,0.322,0.01,0.593,0.03,0.811
					c0.02,0.218,0.063,0.412,0.129,0.584c0.06,0.16,0.146,0.282,0.256,0.368c0.111,0.087,0.255,0.13,0.434,0.13
					c0.172,0,0.313-0.041,0.424-0.123S194.779,61.876,194.841,61.715z"/>
				<path d="M199.037,61.146c0,0.224-0.036,0.431-0.107,0.621c-0.071,0.19-0.171,0.355-0.3,0.494
					c-0.13,0.141-0.292,0.252-0.486,0.333c-0.194,0.08-0.411,0.121-0.651,0.121c-0.222,0-0.439-0.024-0.654-0.073
					s-0.4-0.112-0.558-0.191v-0.655h0.043c0.048,0.035,0.116,0.075,0.205,0.119c0.089,0.045,0.188,0.087,0.295,0.126
					c0.122,0.044,0.234,0.077,0.335,0.102c0.102,0.023,0.216,0.035,0.342,0.035c0.124,0,0.245-0.022,0.363-0.066
					c0.118-0.045,0.22-0.117,0.305-0.216c0.077-0.092,0.135-0.198,0.176-0.32c0.04-0.122,0.061-0.267,0.061-0.433
					c0-0.163-0.022-0.298-0.067-0.403c-0.044-0.106-0.109-0.193-0.194-0.262c-0.089-0.078-0.198-0.134-0.328-0.166
					c-0.13-0.032-0.274-0.048-0.434-0.048c-0.168,0-0.337,0.013-0.507,0.039c-0.17,0.025-0.306,0.05-0.407,0.072v-2.384h2.539v0.544
					h-1.939v1.231c0.075-0.009,0.148-0.015,0.221-0.019c0.072-0.005,0.139-0.007,0.199-0.007c0.236,0,0.436,0.02,0.6,0.06
					c0.164,0.039,0.321,0.115,0.473,0.229c0.153,0.116,0.271,0.261,0.353,0.436C198.996,60.64,199.037,60.866,199.037,61.146z"/>
			</g>
		</g>
		<g id="POINT_3_">
			
				<line fill="none" stroke="#000000" stroke-width="0" stroke-linecap="round" stroke-linejoin="round" stroke-miterlimit="10" x1="185.135" y1="83.217" x2="185.135" y2="83.217"/>
		</g>
		<g id="POINT_4_">
			
				<line fill="none" stroke="#000000" stroke-width="0" stroke-linecap="round" stroke-linejoin="round" stroke-miterlimit="10" x1="167.102" y1="74.201" x2="167.102" y2="74.201"/>
		</g>
		<g id="POINT_5_">
			
				<line fill="none" stroke="#000000" stroke-width="0" stroke-linecap="round" stroke-linejoin="round" stroke-miterlimit="10" x1="167.102" y1="60.499" x2="167.102" y2="60.499"/>
		</g>
	</g>
	<g id="DIMENSION_2_">
		<g id="LINE_63_">
			
				<line fill="none" stroke="#000000" stroke-width="0.7087" stroke-linecap="round" stroke-linejoin="round" stroke-miterlimit="10" x1="164.848" y1="47.151" x2="122.835" y2="47.151"/>
		</g>
		<g id="LINE_64_">
			
				<line fill="none" stroke="#000000" stroke-width="0.7087" stroke-linecap="round" stroke-linejoin="round" stroke-miterlimit="10" x1="164.848" y1="449.293" x2="122.835" y2="449.293"/>
		</g>
		<g id="LINE_65_">
			
				<line fill="none" stroke="#000000" stroke-width="0.7087" stroke-linecap="round" stroke-linejoin="round" stroke-miterlimit="10" x1="127.344" y1="50.701" x2="127.344" y2="244.87"/>
		</g>
		<g id="LINE_66_">
			
				<line fill="none" stroke="#000000" stroke-width="0.7087" stroke-linecap="round" stroke-linejoin="round" stroke-miterlimit="10" x1="127.344" y1="445.743" x2="127.344" y2="251.574"/>
		</g>
		<g id="SOLID_4_">
			<polygon points="126.752,50.701 127.936,50.701 127.344,47.151 			"/>
		</g>
		<g id="SOLID_5_">
			<polygon points="126.752,445.743 127.936,445.743 127.344,449.293 			"/>
		</g>
		<g id="MTEXT_19_">
			<g>
				<path d="M122.728,250.34h-2.256v-0.473h0.839v-3.102h-0.839v-0.422c0.317,0,0.551-0.046,0.701-0.136
					c0.15-0.09,0.234-0.261,0.253-0.511h0.482v4.17h0.82V250.34z"/>
				<path d="M124.577,250.34h-0.743v-0.886h0.743V250.34z"/>
				<path d="M128.129,250.34h-2.256v-0.473h0.839v-3.102h-0.839v-0.422c0.317,0,0.551-0.046,0.701-0.136
					c0.15-0.09,0.234-0.261,0.253-0.511h0.482v4.17h0.82V250.34z"/>
				<path d="M131.604,250.34h-2.256v-0.473h0.839v-3.102h-0.839v-0.422c0.317,0,0.551-0.046,0.701-0.136
					c0.15-0.09,0.234-0.261,0.253-0.511h0.482v4.17h0.82V250.34z"/>
				<path d="M135.262,248.867c0,0.224-0.036,0.431-0.107,0.621c-0.071,0.19-0.171,0.355-0.3,0.494
					c-0.13,0.141-0.292,0.252-0.486,0.333c-0.194,0.08-0.411,0.121-0.651,0.121c-0.222,0-0.439-0.024-0.654-0.073
					s-0.4-0.112-0.558-0.191v-0.655h0.043c0.048,0.035,0.116,0.075,0.205,0.119c0.089,0.045,0.188,0.087,0.295,0.126
					c0.122,0.044,0.234,0.077,0.335,0.102c0.102,0.023,0.216,0.035,0.342,0.035c0.124,0,0.245-0.022,0.363-0.066
					c0.118-0.045,0.22-0.117,0.305-0.216c0.077-0.092,0.135-0.198,0.176-0.32c0.04-0.122,0.061-0.267,0.061-0.433
					c0-0.163-0.022-0.298-0.067-0.403c-0.044-0.106-0.109-0.193-0.194-0.262c-0.089-0.078-0.198-0.134-0.328-0.166
					c-0.13-0.032-0.274-0.048-0.434-0.048c-0.168,0-0.337,0.013-0.507,0.039c-0.17,0.025-0.306,0.05-0.407,0.072v-2.384h2.539v0.544
					h-1.939v1.231c0.075-0.009,0.148-0.015,0.221-0.019c0.072-0.005,0.139-0.007,0.199-0.007c0.236,0,0.436,0.02,0.6,0.06
					c0.164,0.039,0.321,0.115,0.473,0.229c0.153,0.116,0.271,0.261,0.353,0.436C135.221,248.36,135.262,248.587,135.262,248.867z"/>
			</g>
		</g>
		<g id="POINT_6_">
			
				<line fill="none" stroke="#000000" stroke-width="0" stroke-linecap="round" stroke-linejoin="round" stroke-miterlimit="10" x1="167.102" y1="47.151" x2="167.102" y2="47.151"/>
		</g>
		<g id="POINT_7_">
			
				<line fill="none" stroke="#000000" stroke-width="0" stroke-linecap="round" stroke-linejoin="round" stroke-miterlimit="10" x1="167.102" y1="449.293" x2="167.102" y2="449.293"/>
		</g>
		<g id="POINT_8_">
			
				<line fill="none" stroke="#000000" stroke-width="0" stroke-linecap="round" stroke-linejoin="round" stroke-miterlimit="10" x1="127.344" y1="449.293" x2="127.344" y2="449.293"/>
		</g>
	</g>
	<g id="DIMENSION_3_">
		<g id="LINE_67_">
			
				<line fill="none" stroke="#000000" stroke-width="0.7087" stroke-linecap="round" stroke-linejoin="round" stroke-miterlimit="10" x1="482.685" y1="451.547" x2="482.685" y2="497.63"/>
		</g>
		<g id="LINE_68_">
			
				<line fill="none" stroke="#000000" stroke-width="0.7087" stroke-linecap="round" stroke-linejoin="round" stroke-miterlimit="10" x1="167.102" y1="451.547" x2="167.102" y2="497.63"/>
		</g>
		<g id="LINE_69_">
			
				<line fill="none" stroke="#000000" stroke-width="0.7087" stroke-linecap="round" stroke-linejoin="round" stroke-miterlimit="10" x1="479.135" y1="493.121" x2="331.373" y2="493.121"/>
		</g>
		<g id="LINE_70_">
			
				<line fill="none" stroke="#000000" stroke-width="0.7087" stroke-linecap="round" stroke-linejoin="round" stroke-miterlimit="10" x1="170.652" y1="493.121" x2="318.414" y2="493.121"/>
		</g>
		<g id="SOLID_6_">
			<polygon points="479.135,492.529 479.135,493.713 482.685,493.121 			"/>
		</g>
		<g id="SOLID_7_">
			<polygon points="170.652,492.529 170.652,493.713 167.102,493.121 			"/>
		</g>
		<g id="MTEXT_20_">
			<g>
				<path d="M320.329,495.236h-0.743v-0.886h0.743V495.236z"/>
				<path d="M322.66,495.342c-0.23,0-0.439-0.034-0.628-0.103s-0.349-0.167-0.481-0.295c-0.131-0.124-0.229-0.272-0.297-0.443
					s-0.101-0.352-0.101-0.542c0-0.251,0.067-0.481,0.201-0.691c0.133-0.21,0.328-0.378,0.583-0.502v-0.019
					c-0.228-0.133-0.397-0.277-0.507-0.436c-0.11-0.157-0.165-0.354-0.165-0.59c0-0.349,0.132-0.639,0.395-0.87
					c0.263-0.232,0.597-0.349,1.001-0.349c0.42,0,0.758,0.11,1.012,0.331c0.253,0.221,0.38,0.503,0.38,0.847
					c0,0.208-0.061,0.413-0.182,0.616c-0.121,0.202-0.296,0.361-0.524,0.475v0.019c0.27,0.127,0.474,0.28,0.612,0.46
					c0.139,0.181,0.208,0.413,0.208,0.696c0,0.396-0.144,0.728-0.431,0.995C323.449,495.208,323.09,495.342,322.66,495.342z
					 M323.53,494.006c0-0.19-0.037-0.342-0.112-0.454c-0.075-0.111-0.219-0.226-0.432-0.342c-0.07-0.039-0.164-0.082-0.281-0.127
					c-0.117-0.046-0.249-0.1-0.396-0.162c-0.172,0.114-0.304,0.255-0.395,0.421c-0.091,0.167-0.137,0.357-0.137,0.57
					c0,0.28,0.084,0.511,0.253,0.693s0.381,0.273,0.636,0.273c0.261,0,0.47-0.078,0.627-0.234
					C323.451,494.488,323.53,494.275,323.53,494.006z M323.443,491.688c0-0.207-0.069-0.381-0.208-0.52
					c-0.139-0.139-0.332-0.208-0.578-0.208c-0.226,0-0.411,0.063-0.555,0.187s-0.216,0.292-0.216,0.504
					c0,0.153,0.037,0.282,0.11,0.388c0.074,0.106,0.184,0.201,0.331,0.286c0.064,0.035,0.162,0.084,0.293,0.146
					c0.132,0.062,0.251,0.11,0.359,0.146c0.181-0.139,0.303-0.281,0.367-0.427C323.411,492.043,323.443,491.876,323.443,491.688z"/>
				<path d="M327.642,491.302l-2.001,3.935h-0.662l2.12-4.084h-2.393v-0.544h2.937V491.302z"/>
				<path d="M331.013,493.764c0,0.224-0.036,0.431-0.107,0.621c-0.071,0.19-0.171,0.355-0.3,0.494
					c-0.13,0.141-0.292,0.252-0.486,0.333c-0.194,0.08-0.411,0.121-0.651,0.121c-0.222,0-0.439-0.024-0.654-0.073
					s-0.4-0.112-0.558-0.191v-0.655h0.043c0.048,0.035,0.116,0.075,0.205,0.119c0.089,0.045,0.188,0.087,0.295,0.126
					c0.122,0.044,0.234,0.077,0.335,0.102c0.102,0.023,0.216,0.035,0.342,0.035c0.124,0,0.245-0.022,0.363-0.066
					c0.118-0.045,0.22-0.117,0.305-0.216c0.077-0.092,0.135-0.198,0.176-0.32c0.04-0.122,0.061-0.267,0.061-0.433
					c0-0.163-0.022-0.298-0.067-0.403c-0.044-0.106-0.109-0.193-0.194-0.262c-0.089-0.078-0.198-0.134-0.328-0.166
					c-0.13-0.032-0.274-0.048-0.434-0.048c-0.168,0-0.337,0.013-0.507,0.039c-0.17,0.025-0.306,0.05-0.407,0.072v-2.384h2.539v0.544
					h-1.939v1.231c0.075-0.009,0.148-0.015,0.221-0.019c0.072-0.005,0.139-0.007,0.199-0.007c0.236,0,0.436,0.02,0.6,0.06
					c0.164,0.039,0.321,0.115,0.473,0.229c0.153,0.116,0.271,0.261,0.353,0.436C330.972,493.257,331.013,493.483,331.013,493.764z"
					/>
			</g>
		</g>
		<g id="POINT_9_">
			
				<line fill="none" stroke="#000000" stroke-width="0" stroke-linecap="round" stroke-linejoin="round" stroke-miterlimit="10" x1="482.685" y1="449.293" x2="482.685" y2="449.293"/>
		</g>
		<g id="POINT_10_">
			
				<line fill="none" stroke="#000000" stroke-width="0" stroke-linecap="round" stroke-linejoin="round" stroke-miterlimit="10" x1="167.102" y1="449.293" x2="167.102" y2="449.293"/>
		</g>
		<g id="POINT_11_">
			
				<line fill="none" stroke="#000000" stroke-width="0" stroke-linecap="round" stroke-linejoin="round" stroke-miterlimit="10" x1="167.102" y1="493.121" x2="167.102" y2="493.121"/>
		</g>
	</g>
	<g id="DIMENSION_4_">
		<g id="LINE_71_">
			
				<line fill="none" stroke="#000000" stroke-width="0.7087" stroke-linecap="round" stroke-linejoin="round" stroke-miterlimit="10" x1="187.39" y1="83.217" x2="220.882" y2="83.217"/>
		</g>
		<g id="LINE_72_">
			
				<line fill="none" stroke="#000000" stroke-width="0.7087" stroke-linecap="round" stroke-linejoin="round" stroke-miterlimit="10" x1="216.374" y1="79.667" x2="216.374" y2="68.573"/>
		</g>
		<g id="LINE_73_">
			
				<line fill="none" stroke="#000000" stroke-width="0.7087" stroke-linecap="round" stroke-linejoin="round" stroke-miterlimit="10" x1="216.374" y1="50.701" x2="216.374" y2="61.795"/>
		</g>
		<g id="SOLID_8_">
			<polygon points="215.782,79.667 216.966,79.667 216.374,83.217 			"/>
		</g>
		<g id="SOLID_9_">
			<polygon points="215.782,50.701 216.966,50.701 216.374,47.151 			"/>
		</g>
		<g id="MTEXT_21_">
			<g>
				<path d="M213.399,67.305h-0.743v-0.886h0.743V67.305z"/>
				<path d="M216.952,67.305h-2.256v-0.473h0.839V63.73h-0.839v-0.422c0.317,0,0.551-0.046,0.701-0.136
					c0.15-0.09,0.234-0.261,0.253-0.511h0.482v4.17h0.82V67.305z"/>
				<path d="M220.684,64.989c0,0.831-0.121,1.44-0.362,1.829s-0.614,0.583-1.117,0.583c-0.51,0-0.884-0.198-1.122-0.594
					s-0.357-1-0.357-1.812c0-0.835,0.121-1.446,0.362-1.832c0.241-0.387,0.614-0.58,1.117-0.58c0.51,0,0.884,0.2,1.122,0.6
					C220.565,63.584,220.684,64.186,220.684,64.989z M219.889,66.4c0.06-0.153,0.103-0.347,0.127-0.581s0.037-0.511,0.037-0.83
					c0-0.316-0.012-0.593-0.037-0.826c-0.025-0.234-0.068-0.43-0.13-0.585c-0.063-0.157-0.148-0.276-0.256-0.358
					c-0.109-0.082-0.25-0.123-0.424-0.123c-0.172,0-0.313,0.041-0.424,0.123s-0.198,0.203-0.263,0.365
					c-0.062,0.157-0.104,0.356-0.127,0.597c-0.022,0.24-0.034,0.512-0.034,0.814c0,0.322,0.01,0.593,0.03,0.811
					c0.02,0.218,0.063,0.412,0.129,0.584c0.06,0.16,0.146,0.282,0.256,0.368c0.111,0.087,0.255,0.13,0.434,0.13
					c0.172,0,0.313-0.041,0.424-0.123S219.827,66.562,219.889,66.4z"/>
			</g>
		</g>
		<g id="POINT_12_">
			
				<line fill="none" stroke="#000000" stroke-width="0" stroke-linecap="round" stroke-linejoin="round" stroke-miterlimit="10" x1="185.135" y1="83.217" x2="185.135" y2="83.217"/>
		</g>
		<g id="POINT_13_">
			
				<line fill="none" stroke="#000000" stroke-width="0" stroke-linecap="round" stroke-linejoin="round" stroke-miterlimit="10" x1="167.102" y1="47.151" x2="167.102" y2="47.151"/>
		</g>
		<g id="POINT_14_">
			
				<line fill="none" stroke="#000000" stroke-width="0" stroke-linecap="round" stroke-linejoin="round" stroke-miterlimit="10" x1="216.374" y1="47.151" x2="216.374" y2="47.151"/>
		</g>
	</g>
	<g id="DIMENSION_5_">
		<g id="LINE_74_">
			
				<line fill="none" stroke="#000000" stroke-width="0.7087" stroke-linecap="round" stroke-linejoin="round" stroke-miterlimit="10" x1="201.957" y1="108.932" x2="197.325" y2="108.932"/>
		</g>
		<g id="LINE_75_">
			
				<line fill="none" stroke="#000000" stroke-width="0.7087" stroke-linecap="round" stroke-linejoin="round" stroke-miterlimit="10" x1="197.325" y1="108.932" x2="184.114" y2="92.912"/>
		</g>
		<g id="MTEXT_22_">
			<g>
				<path d="M206.708,111.051h-0.799l-1.467-1.84h-0.703v1.84h-0.615v-4.628h1.193c0.265,0,0.487,0.015,0.667,0.044
					s0.35,0.097,0.511,0.202c0.162,0.104,0.29,0.237,0.384,0.4c0.094,0.164,0.142,0.367,0.142,0.609c0,0.34-0.086,0.624-0.258,0.852
					c-0.172,0.229-0.406,0.396-0.703,0.507L206.708,111.051z M205.378,107.726c0-0.135-0.023-0.255-0.071-0.359
					s-0.121-0.189-0.221-0.256c-0.087-0.059-0.188-0.099-0.305-0.123c-0.116-0.023-0.26-0.036-0.432-0.036h-0.609v1.747h0.541
					c0.176,0,0.334-0.016,0.476-0.047c0.141-0.031,0.261-0.095,0.36-0.192c0.089-0.087,0.155-0.19,0.197-0.311
					S205.378,107.887,205.378,107.726z"/>
				<path d="M207.939,111.051h-0.743v-0.886h0.743V111.051z"/>
				<path d="M211.749,108.735c0,0.831-0.121,1.44-0.362,1.829s-0.614,0.583-1.117,0.583c-0.51,0-0.884-0.198-1.122-0.594
					s-0.357-1-0.357-1.812c0-0.835,0.121-1.446,0.362-1.832c0.241-0.387,0.614-0.58,1.117-0.58c0.51,0,0.884,0.2,1.122,0.6
					C211.63,107.33,211.749,107.932,211.749,108.735z M210.954,110.146c0.06-0.153,0.103-0.347,0.127-0.581s0.037-0.511,0.037-0.83
					c0-0.316-0.012-0.593-0.037-0.826c-0.025-0.234-0.068-0.43-0.13-0.585c-0.063-0.157-0.148-0.276-0.256-0.358
					c-0.109-0.082-0.25-0.123-0.424-0.123c-0.172,0-0.313,0.041-0.424,0.123s-0.198,0.203-0.263,0.365
					c-0.062,0.157-0.104,0.356-0.127,0.597c-0.022,0.24-0.034,0.512-0.034,0.814c0,0.322,0.01,0.593,0.03,0.811
					c0.02,0.218,0.063,0.412,0.129,0.584c0.06,0.16,0.146,0.282,0.256,0.368c0.111,0.087,0.255,0.13,0.434,0.13
					c0.172,0,0.313-0.041,0.424-0.123S210.892,110.308,210.954,110.146z"/>
				<path d="M215.202,111.051h-2.856v-0.649c0.205-0.195,0.399-0.381,0.581-0.56c0.182-0.178,0.36-0.363,0.535-0.557
					c0.352-0.387,0.592-0.697,0.721-0.931c0.128-0.232,0.193-0.474,0.193-0.723c0-0.128-0.02-0.241-0.061-0.338
					c-0.041-0.098-0.096-0.179-0.167-0.243c-0.072-0.062-0.156-0.108-0.251-0.14s-0.2-0.047-0.314-0.047
					c-0.11,0-0.221,0.015-0.334,0.042c-0.113,0.028-0.221,0.063-0.325,0.104c-0.087,0.035-0.171,0.078-0.252,0.127
					c-0.081,0.05-0.146,0.093-0.196,0.128h-0.034v-0.659c0.128-0.063,0.307-0.127,0.536-0.188c0.229-0.062,0.446-0.092,0.651-0.092
					c0.431,0,0.769,0.114,1.013,0.343c0.245,0.229,0.367,0.54,0.367,0.932c0,0.18-0.021,0.347-0.063,0.5s-0.101,0.295-0.176,0.426
					c-0.077,0.135-0.169,0.269-0.276,0.4c-0.108,0.133-0.222,0.264-0.342,0.392c-0.195,0.212-0.412,0.432-0.651,0.659
					s-0.43,0.408-0.573,0.541h2.275V111.051z"/>
				<path d="M218.624,109.578c0,0.224-0.036,0.431-0.107,0.621c-0.071,0.19-0.171,0.355-0.3,0.494
					c-0.13,0.141-0.292,0.252-0.486,0.333c-0.194,0.08-0.411,0.121-0.651,0.121c-0.222,0-0.439-0.024-0.654-0.073
					s-0.4-0.112-0.558-0.191v-0.655h0.043c0.048,0.035,0.116,0.075,0.205,0.119c0.089,0.045,0.188,0.087,0.295,0.126
					c0.122,0.044,0.234,0.077,0.335,0.102c0.102,0.023,0.216,0.035,0.342,0.035c0.124,0,0.245-0.022,0.363-0.066
					c0.118-0.045,0.22-0.117,0.305-0.216c0.077-0.092,0.135-0.198,0.176-0.32c0.04-0.122,0.061-0.267,0.061-0.433
					c0-0.163-0.022-0.298-0.067-0.403c-0.044-0.106-0.109-0.193-0.194-0.262c-0.089-0.078-0.198-0.134-0.328-0.166
					c-0.13-0.032-0.274-0.048-0.434-0.048c-0.168,0-0.337,0.013-0.507,0.039c-0.17,0.025-0.306,0.05-0.407,0.072v-2.384h2.539v0.544
					h-1.939v1.231c0.075-0.009,0.148-0.015,0.221-0.019c0.072-0.005,0.139-0.007,0.199-0.007c0.236,0,0.436,0.02,0.6,0.06
					c0.164,0.039,0.321,0.115,0.473,0.229c0.153,0.116,0.271,0.261,0.353,0.436C218.583,109.071,218.624,109.298,218.624,109.578z"
					/>
			</g>
		</g>
		<g id="SOLID_10_">
			<polygon points="184.57,92.536 183.658,93.289 181.855,90.174 			"/>
		</g>
		<g id="POINT_15_">
			
				<line fill="none" stroke="#000000" stroke-width="0" stroke-linecap="round" stroke-linejoin="round" stroke-miterlimit="10" x1="181.855" y1="90.174" x2="181.855" y2="90.174"/>
		</g>
		<g id="POINT_16_">
			
				<line fill="none" stroke="#000000" stroke-width="0" stroke-linecap="round" stroke-linejoin="round" stroke-miterlimit="10" x1="176.119" y1="83.217" x2="176.119" y2="83.217"/>
		</g>
	</g>
	<g id="DIMENSION_6_">
		<g id="LINE_84_">
			
				<line fill="none" stroke="#000000" stroke-width="0.7087" stroke-linecap="round" stroke-linejoin="round" stroke-miterlimit="10" x1="484.938" y1="103.956" x2="512.666" y2="103.956"/>
		</g>
		<g id="LINE_85_">
			
				<line fill="none" stroke="#000000" stroke-width="0.7087" stroke-linecap="round" stroke-linejoin="round" stroke-miterlimit="10" x1="484.938" y1="47.151" x2="512.666" y2="47.151"/>
		</g>
		<g id="LINE_86_">
			
				<line fill="none" stroke="#000000" stroke-width="0.7087" stroke-linecap="round" stroke-linejoin="round" stroke-miterlimit="10" x1="508.157" y1="100.406" x2="508.157" y2="78.906"/>
		</g>
		<g id="LINE_87_">
			
				<line fill="none" stroke="#000000" stroke-width="0.7087" stroke-linecap="round" stroke-linejoin="round" stroke-miterlimit="10" x1="508.157" y1="50.701" x2="508.157" y2="72.201"/>
		</g>
		<g id="SOLID_11_">
			<polygon points="507.565,100.406 508.749,100.406 508.157,103.956 			"/>
		</g>
		<g id="SOLID_12_">
			<polygon points="507.565,50.701 508.749,50.701 508.157,47.151 			"/>
		</g>
		<g id="MTEXT_23_">
			<g>
				<path d="M501.968,77.672h-0.743v-0.886h0.743V77.672z"/>
				<path d="M505.52,77.672h-2.256v-0.473h0.84v-3.102h-0.84v-0.422c0.317,0,0.551-0.046,0.701-0.136s0.234-0.261,0.253-0.511h0.481
					v4.17h0.82V77.672z"/>
				<path d="M509.178,76.199c0,0.224-0.035,0.431-0.107,0.621c-0.07,0.19-0.171,0.355-0.299,0.494
					c-0.131,0.141-0.293,0.252-0.486,0.333c-0.194,0.08-0.411,0.121-0.652,0.121c-0.221,0-0.439-0.024-0.653-0.073
					s-0.4-0.112-0.558-0.191v-0.655h0.043c0.048,0.035,0.116,0.075,0.205,0.119c0.09,0.045,0.188,0.087,0.295,0.126
					c0.123,0.044,0.234,0.077,0.336,0.102c0.102,0.023,0.216,0.035,0.342,0.035c0.125,0,0.246-0.022,0.363-0.066
					c0.119-0.045,0.221-0.117,0.305-0.216c0.077-0.092,0.136-0.198,0.176-0.32c0.041-0.122,0.061-0.267,0.061-0.433
					c0-0.163-0.021-0.298-0.066-0.403c-0.045-0.106-0.109-0.193-0.194-0.262c-0.089-0.078-0.198-0.134-0.327-0.166
					c-0.131-0.032-0.275-0.048-0.434-0.048c-0.168,0-0.338,0.013-0.508,0.039c-0.17,0.025-0.305,0.05-0.406,0.072v-2.384h2.539
					v0.544h-1.939v1.231c0.074-0.009,0.148-0.015,0.221-0.019c0.072-0.005,0.139-0.007,0.199-0.007c0.236,0,0.436,0.02,0.6,0.06
					c0.164,0.039,0.32,0.115,0.473,0.229c0.152,0.116,0.271,0.261,0.352,0.436C509.137,75.692,509.178,75.919,509.178,76.199z"/>
				<path d="M512.755,73.737l-2.001,3.935h-0.662l2.119-4.084h-2.393v-0.544h2.937V73.737z"/>
				<path d="M516.127,76.199c0,0.224-0.035,0.431-0.107,0.621c-0.071,0.19-0.172,0.355-0.3,0.494
					c-0.13,0.141-0.292,0.252-0.486,0.333c-0.194,0.08-0.411,0.121-0.651,0.121c-0.222,0-0.439-0.024-0.654-0.073
					c-0.214-0.049-0.4-0.112-0.558-0.191v-0.655h0.044c0.047,0.035,0.115,0.075,0.205,0.119c0.089,0.045,0.188,0.087,0.295,0.126
					c0.122,0.044,0.234,0.077,0.336,0.102c0.102,0.023,0.215,0.035,0.342,0.035c0.124,0,0.245-0.022,0.363-0.066
					c0.118-0.045,0.22-0.117,0.305-0.216c0.076-0.092,0.135-0.198,0.176-0.32c0.04-0.122,0.061-0.267,0.061-0.433
					c0-0.163-0.022-0.298-0.066-0.403c-0.045-0.106-0.109-0.193-0.195-0.262c-0.088-0.078-0.197-0.134-0.327-0.166
					s-0.274-0.048-0.434-0.048c-0.168,0-0.337,0.013-0.507,0.039c-0.17,0.025-0.306,0.05-0.407,0.072v-2.384h2.539v0.544h-1.938
					v1.231c0.074-0.009,0.147-0.015,0.221-0.019c0.072-0.005,0.139-0.007,0.198-0.007c0.236,0,0.437,0.02,0.6,0.06
					c0.164,0.039,0.321,0.115,0.473,0.229c0.153,0.116,0.271,0.261,0.353,0.436C516.086,75.692,516.127,75.919,516.127,76.199z"/>
			</g>
		</g>
		<g id="POINT_17_">
			
				<line fill="none" stroke="#000000" stroke-width="0" stroke-linecap="round" stroke-linejoin="round" stroke-miterlimit="10" x1="482.685" y1="103.956" x2="482.685" y2="103.956"/>
		</g>
		<g id="POINT_18_">
			
				<line fill="none" stroke="#000000" stroke-width="0" stroke-linecap="round" stroke-linejoin="round" stroke-miterlimit="10" x1="482.685" y1="47.151" x2="482.685" y2="47.151"/>
		</g>
		<g id="POINT_19_">
			
				<line fill="none" stroke="#000000" stroke-width="0" stroke-linecap="round" stroke-linejoin="round" stroke-miterlimit="10" x1="508.157" y1="47.151" x2="508.157" y2="47.151"/>
		</g>
	</g>
	<g id="DIMENSION_7_">
		<g id="LINE_88_">
			
				<line fill="none" stroke="#000000" stroke-width="0.7087" stroke-linecap="round" stroke-linejoin="round" stroke-miterlimit="10" x1="596.745" y1="207.647" x2="613.198" y2="207.647"/>
		</g>
		<g id="LINE_89_">
			
				<line fill="none" stroke="#000000" stroke-width="0.7087" stroke-linecap="round" stroke-linejoin="round" stroke-miterlimit="10" x1="596.745" y1="234.697" x2="613.198" y2="234.697"/>
		</g>
		<g id="LINE_90_">
			
				<line fill="none" stroke="#000000" stroke-width="0.7087" stroke-linecap="round" stroke-linejoin="round" stroke-miterlimit="10" x1="608.69" y1="211.197" x2="608.69" y2="217.783"/>
		</g>
		<g id="LINE_91_">
			
				<line fill="none" stroke="#000000" stroke-width="0.7087" stroke-linecap="round" stroke-linejoin="round" stroke-miterlimit="10" x1="608.69" y1="231.147" x2="608.69" y2="224.561"/>
		</g>
		<g id="SOLID_13_">
			<polygon points="608.099,211.197 609.282,211.197 608.69,207.647 			"/>
		</g>
		<g id="SOLID_14_">
			<polygon points="608.099,231.147 609.282,231.147 608.69,234.697 			"/>
		</g>
		<g id="MTEXT_24_">
			<g>
				<path d="M604.125,223.293h-0.742v-0.886h0.742V223.293z"/>
				<path d="M607.936,220.978c0,0.831-0.121,1.44-0.361,1.829c-0.242,0.389-0.614,0.583-1.117,0.583
					c-0.51,0-0.885-0.198-1.123-0.594s-0.357-1-0.357-1.812c0-0.835,0.121-1.446,0.363-1.832c0.24-0.387,0.613-0.58,1.117-0.58
					c0.51,0,0.883,0.2,1.121,0.6C607.816,219.572,607.936,220.174,607.936,220.978z M607.141,222.389
					c0.06-0.153,0.102-0.347,0.127-0.581s0.037-0.511,0.037-0.83c0-0.316-0.012-0.593-0.037-0.826
					c-0.025-0.234-0.068-0.43-0.131-0.585c-0.063-0.157-0.147-0.276-0.256-0.358c-0.109-0.082-0.25-0.123-0.424-0.123
					c-0.172,0-0.314,0.041-0.425,0.123s-0.198,0.203-0.263,0.365c-0.063,0.157-0.104,0.356-0.127,0.597
					c-0.023,0.24-0.035,0.512-0.035,0.814c0,0.322,0.01,0.593,0.03,0.811c0.02,0.218,0.063,0.412,0.129,0.584
					c0.06,0.16,0.146,0.282,0.257,0.368c0.11,0.087,0.255,0.13,0.434,0.13c0.172,0,0.313-0.041,0.424-0.123
					S607.078,222.55,607.141,222.389z"/>
				<path d="M611.438,219.358l-2.001,3.935h-0.662l2.119-4.084h-2.393v-0.544h2.937V219.358z"/>
				<path d="M614.811,221.82c0,0.224-0.036,0.431-0.107,0.621c-0.072,0.19-0.172,0.355-0.301,0.494
					c-0.13,0.141-0.292,0.252-0.486,0.333c-0.193,0.08-0.41,0.121-0.65,0.121c-0.223,0-0.439-0.024-0.654-0.073
					s-0.4-0.112-0.559-0.191v-0.655h0.044c0.048,0.035,0.116,0.075,0.205,0.119c0.089,0.045,0.188,0.087,0.296,0.126
					c0.121,0.044,0.233,0.077,0.335,0.102c0.102,0.023,0.216,0.035,0.343,0.035c0.123,0,0.244-0.022,0.363-0.066
					c0.117-0.045,0.219-0.117,0.305-0.216c0.076-0.092,0.135-0.198,0.176-0.32c0.039-0.122,0.061-0.267,0.061-0.433
					c0-0.163-0.023-0.298-0.067-0.403c-0.044-0.106-0.109-0.193-0.194-0.262c-0.089-0.078-0.198-0.134-0.328-0.166
					c-0.129-0.032-0.273-0.048-0.434-0.048c-0.168,0-0.336,0.013-0.506,0.039c-0.17,0.025-0.307,0.05-0.408,0.072v-2.384h2.539
					v0.544h-1.938v1.231c0.075-0.009,0.147-0.015,0.221-0.019c0.072-0.005,0.139-0.007,0.198-0.007c0.236,0,0.437,0.02,0.6,0.06
					c0.164,0.039,0.322,0.115,0.473,0.229c0.154,0.116,0.271,0.261,0.354,0.436C614.77,221.313,614.811,221.54,614.811,221.82z"/>
			</g>
		</g>
		<g id="POINT_20_">
			
				<line fill="none" stroke="#000000" stroke-width="0" stroke-linecap="round" stroke-linejoin="round" stroke-miterlimit="10" x1="594.49" y1="207.647" x2="594.49" y2="207.647"/>
		</g>
		<g id="POINT_21_">
			
				<line fill="none" stroke="#000000" stroke-width="0" stroke-linecap="round" stroke-linejoin="round" stroke-miterlimit="10" x1="594.49" y1="234.697" x2="594.49" y2="234.697"/>
		</g>
		<g id="POINT_22_">
			
				<line fill="none" stroke="#000000" stroke-width="0" stroke-linecap="round" stroke-linejoin="round" stroke-miterlimit="10" x1="608.69" y1="234.697" x2="608.69" y2="234.697"/>
		</g>
	</g>
	<g id="DIMENSION_8_">
		<g id="LINE_92_">
			
				<line fill="none" stroke="#000000" stroke-width="0.7087" stroke-linecap="round" stroke-linejoin="round" stroke-miterlimit="10" x1="596.745" y1="103.956" x2="630.924" y2="103.956"/>
		</g>
		<g id="LINE_93_">
			
				<line fill="none" stroke="#000000" stroke-width="0.7087" stroke-linecap="round" stroke-linejoin="round" stroke-miterlimit="10" x1="596.745" y1="207.647" x2="630.924" y2="207.647"/>
		</g>
		<g id="LINE_94_">
			
				<line fill="none" stroke="#000000" stroke-width="0.7087" stroke-linecap="round" stroke-linejoin="round" stroke-miterlimit="10" x1="626.416" y1="107.505" x2="626.416" y2="152.402"/>
		</g>
		<g id="LINE_95_">
			
				<line fill="none" stroke="#000000" stroke-width="0.7087" stroke-linecap="round" stroke-linejoin="round" stroke-miterlimit="10" x1="626.416" y1="204.097" x2="626.416" y2="159.2"/>
		</g>
		<g id="SOLID_15_">
			<polygon points="625.824,107.505 627.008,107.505 626.416,103.956 			"/>
		</g>
		<g id="SOLID_16_">
			<polygon points="625.824,204.097 627.008,204.097 626.416,207.647 			"/>
		</g>
		<g id="MTEXT_25_">
			<g>
				<path d="M620.227,157.916h-0.743v-0.886h0.743V157.916z"/>
				<path d="M624.015,157.916h-2.856v-0.649c0.205-0.195,0.399-0.381,0.582-0.56c0.182-0.178,0.359-0.363,0.534-0.557
					c0.353-0.387,0.593-0.697,0.721-0.931c0.128-0.232,0.192-0.474,0.192-0.723c0-0.128-0.02-0.241-0.061-0.338
					c-0.04-0.098-0.096-0.179-0.166-0.243c-0.072-0.062-0.156-0.108-0.252-0.14c-0.095-0.031-0.199-0.047-0.313-0.047
					c-0.11,0-0.222,0.015-0.334,0.042c-0.113,0.028-0.222,0.063-0.325,0.104c-0.087,0.035-0.17,0.078-0.252,0.127
					c-0.08,0.05-0.146,0.093-0.195,0.128h-0.034v-0.659c0.128-0.063,0.308-0.127,0.536-0.188c0.229-0.062,0.445-0.092,0.65-0.092
					c0.432,0,0.77,0.114,1.014,0.343c0.244,0.229,0.367,0.54,0.367,0.932c0,0.18-0.021,0.347-0.064,0.5
					c-0.042,0.153-0.101,0.295-0.176,0.426c-0.076,0.135-0.168,0.269-0.275,0.4c-0.108,0.133-0.223,0.264-0.342,0.392
					c-0.195,0.212-0.412,0.432-0.652,0.659c-0.238,0.228-0.43,0.408-0.572,0.541h2.274V157.916z"/>
				<path d="M626.031,158.021c-0.229,0-0.439-0.034-0.627-0.103c-0.189-0.068-0.35-0.167-0.482-0.295
					c-0.131-0.124-0.229-0.272-0.297-0.443c-0.066-0.171-0.101-0.352-0.101-0.542c0-0.251,0.067-0.481,0.2-0.691
					c0.134-0.21,0.328-0.378,0.583-0.502v-0.019c-0.228-0.133-0.397-0.277-0.507-0.436c-0.109-0.157-0.164-0.354-0.164-0.59
					c0-0.349,0.131-0.639,0.395-0.87c0.263-0.232,0.596-0.349,1-0.349c0.421,0,0.758,0.11,1.012,0.331s0.381,0.503,0.381,0.847
					c0,0.208-0.061,0.413-0.182,0.616c-0.121,0.202-0.296,0.361-0.523,0.475v0.019c0.27,0.127,0.473,0.28,0.611,0.46
					c0.14,0.181,0.209,0.413,0.209,0.696c0,0.396-0.144,0.728-0.431,0.995C626.821,157.888,626.463,158.021,626.031,158.021z
					 M626.902,156.686c0-0.19-0.037-0.342-0.112-0.454c-0.075-0.111-0.219-0.226-0.433-0.342c-0.07-0.039-0.164-0.082-0.281-0.127
					c-0.117-0.046-0.248-0.1-0.396-0.162c-0.173,0.114-0.304,0.255-0.396,0.421c-0.09,0.167-0.137,0.357-0.137,0.57
					c0,0.28,0.085,0.511,0.254,0.693s0.381,0.273,0.636,0.273c0.261,0,0.47-0.078,0.628-0.234
					C626.823,157.168,626.902,156.955,626.902,156.686z M626.814,154.367c0-0.207-0.068-0.381-0.208-0.52
					c-0.139-0.139-0.331-0.208-0.578-0.208c-0.226,0-0.411,0.063-0.555,0.187s-0.216,0.292-0.216,0.504
					c0,0.153,0.037,0.282,0.11,0.388c0.073,0.106,0.185,0.201,0.331,0.286c0.064,0.035,0.162,0.084,0.293,0.146
					c0.133,0.062,0.252,0.11,0.359,0.146c0.181-0.139,0.303-0.281,0.367-0.427C626.783,154.723,626.814,154.556,626.814,154.367z"/>
				<path d="M631.014,153.981l-2.002,3.935h-0.662l2.119-4.084h-2.393v-0.544h2.938V153.981z"/>
				<path d="M634.385,156.443c0,0.224-0.035,0.431-0.107,0.621c-0.07,0.19-0.171,0.355-0.299,0.494
					c-0.131,0.141-0.293,0.252-0.486,0.333c-0.194,0.08-0.411,0.121-0.652,0.121c-0.221,0-0.439-0.024-0.653-0.073
					s-0.4-0.112-0.558-0.191v-0.655h0.043c0.048,0.035,0.116,0.075,0.205,0.119c0.09,0.045,0.188,0.087,0.295,0.126
					c0.123,0.044,0.234,0.077,0.336,0.102c0.102,0.023,0.216,0.035,0.342,0.035c0.125,0,0.246-0.022,0.363-0.066
					c0.119-0.045,0.221-0.117,0.305-0.216c0.077-0.092,0.136-0.198,0.176-0.32c0.041-0.122,0.061-0.267,0.061-0.433
					c0-0.163-0.021-0.298-0.066-0.403c-0.045-0.106-0.109-0.193-0.194-0.262c-0.089-0.078-0.198-0.134-0.327-0.166
					c-0.131-0.032-0.275-0.048-0.434-0.048c-0.168,0-0.338,0.013-0.508,0.039c-0.17,0.025-0.305,0.05-0.406,0.072v-2.384h2.539
					v0.544h-1.939v1.231c0.074-0.009,0.148-0.015,0.221-0.019c0.072-0.005,0.139-0.007,0.199-0.007c0.236,0,0.436,0.02,0.6,0.06
					c0.164,0.039,0.32,0.115,0.473,0.229c0.152,0.116,0.271,0.261,0.352,0.436C634.344,155.937,634.385,156.163,634.385,156.443z"/>
			</g>
		</g>
		<g id="POINT_23_">
			
				<line fill="none" stroke="#000000" stroke-width="0" stroke-linecap="round" stroke-linejoin="round" stroke-miterlimit="10" x1="594.49" y1="103.956" x2="594.49" y2="103.956"/>
		</g>
		<g id="POINT_24_">
			
				<line fill="none" stroke="#000000" stroke-width="0" stroke-linecap="round" stroke-linejoin="round" stroke-miterlimit="10" x1="594.49" y1="207.647" x2="594.49" y2="207.647"/>
		</g>
		<g id="POINT_25_">
			
				<line fill="none" stroke="#000000" stroke-width="0" stroke-linecap="round" stroke-linejoin="round" stroke-miterlimit="10" x1="626.416" y1="207.647" x2="626.416" y2="207.647"/>
		</g>
	</g>
	<g id="DIMENSION_9_">
		<g id="LINE_96_">
			
				<line fill="none" stroke="#000000" stroke-width="0.7087" stroke-linecap="round" stroke-linejoin="round" stroke-miterlimit="10" x1="596.745" y1="234.697" x2="641.237" y2="234.697"/>
		</g>
		<g id="LINE_97_">
			
				<line fill="none" stroke="#000000" stroke-width="0.7087" stroke-linecap="round" stroke-linejoin="round" stroke-miterlimit="10" x1="596.745" y1="392.488" x2="641.237" y2="392.488"/>
		</g>
		<g id="LINE_98_">
			
				<line fill="none" stroke="#000000" stroke-width="0.7087" stroke-linecap="round" stroke-linejoin="round" stroke-miterlimit="10" x1="636.729" y1="238.247" x2="636.729" y2="310.202"/>
		</g>
		<g id="LINE_99_">
			
				<line fill="none" stroke="#000000" stroke-width="0.7087" stroke-linecap="round" stroke-linejoin="round" stroke-miterlimit="10" x1="636.729" y1="388.938" x2="636.729" y2="316.982"/>
		</g>
		<g id="SOLID_17_">
			<polygon points="636.137,238.247 637.32,238.247 636.729,234.697 			"/>
		</g>
		<g id="SOLID_18_">
			<polygon points="636.137,388.938 637.32,388.938 636.729,392.488 			"/>
		</g>
		<g id="MTEXT_26_">
			<g>
				<path d="M630.539,315.712h-0.742v-0.886h0.742V315.712z"/>
				<path d="M634.449,314.121h-0.551v1.591h-0.596v-1.591h-2.045v-0.653l2.068-2.384h0.572v2.539h0.551V314.121z M633.303,313.623
					v-1.809l-1.561,1.809H633.303z"/>
				<path d="M636.195,311.525c-0.111,0-0.224,0.014-0.336,0.041c-0.111,0.026-0.221,0.062-0.329,0.105
					c-0.099,0.041-0.187,0.085-0.259,0.131c-0.074,0.045-0.141,0.088-0.197,0.127h-0.038v-0.655
					c0.135-0.073,0.317-0.139,0.549-0.197c0.231-0.06,0.451-0.089,0.66-0.089c0.21,0,0.392,0.021,0.549,0.063
					c0.156,0.043,0.298,0.108,0.424,0.197c0.137,0.1,0.239,0.22,0.31,0.36c0.069,0.142,0.104,0.306,0.104,0.494
					c0,0.255-0.084,0.479-0.252,0.672c-0.167,0.192-0.368,0.314-0.602,0.366v0.044c0.097,0.019,0.201,0.051,0.312,0.096
					c0.11,0.046,0.214,0.113,0.31,0.202c0.096,0.09,0.173,0.204,0.232,0.344c0.061,0.14,0.09,0.311,0.09,0.511
					c0,0.21-0.035,0.401-0.106,0.577c-0.071,0.175-0.173,0.33-0.304,0.464c-0.135,0.142-0.297,0.248-0.487,0.32
					c-0.19,0.073-0.407,0.109-0.649,0.109c-0.232,0-0.462-0.028-0.689-0.084c-0.229-0.057-0.42-0.123-0.576-0.202v-0.656h0.044
					c0.131,0.096,0.306,0.187,0.525,0.273c0.22,0.088,0.439,0.131,0.659,0.131c0.126,0,0.253-0.021,0.381-0.061
					c0.127-0.04,0.232-0.106,0.318-0.197c0.082-0.091,0.146-0.191,0.189-0.302c0.043-0.109,0.064-0.248,0.064-0.416
					s-0.023-0.306-0.072-0.413c-0.049-0.108-0.117-0.193-0.203-0.255c-0.088-0.063-0.19-0.105-0.31-0.129
					c-0.119-0.024-0.249-0.036-0.388-0.036h-0.264v-0.516h0.205c0.279,0,0.508-0.066,0.682-0.199
					c0.176-0.133,0.264-0.325,0.264-0.578c0-0.116-0.023-0.216-0.068-0.3c-0.046-0.084-0.104-0.15-0.174-0.2
					c-0.08-0.054-0.166-0.092-0.262-0.112S636.303,311.525,636.195,311.525z"/>
				<path d="M641.326,311.777l-2.002,3.935h-0.662l2.12-4.084h-2.394v-0.544h2.938V311.777z"/>
				<path d="M644.698,314.239c0,0.224-0.036,0.431-0.107,0.621s-0.171,0.355-0.3,0.494c-0.131,0.141-0.293,0.252-0.486,0.333
					c-0.193,0.08-0.41,0.121-0.651,0.121c-0.222,0-0.439-0.024-0.653-0.073c-0.215-0.049-0.4-0.112-0.559-0.191v-0.655h0.043
					c0.049,0.035,0.117,0.075,0.205,0.119c0.09,0.045,0.188,0.087,0.296,0.126c0.122,0.044,0.233,0.077,0.335,0.102
					c0.102,0.023,0.217,0.035,0.343,0.035c0.124,0,0.245-0.022,0.363-0.066c0.118-0.045,0.22-0.117,0.305-0.216
					c0.077-0.092,0.136-0.198,0.176-0.32s0.061-0.267,0.061-0.433c0-0.163-0.022-0.298-0.067-0.403
					c-0.044-0.106-0.109-0.193-0.193-0.262c-0.09-0.078-0.199-0.134-0.328-0.166c-0.13-0.032-0.274-0.048-0.434-0.048
					c-0.168,0-0.337,0.013-0.507,0.039c-0.17,0.025-0.306,0.05-0.407,0.072v-2.384h2.539v0.544h-1.939v1.231
					c0.075-0.009,0.148-0.015,0.221-0.019c0.072-0.005,0.139-0.007,0.199-0.007c0.236,0,0.436,0.02,0.6,0.06
					c0.164,0.039,0.321,0.115,0.473,0.229c0.153,0.116,0.271,0.261,0.353,0.436C644.657,313.732,644.698,313.959,644.698,314.239z"
					/>
			</g>
		</g>
		<g id="POINT_26_">
			
				<line fill="none" stroke="#000000" stroke-width="0" stroke-linecap="round" stroke-linejoin="round" stroke-miterlimit="10" x1="594.49" y1="234.697" x2="594.49" y2="234.697"/>
		</g>
		<g id="POINT_27_">
			
				<line fill="none" stroke="#000000" stroke-width="0" stroke-linecap="round" stroke-linejoin="round" stroke-miterlimit="10" x1="594.49" y1="392.488" x2="594.49" y2="392.488"/>
		</g>
		<g id="POINT_28_">
			
				<line fill="none" stroke="#000000" stroke-width="0" stroke-linecap="round" stroke-linejoin="round" stroke-miterlimit="10" x1="636.729" y1="392.488" x2="636.729" y2="392.488"/>
		</g>
	</g>
	<g id="DIMENSION_10_">
		<g id="LINE_101_">
			
				<line fill="none" stroke="#000000" stroke-width="0.7087" stroke-linecap="round" stroke-linejoin="round" stroke-miterlimit="10" x1="601.704" y1="108.915" x2="601.704" y2="92.461"/>
		</g>
		<g id="LINE_102_">
			
				<line fill="none" stroke="#000000" stroke-width="0.7087" stroke-linecap="round" stroke-linejoin="round" stroke-miterlimit="10" x1="598.154" y1="96.97" x2="535.549" y2="96.97"/>
		</g>
		<g id="LINE_103_">
			
				<line fill="none" stroke="#000000" stroke-width="0.7087" stroke-linecap="round" stroke-linejoin="round" stroke-miterlimit="10" x1="486.234" y1="96.97" x2="525.865" y2="96.97"/>
		</g>
		<g id="SOLID_19_">
			<polygon points="598.154,96.378 598.154,97.561 601.704,96.97 			"/>
		</g>
		<g id="SOLID_20_">
			<polygon points="486.234,96.378 486.234,97.561 482.685,96.97 			"/>
		</g>
		<g id="MTEXT_27_">
			<g>
				<path d="M527.779,99.089h-0.742v-0.886h0.742V99.089z"/>
				<path d="M529.961,94.902c-0.111,0-0.223,0.014-0.335,0.041c-0.112,0.026-0.222,0.062-0.329,0.105
					c-0.1,0.041-0.187,0.085-0.26,0.131c-0.074,0.045-0.14,0.088-0.197,0.127h-0.037v-0.655c0.135-0.073,0.317-0.139,0.549-0.197
					c0.23-0.06,0.451-0.089,0.66-0.089s0.392,0.021,0.549,0.063c0.156,0.043,0.297,0.108,0.424,0.197
					c0.137,0.1,0.239,0.22,0.309,0.36c0.07,0.142,0.104,0.306,0.104,0.494c0,0.255-0.084,0.479-0.252,0.672
					c-0.167,0.192-0.368,0.314-0.603,0.366v0.044c0.098,0.019,0.201,0.051,0.313,0.096c0.11,0.046,0.213,0.113,0.309,0.202
					c0.096,0.09,0.174,0.204,0.233,0.344s0.09,0.311,0.09,0.511c0,0.21-0.036,0.401-0.106,0.577
					c-0.072,0.175-0.173,0.33-0.304,0.464c-0.135,0.142-0.298,0.248-0.487,0.32c-0.191,0.073-0.408,0.109-0.65,0.109
					c-0.231,0-0.461-0.028-0.689-0.084c-0.229-0.057-0.42-0.123-0.575-0.202v-0.656h0.044c0.131,0.096,0.305,0.187,0.525,0.273
					c0.219,0.088,0.439,0.131,0.658,0.131c0.127,0,0.254-0.021,0.381-0.061s0.233-0.106,0.318-0.197
					c0.083-0.091,0.146-0.191,0.189-0.302c0.044-0.109,0.065-0.248,0.065-0.416s-0.024-0.306-0.073-0.413
					c-0.049-0.108-0.116-0.193-0.203-0.255c-0.087-0.063-0.189-0.105-0.309-0.129c-0.119-0.024-0.249-0.036-0.388-0.036h-0.265
					v-0.516h0.205c0.28,0,0.508-0.066,0.683-0.199s0.263-0.325,0.263-0.578c0-0.116-0.023-0.216-0.068-0.3s-0.104-0.15-0.174-0.2
					c-0.079-0.054-0.166-0.092-0.262-0.112C530.171,94.913,530.069,94.902,529.961,94.902z"/>
				<path d="M533.436,94.902c-0.111,0-0.223,0.014-0.335,0.041c-0.112,0.026-0.222,0.062-0.329,0.105
					c-0.1,0.041-0.187,0.085-0.26,0.131c-0.074,0.045-0.14,0.088-0.197,0.127h-0.037v-0.655c0.135-0.073,0.317-0.139,0.549-0.197
					c0.23-0.06,0.451-0.089,0.66-0.089s0.392,0.021,0.549,0.063c0.156,0.043,0.297,0.108,0.424,0.197
					c0.137,0.1,0.239,0.22,0.309,0.36c0.07,0.142,0.104,0.306,0.104,0.494c0,0.255-0.084,0.479-0.252,0.672
					c-0.167,0.192-0.368,0.314-0.603,0.366v0.044c0.098,0.019,0.201,0.051,0.313,0.096c0.11,0.046,0.213,0.113,0.309,0.202
					c0.096,0.09,0.174,0.204,0.233,0.344s0.09,0.311,0.09,0.511c0,0.21-0.036,0.401-0.106,0.577
					c-0.072,0.175-0.173,0.33-0.304,0.464c-0.135,0.142-0.298,0.248-0.487,0.32c-0.191,0.073-0.408,0.109-0.65,0.109
					c-0.231,0-0.461-0.028-0.689-0.084c-0.229-0.057-0.42-0.123-0.575-0.202v-0.656h0.044c0.131,0.096,0.305,0.187,0.525,0.273
					c0.219,0.088,0.439,0.131,0.658,0.131c0.127,0,0.254-0.021,0.381-0.061s0.233-0.106,0.318-0.197
					c0.083-0.091,0.146-0.191,0.189-0.302c0.044-0.109,0.065-0.248,0.065-0.416s-0.024-0.306-0.073-0.413
					c-0.049-0.108-0.116-0.193-0.203-0.255c-0.087-0.063-0.189-0.105-0.309-0.129c-0.119-0.024-0.249-0.036-0.388-0.036h-0.265
					v-0.516h0.205c0.28,0,0.508-0.066,0.683-0.199s0.263-0.325,0.263-0.578c0-0.116-0.023-0.216-0.068-0.3s-0.104-0.15-0.174-0.2
					c-0.079-0.054-0.166-0.092-0.262-0.112C533.646,94.913,533.544,94.902,533.436,94.902z"/>
			</g>
		</g>
		<g id="POINT_29_">
			
				<line fill="none" stroke="#000000" stroke-width="0" stroke-linecap="round" stroke-linejoin="round" stroke-miterlimit="10" x1="601.704" y1="111.169" x2="601.704" y2="111.169"/>
		</g>
		<g id="POINT_30_">
			
				<line fill="none" stroke="#000000" stroke-width="0" stroke-linecap="round" stroke-linejoin="round" stroke-miterlimit="10" x1="482.685" y1="98.095" x2="482.685" y2="98.095"/>
		</g>
		<g id="POINT_31_">
			
				<line fill="none" stroke="#000000" stroke-width="0" stroke-linecap="round" stroke-linejoin="round" stroke-miterlimit="10" x1="482.685" y1="96.97" x2="482.685" y2="96.97"/>
		</g>
	</g>
	<g id="DIMENSION_11_">
		<g id="LINE_104_">
			
				<line fill="none" stroke="#000000" stroke-width="0.7087" stroke-linecap="round" stroke-linejoin="round" stroke-miterlimit="10" x1="601.704" y1="244.165" x2="601.704" y2="256.116"/>
		</g>
		<g id="LINE_105_">
			
				<line fill="none" stroke="#000000" stroke-width="0.7087" stroke-linecap="round" stroke-linejoin="round" stroke-miterlimit="10" x1="594.49" y1="236.951" x2="594.49" y2="256.116"/>
		</g>
		<g id="LINE_106_">
			
				<line fill="none" stroke="#000000" stroke-width="0.7087" stroke-linecap="round" stroke-linejoin="round" stroke-miterlimit="10" x1="590.94" y1="251.608" x2="587.391" y2="251.608"/>
		</g>
		<g id="LINE_107_">
			
				<line fill="none" stroke="#000000" stroke-width="0.7087" stroke-linecap="round" stroke-linejoin="round" stroke-miterlimit="10" x1="605.254" y1="251.608" x2="610.006" y2="251.608"/>
		</g>
		<g id="SOLID_21_">
			<polygon points="590.94,251.017 590.94,252.2 594.49,251.608 			"/>
		</g>
		<g id="SOLID_22_">
			<polygon points="605.254,251.017 605.254,252.2 601.704,251.608 			"/>
		</g>
		<g id="MTEXT_28_">
			<g>
				<path d="M611.921,253.728h-0.743v-0.886h0.743V253.728z"/>
				<path d="M615.73,251.412c0,0.831-0.12,1.44-0.361,1.829s-0.613,0.583-1.117,0.583c-0.51,0-0.884-0.198-1.122-0.594
					s-0.357-1-0.357-1.812c0-0.835,0.12-1.446,0.362-1.832c0.241-0.387,0.613-0.58,1.117-0.58c0.51,0,0.884,0.2,1.122,0.6
					C615.611,250.007,615.73,250.608,615.73,251.412z M614.936,252.823c0.061-0.153,0.103-0.347,0.127-0.581
					c0.025-0.234,0.037-0.511,0.037-0.83c0-0.316-0.012-0.593-0.037-0.826c-0.024-0.234-0.068-0.43-0.13-0.585
					c-0.063-0.157-0.147-0.276-0.257-0.358c-0.108-0.082-0.25-0.123-0.424-0.123c-0.172,0-0.313,0.041-0.424,0.123
					c-0.111,0.082-0.199,0.203-0.264,0.365c-0.062,0.157-0.104,0.356-0.127,0.597c-0.022,0.24-0.034,0.512-0.034,0.814
					c0,0.322,0.01,0.593,0.03,0.811c0.02,0.218,0.063,0.412,0.129,0.584c0.06,0.16,0.145,0.282,0.256,0.368
					c0.111,0.087,0.256,0.13,0.434,0.13c0.172,0,0.313-0.041,0.424-0.123C614.787,253.106,614.873,252.984,614.936,252.823z"/>
				<path d="M619.184,253.728h-2.855v-0.649c0.205-0.195,0.398-0.381,0.581-0.56c0.183-0.178,0.36-0.363,0.534-0.557
					c0.353-0.387,0.593-0.697,0.721-0.931c0.129-0.232,0.193-0.474,0.193-0.723c0-0.128-0.02-0.241-0.061-0.338
					c-0.041-0.098-0.096-0.179-0.166-0.243c-0.072-0.062-0.156-0.108-0.252-0.14s-0.2-0.047-0.314-0.047
					c-0.109,0-0.221,0.015-0.334,0.042c-0.113,0.028-0.221,0.063-0.324,0.104c-0.088,0.035-0.171,0.078-0.252,0.127
					c-0.08,0.05-0.146,0.093-0.195,0.128h-0.035v-0.659c0.129-0.063,0.308-0.127,0.537-0.188c0.229-0.062,0.445-0.092,0.65-0.092
					c0.432,0,0.77,0.114,1.014,0.343c0.244,0.229,0.366,0.54,0.366,0.932c0,0.18-0.021,0.347-0.063,0.5s-0.102,0.295-0.176,0.426
					c-0.076,0.135-0.169,0.269-0.276,0.4c-0.108,0.133-0.222,0.264-0.342,0.392c-0.194,0.212-0.412,0.432-0.651,0.659
					s-0.43,0.408-0.573,0.541h2.274V253.728z"/>
			</g>
		</g>
		<g id="POINT_32_">
			
				<line fill="none" stroke="#000000" stroke-width="0" stroke-linecap="round" stroke-linejoin="round" stroke-miterlimit="10" x1="601.704" y1="241.91" x2="601.704" y2="241.91"/>
		</g>
		<g id="POINT_33_">
			
				<line fill="none" stroke="#000000" stroke-width="0" stroke-linecap="round" stroke-linejoin="round" stroke-miterlimit="10" x1="594.49" y1="234.697" x2="594.49" y2="234.697"/>
		</g>
		<g id="POINT_34_">
			
				<line fill="none" stroke="#000000" stroke-width="0" stroke-linecap="round" stroke-linejoin="round" stroke-miterlimit="10" x1="594.49" y1="251.608" x2="594.49" y2="251.608"/>
		</g>
	</g>
	<g id="DIMENSION_12_">
		<g id="LINE_108_">
			
				<line fill="none" stroke="#000000" stroke-width="0.7087" stroke-linecap="round" stroke-linejoin="round" stroke-miterlimit="10" x1="599.45" y1="241.91" x2="565.359" y2="241.91"/>
		</g>
		<g id="LINE_109_">
			
				<line fill="none" stroke="#000000" stroke-width="0.7087" stroke-linecap="round" stroke-linejoin="round" stroke-miterlimit="10" x1="569.868" y1="245.46" x2="569.868" y2="249.01"/>
		</g>
		<g id="LINE_110_">
			
				<line fill="none" stroke="#000000" stroke-width="0.7087" stroke-linecap="round" stroke-linejoin="round" stroke-miterlimit="10" x1="569.868" y1="231.147" x2="569.868" y2="224.356"/>
		</g>
		<g id="LINE_111_">
			
				<line fill="none" stroke="#000000" stroke-width="0.7087" stroke-linecap="round" stroke-linejoin="round" stroke-miterlimit="10" x1="569.868" y1="224.356" x2="573.418" y2="224.356"/>
		</g>
		<g id="SOLID_23_">
			<polygon points="569.276,245.46 570.46,245.46 569.868,241.91 			"/>
		</g>
		<g id="SOLID_24_">
			<polygon points="569.276,231.147 570.46,231.147 569.868,234.697 			"/>
		</g>
		<g id="MTEXT_29_">
			<g>
				<path d="M575.333,226.476h-0.743v-0.886h0.743V226.476z"/>
				<path d="M579.143,224.16c0,0.831-0.12,1.44-0.361,1.829s-0.613,0.583-1.117,0.583c-0.51,0-0.884-0.198-1.122-0.594
					s-0.357-1-0.357-1.812c0-0.835,0.12-1.446,0.362-1.832c0.241-0.387,0.613-0.58,1.117-0.58c0.51,0,0.884,0.2,1.122,0.6
					C579.023,222.755,579.143,223.356,579.143,224.16z M578.348,225.571c0.061-0.153,0.103-0.347,0.127-0.581
					c0.025-0.234,0.037-0.511,0.037-0.83c0-0.316-0.012-0.593-0.037-0.826c-0.024-0.234-0.068-0.43-0.13-0.585
					c-0.063-0.157-0.147-0.276-0.257-0.358c-0.108-0.082-0.25-0.123-0.424-0.123c-0.172,0-0.313,0.041-0.424,0.123
					c-0.111,0.082-0.199,0.203-0.264,0.365c-0.062,0.157-0.104,0.356-0.127,0.597c-0.022,0.24-0.034,0.512-0.034,0.814
					c0,0.322,0.01,0.593,0.03,0.811c0.02,0.218,0.063,0.412,0.129,0.584c0.06,0.16,0.145,0.282,0.256,0.368
					c0.111,0.087,0.256,0.13,0.434,0.13c0.172,0,0.313-0.041,0.424-0.123C578.199,225.854,578.285,225.732,578.348,225.571z"/>
				<path d="M582.596,226.476h-2.855v-0.649c0.205-0.195,0.398-0.381,0.581-0.56c0.183-0.178,0.36-0.363,0.534-0.557
					c0.353-0.387,0.593-0.697,0.721-0.931c0.129-0.232,0.193-0.474,0.193-0.723c0-0.128-0.02-0.241-0.061-0.338
					c-0.041-0.098-0.096-0.179-0.166-0.243c-0.072-0.062-0.156-0.108-0.252-0.14s-0.2-0.047-0.314-0.047
					c-0.109,0-0.221,0.015-0.334,0.042c-0.113,0.028-0.221,0.063-0.324,0.104c-0.088,0.035-0.171,0.078-0.252,0.127
					c-0.08,0.05-0.146,0.093-0.195,0.128h-0.035v-0.659c0.129-0.063,0.308-0.127,0.537-0.188c0.229-0.062,0.445-0.092,0.65-0.092
					c0.432,0,0.77,0.114,1.014,0.343c0.244,0.229,0.366,0.54,0.366,0.932c0,0.18-0.021,0.347-0.063,0.5s-0.102,0.295-0.176,0.426
					c-0.076,0.135-0.169,0.269-0.276,0.4c-0.108,0.133-0.222,0.264-0.342,0.392c-0.194,0.212-0.412,0.432-0.651,0.659
					s-0.43,0.408-0.573,0.541h2.274V226.476z"/>
			</g>
		</g>
		<g id="POINT_35_">
			
				<line fill="none" stroke="#000000" stroke-width="0" stroke-linecap="round" stroke-linejoin="round" stroke-miterlimit="10" x1="594.49" y1="234.697" x2="594.49" y2="234.697"/>
		</g>
		<g id="POINT_36_">
			
				<line fill="none" stroke="#000000" stroke-width="0" stroke-linecap="round" stroke-linejoin="round" stroke-miterlimit="10" x1="601.704" y1="241.91" x2="601.704" y2="241.91"/>
		</g>
		<g id="POINT_37_">
			
				<line fill="none" stroke="#000000" stroke-width="0" stroke-linecap="round" stroke-linejoin="round" stroke-miterlimit="10" x1="569.868" y1="241.91" x2="569.868" y2="241.91"/>
		</g>
	</g>
</g>
<g id="Center_Mark__x28_ANSI_x29_">
	<g id="LINE_76_">
		
			<line fill="none" stroke="#000000" stroke-width="0.7087" stroke-linecap="round" stroke-linejoin="round" stroke-miterlimit="10" stroke-dasharray="0.4731,0.0592,0.1183,0.0592" x1="189.644" y1="83.217" x2="171.61" y2="83.217"/>
	</g>
	<g id="LINE_77_">
		
			<line fill="none" stroke="#000000" stroke-width="0.7087" stroke-linecap="round" stroke-linejoin="round" stroke-miterlimit="10" stroke-dasharray="0.7097,0.0888,0.1774,0.0888" x1="176.119" y1="69.692" x2="176.119" y2="96.742"/>
	</g>
	<g id="LINE_78_">
		
			<line fill="none" stroke="#000000" stroke-width="0.7087" stroke-linecap="round" stroke-linejoin="round" stroke-miterlimit="10" stroke-dasharray="0.4731,0.0592,0.1183,0.0592" x1="478.176" y1="83.217" x2="460.143" y2="83.217"/>
	</g>
	<g id="LINE_79_">
		
			<line fill="none" stroke="#000000" stroke-width="0.7087" stroke-linecap="round" stroke-linejoin="round" stroke-miterlimit="10" stroke-dasharray="0.7097,0.0888,0.1774,0.0888" x1="473.668" y1="69.692" x2="473.668" y2="96.742"/>
	</g>
	<g id="LINE_80_">
		
			<line fill="none" stroke="#000000" stroke-width="0.7087" stroke-linecap="round" stroke-linejoin="round" stroke-miterlimit="10" stroke-dasharray="0.4731,0.0592,0.1183,0.0592" x1="478.176" y1="413.227" x2="460.143" y2="413.227"/>
	</g>
	<g id="LINE_81_">
		
			<line fill="none" stroke="#000000" stroke-width="0.7087" stroke-linecap="round" stroke-linejoin="round" stroke-miterlimit="10" stroke-dasharray="0.7097,0.0888,0.1774,0.0888" x1="473.668" y1="399.701" x2="473.668" y2="426.751"/>
	</g>
	<g id="LINE_82_">
		
			<line fill="none" stroke="#000000" stroke-width="0.7087" stroke-linecap="round" stroke-linejoin="round" stroke-miterlimit="10" stroke-dasharray="0.4731,0.0592,0.1183,0.0592" x1="189.644" y1="413.227" x2="171.61" y2="413.227"/>
	</g>
	<g id="LINE_83_">
		
			<line fill="none" stroke="#000000" stroke-width="0.7087" stroke-linecap="round" stroke-linejoin="round" stroke-miterlimit="10" stroke-dasharray="0.7097,0.0888,0.1774,0.0888" x1="176.119" y1="399.701" x2="176.119" y2="426.751"/>
	</g>
</g>
<g id="Centerline__x28_ANSI_x29_">
	<g id="LINE_100_">
		
			<line fill="none" stroke="#000000" stroke-width="0.7087" stroke-linecap="round" stroke-linejoin="round" stroke-miterlimit="10" stroke-dasharray="1.6228,0.203,0.4057,0.203" x1="482.685" y1="83.47" x2="482.685" y2="401.252"/>
	</g>
</g>
</svg>
