G75*
%MOIN*%
%OFA0B0*%
%FSLAX25Y25*%
%IPPOS*%
%LPD*%
%AMOC8*
5,1,8,0,0,1.08239X$1,22.5*
%
%ADD10R,0.01181X0.04331*%
%ADD11R,0.06299X0.12205*%
%ADD12R,0.03200X0.01200*%
%ADD13R,0.01575X0.01969*%
%ADD14R,0.02047X0.02047*%
%ADD15R,0.01181X0.02953*%
%ADD16R,0.02362X0.01575*%
%ADD17R,0.01400X0.04600*%
%ADD18R,0.03000X0.01000*%
%ADD19R,0.01000X0.03000*%
%ADD20R,0.02441X0.02441*%
%ADD21R,0.04528X0.07087*%
%ADD22R,0.03543X0.02953*%
%ADD23R,0.01181X0.03150*%
%ADD24R,0.05512X0.02362*%
%ADD25R,0.02953X0.00787*%
%ADD26R,0.03346X0.00787*%
D10*
X0131368Y0054564D03*
X0133337Y0054564D03*
X0135305Y0054564D03*
X0137274Y0054564D03*
X0139242Y0054564D03*
X0141211Y0054564D03*
X0143179Y0054564D03*
X0145148Y0054564D03*
X0147116Y0054564D03*
X0149085Y0054564D03*
X0151053Y0054564D03*
X0153022Y0054564D03*
X0154990Y0054564D03*
X0156959Y0054564D03*
X0158927Y0054564D03*
X0160896Y0054564D03*
X0162864Y0054564D03*
X0164833Y0054564D03*
X0166801Y0054564D03*
X0168770Y0054564D03*
X0170738Y0054564D03*
X0172707Y0054564D03*
X0174675Y0054564D03*
X0176644Y0054564D03*
X0178612Y0054564D03*
X0180581Y0054564D03*
X0182549Y0054564D03*
X0184518Y0054564D03*
X0186486Y0054564D03*
X0188455Y0054564D03*
X0190423Y0054564D03*
X0192392Y0054564D03*
X0194360Y0054564D03*
X0196329Y0054564D03*
X0198297Y0054564D03*
X0200266Y0054564D03*
X0202234Y0054564D03*
X0204203Y0054564D03*
X0206171Y0054564D03*
X0208140Y0054564D03*
X0210108Y0054564D03*
X0212077Y0054564D03*
X0214045Y0054564D03*
X0216014Y0054564D03*
X0217982Y0054564D03*
X0219951Y0054564D03*
X0221919Y0054564D03*
X0223888Y0054564D03*
X0225856Y0054564D03*
X0227825Y0054564D03*
X0229793Y0054564D03*
X0231762Y0054564D03*
X0233730Y0054564D03*
X0235699Y0054564D03*
X0237667Y0054564D03*
X0239636Y0054564D03*
X0241604Y0054564D03*
X0243573Y0054564D03*
X0245541Y0054564D03*
X0247510Y0054564D03*
X0249478Y0054564D03*
X0251447Y0054564D03*
X0253415Y0054564D03*
X0255384Y0054564D03*
X0257352Y0054564D03*
X0259321Y0054564D03*
X0261289Y0054564D03*
X0263258Y0054564D03*
X0265226Y0054564D03*
X0267195Y0054564D03*
X0269163Y0054564D03*
X0271132Y0054564D03*
X0271132Y0075036D03*
X0269163Y0075036D03*
X0267195Y0075036D03*
X0265226Y0075036D03*
X0263258Y0075036D03*
X0261289Y0075036D03*
X0259321Y0075036D03*
X0257352Y0075036D03*
X0255384Y0075036D03*
X0253415Y0075036D03*
X0251447Y0075036D03*
X0249478Y0075036D03*
X0247510Y0075036D03*
X0245541Y0075036D03*
X0243573Y0075036D03*
X0241604Y0075036D03*
X0239636Y0075036D03*
X0237667Y0075036D03*
X0235699Y0075036D03*
X0233730Y0075036D03*
X0231762Y0075036D03*
X0229793Y0075036D03*
X0227825Y0075036D03*
X0225856Y0075036D03*
X0223888Y0075036D03*
X0221919Y0075036D03*
X0219951Y0075036D03*
X0217982Y0075036D03*
X0216014Y0075036D03*
X0214045Y0075036D03*
X0212077Y0075036D03*
X0210108Y0075036D03*
X0208140Y0075036D03*
X0206171Y0075036D03*
X0204203Y0075036D03*
X0202234Y0075036D03*
X0200266Y0075036D03*
X0198297Y0075036D03*
X0196329Y0075036D03*
X0194360Y0075036D03*
X0192392Y0075036D03*
X0190423Y0075036D03*
X0188455Y0075036D03*
X0186486Y0075036D03*
X0184518Y0075036D03*
X0182549Y0075036D03*
X0180581Y0075036D03*
X0178612Y0075036D03*
X0176644Y0075036D03*
X0174675Y0075036D03*
X0172707Y0075036D03*
X0170738Y0075036D03*
X0168770Y0075036D03*
X0166801Y0075036D03*
X0164833Y0075036D03*
X0162864Y0075036D03*
X0160896Y0075036D03*
X0158927Y0075036D03*
X0156959Y0075036D03*
X0154990Y0075036D03*
X0153022Y0075036D03*
X0151053Y0075036D03*
X0149085Y0075036D03*
X0147116Y0075036D03*
X0145148Y0075036D03*
X0143179Y0075036D03*
X0141211Y0075036D03*
X0139242Y0075036D03*
X0137274Y0075036D03*
X0135305Y0075036D03*
X0133337Y0075036D03*
X0131368Y0075036D03*
X0131368Y0229564D03*
X0133337Y0229564D03*
X0135305Y0229564D03*
X0137274Y0229564D03*
X0139242Y0229564D03*
X0141211Y0229564D03*
X0143179Y0229564D03*
X0145148Y0229564D03*
X0147116Y0229564D03*
X0149085Y0229564D03*
X0151053Y0229564D03*
X0153022Y0229564D03*
X0154990Y0229564D03*
X0156959Y0229564D03*
X0158927Y0229564D03*
X0160896Y0229564D03*
X0162864Y0229564D03*
X0164833Y0229564D03*
X0166801Y0229564D03*
X0168770Y0229564D03*
X0170738Y0229564D03*
X0172707Y0229564D03*
X0174675Y0229564D03*
X0176644Y0229564D03*
X0178612Y0229564D03*
X0180581Y0229564D03*
X0182549Y0229564D03*
X0184518Y0229564D03*
X0186486Y0229564D03*
X0188455Y0229564D03*
X0190423Y0229564D03*
X0192392Y0229564D03*
X0194360Y0229564D03*
X0196329Y0229564D03*
X0198297Y0229564D03*
X0200266Y0229564D03*
X0202234Y0229564D03*
X0204203Y0229564D03*
X0206171Y0229564D03*
X0208140Y0229564D03*
X0210108Y0229564D03*
X0212077Y0229564D03*
X0214045Y0229564D03*
X0216014Y0229564D03*
X0217982Y0229564D03*
X0219951Y0229564D03*
X0221919Y0229564D03*
X0223888Y0229564D03*
X0225856Y0229564D03*
X0227825Y0229564D03*
X0229793Y0229564D03*
X0231762Y0229564D03*
X0233730Y0229564D03*
X0235699Y0229564D03*
X0237667Y0229564D03*
X0239636Y0229564D03*
X0241604Y0229564D03*
X0243573Y0229564D03*
X0245541Y0229564D03*
X0247510Y0229564D03*
X0249478Y0229564D03*
X0251447Y0229564D03*
X0253415Y0229564D03*
X0255384Y0229564D03*
X0257352Y0229564D03*
X0259321Y0229564D03*
X0261289Y0229564D03*
X0263258Y0229564D03*
X0265226Y0229564D03*
X0267195Y0229564D03*
X0269163Y0229564D03*
X0271132Y0229564D03*
X0271132Y0250036D03*
X0269163Y0250036D03*
X0267195Y0250036D03*
X0265226Y0250036D03*
X0263258Y0250036D03*
X0261289Y0250036D03*
X0259321Y0250036D03*
X0257352Y0250036D03*
X0255384Y0250036D03*
X0253415Y0250036D03*
X0251447Y0250036D03*
X0249478Y0250036D03*
X0247510Y0250036D03*
X0245541Y0250036D03*
X0243573Y0250036D03*
X0241604Y0250036D03*
X0239636Y0250036D03*
X0237667Y0250036D03*
X0235699Y0250036D03*
X0233730Y0250036D03*
X0231762Y0250036D03*
X0229793Y0250036D03*
X0227825Y0250036D03*
X0225856Y0250036D03*
X0223888Y0250036D03*
X0221919Y0250036D03*
X0219951Y0250036D03*
X0217982Y0250036D03*
X0216014Y0250036D03*
X0214045Y0250036D03*
X0212077Y0250036D03*
X0210108Y0250036D03*
X0208140Y0250036D03*
X0206171Y0250036D03*
X0204203Y0250036D03*
X0202234Y0250036D03*
X0200266Y0250036D03*
X0198297Y0250036D03*
X0196329Y0250036D03*
X0194360Y0250036D03*
X0192392Y0250036D03*
X0190423Y0250036D03*
X0188455Y0250036D03*
X0186486Y0250036D03*
X0184518Y0250036D03*
X0182549Y0250036D03*
X0180581Y0250036D03*
X0178612Y0250036D03*
X0176644Y0250036D03*
X0174675Y0250036D03*
X0172707Y0250036D03*
X0170738Y0250036D03*
X0168770Y0250036D03*
X0166801Y0250036D03*
X0164833Y0250036D03*
X0162864Y0250036D03*
X0160896Y0250036D03*
X0158927Y0250036D03*
X0156959Y0250036D03*
X0154990Y0250036D03*
X0153022Y0250036D03*
X0151053Y0250036D03*
X0149085Y0250036D03*
X0147116Y0250036D03*
X0145148Y0250036D03*
X0143179Y0250036D03*
X0141211Y0250036D03*
X0139242Y0250036D03*
X0137274Y0250036D03*
X0135305Y0250036D03*
X0133337Y0250036D03*
X0131368Y0250036D03*
D11*
X0118770Y0239800D03*
X0283730Y0239800D03*
X0283730Y0064800D03*
X0118770Y0064800D03*
D12*
X0291000Y0222800D03*
X0291000Y0224800D03*
X0291000Y0226800D03*
X0291000Y0228800D03*
X0302000Y0228800D03*
X0302000Y0226800D03*
X0302000Y0224800D03*
X0302000Y0222800D03*
D13*
X0297878Y0224225D03*
X0295122Y0224225D03*
X0295122Y0227375D03*
X0297878Y0227375D03*
D14*
X0298425Y0232300D03*
X0298425Y0235300D03*
X0301575Y0235300D03*
X0301575Y0232300D03*
X0294500Y0232225D03*
X0294500Y0235375D03*
X0298675Y0217300D03*
X0301825Y0217300D03*
X0301750Y0213875D03*
X0298750Y0213875D03*
X0298750Y0210725D03*
X0301750Y0210725D03*
X0301750Y0203875D03*
X0301750Y0200725D03*
X0284750Y0190375D03*
X0281750Y0190375D03*
X0281750Y0187225D03*
X0284750Y0187225D03*
X0269675Y0187250D03*
X0269675Y0190350D03*
X0266526Y0190350D03*
X0263600Y0190375D03*
X0263600Y0187225D03*
X0266526Y0187250D03*
X0254600Y0187225D03*
X0251600Y0187225D03*
X0248600Y0187225D03*
X0248600Y0190375D03*
X0251600Y0190375D03*
X0254600Y0190375D03*
X0253600Y0214225D03*
X0250600Y0214225D03*
X0250600Y0217375D03*
X0253600Y0217375D03*
X0257600Y0217375D03*
X0260600Y0217375D03*
X0260600Y0214225D03*
X0257600Y0214225D03*
X0230600Y0214225D03*
X0230600Y0217375D03*
X0199600Y0217375D03*
X0196600Y0217375D03*
X0196600Y0214225D03*
X0199600Y0214225D03*
X0170600Y0214225D03*
X0170600Y0217375D03*
X0145600Y0217375D03*
X0142600Y0217375D03*
X0142600Y0214225D03*
X0145600Y0214225D03*
X0138600Y0214225D03*
X0135600Y0214225D03*
X0132600Y0214225D03*
X0132600Y0217375D03*
X0135600Y0217375D03*
X0138600Y0217375D03*
X0126100Y0217375D03*
X0123100Y0217375D03*
X0123100Y0214225D03*
X0126100Y0214225D03*
X0117325Y0213800D03*
X0117325Y0210800D03*
X0117325Y0207800D03*
X0114175Y0207800D03*
X0114175Y0210800D03*
X0114175Y0213800D03*
X0114175Y0216800D03*
X0117325Y0216800D03*
X0110250Y0215875D03*
X0110250Y0212725D03*
X0114175Y0199300D03*
X0114175Y0196300D03*
X0114175Y0193300D03*
X0114175Y0190300D03*
X0117325Y0190300D03*
X0117325Y0193300D03*
X0117325Y0196300D03*
X0117325Y0199300D03*
X0110250Y0198375D03*
X0110250Y0195225D03*
X0123100Y0190375D03*
X0126100Y0190375D03*
X0129100Y0190375D03*
X0132100Y0190375D03*
X0135100Y0190375D03*
X0138100Y0190375D03*
X0141100Y0190375D03*
X0144100Y0190375D03*
X0144100Y0187225D03*
X0141100Y0187225D03*
X0138100Y0187225D03*
X0135100Y0187225D03*
X0132100Y0187225D03*
X0129100Y0187225D03*
X0126100Y0187225D03*
X0123100Y0187225D03*
X0117325Y0181800D03*
X0117325Y0178800D03*
X0117325Y0175800D03*
X0117325Y0172800D03*
X0114175Y0172800D03*
X0114175Y0175800D03*
X0114175Y0178800D03*
X0114175Y0181800D03*
X0110250Y0180875D03*
X0110250Y0177725D03*
X0147526Y0190300D03*
X0150675Y0190300D03*
X0110250Y0227225D03*
X0110250Y0230375D03*
X0125600Y0117375D03*
X0128600Y0117375D03*
X0128600Y0114225D03*
X0125600Y0114225D03*
X0133600Y0114225D03*
X0136600Y0114225D03*
X0139600Y0114225D03*
X0142600Y0114225D03*
X0145600Y0114225D03*
X0148600Y0114225D03*
X0151600Y0114225D03*
X0151600Y0117375D03*
X0148600Y0117375D03*
X0145600Y0117375D03*
X0142600Y0117375D03*
X0139600Y0117375D03*
X0136600Y0117375D03*
X0133600Y0117375D03*
X0120325Y0107300D03*
X0117175Y0107300D03*
X0117250Y0103875D03*
X0120250Y0103875D03*
X0120250Y0100725D03*
X0117250Y0100725D03*
X0117175Y0097300D03*
X0120325Y0097300D03*
X0125600Y0090375D03*
X0125600Y0087225D03*
X0132100Y0087225D03*
X0135100Y0087225D03*
X0138100Y0087225D03*
X0141100Y0087225D03*
X0141100Y0090375D03*
X0138100Y0090375D03*
X0135100Y0090375D03*
X0132100Y0090375D03*
X0109825Y0107300D03*
X0106675Y0107300D03*
X0102750Y0106875D03*
X0102750Y0103725D03*
X0102750Y0096875D03*
X0102750Y0093725D03*
X0170600Y0090375D03*
X0170600Y0087225D03*
X0195600Y0087225D03*
X0195600Y0090375D03*
X0200600Y0090375D03*
X0200600Y0087225D03*
X0230600Y0087225D03*
X0230600Y0090375D03*
X0250600Y0090375D03*
X0250600Y0087225D03*
X0255600Y0087225D03*
X0258600Y0087225D03*
X0258600Y0090375D03*
X0255600Y0090375D03*
X0263100Y0090375D03*
X0263100Y0087225D03*
X0267600Y0087225D03*
X0270600Y0087225D03*
X0270600Y0090375D03*
X0267600Y0090375D03*
X0285175Y0090800D03*
X0285175Y0087800D03*
X0288325Y0087800D03*
X0288325Y0090800D03*
X0288325Y0093800D03*
X0288325Y0096800D03*
X0285175Y0096800D03*
X0285175Y0093800D03*
X0292250Y0091875D03*
X0292250Y0088725D03*
X0292250Y0077375D03*
X0292250Y0074225D03*
X0288325Y0105300D03*
X0288325Y0108300D03*
X0288325Y0111300D03*
X0288325Y0114300D03*
X0285175Y0114300D03*
X0285175Y0111300D03*
X0285175Y0108300D03*
X0285175Y0105300D03*
X0292250Y0106225D03*
X0292250Y0109375D03*
X0288325Y0122800D03*
X0288325Y0125800D03*
X0288325Y0128800D03*
X0288325Y0131800D03*
X0285175Y0131800D03*
X0285175Y0128800D03*
X0285175Y0125800D03*
X0285175Y0122800D03*
X0292250Y0123725D03*
X0292250Y0126875D03*
X0270600Y0117375D03*
X0267600Y0117375D03*
X0267600Y0114225D03*
X0270600Y0114225D03*
X0263600Y0114225D03*
X0260600Y0114225D03*
X0257600Y0114225D03*
X0257600Y0117375D03*
X0260600Y0117375D03*
X0263600Y0117375D03*
X0253600Y0117375D03*
X0250600Y0117375D03*
X0247600Y0117375D03*
X0247600Y0114225D03*
X0250600Y0114225D03*
X0253600Y0114225D03*
D15*
X0295797Y0113835D03*
X0297766Y0113835D03*
X0299734Y0113835D03*
X0301703Y0113835D03*
X0301703Y0105765D03*
X0299734Y0105765D03*
X0297766Y0105765D03*
X0295797Y0105765D03*
X0295797Y0096335D03*
X0297766Y0096335D03*
X0299734Y0096335D03*
X0301703Y0096335D03*
X0301703Y0088265D03*
X0299734Y0088265D03*
X0297766Y0088265D03*
X0295797Y0088265D03*
X0295797Y0123265D03*
X0297766Y0123265D03*
X0299734Y0123265D03*
X0301703Y0123265D03*
X0301703Y0131335D03*
X0299734Y0131335D03*
X0297766Y0131335D03*
X0295797Y0131335D03*
X0106703Y0173265D03*
X0104734Y0173265D03*
X0102766Y0173265D03*
X0100797Y0173265D03*
X0100797Y0181335D03*
X0102766Y0181335D03*
X0104734Y0181335D03*
X0106703Y0181335D03*
X0106703Y0190765D03*
X0104734Y0190765D03*
X0102766Y0190765D03*
X0100797Y0190765D03*
X0100797Y0198835D03*
X0102766Y0198835D03*
X0104734Y0198835D03*
X0106703Y0198835D03*
X0106703Y0208265D03*
X0104734Y0208265D03*
X0102766Y0208265D03*
X0100797Y0208265D03*
X0100797Y0216335D03*
X0102766Y0216335D03*
X0104734Y0216335D03*
X0106703Y0216335D03*
D16*
X0105719Y0212300D03*
X0101781Y0212300D03*
X0101781Y0194800D03*
X0105719Y0194800D03*
X0105719Y0177300D03*
X0101781Y0177300D03*
X0296781Y0127300D03*
X0300719Y0127300D03*
X0300719Y0109800D03*
X0296781Y0109800D03*
X0296781Y0092300D03*
X0300719Y0092300D03*
D17*
X0301350Y0079900D03*
X0298750Y0079900D03*
X0296150Y0079900D03*
X0296150Y0071700D03*
X0298650Y0071700D03*
X0301350Y0071700D03*
X0106350Y0224700D03*
X0103750Y0224700D03*
X0101150Y0224700D03*
X0101150Y0232900D03*
X0103850Y0232900D03*
X0106350Y0232900D03*
D18*
X0282350Y0208200D03*
X0282350Y0206600D03*
X0282350Y0205000D03*
X0282350Y0203400D03*
X0289150Y0203400D03*
X0289150Y0205000D03*
X0289150Y0206600D03*
X0289150Y0208200D03*
X0291850Y0193200D03*
X0291850Y0191600D03*
X0291850Y0190000D03*
X0291850Y0188400D03*
X0298650Y0188400D03*
X0298650Y0190000D03*
X0298650Y0191600D03*
X0298650Y0193200D03*
X0289150Y0178200D03*
X0289150Y0176600D03*
X0289150Y0175000D03*
X0289150Y0173400D03*
X0282350Y0173400D03*
X0282350Y0175000D03*
X0282350Y0176600D03*
X0282350Y0178200D03*
D19*
X0283350Y0180700D03*
X0284950Y0180700D03*
X0286550Y0180700D03*
X0288150Y0180700D03*
X0292850Y0185900D03*
X0294450Y0185900D03*
X0296050Y0185900D03*
X0297650Y0185900D03*
X0297650Y0195700D03*
X0296050Y0195700D03*
X0294450Y0195700D03*
X0292850Y0195700D03*
X0288150Y0200900D03*
X0286550Y0200900D03*
X0284950Y0200900D03*
X0283350Y0200900D03*
X0283350Y0210700D03*
X0284950Y0210700D03*
X0286550Y0210700D03*
X0288150Y0210700D03*
X0288150Y0170900D03*
X0286550Y0170900D03*
X0284950Y0170900D03*
X0283350Y0170900D03*
D20*
X0112022Y0124800D03*
X0108478Y0124800D03*
X0108478Y0112300D03*
X0112022Y0112300D03*
X0112022Y0089800D03*
X0108478Y0089800D03*
D21*
X0104344Y0083800D03*
X0116156Y0083800D03*
X0116156Y0118300D03*
X0104344Y0118300D03*
X0104344Y0130800D03*
X0116156Y0130800D03*
D22*
X0265600Y0214438D03*
X0265600Y0219162D03*
X0270750Y0178162D03*
X0270750Y0173438D03*
X0297250Y0173438D03*
X0297250Y0178162D03*
X0275600Y0104662D03*
X0275600Y0099938D03*
D23*
X0111219Y0096757D03*
X0109250Y0096757D03*
X0107281Y0096757D03*
X0107281Y0103843D03*
X0109250Y0103843D03*
X0111219Y0103843D03*
D24*
X0109250Y0100300D03*
D25*
X0099094Y0069347D03*
X0099094Y0071316D03*
X0099094Y0073284D03*
X0099094Y0075253D03*
X0110906Y0073284D03*
X0110906Y0071316D03*
X0110906Y0069347D03*
D26*
X0110709Y0075253D03*
M02*
