G75*
%MOIN*%
%OFA0B0*%
%FSLAX25Y25*%
%IPPOS*%
%LPD*%
%AMOC8*
5,1,8,0,0,1.08239X$1,22.5*
%
%ADD10C,0.02369*%
%ADD11C,0.02660*%
%ADD12C,0.04829*%
%ADD13C,0.05223*%
%ADD14C,0.04337*%
%ADD15C,0.04000*%
%ADD16C,0.15400*%
D10*
X0096250Y0222300D03*
X0306250Y0082300D03*
D11*
X0270600Y0094800D03*
X0270600Y0099800D03*
X0265600Y0099800D03*
X0260600Y0099800D03*
X0255600Y0099800D03*
X0250600Y0099800D03*
X0245600Y0099800D03*
X0245600Y0094800D03*
X0250600Y0094800D03*
X0255600Y0094800D03*
X0260600Y0094800D03*
X0265600Y0094800D03*
X0265600Y0104800D03*
X0260600Y0104800D03*
X0255600Y0104800D03*
X0250600Y0104800D03*
X0245600Y0104800D03*
X0240600Y0104800D03*
X0240600Y0099800D03*
X0240600Y0094800D03*
X0235600Y0094800D03*
X0230600Y0094800D03*
X0225600Y0094800D03*
X0225600Y0099800D03*
X0230600Y0099800D03*
X0230600Y0104800D03*
X0225600Y0104800D03*
X0220600Y0104800D03*
X0215600Y0104800D03*
X0210600Y0104800D03*
X0205600Y0104800D03*
X0200600Y0104800D03*
X0195600Y0104800D03*
X0190600Y0104800D03*
X0185600Y0104800D03*
X0180600Y0104800D03*
X0175600Y0104800D03*
X0170600Y0104800D03*
X0165600Y0104800D03*
X0160600Y0104800D03*
X0155600Y0104800D03*
X0150600Y0104800D03*
X0145600Y0104800D03*
X0140600Y0104800D03*
X0135600Y0104800D03*
X0130600Y0104800D03*
X0125600Y0104800D03*
X0125600Y0099800D03*
X0130600Y0099800D03*
X0130600Y0094800D03*
X0135600Y0094800D03*
X0135600Y0099800D03*
X0140600Y0099800D03*
X0140600Y0094800D03*
X0145600Y0094800D03*
X0145600Y0099800D03*
X0150600Y0099800D03*
X0150600Y0094800D03*
X0155600Y0094800D03*
X0155600Y0099800D03*
X0160600Y0099800D03*
X0160600Y0094800D03*
X0165600Y0094800D03*
X0165600Y0099800D03*
X0170600Y0099800D03*
X0170600Y0094800D03*
X0175600Y0094800D03*
X0175600Y0099800D03*
X0180600Y0099800D03*
X0180600Y0094800D03*
X0185600Y0094800D03*
X0185600Y0099800D03*
X0190600Y0099800D03*
X0190600Y0094800D03*
X0195600Y0094800D03*
X0195600Y0099800D03*
X0200600Y0099800D03*
X0200600Y0094800D03*
X0205600Y0094800D03*
X0205600Y0099800D03*
X0210600Y0099800D03*
X0210600Y0094800D03*
X0215600Y0094800D03*
X0215600Y0099800D03*
X0220600Y0099800D03*
X0220600Y0094800D03*
X0220600Y0109800D03*
X0215600Y0109800D03*
X0210600Y0109800D03*
X0205600Y0109800D03*
X0200600Y0109800D03*
X0195600Y0109800D03*
X0190600Y0109800D03*
X0185600Y0109800D03*
X0180600Y0109800D03*
X0175600Y0109800D03*
X0170600Y0109800D03*
X0165600Y0109800D03*
X0160600Y0109800D03*
X0155600Y0109800D03*
X0150600Y0109800D03*
X0145600Y0109800D03*
X0140600Y0109800D03*
X0135600Y0109800D03*
X0130600Y0109800D03*
X0125600Y0109800D03*
X0225600Y0109800D03*
X0230600Y0109800D03*
X0235600Y0109800D03*
X0240600Y0109800D03*
X0245600Y0109800D03*
X0250600Y0109800D03*
X0255600Y0109800D03*
X0260600Y0109800D03*
X0265600Y0109800D03*
X0270600Y0109800D03*
X0270600Y0104800D03*
X0270600Y0194800D03*
X0265600Y0194800D03*
X0260600Y0194800D03*
X0255600Y0194800D03*
X0250600Y0194800D03*
X0245600Y0194800D03*
X0240600Y0194800D03*
X0235600Y0194800D03*
X0230600Y0194800D03*
X0225600Y0194800D03*
X0220600Y0194800D03*
X0215600Y0194800D03*
X0210600Y0194800D03*
X0205600Y0194800D03*
X0200600Y0194800D03*
X0195600Y0194800D03*
X0190600Y0194800D03*
X0185600Y0194800D03*
X0180600Y0194800D03*
X0175600Y0194800D03*
X0170600Y0194800D03*
X0165600Y0194800D03*
X0160600Y0194800D03*
X0155600Y0194800D03*
X0150600Y0194800D03*
X0145600Y0194800D03*
X0140600Y0194800D03*
X0135600Y0194800D03*
X0130600Y0194800D03*
X0125600Y0194800D03*
X0125600Y0199800D03*
X0130600Y0199800D03*
X0135600Y0199800D03*
X0140600Y0199800D03*
X0140600Y0204800D03*
X0135600Y0204800D03*
X0130600Y0204800D03*
X0125600Y0204800D03*
X0125600Y0209800D03*
X0130600Y0209800D03*
X0135600Y0209800D03*
X0140600Y0209800D03*
X0145600Y0209800D03*
X0145600Y0204800D03*
X0150600Y0204800D03*
X0150600Y0209800D03*
X0155600Y0209800D03*
X0155600Y0204800D03*
X0160600Y0204800D03*
X0160600Y0209800D03*
X0165600Y0209800D03*
X0165600Y0204800D03*
X0170600Y0204800D03*
X0170600Y0209800D03*
X0175600Y0209800D03*
X0175600Y0204800D03*
X0180600Y0204800D03*
X0180600Y0209800D03*
X0185600Y0209800D03*
X0185600Y0204800D03*
X0190600Y0204800D03*
X0190600Y0209800D03*
X0195600Y0209800D03*
X0195600Y0204800D03*
X0200600Y0204800D03*
X0200600Y0209800D03*
X0205600Y0209800D03*
X0205600Y0204800D03*
X0210600Y0204800D03*
X0210600Y0209800D03*
X0215600Y0209800D03*
X0215600Y0204800D03*
X0220600Y0204800D03*
X0220600Y0209800D03*
X0225600Y0209800D03*
X0225600Y0204800D03*
X0230600Y0204800D03*
X0230600Y0209800D03*
X0235600Y0209800D03*
X0235600Y0204800D03*
X0240600Y0204800D03*
X0240600Y0209800D03*
X0245600Y0209800D03*
X0245600Y0204800D03*
X0250600Y0204800D03*
X0250600Y0209800D03*
X0255600Y0209800D03*
X0255600Y0204800D03*
X0260600Y0204800D03*
X0260600Y0209800D03*
X0265600Y0209800D03*
X0265600Y0204800D03*
X0265600Y0199800D03*
X0260600Y0199800D03*
X0255600Y0199800D03*
X0250600Y0199800D03*
X0245600Y0199800D03*
X0240600Y0199800D03*
X0235600Y0199800D03*
X0230600Y0199800D03*
X0225600Y0199800D03*
X0220600Y0199800D03*
X0215600Y0199800D03*
X0210600Y0199800D03*
X0205600Y0199800D03*
X0200600Y0199800D03*
X0195600Y0199800D03*
X0190600Y0199800D03*
X0185600Y0199800D03*
X0180600Y0199800D03*
X0175600Y0199800D03*
X0170600Y0199800D03*
X0165600Y0199800D03*
X0160600Y0199800D03*
X0155600Y0199800D03*
X0150600Y0199800D03*
X0145600Y0199800D03*
X0270600Y0199800D03*
X0270600Y0204800D03*
X0270600Y0209800D03*
D12*
X0125659Y0239800D03*
X0276841Y0064800D03*
D13*
X0125659Y0064800D03*
X0276841Y0239800D03*
D14*
X0133750Y0254800D03*
X0126250Y0254800D03*
X0104250Y0130800D03*
X0116250Y0118300D03*
X0116250Y0083800D03*
D15*
X0118750Y0049800D03*
X0283750Y0049800D03*
X0283750Y0254800D03*
X0118750Y0254800D03*
D16*
X0103750Y0054800D03*
X0113100Y0152300D03*
X0103750Y0249800D03*
X0282943Y0152300D03*
X0298750Y0249800D03*
X0298750Y0054800D03*
M02*
