%
M48
M72
T01C0.0100
T02C0.0130
T03C0.0138
T04C0.0197
T05C0.0443
T06C0.0482
T07C0.1024
%
T01
X9125Y5230
X9739Y5480
X9925Y5030
X10375Y4844
X10825Y5030
X11011Y5480
X10825Y5930
X10375Y6116
X9925Y5930
X9125Y6230
X9125Y7230
X9125Y8230
X9125Y9230
X9125Y10230
X9125Y11230
X10375Y10130
X10175Y9930
X11325Y10280
X12025Y9480
X11225Y8630
X11225Y8130
X12025Y8380
X12560Y8480
X13060Y8480
X13560Y8480
X14060Y8480
X14560Y8230
X15060Y8230
X15560Y8230
X16060Y8230
X16560Y8230
X17060Y8480
X17560Y8230
X18060Y8230
X18560Y8230
X19060Y8230
X19560Y8480
X20060Y8480
X20560Y8230
X21060Y8230
X21560Y8230
X22060Y8230
X22560Y8230
X23060Y8480
X23560Y8230
X24060Y8230
X24560Y8230
X25060Y8480
X25560Y8480
X26060Y8480
X26310Y8480
X26560Y8480
X27060Y8480
X26326Y7880
X26326Y6680
X26719Y6680
X27113Y6680
X26916Y6280
X26523Y6280
X26129Y6280
X25735Y6280
X25538Y6430
X25145Y6280
X24948Y6430
X24554Y6280
X24357Y6430
X24160Y6680
X23964Y6280
X23767Y6430
X23570Y6680
X23373Y6280
X23176Y6430
X22979Y6680
X22782Y6280
X22586Y6430
X22389Y6680
X22192Y6280
X21995Y6430
X21798Y6680
X21601Y6280
X21405Y6430
X21208Y6680
X21011Y6280
X20814Y6430
X20617Y6680
X20420Y6280
X20223Y6430
X20027Y6680
X19830Y6280
X19633Y6430
X19436Y6680
X19239Y6280
X19042Y6430
X18845Y6680
X18649Y6280
X18452Y6430
X18255Y6680
X18058Y6280
X17861Y6430
X17664Y6680
X17468Y6280
X17271Y6430
X17060Y6680
X16877Y6280
X16680Y6430
X16483Y6680
X16286Y6280
X16090Y6430
X15893Y6680
X15696Y6280
X15499Y6430
X15302Y6680
X15105Y6280
X14908Y6430
X14712Y6680
X14515Y6280
X14318Y6430
X13827Y6230
X14121Y4980
X14712Y4980
X15302Y4980
X15893Y4980
X16483Y4980
X16125Y4230
X17125Y4230
X17664Y4980
X18255Y4980
X18845Y4980
X19436Y4980
X20027Y4980
X20617Y4980
X21208Y4980
X21798Y4980
X22389Y4980
X22125Y4230
X21125Y4230
X20125Y4230
X19125Y4230
X18125Y4230
X15125Y4230
X14125Y4230
X13531Y4980
X13125Y4230
X12125Y4230
X11125Y4230
X10125Y4230
X9375Y4480
X10500Y7525
X14560Y8980
X15060Y8980
X15560Y8980
X16060Y8980
X16560Y8980
X17560Y8980
X18060Y8980
X18560Y8980
X19060Y8980
X20560Y8980
X21060Y8980
X21560Y8980
X22060Y8980
X22560Y8980
X23560Y8980
X24060Y8980
X24560Y8980
X28525Y8380
X28525Y8130
X28575Y7630
X29973Y8530
X30225Y8530
X31125Y8230
X31125Y9230
X30225Y9930
X29975Y9930
X29725Y9930
X29475Y9930
X29225Y9480
X28518Y9930
X28518Y10280
X29225Y11230
X29475Y11680
X29725Y11680
X29975Y11680
X30225Y11680
X30225Y12030
X29975Y12030
X31125Y12230
X31125Y13230
X30225Y13430
X29975Y13430
X29725Y13430
X29475Y13430
X29225Y12980
X28518Y13430
X28294Y14594
X27844Y14780
X27658Y15230
X27844Y15680
X28294Y15866
X28744Y15680
X28931Y15230
X28744Y14780
X31125Y15230
X31125Y16230
X31125Y17230
X31125Y18230
X30075Y18330
X30175Y18705
X30175Y18955
X30175Y19205
X30175Y19455
X30375Y19830
X31125Y20230
X31125Y19230
X30075Y17816
X29225Y17705
X29225Y17955
X29225Y17455
X29225Y17205
X29025Y16880
X27925Y17455
X27925Y17705
X27925Y17955
X28335Y18380
X28575Y18380
X28775Y18705
X28775Y18955
X28775Y19205
X28775Y19455
X28060Y19980
X27660Y19980
X27360Y18830
X27075Y18134
X26560Y18480
X26060Y18480
X26060Y18830
X25810Y18830
X25560Y18480
X25060Y18480
X24560Y21480
X24060Y21480
X23560Y21480
X23210Y22230
X22585Y22230
X22060Y22230
X21560Y22230
X21060Y22230
X20560Y22230
X19810Y22230
X19060Y22230
X18560Y22230
X18060Y22230
X17560Y22230
X17060Y21980
X16560Y22230
X16060Y22230
X15560Y22230
X15060Y22230
X14560Y21980
X14060Y21980
X13560Y21980
X13060Y21980
X12560Y21980
X11725Y22080
X11725Y22330
X11725Y22830
X13137Y23780
X13531Y23780
X13924Y23780
X14318Y23780
X14515Y24180
X14712Y24030
X14908Y23780
X15105Y24180
X15302Y24030
X15499Y23780
X15696Y24180
X15893Y24030
X16090Y23780
X16286Y24180
X16483Y24030
X16680Y23780
X16877Y24180
X17074Y24030
X17271Y23780
X17468Y24180
X17664Y24030
X17861Y23780
X18058Y24180
X18255Y24030
X18452Y23780
X18649Y24180
X18845Y24030
X19010Y23780
X19239Y24180
X19436Y24030
X19633Y23780
X19830Y24180
X20027Y24030
X20223Y23780
X20420Y24180
X20617Y24030
X20814Y23780
X21011Y24180
X21208Y24030
X21405Y23780
X21601Y24180
X21798Y24030
X21995Y23780
X22192Y24180
X22389Y24030
X22586Y23780
X22782Y24180
X22979Y24030
X23176Y23780
X23373Y24180
X23570Y24030
X23767Y23780
X23964Y24180
X24160Y24030
X24357Y23780
X24554Y24180
X24751Y24019
X24948Y23780
X25145Y24180
X25342Y24019
X25538Y23780
X25735Y24180
X25932Y24019
X26175Y23780
X26327Y24382
X26916Y24480
X27113Y24180
X26719Y25480
X26129Y25480
X25538Y25480
X24948Y25480
X24357Y25480
X23767Y25480
X24125Y26230
X23125Y26230
X22586Y25480
X21995Y25480
X21405Y25480
X20814Y25480
X20223Y25480
X19633Y25480
X19042Y25480
X18452Y25480
X17861Y25480
X18125Y26230
X19125Y26230
X20125Y26230
X21125Y26230
X22125Y26230
X25125Y26230
X26125Y26230
X27125Y26230
X28125Y26230
X29125Y26230
X29875Y25616
X29425Y25430
X29239Y24980
X29425Y24530
X29875Y24344
X30325Y24530
X30511Y24980
X30325Y25430
X30875Y25980
X30125Y26230
X31125Y25230
X31125Y24230
X31125Y23230
X31125Y22230
X31125Y21230
X30175Y20830
X29625Y21730
X28810Y21355
X28825Y22280
X28625Y22480
X29100Y23128
X27635Y21730
X27385Y21980
X26935Y21980
X26060Y21980
X25560Y21980
X25060Y21980
X24610Y22230
X25288Y22530
X25735Y22530
X23910Y22230
X22560Y21480
X22060Y21480
X21560Y21480
X21060Y21480
X20560Y21480
X19060Y21480
X18560Y21480
X18060Y21480
X17560Y21480
X16560Y21480
X16060Y21480
X15560Y21480
X15060Y21480
X13924Y22580
X13727Y24180
X13334Y24180
X14121Y24180
X14318Y25480
X14908Y25480
X15499Y25480
X16090Y25480
X16680Y25480
X17125Y26230
X16125Y26230
X15125Y26230
X14125Y26230
X13125Y26230
X12125Y26230
X11125Y26230
X10375Y25616
X9925Y25430
X9739Y24980
X9925Y24530
X10375Y24344
X10825Y24530
X11011Y24980
X10825Y25430
X10125Y26230
X9375Y25980
X9125Y25230
X9125Y24230
X9125Y23230
X9125Y22230
X10025Y21930
X10277Y21930
X11025Y20980
X10775Y20530
X10525Y20530
X10275Y20530
X10025Y20530
X10025Y20180
X10275Y20180
X9125Y20230
X9125Y19230
X10025Y18780
X10275Y18780
X10525Y18780
X10775Y18780
X10275Y18430
X10025Y18430
X9125Y18230
X9125Y17230
X10025Y17030
X10275Y17030
X10525Y17030
X10775Y17030
X11025Y17480
X11732Y17030
X11310Y15866
X11760Y15680
X11946Y15230
X11760Y14780
X11310Y14594
X10860Y14780
X10674Y15230
X10860Y15680
X9810Y15730
X9560Y15230
X9125Y15230
X9810Y14730
X9560Y14230
X9125Y14230
X9125Y13230
X10025Y13080
X10825Y12880
X10825Y13280
X11225Y12030
X11225Y11630
X12025Y11830
X12560Y11980
X13060Y11980
X13560Y11980
X14060Y11980
X14560Y11980
X14860Y11980
X15160Y11980
X12032Y10973
X9125Y12230
X9125Y16230
X9560Y16230
X11732Y18430
X11732Y18780
X11025Y19230
X11732Y20180
X11732Y20530
X12560Y18480
X12910Y18480
X13210Y18480
X13510Y18480
X13810Y18480
X14310Y18480
X9125Y21230
X25060Y11980
X25560Y11980
X26060Y11980
X26560Y11980
X27060Y11980
X28518Y12030
X28518Y11680
X29975Y10280
X30225Y10280
X31125Y10230
X31125Y11230
X31125Y14230
X31125Y7230
X31125Y6230
X30325Y5930
X29875Y6116
X29425Y5930
X29239Y5480
X29425Y5030
X29875Y4844
X30325Y5030
X30511Y5480
X31125Y5230
X30875Y4480
X30125Y4230
X29125Y4230
X28125Y4230
X27125Y4230
X26125Y4230
X25125Y4230
X25342Y4980
X24751Y4980
X24160Y4980
X23570Y4980
X23125Y4230
X24125Y4230
X25932Y4980
T02
X12625Y24980
T03
X12560Y20980
X12560Y20480
X13060Y20480
X13060Y20980
X13560Y20980
X13560Y20480
X14060Y20480
X14060Y20980
X14560Y20980
X14560Y20480
X15060Y20480
X15060Y20980
X15560Y20980
X15560Y20480
X16060Y20480
X16060Y20980
X16560Y20980
X16560Y20480
X17060Y20480
X17060Y20980
X17560Y20980
X17560Y20480
X18060Y20480
X18060Y20980
X18560Y20980
X18560Y20480
X19060Y20480
X19060Y20980
X19560Y20980
X19560Y20480
X20060Y20480
X20060Y20980
X20560Y20980
X20560Y20480
X21060Y20480
X21060Y20980
X21560Y20980
X21560Y20480
X22060Y20480
X22060Y20980
X22560Y20980
X22560Y20480
X23060Y20480
X23060Y20980
X23560Y20980
X23560Y20480
X24060Y20480
X24060Y20980
X24560Y20980
X24560Y20480
X25060Y20480
X25060Y20980
X25560Y20980
X25560Y20480
X26060Y20480
X26060Y20980
X26560Y20980
X26560Y20480
X26560Y19980
X26060Y19980
X25560Y19980
X25060Y19980
X24560Y19980
X24060Y19980
X23560Y19980
X23060Y19980
X22560Y19980
X22060Y19980
X21560Y19980
X21060Y19980
X20560Y19980
X20060Y19980
X19560Y19980
X19060Y19980
X18560Y19980
X18060Y19980
X17560Y19980
X17060Y19980
X16560Y19980
X16060Y19980
X15560Y19980
X15060Y19980
X14560Y19980
X14060Y19980
X13560Y19980
X13060Y19980
X12560Y19980
X12560Y19480
X13060Y19480
X13560Y19480
X14060Y19480
X14560Y19480
X15060Y19480
X15560Y19480
X16060Y19480
X16560Y19480
X17060Y19480
X17560Y19480
X18060Y19480
X18560Y19480
X19060Y19480
X19560Y19480
X20060Y19480
X20560Y19480
X21060Y19480
X21560Y19480
X22060Y19480
X22560Y19480
X23060Y19480
X23560Y19480
X24060Y19480
X24560Y19480
X25060Y19480
X25560Y19480
X26060Y19480
X26560Y19480
X27060Y19480
X27060Y19980
X27060Y20480
X27060Y20980
X27060Y10980
X26560Y10980
X26060Y10980
X25560Y10980
X25060Y10980
X24560Y10980
X24060Y10980
X23560Y10980
X23060Y10980
X22560Y10980
X22060Y10980
X21560Y10980
X21060Y10980
X20560Y10980
X20060Y10980
X19560Y10980
X19060Y10980
X18560Y10980
X18060Y10980
X17560Y10980
X17060Y10980
X16560Y10980
X16060Y10980
X15560Y10980
X15060Y10980
X14560Y10980
X14060Y10980
X13560Y10980
X13060Y10980
X12560Y10980
X12560Y10480
X13060Y10480
X13560Y10480
X14060Y10480
X14060Y9980
X13560Y9980
X13060Y9980
X12560Y9980
X13060Y9480
X13560Y9480
X14060Y9480
X14560Y9480
X14560Y9980
X15060Y9980
X15060Y9480
X15560Y9480
X15560Y9980
X16060Y9980
X16060Y9480
X16560Y9480
X16560Y9980
X17060Y9980
X17060Y9480
X17560Y9480
X17560Y9980
X18060Y9980
X18060Y9480
X18560Y9480
X18560Y9980
X19060Y9980
X19060Y9480
X19560Y9480
X19560Y9980
X20060Y9980
X20060Y9480
X20560Y9480
X20560Y9980
X21060Y9980
X21060Y9480
X21560Y9480
X21560Y9980
X22060Y9980
X22060Y9480
X22560Y9480
X22560Y9980
X23060Y9980
X23060Y9480
X23560Y9480
X24060Y9480
X24060Y9980
X24060Y10480
X24560Y10480
X25060Y10480
X25560Y10480
X26060Y10480
X26560Y10480
X26560Y9980
X26060Y9980
X25560Y9980
X25060Y9980
X24560Y9980
X24560Y9480
X25060Y9480
X25560Y9480
X26060Y9480
X26560Y9480
X27060Y9480
X27060Y9980
X27060Y10480
X23060Y10480
X22560Y10480
X22060Y10480
X21560Y10480
X21060Y10480
X20560Y10480
X20060Y10480
X19560Y10480
X19060Y10480
X18560Y10480
X18060Y10480
X17560Y10480
X17060Y10480
X16560Y10480
X16060Y10480
X15560Y10480
X15060Y10480
X14560Y10480
T04
X9625Y22230
X30625Y8230
T05
X27684Y6480
X12566Y23980
T06
X27684Y23980
X12566Y6480
T07
X10375Y5480
X11310Y15230
X10375Y24980
X28294Y15230
X29875Y24980
X29875Y5480
M30
