G75*
%MOIN*%
%OFA0B0*%
%FSLAX25Y25*%
%IPPOS*%
%LPD*%
%AMOC8*
5,1,8,0,0,1.08239X$1,22.5*
%
%ADD10C,0.04829*%
%ADD11C,0.05223*%
%ADD12C,0.00316*%
%ADD13C,0.00631*%
%ADD14C,0.01072*%
%ADD15C,0.00986*%
%ADD16C,0.06900*%
%ADD17C,0.04000*%
%ADD18C,0.15400*%
D10*
X0113750Y0088520D03*
X0276841Y0064800D03*
X0288750Y0216080D03*
X0125659Y0239800D03*
D11*
X0113750Y0216080D03*
X0276841Y0239800D03*
X0288750Y0088520D03*
X0125659Y0064800D03*
D12*
X0126193Y0093597D02*
X0121779Y0093597D01*
X0121779Y0094861D01*
X0126193Y0094861D01*
X0126193Y0093597D01*
X0126193Y0093912D02*
X0121779Y0093912D01*
X0121779Y0094227D02*
X0126193Y0094227D01*
X0126193Y0094542D02*
X0121779Y0094542D01*
X0121779Y0094857D02*
X0126193Y0094857D01*
X0126193Y0095566D02*
X0121779Y0095566D01*
X0121779Y0096830D01*
X0126193Y0096830D01*
X0126193Y0095566D01*
X0126193Y0095881D02*
X0121779Y0095881D01*
X0121779Y0096196D02*
X0126193Y0096196D01*
X0126193Y0096511D02*
X0121779Y0096511D01*
X0121779Y0096826D02*
X0126193Y0096826D01*
X0126193Y0097534D02*
X0121779Y0097534D01*
X0121779Y0098798D01*
X0126193Y0098798D01*
X0126193Y0097534D01*
X0126193Y0097849D02*
X0121779Y0097849D01*
X0121779Y0098164D02*
X0126193Y0098164D01*
X0126193Y0098479D02*
X0121779Y0098479D01*
X0121779Y0098794D02*
X0126193Y0098794D01*
X0126193Y0099503D02*
X0121779Y0099503D01*
X0121779Y0100767D01*
X0126193Y0100767D01*
X0126193Y0099503D01*
X0126193Y0099818D02*
X0121779Y0099818D01*
X0121779Y0100133D02*
X0126193Y0100133D01*
X0126193Y0100448D02*
X0121779Y0100448D01*
X0121779Y0100763D02*
X0126193Y0100763D01*
X0126193Y0101471D02*
X0121779Y0101471D01*
X0121779Y0102735D01*
X0126193Y0102735D01*
X0126193Y0101471D01*
X0126193Y0101786D02*
X0121779Y0101786D01*
X0121779Y0102101D02*
X0126193Y0102101D01*
X0126193Y0102416D02*
X0121779Y0102416D01*
X0121779Y0102731D02*
X0126193Y0102731D01*
X0126193Y0107377D02*
X0121779Y0107377D01*
X0121779Y0108641D01*
X0126193Y0108641D01*
X0126193Y0107377D01*
X0126193Y0107692D02*
X0121779Y0107692D01*
X0121779Y0108007D02*
X0126193Y0108007D01*
X0126193Y0108322D02*
X0121779Y0108322D01*
X0121779Y0108637D02*
X0126193Y0108637D01*
X0126193Y0109345D02*
X0121779Y0109345D01*
X0121779Y0110609D01*
X0126193Y0110609D01*
X0126193Y0109345D01*
X0126193Y0109660D02*
X0121779Y0109660D01*
X0121779Y0109975D02*
X0126193Y0109975D01*
X0126193Y0110290D02*
X0121779Y0110290D01*
X0121779Y0110605D02*
X0126193Y0110605D01*
X0126193Y0111314D02*
X0121779Y0111314D01*
X0121779Y0112578D01*
X0126193Y0112578D01*
X0126193Y0111314D01*
X0126193Y0111629D02*
X0121779Y0111629D01*
X0121779Y0111944D02*
X0126193Y0111944D01*
X0126193Y0112259D02*
X0121779Y0112259D01*
X0121779Y0112574D02*
X0126193Y0112574D01*
X0126193Y0113282D02*
X0121779Y0113282D01*
X0121779Y0114546D01*
X0126193Y0114546D01*
X0126193Y0113282D01*
X0126193Y0113597D02*
X0121779Y0113597D01*
X0121779Y0113912D02*
X0126193Y0113912D01*
X0126193Y0114227D02*
X0121779Y0114227D01*
X0121779Y0114542D02*
X0126193Y0114542D01*
X0126193Y0115251D02*
X0121779Y0115251D01*
X0121779Y0116515D01*
X0126193Y0116515D01*
X0126193Y0115251D01*
X0126193Y0115566D02*
X0121779Y0115566D01*
X0121779Y0115881D02*
X0126193Y0115881D01*
X0126193Y0116196D02*
X0121779Y0116196D01*
X0121779Y0116511D02*
X0126193Y0116511D01*
X0126193Y0117219D02*
X0121779Y0117219D01*
X0121779Y0118483D01*
X0126193Y0118483D01*
X0126193Y0117219D01*
X0126193Y0117534D02*
X0121779Y0117534D01*
X0121779Y0117849D02*
X0126193Y0117849D01*
X0126193Y0118164D02*
X0121779Y0118164D01*
X0121779Y0118479D02*
X0126193Y0118479D01*
X0126193Y0119188D02*
X0121779Y0119188D01*
X0121779Y0120452D01*
X0126193Y0120452D01*
X0126193Y0119188D01*
X0126193Y0119503D02*
X0121779Y0119503D01*
X0121779Y0119818D02*
X0126193Y0119818D01*
X0126193Y0120133D02*
X0121779Y0120133D01*
X0121779Y0120448D02*
X0126193Y0120448D01*
X0126193Y0121156D02*
X0121779Y0121156D01*
X0121779Y0122420D01*
X0126193Y0122420D01*
X0126193Y0121156D01*
X0126193Y0121471D02*
X0121779Y0121471D01*
X0121779Y0121786D02*
X0126193Y0121786D01*
X0126193Y0122101D02*
X0121779Y0122101D01*
X0121779Y0122416D02*
X0126193Y0122416D01*
X0126193Y0123125D02*
X0121779Y0123125D01*
X0121779Y0124389D01*
X0126193Y0124389D01*
X0126193Y0123125D01*
X0126193Y0123440D02*
X0121779Y0123440D01*
X0121779Y0123755D02*
X0126193Y0123755D01*
X0126193Y0124070D02*
X0121779Y0124070D01*
X0121779Y0124385D02*
X0126193Y0124385D01*
X0126193Y0125093D02*
X0121779Y0125093D01*
X0121779Y0126357D01*
X0126193Y0126357D01*
X0126193Y0125093D01*
X0126193Y0125408D02*
X0121779Y0125408D01*
X0121779Y0125723D02*
X0126193Y0125723D01*
X0126193Y0126038D02*
X0121779Y0126038D01*
X0121779Y0126353D02*
X0126193Y0126353D01*
X0126193Y0130999D02*
X0121779Y0130999D01*
X0121779Y0132263D01*
X0126193Y0132263D01*
X0126193Y0130999D01*
X0126193Y0131314D02*
X0121779Y0131314D01*
X0121779Y0131629D02*
X0126193Y0131629D01*
X0126193Y0131944D02*
X0121779Y0131944D01*
X0121779Y0132259D02*
X0126193Y0132259D01*
X0126193Y0132967D02*
X0121779Y0132967D01*
X0121779Y0134231D01*
X0126193Y0134231D01*
X0126193Y0132967D01*
X0126193Y0133282D02*
X0121779Y0133282D01*
X0121779Y0133597D02*
X0126193Y0133597D01*
X0126193Y0133912D02*
X0121779Y0133912D01*
X0121779Y0134227D02*
X0126193Y0134227D01*
X0126193Y0134936D02*
X0121779Y0134936D01*
X0121779Y0136200D01*
X0126193Y0136200D01*
X0126193Y0134936D01*
X0126193Y0135251D02*
X0121779Y0135251D01*
X0121779Y0135566D02*
X0126193Y0135566D01*
X0126193Y0135881D02*
X0121779Y0135881D01*
X0121779Y0136196D02*
X0126193Y0136196D01*
X0126193Y0136904D02*
X0121779Y0136904D01*
X0121779Y0138168D01*
X0126193Y0138168D01*
X0126193Y0136904D01*
X0126193Y0137219D02*
X0121779Y0137219D01*
X0121779Y0137534D02*
X0126193Y0137534D01*
X0126193Y0137849D02*
X0121779Y0137849D01*
X0121779Y0138164D02*
X0126193Y0138164D01*
X0126193Y0138873D02*
X0121779Y0138873D01*
X0121779Y0140137D01*
X0126193Y0140137D01*
X0126193Y0138873D01*
X0126193Y0139188D02*
X0121779Y0139188D01*
X0121779Y0139503D02*
X0126193Y0139503D01*
X0126193Y0139818D02*
X0121779Y0139818D01*
X0121779Y0140133D02*
X0126193Y0140133D01*
X0126193Y0140841D02*
X0121779Y0140841D01*
X0121779Y0142105D01*
X0126193Y0142105D01*
X0126193Y0140841D01*
X0126193Y0141156D02*
X0121779Y0141156D01*
X0121779Y0141471D02*
X0126193Y0141471D01*
X0126193Y0141786D02*
X0121779Y0141786D01*
X0121779Y0142101D02*
X0126193Y0142101D01*
X0126193Y0142810D02*
X0121779Y0142810D01*
X0121779Y0144074D01*
X0126193Y0144074D01*
X0126193Y0142810D01*
X0126193Y0143125D02*
X0121779Y0143125D01*
X0121779Y0143440D02*
X0126193Y0143440D01*
X0126193Y0143755D02*
X0121779Y0143755D01*
X0121779Y0144070D02*
X0126193Y0144070D01*
X0126193Y0144778D02*
X0121779Y0144778D01*
X0121779Y0146042D01*
X0126193Y0146042D01*
X0126193Y0144778D01*
X0126193Y0145093D02*
X0121779Y0145093D01*
X0121779Y0145408D02*
X0126193Y0145408D01*
X0126193Y0145723D02*
X0121779Y0145723D01*
X0121779Y0146038D02*
X0126193Y0146038D01*
X0126193Y0146747D02*
X0121779Y0146747D01*
X0121779Y0148011D01*
X0126193Y0148011D01*
X0126193Y0146747D01*
X0126193Y0147062D02*
X0121779Y0147062D01*
X0121779Y0147377D02*
X0126193Y0147377D01*
X0126193Y0147692D02*
X0121779Y0147692D01*
X0121779Y0148007D02*
X0126193Y0148007D01*
X0126193Y0148715D02*
X0121779Y0148715D01*
X0121779Y0149979D01*
X0126193Y0149979D01*
X0126193Y0148715D01*
X0126193Y0149030D02*
X0121779Y0149030D01*
X0121779Y0149345D02*
X0126193Y0149345D01*
X0126193Y0149660D02*
X0121779Y0149660D01*
X0121779Y0149975D02*
X0126193Y0149975D01*
X0126193Y0154621D02*
X0121779Y0154621D01*
X0121779Y0155885D01*
X0126193Y0155885D01*
X0126193Y0154621D01*
X0126193Y0154936D02*
X0121779Y0154936D01*
X0121779Y0155251D02*
X0126193Y0155251D01*
X0126193Y0155566D02*
X0121779Y0155566D01*
X0121779Y0155881D02*
X0126193Y0155881D01*
X0126193Y0156589D02*
X0121779Y0156589D01*
X0121779Y0157853D01*
X0126193Y0157853D01*
X0126193Y0156589D01*
X0126193Y0156904D02*
X0121779Y0156904D01*
X0121779Y0157219D02*
X0126193Y0157219D01*
X0126193Y0157534D02*
X0121779Y0157534D01*
X0121779Y0157849D02*
X0126193Y0157849D01*
X0126193Y0158558D02*
X0121779Y0158558D01*
X0121779Y0159822D01*
X0126193Y0159822D01*
X0126193Y0158558D01*
X0126193Y0158873D02*
X0121779Y0158873D01*
X0121779Y0159188D02*
X0126193Y0159188D01*
X0126193Y0159503D02*
X0121779Y0159503D01*
X0121779Y0159818D02*
X0126193Y0159818D01*
X0126193Y0160526D02*
X0121779Y0160526D01*
X0121779Y0161790D01*
X0126193Y0161790D01*
X0126193Y0160526D01*
X0126193Y0160841D02*
X0121779Y0160841D01*
X0121779Y0161156D02*
X0126193Y0161156D01*
X0126193Y0161471D02*
X0121779Y0161471D01*
X0121779Y0161786D02*
X0126193Y0161786D01*
X0126193Y0162495D02*
X0121779Y0162495D01*
X0121779Y0163759D01*
X0126193Y0163759D01*
X0126193Y0162495D01*
X0126193Y0162810D02*
X0121779Y0162810D01*
X0121779Y0163125D02*
X0126193Y0163125D01*
X0126193Y0163440D02*
X0121779Y0163440D01*
X0121779Y0163755D02*
X0126193Y0163755D01*
X0126193Y0164463D02*
X0121779Y0164463D01*
X0121779Y0165727D01*
X0126193Y0165727D01*
X0126193Y0164463D01*
X0126193Y0164778D02*
X0121779Y0164778D01*
X0121779Y0165093D02*
X0126193Y0165093D01*
X0126193Y0165408D02*
X0121779Y0165408D01*
X0121779Y0165723D02*
X0126193Y0165723D01*
X0126193Y0166432D02*
X0121779Y0166432D01*
X0121779Y0167696D01*
X0126193Y0167696D01*
X0126193Y0166432D01*
X0126193Y0166747D02*
X0121779Y0166747D01*
X0121779Y0167062D02*
X0126193Y0167062D01*
X0126193Y0167377D02*
X0121779Y0167377D01*
X0121779Y0167692D02*
X0126193Y0167692D01*
X0126193Y0168400D02*
X0121779Y0168400D01*
X0121779Y0169664D01*
X0126193Y0169664D01*
X0126193Y0168400D01*
X0126193Y0168715D02*
X0121779Y0168715D01*
X0121779Y0169030D02*
X0126193Y0169030D01*
X0126193Y0169345D02*
X0121779Y0169345D01*
X0121779Y0169660D02*
X0126193Y0169660D01*
X0126193Y0170369D02*
X0121779Y0170369D01*
X0121779Y0171633D01*
X0126193Y0171633D01*
X0126193Y0170369D01*
X0126193Y0170684D02*
X0121779Y0170684D01*
X0121779Y0170999D02*
X0126193Y0170999D01*
X0126193Y0171314D02*
X0121779Y0171314D01*
X0121779Y0171629D02*
X0126193Y0171629D01*
X0126193Y0172337D02*
X0121779Y0172337D01*
X0121779Y0173601D01*
X0126193Y0173601D01*
X0126193Y0172337D01*
X0126193Y0172652D02*
X0121779Y0172652D01*
X0121779Y0172967D02*
X0126193Y0172967D01*
X0126193Y0173282D02*
X0121779Y0173282D01*
X0121779Y0173597D02*
X0126193Y0173597D01*
X0126193Y0178243D02*
X0121779Y0178243D01*
X0121779Y0179507D01*
X0126193Y0179507D01*
X0126193Y0178243D01*
X0126193Y0178558D02*
X0121779Y0178558D01*
X0121779Y0178873D02*
X0126193Y0178873D01*
X0126193Y0179188D02*
X0121779Y0179188D01*
X0121779Y0179503D02*
X0126193Y0179503D01*
X0126193Y0180211D02*
X0121779Y0180211D01*
X0121779Y0181475D01*
X0126193Y0181475D01*
X0126193Y0180211D01*
X0126193Y0180526D02*
X0121779Y0180526D01*
X0121779Y0180841D02*
X0126193Y0180841D01*
X0126193Y0181156D02*
X0121779Y0181156D01*
X0121779Y0181471D02*
X0126193Y0181471D01*
X0126193Y0182180D02*
X0121779Y0182180D01*
X0121779Y0183444D01*
X0126193Y0183444D01*
X0126193Y0182180D01*
X0126193Y0182495D02*
X0121779Y0182495D01*
X0121779Y0182810D02*
X0126193Y0182810D01*
X0126193Y0183125D02*
X0121779Y0183125D01*
X0121779Y0183440D02*
X0126193Y0183440D01*
X0126193Y0184148D02*
X0121779Y0184148D01*
X0121779Y0185412D01*
X0126193Y0185412D01*
X0126193Y0184148D01*
X0126193Y0184463D02*
X0121779Y0184463D01*
X0121779Y0184778D02*
X0126193Y0184778D01*
X0126193Y0185093D02*
X0121779Y0185093D01*
X0121779Y0185408D02*
X0126193Y0185408D01*
X0126193Y0186117D02*
X0121779Y0186117D01*
X0121779Y0187381D01*
X0126193Y0187381D01*
X0126193Y0186117D01*
X0126193Y0186432D02*
X0121779Y0186432D01*
X0121779Y0186747D02*
X0126193Y0186747D01*
X0126193Y0187062D02*
X0121779Y0187062D01*
X0121779Y0187377D02*
X0126193Y0187377D01*
X0126193Y0188085D02*
X0121779Y0188085D01*
X0121779Y0189349D01*
X0126193Y0189349D01*
X0126193Y0188085D01*
X0126193Y0188400D02*
X0121779Y0188400D01*
X0121779Y0188715D02*
X0126193Y0188715D01*
X0126193Y0189030D02*
X0121779Y0189030D01*
X0121779Y0189345D02*
X0126193Y0189345D01*
X0126193Y0190054D02*
X0121779Y0190054D01*
X0121779Y0191318D01*
X0126193Y0191318D01*
X0126193Y0190054D01*
X0126193Y0190369D02*
X0121779Y0190369D01*
X0121779Y0190684D02*
X0126193Y0190684D01*
X0126193Y0190999D02*
X0121779Y0190999D01*
X0121779Y0191314D02*
X0126193Y0191314D01*
X0126193Y0192022D02*
X0121779Y0192022D01*
X0121779Y0193286D01*
X0126193Y0193286D01*
X0126193Y0192022D01*
X0126193Y0192337D02*
X0121779Y0192337D01*
X0121779Y0192652D02*
X0126193Y0192652D01*
X0126193Y0192967D02*
X0121779Y0192967D01*
X0121779Y0193282D02*
X0126193Y0193282D01*
X0126193Y0193991D02*
X0121779Y0193991D01*
X0121779Y0195255D01*
X0126193Y0195255D01*
X0126193Y0193991D01*
X0126193Y0194306D02*
X0121779Y0194306D01*
X0121779Y0194621D02*
X0126193Y0194621D01*
X0126193Y0194936D02*
X0121779Y0194936D01*
X0121779Y0195251D02*
X0126193Y0195251D01*
X0126193Y0195959D02*
X0121779Y0195959D01*
X0121779Y0197223D01*
X0126193Y0197223D01*
X0126193Y0195959D01*
X0126193Y0196274D02*
X0121779Y0196274D01*
X0121779Y0196589D02*
X0126193Y0196589D01*
X0126193Y0196904D02*
X0121779Y0196904D01*
X0121779Y0197219D02*
X0126193Y0197219D01*
X0126193Y0201865D02*
X0121779Y0201865D01*
X0121779Y0203129D01*
X0126193Y0203129D01*
X0126193Y0201865D01*
X0126193Y0202180D02*
X0121779Y0202180D01*
X0121779Y0202495D02*
X0126193Y0202495D01*
X0126193Y0202810D02*
X0121779Y0202810D01*
X0121779Y0203125D02*
X0126193Y0203125D01*
X0126193Y0203833D02*
X0121779Y0203833D01*
X0121779Y0205097D01*
X0126193Y0205097D01*
X0126193Y0203833D01*
X0126193Y0204148D02*
X0121779Y0204148D01*
X0121779Y0204463D02*
X0126193Y0204463D01*
X0126193Y0204778D02*
X0121779Y0204778D01*
X0121779Y0205093D02*
X0126193Y0205093D01*
X0126193Y0205802D02*
X0121779Y0205802D01*
X0121779Y0207066D01*
X0126193Y0207066D01*
X0126193Y0205802D01*
X0126193Y0206117D02*
X0121779Y0206117D01*
X0121779Y0206432D02*
X0126193Y0206432D01*
X0126193Y0206747D02*
X0121779Y0206747D01*
X0121779Y0207062D02*
X0126193Y0207062D01*
X0126193Y0207770D02*
X0121779Y0207770D01*
X0121779Y0209034D01*
X0126193Y0209034D01*
X0126193Y0207770D01*
X0126193Y0208085D02*
X0121779Y0208085D01*
X0121779Y0208400D02*
X0126193Y0208400D01*
X0126193Y0208715D02*
X0121779Y0208715D01*
X0121779Y0209030D02*
X0126193Y0209030D01*
X0126193Y0209739D02*
X0121779Y0209739D01*
X0121779Y0211003D01*
X0126193Y0211003D01*
X0126193Y0209739D01*
X0126193Y0210054D02*
X0121779Y0210054D01*
X0121779Y0210369D02*
X0126193Y0210369D01*
X0126193Y0210684D02*
X0121779Y0210684D01*
X0121779Y0210999D02*
X0126193Y0210999D01*
X0105721Y0209739D02*
X0101307Y0209739D01*
X0101307Y0211003D01*
X0105721Y0211003D01*
X0105721Y0209739D01*
X0105721Y0210054D02*
X0101307Y0210054D01*
X0101307Y0210369D02*
X0105721Y0210369D01*
X0105721Y0210684D02*
X0101307Y0210684D01*
X0101307Y0210999D02*
X0105721Y0210999D01*
X0105721Y0207770D02*
X0101307Y0207770D01*
X0101307Y0209034D01*
X0105721Y0209034D01*
X0105721Y0207770D01*
X0105721Y0208085D02*
X0101307Y0208085D01*
X0101307Y0208400D02*
X0105721Y0208400D01*
X0105721Y0208715D02*
X0101307Y0208715D01*
X0101307Y0209030D02*
X0105721Y0209030D01*
X0105721Y0205802D02*
X0101307Y0205802D01*
X0101307Y0207066D01*
X0105721Y0207066D01*
X0105721Y0205802D01*
X0105721Y0206117D02*
X0101307Y0206117D01*
X0101307Y0206432D02*
X0105721Y0206432D01*
X0105721Y0206747D02*
X0101307Y0206747D01*
X0101307Y0207062D02*
X0105721Y0207062D01*
X0105721Y0203833D02*
X0101307Y0203833D01*
X0101307Y0205097D01*
X0105721Y0205097D01*
X0105721Y0203833D01*
X0105721Y0204148D02*
X0101307Y0204148D01*
X0101307Y0204463D02*
X0105721Y0204463D01*
X0105721Y0204778D02*
X0101307Y0204778D01*
X0101307Y0205093D02*
X0105721Y0205093D01*
X0105721Y0201865D02*
X0101307Y0201865D01*
X0101307Y0203129D01*
X0105721Y0203129D01*
X0105721Y0201865D01*
X0105721Y0202180D02*
X0101307Y0202180D01*
X0101307Y0202495D02*
X0105721Y0202495D01*
X0105721Y0202810D02*
X0101307Y0202810D01*
X0101307Y0203125D02*
X0105721Y0203125D01*
X0105721Y0195959D02*
X0101307Y0195959D01*
X0101307Y0197223D01*
X0105721Y0197223D01*
X0105721Y0195959D01*
X0105721Y0196274D02*
X0101307Y0196274D01*
X0101307Y0196589D02*
X0105721Y0196589D01*
X0105721Y0196904D02*
X0101307Y0196904D01*
X0101307Y0197219D02*
X0105721Y0197219D01*
X0105721Y0193991D02*
X0101307Y0193991D01*
X0101307Y0195255D01*
X0105721Y0195255D01*
X0105721Y0193991D01*
X0105721Y0194306D02*
X0101307Y0194306D01*
X0101307Y0194621D02*
X0105721Y0194621D01*
X0105721Y0194936D02*
X0101307Y0194936D01*
X0101307Y0195251D02*
X0105721Y0195251D01*
X0105721Y0192022D02*
X0101307Y0192022D01*
X0101307Y0193286D01*
X0105721Y0193286D01*
X0105721Y0192022D01*
X0105721Y0192337D02*
X0101307Y0192337D01*
X0101307Y0192652D02*
X0105721Y0192652D01*
X0105721Y0192967D02*
X0101307Y0192967D01*
X0101307Y0193282D02*
X0105721Y0193282D01*
X0105721Y0190054D02*
X0101307Y0190054D01*
X0101307Y0191318D01*
X0105721Y0191318D01*
X0105721Y0190054D01*
X0105721Y0190369D02*
X0101307Y0190369D01*
X0101307Y0190684D02*
X0105721Y0190684D01*
X0105721Y0190999D02*
X0101307Y0190999D01*
X0101307Y0191314D02*
X0105721Y0191314D01*
X0105721Y0188085D02*
X0101307Y0188085D01*
X0101307Y0189349D01*
X0105721Y0189349D01*
X0105721Y0188085D01*
X0105721Y0188400D02*
X0101307Y0188400D01*
X0101307Y0188715D02*
X0105721Y0188715D01*
X0105721Y0189030D02*
X0101307Y0189030D01*
X0101307Y0189345D02*
X0105721Y0189345D01*
X0105721Y0186117D02*
X0101307Y0186117D01*
X0101307Y0187381D01*
X0105721Y0187381D01*
X0105721Y0186117D01*
X0105721Y0186432D02*
X0101307Y0186432D01*
X0101307Y0186747D02*
X0105721Y0186747D01*
X0105721Y0187062D02*
X0101307Y0187062D01*
X0101307Y0187377D02*
X0105721Y0187377D01*
X0105721Y0184148D02*
X0101307Y0184148D01*
X0101307Y0185412D01*
X0105721Y0185412D01*
X0105721Y0184148D01*
X0105721Y0184463D02*
X0101307Y0184463D01*
X0101307Y0184778D02*
X0105721Y0184778D01*
X0105721Y0185093D02*
X0101307Y0185093D01*
X0101307Y0185408D02*
X0105721Y0185408D01*
X0105721Y0182180D02*
X0101307Y0182180D01*
X0101307Y0183444D01*
X0105721Y0183444D01*
X0105721Y0182180D01*
X0105721Y0182495D02*
X0101307Y0182495D01*
X0101307Y0182810D02*
X0105721Y0182810D01*
X0105721Y0183125D02*
X0101307Y0183125D01*
X0101307Y0183440D02*
X0105721Y0183440D01*
X0105721Y0180211D02*
X0101307Y0180211D01*
X0101307Y0181475D01*
X0105721Y0181475D01*
X0105721Y0180211D01*
X0105721Y0180526D02*
X0101307Y0180526D01*
X0101307Y0180841D02*
X0105721Y0180841D01*
X0105721Y0181156D02*
X0101307Y0181156D01*
X0101307Y0181471D02*
X0105721Y0181471D01*
X0105721Y0178243D02*
X0101307Y0178243D01*
X0101307Y0179507D01*
X0105721Y0179507D01*
X0105721Y0178243D01*
X0105721Y0178558D02*
X0101307Y0178558D01*
X0101307Y0178873D02*
X0105721Y0178873D01*
X0105721Y0179188D02*
X0101307Y0179188D01*
X0101307Y0179503D02*
X0105721Y0179503D01*
X0105721Y0172337D02*
X0101307Y0172337D01*
X0101307Y0173601D01*
X0105721Y0173601D01*
X0105721Y0172337D01*
X0105721Y0172652D02*
X0101307Y0172652D01*
X0101307Y0172967D02*
X0105721Y0172967D01*
X0105721Y0173282D02*
X0101307Y0173282D01*
X0101307Y0173597D02*
X0105721Y0173597D01*
X0105721Y0170369D02*
X0101307Y0170369D01*
X0101307Y0171633D01*
X0105721Y0171633D01*
X0105721Y0170369D01*
X0105721Y0170684D02*
X0101307Y0170684D01*
X0101307Y0170999D02*
X0105721Y0170999D01*
X0105721Y0171314D02*
X0101307Y0171314D01*
X0101307Y0171629D02*
X0105721Y0171629D01*
X0105721Y0168400D02*
X0101307Y0168400D01*
X0101307Y0169664D01*
X0105721Y0169664D01*
X0105721Y0168400D01*
X0105721Y0168715D02*
X0101307Y0168715D01*
X0101307Y0169030D02*
X0105721Y0169030D01*
X0105721Y0169345D02*
X0101307Y0169345D01*
X0101307Y0169660D02*
X0105721Y0169660D01*
X0105721Y0166432D02*
X0101307Y0166432D01*
X0101307Y0167696D01*
X0105721Y0167696D01*
X0105721Y0166432D01*
X0105721Y0166747D02*
X0101307Y0166747D01*
X0101307Y0167062D02*
X0105721Y0167062D01*
X0105721Y0167377D02*
X0101307Y0167377D01*
X0101307Y0167692D02*
X0105721Y0167692D01*
X0105721Y0164463D02*
X0101307Y0164463D01*
X0101307Y0165727D01*
X0105721Y0165727D01*
X0105721Y0164463D01*
X0105721Y0164778D02*
X0101307Y0164778D01*
X0101307Y0165093D02*
X0105721Y0165093D01*
X0105721Y0165408D02*
X0101307Y0165408D01*
X0101307Y0165723D02*
X0105721Y0165723D01*
X0105721Y0162495D02*
X0101307Y0162495D01*
X0101307Y0163759D01*
X0105721Y0163759D01*
X0105721Y0162495D01*
X0105721Y0162810D02*
X0101307Y0162810D01*
X0101307Y0163125D02*
X0105721Y0163125D01*
X0105721Y0163440D02*
X0101307Y0163440D01*
X0101307Y0163755D02*
X0105721Y0163755D01*
X0105721Y0160526D02*
X0101307Y0160526D01*
X0101307Y0161790D01*
X0105721Y0161790D01*
X0105721Y0160526D01*
X0105721Y0160841D02*
X0101307Y0160841D01*
X0101307Y0161156D02*
X0105721Y0161156D01*
X0105721Y0161471D02*
X0101307Y0161471D01*
X0101307Y0161786D02*
X0105721Y0161786D01*
X0105721Y0158558D02*
X0101307Y0158558D01*
X0101307Y0159822D01*
X0105721Y0159822D01*
X0105721Y0158558D01*
X0105721Y0158873D02*
X0101307Y0158873D01*
X0101307Y0159188D02*
X0105721Y0159188D01*
X0105721Y0159503D02*
X0101307Y0159503D01*
X0101307Y0159818D02*
X0105721Y0159818D01*
X0105721Y0156589D02*
X0101307Y0156589D01*
X0101307Y0157853D01*
X0105721Y0157853D01*
X0105721Y0156589D01*
X0105721Y0156904D02*
X0101307Y0156904D01*
X0101307Y0157219D02*
X0105721Y0157219D01*
X0105721Y0157534D02*
X0101307Y0157534D01*
X0101307Y0157849D02*
X0105721Y0157849D01*
X0105721Y0154621D02*
X0101307Y0154621D01*
X0101307Y0155885D01*
X0105721Y0155885D01*
X0105721Y0154621D01*
X0105721Y0154936D02*
X0101307Y0154936D01*
X0101307Y0155251D02*
X0105721Y0155251D01*
X0105721Y0155566D02*
X0101307Y0155566D01*
X0101307Y0155881D02*
X0105721Y0155881D01*
X0105721Y0148715D02*
X0101307Y0148715D01*
X0101307Y0149979D01*
X0105721Y0149979D01*
X0105721Y0148715D01*
X0105721Y0149030D02*
X0101307Y0149030D01*
X0101307Y0149345D02*
X0105721Y0149345D01*
X0105721Y0149660D02*
X0101307Y0149660D01*
X0101307Y0149975D02*
X0105721Y0149975D01*
X0105721Y0146747D02*
X0101307Y0146747D01*
X0101307Y0148011D01*
X0105721Y0148011D01*
X0105721Y0146747D01*
X0105721Y0147062D02*
X0101307Y0147062D01*
X0101307Y0147377D02*
X0105721Y0147377D01*
X0105721Y0147692D02*
X0101307Y0147692D01*
X0101307Y0148007D02*
X0105721Y0148007D01*
X0105721Y0144778D02*
X0101307Y0144778D01*
X0101307Y0146042D01*
X0105721Y0146042D01*
X0105721Y0144778D01*
X0105721Y0145093D02*
X0101307Y0145093D01*
X0101307Y0145408D02*
X0105721Y0145408D01*
X0105721Y0145723D02*
X0101307Y0145723D01*
X0101307Y0146038D02*
X0105721Y0146038D01*
X0105721Y0142810D02*
X0101307Y0142810D01*
X0101307Y0144074D01*
X0105721Y0144074D01*
X0105721Y0142810D01*
X0105721Y0143125D02*
X0101307Y0143125D01*
X0101307Y0143440D02*
X0105721Y0143440D01*
X0105721Y0143755D02*
X0101307Y0143755D01*
X0101307Y0144070D02*
X0105721Y0144070D01*
X0105721Y0140841D02*
X0101307Y0140841D01*
X0101307Y0142105D01*
X0105721Y0142105D01*
X0105721Y0140841D01*
X0105721Y0141156D02*
X0101307Y0141156D01*
X0101307Y0141471D02*
X0105721Y0141471D01*
X0105721Y0141786D02*
X0101307Y0141786D01*
X0101307Y0142101D02*
X0105721Y0142101D01*
X0105721Y0138873D02*
X0101307Y0138873D01*
X0101307Y0140137D01*
X0105721Y0140137D01*
X0105721Y0138873D01*
X0105721Y0139188D02*
X0101307Y0139188D01*
X0101307Y0139503D02*
X0105721Y0139503D01*
X0105721Y0139818D02*
X0101307Y0139818D01*
X0101307Y0140133D02*
X0105721Y0140133D01*
X0105721Y0136904D02*
X0101307Y0136904D01*
X0101307Y0138168D01*
X0105721Y0138168D01*
X0105721Y0136904D01*
X0105721Y0137219D02*
X0101307Y0137219D01*
X0101307Y0137534D02*
X0105721Y0137534D01*
X0105721Y0137849D02*
X0101307Y0137849D01*
X0101307Y0138164D02*
X0105721Y0138164D01*
X0105721Y0134936D02*
X0101307Y0134936D01*
X0101307Y0136200D01*
X0105721Y0136200D01*
X0105721Y0134936D01*
X0105721Y0135251D02*
X0101307Y0135251D01*
X0101307Y0135566D02*
X0105721Y0135566D01*
X0105721Y0135881D02*
X0101307Y0135881D01*
X0101307Y0136196D02*
X0105721Y0136196D01*
X0105721Y0132967D02*
X0101307Y0132967D01*
X0101307Y0134231D01*
X0105721Y0134231D01*
X0105721Y0132967D01*
X0105721Y0133282D02*
X0101307Y0133282D01*
X0101307Y0133597D02*
X0105721Y0133597D01*
X0105721Y0133912D02*
X0101307Y0133912D01*
X0101307Y0134227D02*
X0105721Y0134227D01*
X0105721Y0130999D02*
X0101307Y0130999D01*
X0101307Y0132263D01*
X0105721Y0132263D01*
X0105721Y0130999D01*
X0105721Y0131314D02*
X0101307Y0131314D01*
X0101307Y0131629D02*
X0105721Y0131629D01*
X0105721Y0131944D02*
X0101307Y0131944D01*
X0101307Y0132259D02*
X0105721Y0132259D01*
X0105721Y0125093D02*
X0101307Y0125093D01*
X0101307Y0126357D01*
X0105721Y0126357D01*
X0105721Y0125093D01*
X0105721Y0125408D02*
X0101307Y0125408D01*
X0101307Y0125723D02*
X0105721Y0125723D01*
X0105721Y0126038D02*
X0101307Y0126038D01*
X0101307Y0126353D02*
X0105721Y0126353D01*
X0105721Y0123125D02*
X0101307Y0123125D01*
X0101307Y0124389D01*
X0105721Y0124389D01*
X0105721Y0123125D01*
X0105721Y0123440D02*
X0101307Y0123440D01*
X0101307Y0123755D02*
X0105721Y0123755D01*
X0105721Y0124070D02*
X0101307Y0124070D01*
X0101307Y0124385D02*
X0105721Y0124385D01*
X0105721Y0121156D02*
X0101307Y0121156D01*
X0101307Y0122420D01*
X0105721Y0122420D01*
X0105721Y0121156D01*
X0105721Y0121471D02*
X0101307Y0121471D01*
X0101307Y0121786D02*
X0105721Y0121786D01*
X0105721Y0122101D02*
X0101307Y0122101D01*
X0101307Y0122416D02*
X0105721Y0122416D01*
X0105721Y0119188D02*
X0101307Y0119188D01*
X0101307Y0120452D01*
X0105721Y0120452D01*
X0105721Y0119188D01*
X0105721Y0119503D02*
X0101307Y0119503D01*
X0101307Y0119818D02*
X0105721Y0119818D01*
X0105721Y0120133D02*
X0101307Y0120133D01*
X0101307Y0120448D02*
X0105721Y0120448D01*
X0105721Y0117219D02*
X0101307Y0117219D01*
X0101307Y0118483D01*
X0105721Y0118483D01*
X0105721Y0117219D01*
X0105721Y0117534D02*
X0101307Y0117534D01*
X0101307Y0117849D02*
X0105721Y0117849D01*
X0105721Y0118164D02*
X0101307Y0118164D01*
X0101307Y0118479D02*
X0105721Y0118479D01*
X0105721Y0115251D02*
X0101307Y0115251D01*
X0101307Y0116515D01*
X0105721Y0116515D01*
X0105721Y0115251D01*
X0105721Y0115566D02*
X0101307Y0115566D01*
X0101307Y0115881D02*
X0105721Y0115881D01*
X0105721Y0116196D02*
X0101307Y0116196D01*
X0101307Y0116511D02*
X0105721Y0116511D01*
X0105721Y0113282D02*
X0101307Y0113282D01*
X0101307Y0114546D01*
X0105721Y0114546D01*
X0105721Y0113282D01*
X0105721Y0113597D02*
X0101307Y0113597D01*
X0101307Y0113912D02*
X0105721Y0113912D01*
X0105721Y0114227D02*
X0101307Y0114227D01*
X0101307Y0114542D02*
X0105721Y0114542D01*
X0105721Y0111314D02*
X0101307Y0111314D01*
X0101307Y0112578D01*
X0105721Y0112578D01*
X0105721Y0111314D01*
X0105721Y0111629D02*
X0101307Y0111629D01*
X0101307Y0111944D02*
X0105721Y0111944D01*
X0105721Y0112259D02*
X0101307Y0112259D01*
X0101307Y0112574D02*
X0105721Y0112574D01*
X0105721Y0109345D02*
X0101307Y0109345D01*
X0101307Y0110609D01*
X0105721Y0110609D01*
X0105721Y0109345D01*
X0105721Y0109660D02*
X0101307Y0109660D01*
X0101307Y0109975D02*
X0105721Y0109975D01*
X0105721Y0110290D02*
X0101307Y0110290D01*
X0101307Y0110605D02*
X0105721Y0110605D01*
X0105721Y0107377D02*
X0101307Y0107377D01*
X0101307Y0108641D01*
X0105721Y0108641D01*
X0105721Y0107377D01*
X0105721Y0107692D02*
X0101307Y0107692D01*
X0101307Y0108007D02*
X0105721Y0108007D01*
X0105721Y0108322D02*
X0101307Y0108322D01*
X0101307Y0108637D02*
X0105721Y0108637D01*
X0105721Y0101471D02*
X0101307Y0101471D01*
X0101307Y0102735D01*
X0105721Y0102735D01*
X0105721Y0101471D01*
X0105721Y0101786D02*
X0101307Y0101786D01*
X0101307Y0102101D02*
X0105721Y0102101D01*
X0105721Y0102416D02*
X0101307Y0102416D01*
X0101307Y0102731D02*
X0105721Y0102731D01*
X0105721Y0099503D02*
X0101307Y0099503D01*
X0101307Y0100767D01*
X0105721Y0100767D01*
X0105721Y0099503D01*
X0105721Y0099818D02*
X0101307Y0099818D01*
X0101307Y0100133D02*
X0105721Y0100133D01*
X0105721Y0100448D02*
X0101307Y0100448D01*
X0101307Y0100763D02*
X0105721Y0100763D01*
X0105721Y0097534D02*
X0101307Y0097534D01*
X0101307Y0098798D01*
X0105721Y0098798D01*
X0105721Y0097534D01*
X0105721Y0097849D02*
X0101307Y0097849D01*
X0101307Y0098164D02*
X0105721Y0098164D01*
X0105721Y0098479D02*
X0101307Y0098479D01*
X0101307Y0098794D02*
X0105721Y0098794D01*
X0105721Y0095566D02*
X0101307Y0095566D01*
X0101307Y0096830D01*
X0105721Y0096830D01*
X0105721Y0095566D01*
X0105721Y0095881D02*
X0101307Y0095881D01*
X0101307Y0096196D02*
X0105721Y0096196D01*
X0105721Y0096511D02*
X0101307Y0096511D01*
X0101307Y0096826D02*
X0105721Y0096826D01*
X0105721Y0093597D02*
X0101307Y0093597D01*
X0101307Y0094861D01*
X0105721Y0094861D01*
X0105721Y0093597D01*
X0105721Y0093912D02*
X0101307Y0093912D01*
X0101307Y0094227D02*
X0105721Y0094227D01*
X0105721Y0094542D02*
X0101307Y0094542D01*
X0101307Y0094857D02*
X0105721Y0094857D01*
X0276307Y0094861D02*
X0280721Y0094861D01*
X0280721Y0093597D01*
X0276307Y0093597D01*
X0276307Y0094861D01*
X0276307Y0093912D02*
X0280721Y0093912D01*
X0280721Y0094227D02*
X0276307Y0094227D01*
X0276307Y0094542D02*
X0280721Y0094542D01*
X0280721Y0094857D02*
X0276307Y0094857D01*
X0276307Y0096830D02*
X0280721Y0096830D01*
X0280721Y0095566D01*
X0276307Y0095566D01*
X0276307Y0096830D01*
X0276307Y0095881D02*
X0280721Y0095881D01*
X0280721Y0096196D02*
X0276307Y0096196D01*
X0276307Y0096511D02*
X0280721Y0096511D01*
X0280721Y0096826D02*
X0276307Y0096826D01*
X0276307Y0098798D02*
X0280721Y0098798D01*
X0280721Y0097534D01*
X0276307Y0097534D01*
X0276307Y0098798D01*
X0276307Y0097849D02*
X0280721Y0097849D01*
X0280721Y0098164D02*
X0276307Y0098164D01*
X0276307Y0098479D02*
X0280721Y0098479D01*
X0280721Y0098794D02*
X0276307Y0098794D01*
X0276307Y0100767D02*
X0280721Y0100767D01*
X0280721Y0099503D01*
X0276307Y0099503D01*
X0276307Y0100767D01*
X0276307Y0099818D02*
X0280721Y0099818D01*
X0280721Y0100133D02*
X0276307Y0100133D01*
X0276307Y0100448D02*
X0280721Y0100448D01*
X0280721Y0100763D02*
X0276307Y0100763D01*
X0276307Y0102735D02*
X0280721Y0102735D01*
X0280721Y0101471D01*
X0276307Y0101471D01*
X0276307Y0102735D01*
X0276307Y0101786D02*
X0280721Y0101786D01*
X0280721Y0102101D02*
X0276307Y0102101D01*
X0276307Y0102416D02*
X0280721Y0102416D01*
X0280721Y0102731D02*
X0276307Y0102731D01*
X0276307Y0108641D02*
X0280721Y0108641D01*
X0280721Y0107377D01*
X0276307Y0107377D01*
X0276307Y0108641D01*
X0276307Y0107692D02*
X0280721Y0107692D01*
X0280721Y0108007D02*
X0276307Y0108007D01*
X0276307Y0108322D02*
X0280721Y0108322D01*
X0280721Y0108637D02*
X0276307Y0108637D01*
X0276307Y0110609D02*
X0280721Y0110609D01*
X0280721Y0109345D01*
X0276307Y0109345D01*
X0276307Y0110609D01*
X0276307Y0109660D02*
X0280721Y0109660D01*
X0280721Y0109975D02*
X0276307Y0109975D01*
X0276307Y0110290D02*
X0280721Y0110290D01*
X0280721Y0110605D02*
X0276307Y0110605D01*
X0276307Y0112578D02*
X0280721Y0112578D01*
X0280721Y0111314D01*
X0276307Y0111314D01*
X0276307Y0112578D01*
X0276307Y0111629D02*
X0280721Y0111629D01*
X0280721Y0111944D02*
X0276307Y0111944D01*
X0276307Y0112259D02*
X0280721Y0112259D01*
X0280721Y0112574D02*
X0276307Y0112574D01*
X0276307Y0114546D02*
X0280721Y0114546D01*
X0280721Y0113282D01*
X0276307Y0113282D01*
X0276307Y0114546D01*
X0276307Y0113597D02*
X0280721Y0113597D01*
X0280721Y0113912D02*
X0276307Y0113912D01*
X0276307Y0114227D02*
X0280721Y0114227D01*
X0280721Y0114542D02*
X0276307Y0114542D01*
X0276307Y0116515D02*
X0280721Y0116515D01*
X0280721Y0115251D01*
X0276307Y0115251D01*
X0276307Y0116515D01*
X0276307Y0115566D02*
X0280721Y0115566D01*
X0280721Y0115881D02*
X0276307Y0115881D01*
X0276307Y0116196D02*
X0280721Y0116196D01*
X0280721Y0116511D02*
X0276307Y0116511D01*
X0276307Y0118483D02*
X0280721Y0118483D01*
X0280721Y0117219D01*
X0276307Y0117219D01*
X0276307Y0118483D01*
X0276307Y0117534D02*
X0280721Y0117534D01*
X0280721Y0117849D02*
X0276307Y0117849D01*
X0276307Y0118164D02*
X0280721Y0118164D01*
X0280721Y0118479D02*
X0276307Y0118479D01*
X0276307Y0120452D02*
X0280721Y0120452D01*
X0280721Y0119188D01*
X0276307Y0119188D01*
X0276307Y0120452D01*
X0276307Y0119503D02*
X0280721Y0119503D01*
X0280721Y0119818D02*
X0276307Y0119818D01*
X0276307Y0120133D02*
X0280721Y0120133D01*
X0280721Y0120448D02*
X0276307Y0120448D01*
X0276307Y0122420D02*
X0280721Y0122420D01*
X0280721Y0121156D01*
X0276307Y0121156D01*
X0276307Y0122420D01*
X0276307Y0121471D02*
X0280721Y0121471D01*
X0280721Y0121786D02*
X0276307Y0121786D01*
X0276307Y0122101D02*
X0280721Y0122101D01*
X0280721Y0122416D02*
X0276307Y0122416D01*
X0276307Y0124389D02*
X0280721Y0124389D01*
X0280721Y0123125D01*
X0276307Y0123125D01*
X0276307Y0124389D01*
X0276307Y0123440D02*
X0280721Y0123440D01*
X0280721Y0123755D02*
X0276307Y0123755D01*
X0276307Y0124070D02*
X0280721Y0124070D01*
X0280721Y0124385D02*
X0276307Y0124385D01*
X0276307Y0126357D02*
X0280721Y0126357D01*
X0280721Y0125093D01*
X0276307Y0125093D01*
X0276307Y0126357D01*
X0276307Y0125408D02*
X0280721Y0125408D01*
X0280721Y0125723D02*
X0276307Y0125723D01*
X0276307Y0126038D02*
X0280721Y0126038D01*
X0280721Y0126353D02*
X0276307Y0126353D01*
X0276307Y0132263D02*
X0280721Y0132263D01*
X0280721Y0130999D01*
X0276307Y0130999D01*
X0276307Y0132263D01*
X0276307Y0131314D02*
X0280721Y0131314D01*
X0280721Y0131629D02*
X0276307Y0131629D01*
X0276307Y0131944D02*
X0280721Y0131944D01*
X0280721Y0132259D02*
X0276307Y0132259D01*
X0276307Y0134231D02*
X0280721Y0134231D01*
X0280721Y0132967D01*
X0276307Y0132967D01*
X0276307Y0134231D01*
X0276307Y0133282D02*
X0280721Y0133282D01*
X0280721Y0133597D02*
X0276307Y0133597D01*
X0276307Y0133912D02*
X0280721Y0133912D01*
X0280721Y0134227D02*
X0276307Y0134227D01*
X0276307Y0136200D02*
X0280721Y0136200D01*
X0280721Y0134936D01*
X0276307Y0134936D01*
X0276307Y0136200D01*
X0276307Y0135251D02*
X0280721Y0135251D01*
X0280721Y0135566D02*
X0276307Y0135566D01*
X0276307Y0135881D02*
X0280721Y0135881D01*
X0280721Y0136196D02*
X0276307Y0136196D01*
X0276307Y0138168D02*
X0280721Y0138168D01*
X0280721Y0136904D01*
X0276307Y0136904D01*
X0276307Y0138168D01*
X0276307Y0137219D02*
X0280721Y0137219D01*
X0280721Y0137534D02*
X0276307Y0137534D01*
X0276307Y0137849D02*
X0280721Y0137849D01*
X0280721Y0138164D02*
X0276307Y0138164D01*
X0276307Y0140137D02*
X0280721Y0140137D01*
X0280721Y0138873D01*
X0276307Y0138873D01*
X0276307Y0140137D01*
X0276307Y0139188D02*
X0280721Y0139188D01*
X0280721Y0139503D02*
X0276307Y0139503D01*
X0276307Y0139818D02*
X0280721Y0139818D01*
X0280721Y0140133D02*
X0276307Y0140133D01*
X0276307Y0142105D02*
X0280721Y0142105D01*
X0280721Y0140841D01*
X0276307Y0140841D01*
X0276307Y0142105D01*
X0276307Y0141156D02*
X0280721Y0141156D01*
X0280721Y0141471D02*
X0276307Y0141471D01*
X0276307Y0141786D02*
X0280721Y0141786D01*
X0280721Y0142101D02*
X0276307Y0142101D01*
X0276307Y0144074D02*
X0280721Y0144074D01*
X0280721Y0142810D01*
X0276307Y0142810D01*
X0276307Y0144074D01*
X0276307Y0143125D02*
X0280721Y0143125D01*
X0280721Y0143440D02*
X0276307Y0143440D01*
X0276307Y0143755D02*
X0280721Y0143755D01*
X0280721Y0144070D02*
X0276307Y0144070D01*
X0276307Y0146042D02*
X0280721Y0146042D01*
X0280721Y0144778D01*
X0276307Y0144778D01*
X0276307Y0146042D01*
X0276307Y0145093D02*
X0280721Y0145093D01*
X0280721Y0145408D02*
X0276307Y0145408D01*
X0276307Y0145723D02*
X0280721Y0145723D01*
X0280721Y0146038D02*
X0276307Y0146038D01*
X0276307Y0148011D02*
X0280721Y0148011D01*
X0280721Y0146747D01*
X0276307Y0146747D01*
X0276307Y0148011D01*
X0276307Y0147062D02*
X0280721Y0147062D01*
X0280721Y0147377D02*
X0276307Y0147377D01*
X0276307Y0147692D02*
X0280721Y0147692D01*
X0280721Y0148007D02*
X0276307Y0148007D01*
X0276307Y0149979D02*
X0280721Y0149979D01*
X0280721Y0148715D01*
X0276307Y0148715D01*
X0276307Y0149979D01*
X0276307Y0149030D02*
X0280721Y0149030D01*
X0280721Y0149345D02*
X0276307Y0149345D01*
X0276307Y0149660D02*
X0280721Y0149660D01*
X0280721Y0149975D02*
X0276307Y0149975D01*
X0276307Y0155885D02*
X0280721Y0155885D01*
X0280721Y0154621D01*
X0276307Y0154621D01*
X0276307Y0155885D01*
X0276307Y0154936D02*
X0280721Y0154936D01*
X0280721Y0155251D02*
X0276307Y0155251D01*
X0276307Y0155566D02*
X0280721Y0155566D01*
X0280721Y0155881D02*
X0276307Y0155881D01*
X0276307Y0157853D02*
X0280721Y0157853D01*
X0280721Y0156589D01*
X0276307Y0156589D01*
X0276307Y0157853D01*
X0276307Y0156904D02*
X0280721Y0156904D01*
X0280721Y0157219D02*
X0276307Y0157219D01*
X0276307Y0157534D02*
X0280721Y0157534D01*
X0280721Y0157849D02*
X0276307Y0157849D01*
X0276307Y0159822D02*
X0280721Y0159822D01*
X0280721Y0158558D01*
X0276307Y0158558D01*
X0276307Y0159822D01*
X0276307Y0158873D02*
X0280721Y0158873D01*
X0280721Y0159188D02*
X0276307Y0159188D01*
X0276307Y0159503D02*
X0280721Y0159503D01*
X0280721Y0159818D02*
X0276307Y0159818D01*
X0276307Y0161790D02*
X0280721Y0161790D01*
X0280721Y0160526D01*
X0276307Y0160526D01*
X0276307Y0161790D01*
X0276307Y0160841D02*
X0280721Y0160841D01*
X0280721Y0161156D02*
X0276307Y0161156D01*
X0276307Y0161471D02*
X0280721Y0161471D01*
X0280721Y0161786D02*
X0276307Y0161786D01*
X0276307Y0163759D02*
X0280721Y0163759D01*
X0280721Y0162495D01*
X0276307Y0162495D01*
X0276307Y0163759D01*
X0276307Y0162810D02*
X0280721Y0162810D01*
X0280721Y0163125D02*
X0276307Y0163125D01*
X0276307Y0163440D02*
X0280721Y0163440D01*
X0280721Y0163755D02*
X0276307Y0163755D01*
X0276307Y0165727D02*
X0280721Y0165727D01*
X0280721Y0164463D01*
X0276307Y0164463D01*
X0276307Y0165727D01*
X0276307Y0164778D02*
X0280721Y0164778D01*
X0280721Y0165093D02*
X0276307Y0165093D01*
X0276307Y0165408D02*
X0280721Y0165408D01*
X0280721Y0165723D02*
X0276307Y0165723D01*
X0276307Y0167696D02*
X0280721Y0167696D01*
X0280721Y0166432D01*
X0276307Y0166432D01*
X0276307Y0167696D01*
X0276307Y0166747D02*
X0280721Y0166747D01*
X0280721Y0167062D02*
X0276307Y0167062D01*
X0276307Y0167377D02*
X0280721Y0167377D01*
X0280721Y0167692D02*
X0276307Y0167692D01*
X0276307Y0169664D02*
X0280721Y0169664D01*
X0280721Y0168400D01*
X0276307Y0168400D01*
X0276307Y0169664D01*
X0276307Y0168715D02*
X0280721Y0168715D01*
X0280721Y0169030D02*
X0276307Y0169030D01*
X0276307Y0169345D02*
X0280721Y0169345D01*
X0280721Y0169660D02*
X0276307Y0169660D01*
X0276307Y0171633D02*
X0280721Y0171633D01*
X0280721Y0170369D01*
X0276307Y0170369D01*
X0276307Y0171633D01*
X0276307Y0170684D02*
X0280721Y0170684D01*
X0280721Y0170999D02*
X0276307Y0170999D01*
X0276307Y0171314D02*
X0280721Y0171314D01*
X0280721Y0171629D02*
X0276307Y0171629D01*
X0276307Y0173601D02*
X0280721Y0173601D01*
X0280721Y0172337D01*
X0276307Y0172337D01*
X0276307Y0173601D01*
X0276307Y0172652D02*
X0280721Y0172652D01*
X0280721Y0172967D02*
X0276307Y0172967D01*
X0276307Y0173282D02*
X0280721Y0173282D01*
X0280721Y0173597D02*
X0276307Y0173597D01*
X0276307Y0179507D02*
X0280721Y0179507D01*
X0280721Y0178243D01*
X0276307Y0178243D01*
X0276307Y0179507D01*
X0276307Y0178558D02*
X0280721Y0178558D01*
X0280721Y0178873D02*
X0276307Y0178873D01*
X0276307Y0179188D02*
X0280721Y0179188D01*
X0280721Y0179503D02*
X0276307Y0179503D01*
X0276307Y0181475D02*
X0280721Y0181475D01*
X0280721Y0180211D01*
X0276307Y0180211D01*
X0276307Y0181475D01*
X0276307Y0180526D02*
X0280721Y0180526D01*
X0280721Y0180841D02*
X0276307Y0180841D01*
X0276307Y0181156D02*
X0280721Y0181156D01*
X0280721Y0181471D02*
X0276307Y0181471D01*
X0276307Y0183444D02*
X0280721Y0183444D01*
X0280721Y0182180D01*
X0276307Y0182180D01*
X0276307Y0183444D01*
X0276307Y0182495D02*
X0280721Y0182495D01*
X0280721Y0182810D02*
X0276307Y0182810D01*
X0276307Y0183125D02*
X0280721Y0183125D01*
X0280721Y0183440D02*
X0276307Y0183440D01*
X0276307Y0185412D02*
X0280721Y0185412D01*
X0280721Y0184148D01*
X0276307Y0184148D01*
X0276307Y0185412D01*
X0276307Y0184463D02*
X0280721Y0184463D01*
X0280721Y0184778D02*
X0276307Y0184778D01*
X0276307Y0185093D02*
X0280721Y0185093D01*
X0280721Y0185408D02*
X0276307Y0185408D01*
X0276307Y0187381D02*
X0280721Y0187381D01*
X0280721Y0186117D01*
X0276307Y0186117D01*
X0276307Y0187381D01*
X0276307Y0186432D02*
X0280721Y0186432D01*
X0280721Y0186747D02*
X0276307Y0186747D01*
X0276307Y0187062D02*
X0280721Y0187062D01*
X0280721Y0187377D02*
X0276307Y0187377D01*
X0276307Y0189349D02*
X0280721Y0189349D01*
X0280721Y0188085D01*
X0276307Y0188085D01*
X0276307Y0189349D01*
X0276307Y0188400D02*
X0280721Y0188400D01*
X0280721Y0188715D02*
X0276307Y0188715D01*
X0276307Y0189030D02*
X0280721Y0189030D01*
X0280721Y0189345D02*
X0276307Y0189345D01*
X0276307Y0191318D02*
X0280721Y0191318D01*
X0280721Y0190054D01*
X0276307Y0190054D01*
X0276307Y0191318D01*
X0276307Y0190369D02*
X0280721Y0190369D01*
X0280721Y0190684D02*
X0276307Y0190684D01*
X0276307Y0190999D02*
X0280721Y0190999D01*
X0280721Y0191314D02*
X0276307Y0191314D01*
X0276307Y0193286D02*
X0280721Y0193286D01*
X0280721Y0192022D01*
X0276307Y0192022D01*
X0276307Y0193286D01*
X0276307Y0192337D02*
X0280721Y0192337D01*
X0280721Y0192652D02*
X0276307Y0192652D01*
X0276307Y0192967D02*
X0280721Y0192967D01*
X0280721Y0193282D02*
X0276307Y0193282D01*
X0276307Y0195255D02*
X0280721Y0195255D01*
X0280721Y0193991D01*
X0276307Y0193991D01*
X0276307Y0195255D01*
X0276307Y0194306D02*
X0280721Y0194306D01*
X0280721Y0194621D02*
X0276307Y0194621D01*
X0276307Y0194936D02*
X0280721Y0194936D01*
X0280721Y0195251D02*
X0276307Y0195251D01*
X0276307Y0197223D02*
X0280721Y0197223D01*
X0280721Y0195959D01*
X0276307Y0195959D01*
X0276307Y0197223D01*
X0276307Y0196274D02*
X0280721Y0196274D01*
X0280721Y0196589D02*
X0276307Y0196589D01*
X0276307Y0196904D02*
X0280721Y0196904D01*
X0280721Y0197219D02*
X0276307Y0197219D01*
X0276307Y0203129D02*
X0280721Y0203129D01*
X0280721Y0201865D01*
X0276307Y0201865D01*
X0276307Y0203129D01*
X0276307Y0202180D02*
X0280721Y0202180D01*
X0280721Y0202495D02*
X0276307Y0202495D01*
X0276307Y0202810D02*
X0280721Y0202810D01*
X0280721Y0203125D02*
X0276307Y0203125D01*
X0276307Y0205097D02*
X0280721Y0205097D01*
X0280721Y0203833D01*
X0276307Y0203833D01*
X0276307Y0205097D01*
X0276307Y0204148D02*
X0280721Y0204148D01*
X0280721Y0204463D02*
X0276307Y0204463D01*
X0276307Y0204778D02*
X0280721Y0204778D01*
X0280721Y0205093D02*
X0276307Y0205093D01*
X0276307Y0207066D02*
X0280721Y0207066D01*
X0280721Y0205802D01*
X0276307Y0205802D01*
X0276307Y0207066D01*
X0276307Y0206117D02*
X0280721Y0206117D01*
X0280721Y0206432D02*
X0276307Y0206432D01*
X0276307Y0206747D02*
X0280721Y0206747D01*
X0280721Y0207062D02*
X0276307Y0207062D01*
X0276307Y0209034D02*
X0280721Y0209034D01*
X0280721Y0207770D01*
X0276307Y0207770D01*
X0276307Y0209034D01*
X0276307Y0208085D02*
X0280721Y0208085D01*
X0280721Y0208400D02*
X0276307Y0208400D01*
X0276307Y0208715D02*
X0280721Y0208715D01*
X0280721Y0209030D02*
X0276307Y0209030D01*
X0276307Y0211003D02*
X0280721Y0211003D01*
X0280721Y0209739D01*
X0276307Y0209739D01*
X0276307Y0211003D01*
X0276307Y0210054D02*
X0280721Y0210054D01*
X0280721Y0210369D02*
X0276307Y0210369D01*
X0276307Y0210684D02*
X0280721Y0210684D01*
X0280721Y0210999D02*
X0276307Y0210999D01*
X0296779Y0211003D02*
X0301193Y0211003D01*
X0301193Y0209739D01*
X0296779Y0209739D01*
X0296779Y0211003D01*
X0296779Y0210054D02*
X0301193Y0210054D01*
X0301193Y0210369D02*
X0296779Y0210369D01*
X0296779Y0210684D02*
X0301193Y0210684D01*
X0301193Y0210999D02*
X0296779Y0210999D01*
X0296779Y0209034D02*
X0301193Y0209034D01*
X0301193Y0207770D01*
X0296779Y0207770D01*
X0296779Y0209034D01*
X0296779Y0208085D02*
X0301193Y0208085D01*
X0301193Y0208400D02*
X0296779Y0208400D01*
X0296779Y0208715D02*
X0301193Y0208715D01*
X0301193Y0209030D02*
X0296779Y0209030D01*
X0296779Y0207066D02*
X0301193Y0207066D01*
X0301193Y0205802D01*
X0296779Y0205802D01*
X0296779Y0207066D01*
X0296779Y0206117D02*
X0301193Y0206117D01*
X0301193Y0206432D02*
X0296779Y0206432D01*
X0296779Y0206747D02*
X0301193Y0206747D01*
X0301193Y0207062D02*
X0296779Y0207062D01*
X0296779Y0205097D02*
X0301193Y0205097D01*
X0301193Y0203833D01*
X0296779Y0203833D01*
X0296779Y0205097D01*
X0296779Y0204148D02*
X0301193Y0204148D01*
X0301193Y0204463D02*
X0296779Y0204463D01*
X0296779Y0204778D02*
X0301193Y0204778D01*
X0301193Y0205093D02*
X0296779Y0205093D01*
X0296779Y0203129D02*
X0301193Y0203129D01*
X0301193Y0201865D01*
X0296779Y0201865D01*
X0296779Y0203129D01*
X0296779Y0202180D02*
X0301193Y0202180D01*
X0301193Y0202495D02*
X0296779Y0202495D01*
X0296779Y0202810D02*
X0301193Y0202810D01*
X0301193Y0203125D02*
X0296779Y0203125D01*
X0296779Y0197223D02*
X0301193Y0197223D01*
X0301193Y0195959D01*
X0296779Y0195959D01*
X0296779Y0197223D01*
X0296779Y0196274D02*
X0301193Y0196274D01*
X0301193Y0196589D02*
X0296779Y0196589D01*
X0296779Y0196904D02*
X0301193Y0196904D01*
X0301193Y0197219D02*
X0296779Y0197219D01*
X0296779Y0195255D02*
X0301193Y0195255D01*
X0301193Y0193991D01*
X0296779Y0193991D01*
X0296779Y0195255D01*
X0296779Y0194306D02*
X0301193Y0194306D01*
X0301193Y0194621D02*
X0296779Y0194621D01*
X0296779Y0194936D02*
X0301193Y0194936D01*
X0301193Y0195251D02*
X0296779Y0195251D01*
X0296779Y0193286D02*
X0301193Y0193286D01*
X0301193Y0192022D01*
X0296779Y0192022D01*
X0296779Y0193286D01*
X0296779Y0192337D02*
X0301193Y0192337D01*
X0301193Y0192652D02*
X0296779Y0192652D01*
X0296779Y0192967D02*
X0301193Y0192967D01*
X0301193Y0193282D02*
X0296779Y0193282D01*
X0296779Y0191318D02*
X0301193Y0191318D01*
X0301193Y0190054D01*
X0296779Y0190054D01*
X0296779Y0191318D01*
X0296779Y0190369D02*
X0301193Y0190369D01*
X0301193Y0190684D02*
X0296779Y0190684D01*
X0296779Y0190999D02*
X0301193Y0190999D01*
X0301193Y0191314D02*
X0296779Y0191314D01*
X0296779Y0189349D02*
X0301193Y0189349D01*
X0301193Y0188085D01*
X0296779Y0188085D01*
X0296779Y0189349D01*
X0296779Y0188400D02*
X0301193Y0188400D01*
X0301193Y0188715D02*
X0296779Y0188715D01*
X0296779Y0189030D02*
X0301193Y0189030D01*
X0301193Y0189345D02*
X0296779Y0189345D01*
X0296779Y0187381D02*
X0301193Y0187381D01*
X0301193Y0186117D01*
X0296779Y0186117D01*
X0296779Y0187381D01*
X0296779Y0186432D02*
X0301193Y0186432D01*
X0301193Y0186747D02*
X0296779Y0186747D01*
X0296779Y0187062D02*
X0301193Y0187062D01*
X0301193Y0187377D02*
X0296779Y0187377D01*
X0296779Y0185412D02*
X0301193Y0185412D01*
X0301193Y0184148D01*
X0296779Y0184148D01*
X0296779Y0185412D01*
X0296779Y0184463D02*
X0301193Y0184463D01*
X0301193Y0184778D02*
X0296779Y0184778D01*
X0296779Y0185093D02*
X0301193Y0185093D01*
X0301193Y0185408D02*
X0296779Y0185408D01*
X0296779Y0183444D02*
X0301193Y0183444D01*
X0301193Y0182180D01*
X0296779Y0182180D01*
X0296779Y0183444D01*
X0296779Y0182495D02*
X0301193Y0182495D01*
X0301193Y0182810D02*
X0296779Y0182810D01*
X0296779Y0183125D02*
X0301193Y0183125D01*
X0301193Y0183440D02*
X0296779Y0183440D01*
X0296779Y0181475D02*
X0301193Y0181475D01*
X0301193Y0180211D01*
X0296779Y0180211D01*
X0296779Y0181475D01*
X0296779Y0180526D02*
X0301193Y0180526D01*
X0301193Y0180841D02*
X0296779Y0180841D01*
X0296779Y0181156D02*
X0301193Y0181156D01*
X0301193Y0181471D02*
X0296779Y0181471D01*
X0296779Y0179507D02*
X0301193Y0179507D01*
X0301193Y0178243D01*
X0296779Y0178243D01*
X0296779Y0179507D01*
X0296779Y0178558D02*
X0301193Y0178558D01*
X0301193Y0178873D02*
X0296779Y0178873D01*
X0296779Y0179188D02*
X0301193Y0179188D01*
X0301193Y0179503D02*
X0296779Y0179503D01*
X0296779Y0173601D02*
X0301193Y0173601D01*
X0301193Y0172337D01*
X0296779Y0172337D01*
X0296779Y0173601D01*
X0296779Y0172652D02*
X0301193Y0172652D01*
X0301193Y0172967D02*
X0296779Y0172967D01*
X0296779Y0173282D02*
X0301193Y0173282D01*
X0301193Y0173597D02*
X0296779Y0173597D01*
X0296779Y0171633D02*
X0301193Y0171633D01*
X0301193Y0170369D01*
X0296779Y0170369D01*
X0296779Y0171633D01*
X0296779Y0170684D02*
X0301193Y0170684D01*
X0301193Y0170999D02*
X0296779Y0170999D01*
X0296779Y0171314D02*
X0301193Y0171314D01*
X0301193Y0171629D02*
X0296779Y0171629D01*
X0296779Y0169664D02*
X0301193Y0169664D01*
X0301193Y0168400D01*
X0296779Y0168400D01*
X0296779Y0169664D01*
X0296779Y0168715D02*
X0301193Y0168715D01*
X0301193Y0169030D02*
X0296779Y0169030D01*
X0296779Y0169345D02*
X0301193Y0169345D01*
X0301193Y0169660D02*
X0296779Y0169660D01*
X0296779Y0167696D02*
X0301193Y0167696D01*
X0301193Y0166432D01*
X0296779Y0166432D01*
X0296779Y0167696D01*
X0296779Y0166747D02*
X0301193Y0166747D01*
X0301193Y0167062D02*
X0296779Y0167062D01*
X0296779Y0167377D02*
X0301193Y0167377D01*
X0301193Y0167692D02*
X0296779Y0167692D01*
X0296779Y0165727D02*
X0301193Y0165727D01*
X0301193Y0164463D01*
X0296779Y0164463D01*
X0296779Y0165727D01*
X0296779Y0164778D02*
X0301193Y0164778D01*
X0301193Y0165093D02*
X0296779Y0165093D01*
X0296779Y0165408D02*
X0301193Y0165408D01*
X0301193Y0165723D02*
X0296779Y0165723D01*
X0296779Y0163759D02*
X0301193Y0163759D01*
X0301193Y0162495D01*
X0296779Y0162495D01*
X0296779Y0163759D01*
X0296779Y0162810D02*
X0301193Y0162810D01*
X0301193Y0163125D02*
X0296779Y0163125D01*
X0296779Y0163440D02*
X0301193Y0163440D01*
X0301193Y0163755D02*
X0296779Y0163755D01*
X0296779Y0161790D02*
X0301193Y0161790D01*
X0301193Y0160526D01*
X0296779Y0160526D01*
X0296779Y0161790D01*
X0296779Y0160841D02*
X0301193Y0160841D01*
X0301193Y0161156D02*
X0296779Y0161156D01*
X0296779Y0161471D02*
X0301193Y0161471D01*
X0301193Y0161786D02*
X0296779Y0161786D01*
X0296779Y0159822D02*
X0301193Y0159822D01*
X0301193Y0158558D01*
X0296779Y0158558D01*
X0296779Y0159822D01*
X0296779Y0158873D02*
X0301193Y0158873D01*
X0301193Y0159188D02*
X0296779Y0159188D01*
X0296779Y0159503D02*
X0301193Y0159503D01*
X0301193Y0159818D02*
X0296779Y0159818D01*
X0296779Y0157853D02*
X0301193Y0157853D01*
X0301193Y0156589D01*
X0296779Y0156589D01*
X0296779Y0157853D01*
X0296779Y0156904D02*
X0301193Y0156904D01*
X0301193Y0157219D02*
X0296779Y0157219D01*
X0296779Y0157534D02*
X0301193Y0157534D01*
X0301193Y0157849D02*
X0296779Y0157849D01*
X0296779Y0155885D02*
X0301193Y0155885D01*
X0301193Y0154621D01*
X0296779Y0154621D01*
X0296779Y0155885D01*
X0296779Y0154936D02*
X0301193Y0154936D01*
X0301193Y0155251D02*
X0296779Y0155251D01*
X0296779Y0155566D02*
X0301193Y0155566D01*
X0301193Y0155881D02*
X0296779Y0155881D01*
X0296779Y0149979D02*
X0301193Y0149979D01*
X0301193Y0148715D01*
X0296779Y0148715D01*
X0296779Y0149979D01*
X0296779Y0149030D02*
X0301193Y0149030D01*
X0301193Y0149345D02*
X0296779Y0149345D01*
X0296779Y0149660D02*
X0301193Y0149660D01*
X0301193Y0149975D02*
X0296779Y0149975D01*
X0296779Y0148011D02*
X0301193Y0148011D01*
X0301193Y0146747D01*
X0296779Y0146747D01*
X0296779Y0148011D01*
X0296779Y0147062D02*
X0301193Y0147062D01*
X0301193Y0147377D02*
X0296779Y0147377D01*
X0296779Y0147692D02*
X0301193Y0147692D01*
X0301193Y0148007D02*
X0296779Y0148007D01*
X0296779Y0146042D02*
X0301193Y0146042D01*
X0301193Y0144778D01*
X0296779Y0144778D01*
X0296779Y0146042D01*
X0296779Y0145093D02*
X0301193Y0145093D01*
X0301193Y0145408D02*
X0296779Y0145408D01*
X0296779Y0145723D02*
X0301193Y0145723D01*
X0301193Y0146038D02*
X0296779Y0146038D01*
X0296779Y0144074D02*
X0301193Y0144074D01*
X0301193Y0142810D01*
X0296779Y0142810D01*
X0296779Y0144074D01*
X0296779Y0143125D02*
X0301193Y0143125D01*
X0301193Y0143440D02*
X0296779Y0143440D01*
X0296779Y0143755D02*
X0301193Y0143755D01*
X0301193Y0144070D02*
X0296779Y0144070D01*
X0296779Y0142105D02*
X0301193Y0142105D01*
X0301193Y0140841D01*
X0296779Y0140841D01*
X0296779Y0142105D01*
X0296779Y0141156D02*
X0301193Y0141156D01*
X0301193Y0141471D02*
X0296779Y0141471D01*
X0296779Y0141786D02*
X0301193Y0141786D01*
X0301193Y0142101D02*
X0296779Y0142101D01*
X0296779Y0140137D02*
X0301193Y0140137D01*
X0301193Y0138873D01*
X0296779Y0138873D01*
X0296779Y0140137D01*
X0296779Y0139188D02*
X0301193Y0139188D01*
X0301193Y0139503D02*
X0296779Y0139503D01*
X0296779Y0139818D02*
X0301193Y0139818D01*
X0301193Y0140133D02*
X0296779Y0140133D01*
X0296779Y0138168D02*
X0301193Y0138168D01*
X0301193Y0136904D01*
X0296779Y0136904D01*
X0296779Y0138168D01*
X0296779Y0137219D02*
X0301193Y0137219D01*
X0301193Y0137534D02*
X0296779Y0137534D01*
X0296779Y0137849D02*
X0301193Y0137849D01*
X0301193Y0138164D02*
X0296779Y0138164D01*
X0296779Y0136200D02*
X0301193Y0136200D01*
X0301193Y0134936D01*
X0296779Y0134936D01*
X0296779Y0136200D01*
X0296779Y0135251D02*
X0301193Y0135251D01*
X0301193Y0135566D02*
X0296779Y0135566D01*
X0296779Y0135881D02*
X0301193Y0135881D01*
X0301193Y0136196D02*
X0296779Y0136196D01*
X0296779Y0134231D02*
X0301193Y0134231D01*
X0301193Y0132967D01*
X0296779Y0132967D01*
X0296779Y0134231D01*
X0296779Y0133282D02*
X0301193Y0133282D01*
X0301193Y0133597D02*
X0296779Y0133597D01*
X0296779Y0133912D02*
X0301193Y0133912D01*
X0301193Y0134227D02*
X0296779Y0134227D01*
X0296779Y0132263D02*
X0301193Y0132263D01*
X0301193Y0130999D01*
X0296779Y0130999D01*
X0296779Y0132263D01*
X0296779Y0131314D02*
X0301193Y0131314D01*
X0301193Y0131629D02*
X0296779Y0131629D01*
X0296779Y0131944D02*
X0301193Y0131944D01*
X0301193Y0132259D02*
X0296779Y0132259D01*
X0296779Y0126357D02*
X0301193Y0126357D01*
X0301193Y0125093D01*
X0296779Y0125093D01*
X0296779Y0126357D01*
X0296779Y0125408D02*
X0301193Y0125408D01*
X0301193Y0125723D02*
X0296779Y0125723D01*
X0296779Y0126038D02*
X0301193Y0126038D01*
X0301193Y0126353D02*
X0296779Y0126353D01*
X0296779Y0124389D02*
X0301193Y0124389D01*
X0301193Y0123125D01*
X0296779Y0123125D01*
X0296779Y0124389D01*
X0296779Y0123440D02*
X0301193Y0123440D01*
X0301193Y0123755D02*
X0296779Y0123755D01*
X0296779Y0124070D02*
X0301193Y0124070D01*
X0301193Y0124385D02*
X0296779Y0124385D01*
X0296779Y0122420D02*
X0301193Y0122420D01*
X0301193Y0121156D01*
X0296779Y0121156D01*
X0296779Y0122420D01*
X0296779Y0121471D02*
X0301193Y0121471D01*
X0301193Y0121786D02*
X0296779Y0121786D01*
X0296779Y0122101D02*
X0301193Y0122101D01*
X0301193Y0122416D02*
X0296779Y0122416D01*
X0296779Y0120452D02*
X0301193Y0120452D01*
X0301193Y0119188D01*
X0296779Y0119188D01*
X0296779Y0120452D01*
X0296779Y0119503D02*
X0301193Y0119503D01*
X0301193Y0119818D02*
X0296779Y0119818D01*
X0296779Y0120133D02*
X0301193Y0120133D01*
X0301193Y0120448D02*
X0296779Y0120448D01*
X0296779Y0118483D02*
X0301193Y0118483D01*
X0301193Y0117219D01*
X0296779Y0117219D01*
X0296779Y0118483D01*
X0296779Y0117534D02*
X0301193Y0117534D01*
X0301193Y0117849D02*
X0296779Y0117849D01*
X0296779Y0118164D02*
X0301193Y0118164D01*
X0301193Y0118479D02*
X0296779Y0118479D01*
X0296779Y0116515D02*
X0301193Y0116515D01*
X0301193Y0115251D01*
X0296779Y0115251D01*
X0296779Y0116515D01*
X0296779Y0115566D02*
X0301193Y0115566D01*
X0301193Y0115881D02*
X0296779Y0115881D01*
X0296779Y0116196D02*
X0301193Y0116196D01*
X0301193Y0116511D02*
X0296779Y0116511D01*
X0296779Y0114546D02*
X0301193Y0114546D01*
X0301193Y0113282D01*
X0296779Y0113282D01*
X0296779Y0114546D01*
X0296779Y0113597D02*
X0301193Y0113597D01*
X0301193Y0113912D02*
X0296779Y0113912D01*
X0296779Y0114227D02*
X0301193Y0114227D01*
X0301193Y0114542D02*
X0296779Y0114542D01*
X0296779Y0112578D02*
X0301193Y0112578D01*
X0301193Y0111314D01*
X0296779Y0111314D01*
X0296779Y0112578D01*
X0296779Y0111629D02*
X0301193Y0111629D01*
X0301193Y0111944D02*
X0296779Y0111944D01*
X0296779Y0112259D02*
X0301193Y0112259D01*
X0301193Y0112574D02*
X0296779Y0112574D01*
X0296779Y0110609D02*
X0301193Y0110609D01*
X0301193Y0109345D01*
X0296779Y0109345D01*
X0296779Y0110609D01*
X0296779Y0109660D02*
X0301193Y0109660D01*
X0301193Y0109975D02*
X0296779Y0109975D01*
X0296779Y0110290D02*
X0301193Y0110290D01*
X0301193Y0110605D02*
X0296779Y0110605D01*
X0296779Y0108641D02*
X0301193Y0108641D01*
X0301193Y0107377D01*
X0296779Y0107377D01*
X0296779Y0108641D01*
X0296779Y0107692D02*
X0301193Y0107692D01*
X0301193Y0108007D02*
X0296779Y0108007D01*
X0296779Y0108322D02*
X0301193Y0108322D01*
X0301193Y0108637D02*
X0296779Y0108637D01*
X0296779Y0102735D02*
X0301193Y0102735D01*
X0301193Y0101471D01*
X0296779Y0101471D01*
X0296779Y0102735D01*
X0296779Y0101786D02*
X0301193Y0101786D01*
X0301193Y0102101D02*
X0296779Y0102101D01*
X0296779Y0102416D02*
X0301193Y0102416D01*
X0301193Y0102731D02*
X0296779Y0102731D01*
X0296779Y0100767D02*
X0301193Y0100767D01*
X0301193Y0099503D01*
X0296779Y0099503D01*
X0296779Y0100767D01*
X0296779Y0099818D02*
X0301193Y0099818D01*
X0301193Y0100133D02*
X0296779Y0100133D01*
X0296779Y0100448D02*
X0301193Y0100448D01*
X0301193Y0100763D02*
X0296779Y0100763D01*
X0296779Y0098798D02*
X0301193Y0098798D01*
X0301193Y0097534D01*
X0296779Y0097534D01*
X0296779Y0098798D01*
X0296779Y0097849D02*
X0301193Y0097849D01*
X0301193Y0098164D02*
X0296779Y0098164D01*
X0296779Y0098479D02*
X0301193Y0098479D01*
X0301193Y0098794D02*
X0296779Y0098794D01*
X0296779Y0096830D02*
X0301193Y0096830D01*
X0301193Y0095566D01*
X0296779Y0095566D01*
X0296779Y0096830D01*
X0296779Y0095881D02*
X0301193Y0095881D01*
X0301193Y0096196D02*
X0296779Y0096196D01*
X0296779Y0096511D02*
X0301193Y0096511D01*
X0301193Y0096826D02*
X0296779Y0096826D01*
X0296779Y0094861D02*
X0301193Y0094861D01*
X0301193Y0093597D01*
X0296779Y0093597D01*
X0296779Y0094861D01*
X0296779Y0093912D02*
X0301193Y0093912D01*
X0301193Y0094227D02*
X0296779Y0094227D01*
X0296779Y0094542D02*
X0301193Y0094542D01*
X0301193Y0094857D02*
X0296779Y0094857D01*
D13*
X0295361Y0103793D02*
X0301037Y0103793D01*
X0295361Y0103793D02*
X0295361Y0106319D01*
X0301037Y0106319D01*
X0301037Y0103793D01*
X0301037Y0104423D02*
X0295361Y0104423D01*
X0295361Y0105053D02*
X0301037Y0105053D01*
X0301037Y0105683D02*
X0295361Y0105683D01*
X0295361Y0106313D02*
X0301037Y0106313D01*
X0282139Y0106319D02*
X0276463Y0106319D01*
X0282139Y0106319D02*
X0282139Y0103793D01*
X0276463Y0103793D01*
X0276463Y0106319D01*
X0276463Y0104423D02*
X0282139Y0104423D01*
X0282139Y0105053D02*
X0276463Y0105053D01*
X0276463Y0105683D02*
X0282139Y0105683D01*
X0282139Y0106313D02*
X0276463Y0106313D01*
X0276463Y0129941D02*
X0282139Y0129941D01*
X0282139Y0127415D01*
X0276463Y0127415D01*
X0276463Y0129941D01*
X0276463Y0128045D02*
X0282139Y0128045D01*
X0282139Y0128675D02*
X0276463Y0128675D01*
X0276463Y0129305D02*
X0282139Y0129305D01*
X0282139Y0129935D02*
X0276463Y0129935D01*
X0295361Y0127415D02*
X0301037Y0127415D01*
X0295361Y0127415D02*
X0295361Y0129941D01*
X0301037Y0129941D01*
X0301037Y0127415D01*
X0301037Y0128045D02*
X0295361Y0128045D01*
X0295361Y0128675D02*
X0301037Y0128675D01*
X0301037Y0129305D02*
X0295361Y0129305D01*
X0295361Y0129935D02*
X0301037Y0129935D01*
X0301037Y0151037D02*
X0295361Y0151037D01*
X0295361Y0153563D01*
X0301037Y0153563D01*
X0301037Y0151037D01*
X0301037Y0151667D02*
X0295361Y0151667D01*
X0295361Y0152297D02*
X0301037Y0152297D01*
X0301037Y0152927D02*
X0295361Y0152927D01*
X0295361Y0153557D02*
X0301037Y0153557D01*
X0282139Y0153563D02*
X0276463Y0153563D01*
X0282139Y0153563D02*
X0282139Y0151037D01*
X0276463Y0151037D01*
X0276463Y0153563D01*
X0276463Y0151667D02*
X0282139Y0151667D01*
X0282139Y0152297D02*
X0276463Y0152297D01*
X0276463Y0152927D02*
X0282139Y0152927D01*
X0282139Y0153557D02*
X0276463Y0153557D01*
X0276463Y0177185D02*
X0282139Y0177185D01*
X0282139Y0174659D01*
X0276463Y0174659D01*
X0276463Y0177185D01*
X0276463Y0175289D02*
X0282139Y0175289D01*
X0282139Y0175919D02*
X0276463Y0175919D01*
X0276463Y0176549D02*
X0282139Y0176549D01*
X0282139Y0177179D02*
X0276463Y0177179D01*
X0295361Y0174659D02*
X0301037Y0174659D01*
X0295361Y0174659D02*
X0295361Y0177185D01*
X0301037Y0177185D01*
X0301037Y0174659D01*
X0301037Y0175289D02*
X0295361Y0175289D01*
X0295361Y0175919D02*
X0301037Y0175919D01*
X0301037Y0176549D02*
X0295361Y0176549D01*
X0295361Y0177179D02*
X0301037Y0177179D01*
X0301037Y0198281D02*
X0295361Y0198281D01*
X0295361Y0200807D01*
X0301037Y0200807D01*
X0301037Y0198281D01*
X0301037Y0198911D02*
X0295361Y0198911D01*
X0295361Y0199541D02*
X0301037Y0199541D01*
X0301037Y0200171D02*
X0295361Y0200171D01*
X0295361Y0200801D02*
X0301037Y0200801D01*
X0282139Y0200807D02*
X0276463Y0200807D01*
X0282139Y0200807D02*
X0282139Y0198281D01*
X0276463Y0198281D01*
X0276463Y0200807D01*
X0276463Y0198911D02*
X0282139Y0198911D01*
X0282139Y0199541D02*
X0276463Y0199541D01*
X0276463Y0200171D02*
X0282139Y0200171D01*
X0282139Y0200801D02*
X0276463Y0200801D01*
X0126037Y0198281D02*
X0120361Y0198281D01*
X0120361Y0200807D01*
X0126037Y0200807D01*
X0126037Y0198281D01*
X0126037Y0198911D02*
X0120361Y0198911D01*
X0120361Y0199541D02*
X0126037Y0199541D01*
X0126037Y0200171D02*
X0120361Y0200171D01*
X0120361Y0200801D02*
X0126037Y0200801D01*
X0107139Y0200807D02*
X0101463Y0200807D01*
X0107139Y0200807D02*
X0107139Y0198281D01*
X0101463Y0198281D01*
X0101463Y0200807D01*
X0101463Y0198911D02*
X0107139Y0198911D01*
X0107139Y0199541D02*
X0101463Y0199541D01*
X0101463Y0200171D02*
X0107139Y0200171D01*
X0107139Y0200801D02*
X0101463Y0200801D01*
X0101463Y0177185D02*
X0107139Y0177185D01*
X0107139Y0174659D01*
X0101463Y0174659D01*
X0101463Y0177185D01*
X0101463Y0175289D02*
X0107139Y0175289D01*
X0107139Y0175919D02*
X0101463Y0175919D01*
X0101463Y0176549D02*
X0107139Y0176549D01*
X0107139Y0177179D02*
X0101463Y0177179D01*
X0120361Y0174659D02*
X0126037Y0174659D01*
X0120361Y0174659D02*
X0120361Y0177185D01*
X0126037Y0177185D01*
X0126037Y0174659D01*
X0126037Y0175289D02*
X0120361Y0175289D01*
X0120361Y0175919D02*
X0126037Y0175919D01*
X0126037Y0176549D02*
X0120361Y0176549D01*
X0120361Y0177179D02*
X0126037Y0177179D01*
X0126037Y0151037D02*
X0120361Y0151037D01*
X0120361Y0153563D01*
X0126037Y0153563D01*
X0126037Y0151037D01*
X0126037Y0151667D02*
X0120361Y0151667D01*
X0120361Y0152297D02*
X0126037Y0152297D01*
X0126037Y0152927D02*
X0120361Y0152927D01*
X0120361Y0153557D02*
X0126037Y0153557D01*
X0107139Y0153563D02*
X0101463Y0153563D01*
X0107139Y0153563D02*
X0107139Y0151037D01*
X0101463Y0151037D01*
X0101463Y0153563D01*
X0101463Y0151667D02*
X0107139Y0151667D01*
X0107139Y0152297D02*
X0101463Y0152297D01*
X0101463Y0152927D02*
X0107139Y0152927D01*
X0107139Y0153557D02*
X0101463Y0153557D01*
X0101463Y0129941D02*
X0107139Y0129941D01*
X0107139Y0127415D01*
X0101463Y0127415D01*
X0101463Y0129941D01*
X0101463Y0128045D02*
X0107139Y0128045D01*
X0107139Y0128675D02*
X0101463Y0128675D01*
X0101463Y0129305D02*
X0107139Y0129305D01*
X0107139Y0129935D02*
X0101463Y0129935D01*
X0120361Y0127415D02*
X0126037Y0127415D01*
X0120361Y0127415D02*
X0120361Y0129941D01*
X0126037Y0129941D01*
X0126037Y0127415D01*
X0126037Y0128045D02*
X0120361Y0128045D01*
X0120361Y0128675D02*
X0126037Y0128675D01*
X0126037Y0129305D02*
X0120361Y0129305D01*
X0120361Y0129935D02*
X0126037Y0129935D01*
X0126037Y0103793D02*
X0120361Y0103793D01*
X0120361Y0106319D01*
X0126037Y0106319D01*
X0126037Y0103793D01*
X0126037Y0104423D02*
X0120361Y0104423D01*
X0120361Y0105053D02*
X0126037Y0105053D01*
X0126037Y0105683D02*
X0120361Y0105683D01*
X0120361Y0106313D02*
X0126037Y0106313D01*
X0107139Y0106319D02*
X0101463Y0106319D01*
X0107139Y0106319D02*
X0107139Y0103793D01*
X0101463Y0103793D01*
X0101463Y0106319D01*
X0101463Y0104423D02*
X0107139Y0104423D01*
X0107139Y0105053D02*
X0101463Y0105053D01*
X0101463Y0105683D02*
X0107139Y0105683D01*
X0107139Y0106313D02*
X0101463Y0106313D01*
D14*
X0107984Y0078818D02*
X0119516Y0078818D01*
X0107984Y0078818D02*
X0107984Y0084444D01*
X0119516Y0084444D01*
X0119516Y0078818D01*
X0119516Y0079889D02*
X0107984Y0079889D01*
X0107984Y0080960D02*
X0119516Y0080960D01*
X0119516Y0082031D02*
X0107984Y0082031D01*
X0107984Y0083102D02*
X0119516Y0083102D01*
X0119516Y0084173D02*
X0107984Y0084173D01*
X0282984Y0084444D02*
X0294516Y0084444D01*
X0294516Y0078818D01*
X0282984Y0078818D01*
X0282984Y0084444D01*
X0282984Y0079889D02*
X0294516Y0079889D01*
X0294516Y0080960D02*
X0282984Y0080960D01*
X0282984Y0082031D02*
X0294516Y0082031D01*
X0294516Y0083102D02*
X0282984Y0083102D01*
X0282984Y0084173D02*
X0294516Y0084173D01*
X0294516Y0225782D02*
X0282984Y0225782D01*
X0294516Y0225782D02*
X0294516Y0220156D01*
X0282984Y0220156D01*
X0282984Y0225782D01*
X0282984Y0221227D02*
X0294516Y0221227D01*
X0294516Y0222298D02*
X0282984Y0222298D01*
X0282984Y0223369D02*
X0294516Y0223369D01*
X0294516Y0224440D02*
X0282984Y0224440D01*
X0282984Y0225511D02*
X0294516Y0225511D01*
X0119516Y0220156D02*
X0107984Y0220156D01*
X0107984Y0225782D01*
X0119516Y0225782D01*
X0119516Y0220156D01*
X0119516Y0221227D02*
X0107984Y0221227D01*
X0107984Y0222298D02*
X0119516Y0222298D01*
X0119516Y0223369D02*
X0107984Y0223369D01*
X0107984Y0224440D02*
X0119516Y0224440D01*
X0119516Y0225511D02*
X0107984Y0225511D01*
D15*
X0116189Y0246786D02*
X0116189Y0250728D01*
X0121311Y0250728D01*
X0121311Y0246786D01*
X0116189Y0246786D01*
X0116189Y0247771D02*
X0121311Y0247771D01*
X0121311Y0248756D02*
X0116189Y0248756D01*
X0116189Y0249741D02*
X0121311Y0249741D01*
X0121311Y0250726D02*
X0116189Y0250726D01*
X0116189Y0253872D02*
X0116189Y0257814D01*
X0121311Y0257814D01*
X0121311Y0253872D01*
X0116189Y0253872D01*
X0116189Y0254857D02*
X0121311Y0254857D01*
X0121311Y0255842D02*
X0116189Y0255842D01*
X0116189Y0256827D02*
X0121311Y0256827D01*
X0121311Y0257812D02*
X0116189Y0257812D01*
X0123689Y0257814D02*
X0123689Y0253872D01*
X0123689Y0257814D02*
X0128811Y0257814D01*
X0128811Y0253872D01*
X0123689Y0253872D01*
X0123689Y0254857D02*
X0128811Y0254857D01*
X0128811Y0255842D02*
X0123689Y0255842D01*
X0123689Y0256827D02*
X0128811Y0256827D01*
X0128811Y0257812D02*
X0123689Y0257812D01*
X0123689Y0250728D02*
X0123689Y0246786D01*
X0123689Y0250728D02*
X0128811Y0250728D01*
X0128811Y0246786D01*
X0123689Y0246786D01*
X0123689Y0247771D02*
X0128811Y0247771D01*
X0128811Y0248756D02*
X0123689Y0248756D01*
X0123689Y0249741D02*
X0128811Y0249741D01*
X0128811Y0250726D02*
X0123689Y0250726D01*
X0273689Y0250728D02*
X0273689Y0246786D01*
X0273689Y0250728D02*
X0278811Y0250728D01*
X0278811Y0246786D01*
X0273689Y0246786D01*
X0273689Y0247771D02*
X0278811Y0247771D01*
X0278811Y0248756D02*
X0273689Y0248756D01*
X0273689Y0249741D02*
X0278811Y0249741D01*
X0278811Y0250726D02*
X0273689Y0250726D01*
X0273689Y0253872D02*
X0273689Y0257814D01*
X0278811Y0257814D01*
X0278811Y0253872D01*
X0273689Y0253872D01*
X0273689Y0254857D02*
X0278811Y0254857D01*
X0278811Y0255842D02*
X0273689Y0255842D01*
X0273689Y0256827D02*
X0278811Y0256827D01*
X0278811Y0257812D02*
X0273689Y0257812D01*
X0281189Y0257814D02*
X0281189Y0253872D01*
X0281189Y0257814D02*
X0286311Y0257814D01*
X0286311Y0253872D01*
X0281189Y0253872D01*
X0281189Y0254857D02*
X0286311Y0254857D01*
X0286311Y0255842D02*
X0281189Y0255842D01*
X0281189Y0256827D02*
X0286311Y0256827D01*
X0286311Y0257812D02*
X0281189Y0257812D01*
X0281189Y0250728D02*
X0281189Y0246786D01*
X0281189Y0250728D02*
X0286311Y0250728D01*
X0286311Y0246786D01*
X0281189Y0246786D01*
X0281189Y0247771D02*
X0286311Y0247771D01*
X0286311Y0248756D02*
X0281189Y0248756D01*
X0281189Y0249741D02*
X0286311Y0249741D01*
X0286311Y0250726D02*
X0281189Y0250726D01*
X0286311Y0057814D02*
X0286311Y0053872D01*
X0281189Y0053872D01*
X0281189Y0057814D01*
X0286311Y0057814D01*
X0286311Y0054857D02*
X0281189Y0054857D01*
X0281189Y0055842D02*
X0286311Y0055842D01*
X0286311Y0056827D02*
X0281189Y0056827D01*
X0281189Y0057812D02*
X0286311Y0057812D01*
X0286311Y0050728D02*
X0286311Y0046786D01*
X0281189Y0046786D01*
X0281189Y0050728D01*
X0286311Y0050728D01*
X0286311Y0047771D02*
X0281189Y0047771D01*
X0281189Y0048756D02*
X0286311Y0048756D01*
X0286311Y0049741D02*
X0281189Y0049741D01*
X0281189Y0050726D02*
X0286311Y0050726D01*
X0278811Y0050728D02*
X0278811Y0046786D01*
X0273689Y0046786D01*
X0273689Y0050728D01*
X0278811Y0050728D01*
X0278811Y0047771D02*
X0273689Y0047771D01*
X0273689Y0048756D02*
X0278811Y0048756D01*
X0278811Y0049741D02*
X0273689Y0049741D01*
X0273689Y0050726D02*
X0278811Y0050726D01*
X0278811Y0053872D02*
X0278811Y0057814D01*
X0278811Y0053872D02*
X0273689Y0053872D01*
X0273689Y0057814D01*
X0278811Y0057814D01*
X0278811Y0054857D02*
X0273689Y0054857D01*
X0273689Y0055842D02*
X0278811Y0055842D01*
X0278811Y0056827D02*
X0273689Y0056827D01*
X0273689Y0057812D02*
X0278811Y0057812D01*
X0128811Y0057814D02*
X0128811Y0053872D01*
X0123689Y0053872D01*
X0123689Y0057814D01*
X0128811Y0057814D01*
X0128811Y0054857D02*
X0123689Y0054857D01*
X0123689Y0055842D02*
X0128811Y0055842D01*
X0128811Y0056827D02*
X0123689Y0056827D01*
X0123689Y0057812D02*
X0128811Y0057812D01*
X0128811Y0050728D02*
X0128811Y0046786D01*
X0123689Y0046786D01*
X0123689Y0050728D01*
X0128811Y0050728D01*
X0128811Y0047771D02*
X0123689Y0047771D01*
X0123689Y0048756D02*
X0128811Y0048756D01*
X0128811Y0049741D02*
X0123689Y0049741D01*
X0123689Y0050726D02*
X0128811Y0050726D01*
X0121311Y0050728D02*
X0121311Y0046786D01*
X0116189Y0046786D01*
X0116189Y0050728D01*
X0121311Y0050728D01*
X0121311Y0047771D02*
X0116189Y0047771D01*
X0116189Y0048756D02*
X0121311Y0048756D01*
X0121311Y0049741D02*
X0116189Y0049741D01*
X0116189Y0050726D02*
X0121311Y0050726D01*
X0121311Y0053872D02*
X0121311Y0057814D01*
X0121311Y0053872D02*
X0116189Y0053872D01*
X0116189Y0057814D01*
X0121311Y0057814D01*
X0121311Y0054857D02*
X0116189Y0054857D01*
X0116189Y0055842D02*
X0121311Y0055842D01*
X0121311Y0056827D02*
X0116189Y0056827D01*
X0116189Y0057812D02*
X0121311Y0057812D01*
D16*
X0093750Y0069800D03*
X0103750Y0069800D03*
X0298750Y0069800D03*
X0308750Y0069800D03*
X0308750Y0234800D03*
X0298750Y0234800D03*
X0103750Y0234800D03*
X0093750Y0234800D03*
D17*
X0098750Y0222300D03*
X0098750Y0082300D03*
X0303750Y0082300D03*
X0303750Y0222300D03*
D18*
X0298750Y0249800D03*
X0103750Y0249800D03*
X0103750Y0054800D03*
X0298750Y0054800D03*
M02*
