%
M48
M72
T01C0.0080
T02C0.0400
T03C0.0443
T04C0.0482
T05C0.1024
%
T01
X9125Y5230
X9739Y5480
X9925Y5030
X10375Y4844
X10825Y5030
X11011Y5480
X10825Y5930
X10375Y6116
X9925Y5930
X9125Y6230
X9875Y7730
X9125Y8230
X9125Y9230
X9975Y9423
X9975Y10013
X9750Y10506
X9125Y10230
X9125Y11230
X9750Y11982
X9125Y12230
X9750Y12868
X9125Y13230
X9750Y13754
X9750Y14344
X9125Y14230
X9125Y15230
X9750Y15230
X9750Y16116
X9750Y16706
X9125Y16230
X9125Y17230
X9750Y17592
X9125Y18230
X9750Y18730
X9125Y19230
X9750Y19967
X9125Y20230
X9750Y20730
X9125Y21230
X9125Y22230
X9875Y22730
X10375Y22355
X10750Y21605
X10850Y21037
X11025Y20840
X10850Y20643
X11125Y20230
X11025Y19659
X10850Y19462
X11025Y19265
X11625Y19368
X12025Y19265
X12775Y19069
X13125Y19105
X12775Y19462
X13125Y19855
X13625Y19605
X14125Y19355
X14625Y19105
X15125Y18855
X15625Y18605
X15125Y18105
X14625Y18355
X14125Y18605
X13625Y18855
X13125Y18355
X13625Y18105
X14125Y17855
X14625Y17605
X15125Y17355
X15625Y17105
X15125Y16605
X14625Y16855
X14125Y17105
X13750Y16730
X14125Y16355
X14625Y16105
X14125Y15605
X13375Y15580
X12875Y16105
X12875Y16730
X12875Y17355
X13125Y17605
X13625Y17355
X11625Y17730
X11125Y17618
X11002Y17100
X10852Y16903
X11002Y16510
X10852Y16313
X11002Y15919
X10852Y15722
X11375Y15855
X11375Y15230
X11002Y14738
X10852Y14541
X11002Y14147
X10852Y13950
X11002Y13557
X10852Y13360
X11125Y12868
X11625Y12730
X11002Y12376
X10852Y12179
X11125Y11980
X11625Y11980
X13125Y12105
X13625Y12355
X14125Y12605
X14625Y12855
X15125Y13105
X15625Y13355
X15125Y13855
X14625Y13605
X14125Y13355
X13750Y13730
X14125Y14105
X14625Y14355
X14125Y14855
X13625Y14355
X13125Y14880
X12875Y14355
X12875Y13730
X12875Y13105
X13125Y12855
X13625Y13105
X14625Y12105
X14125Y11855
X14625Y11355
X14125Y11105
X13625Y10855
X13125Y10605
X13625Y10105
X13125Y9855
X12775Y9817
X12025Y10013
X12025Y9620
X11125Y10011
X10725Y9620
X11125Y10480
X11625Y10480
X13125Y11355
X13625Y11605
X14625Y10605
X14125Y10355
X14625Y9855
X14125Y9605
X13625Y9355
X13125Y9105
X13625Y8605
X14000Y8230
X14125Y8855
X14625Y9105
X15125Y9355
X15625Y9605
X16125Y9855
X16625Y10105
X17125Y10355
X17625Y9855
X17875Y9480
X17875Y8855
X17875Y8230
X17250Y8855
X16625Y8605
X16125Y8355
X15500Y8230
X15125Y8605
X14750Y8230
X15625Y8855
X16125Y9105
X16625Y9355
X17125Y9605
X16125Y10605
X16625Y10855
X16125Y11355
X15625Y11105
X15125Y10855
X15625Y10355
X15125Y10105
X15125Y11605
X15625Y11855
X15125Y12355
X15625Y12605
X11375Y13730
X11375Y14355
X11375Y16730
X10852Y18084
X11002Y18281
X11125Y18730
X11625Y18480
X12024Y20349
X12775Y20348
X12775Y20643
X13125Y20605
X13625Y20355
X14125Y20105
X14625Y19855
X15125Y19605
X15625Y19355
X16125Y19855
X16625Y20355
X16125Y20605
X15625Y20855
X15125Y21105
X14625Y21355
X14125Y21605
X14125Y22230
X14750Y22230
X15250Y21980
X15875Y21855
X16625Y21855
X17000Y22230
X17125Y21605
X16625Y21105
X17125Y20855
X18125Y21855
X18500Y22230
X18125Y23330
X18875Y23330
X19042Y24285
X18845Y24530
X18649Y24680
X18255Y24530
X18058Y24680
X17664Y24530
X17468Y24680
X17074Y24530
X16877Y24680
X16680Y24285
X17271Y24285
X17861Y24285
X18452Y24285
X19239Y24680
X19436Y24530
X19633Y24285
X20125Y24230
X20375Y23980
X20625Y23330
X21125Y23330
X21125Y23980
X21875Y23980
X21875Y23330
X22625Y23330
X23125Y23330
X23875Y23330
X24375Y23330
X24000Y23980
X23767Y24122
X23570Y24530
X23373Y24680
X22979Y24530
X22782Y24680
X22586Y24285
X23176Y24285
X24554Y24679
X25145Y24679
X25735Y24679
X25932Y24285
X25342Y24285
X26227Y23498
X27113Y24380
X26916Y24680
X26523Y24679
X27500Y24980
X27750Y24980
X27750Y25480
X27500Y25480
X28250Y25480
X28500Y25480
X28500Y24980
X28250Y24980
X29239Y24980
X29425Y25430
X29875Y25616
X30325Y25430
X30511Y24980
X30325Y24530
X29875Y24344
X29425Y24530
X28875Y23980
X30375Y22730
X31125Y22230
X31125Y21230
X30275Y21037
X30525Y20447
X31125Y20230
X30275Y19664
X30275Y19264
X30275Y19014
X30500Y18478
X31125Y18230
X30500Y17592
X31125Y17230
X30500Y16706
X30500Y16116
X31125Y16230
X31125Y15230
X30500Y15230
X29398Y14738
X29248Y14541
X29398Y14147
X29248Y13950
X29398Y13557
X29248Y13360
X29125Y12868
X28625Y12605
X28625Y11980
X29133Y11731
X29248Y12179
X29398Y12376
X30500Y12868
X31125Y13230
X30500Y13754
X30500Y14344
X31125Y14230
X29248Y15722
X29398Y15919
X29248Y16313
X29398Y16510
X29248Y16903
X29398Y17100
X28875Y16706
X28875Y16116
X28875Y15230
X28875Y14344
X28875Y13754
X27250Y13230
X26750Y13480
X27000Y13730
X26750Y14230
X26250Y14480
X26625Y14855
X27250Y14880
X27250Y15580
X27408Y16116
X26875Y16105
X26625Y15605
X26375Y15855
X25875Y16355
X26375Y16605
X26875Y16855
X26375Y17355
X26875Y17605
X27408Y17592
X27408Y17297
X27408Y16706
X25875Y17105
X25375Y16855
X24875Y17355
X25375Y17605
X25875Y17855
X26375Y18105
X26875Y18355
X26375Y18855
X25875Y18605
X25375Y18355
X24875Y18105
X24375Y17855
X23875Y18355
X24375Y18605
X24875Y18855
X25375Y19105
X25875Y19355
X26227Y19561
X26227Y19954
X26621Y19758
X27408Y19285
X27408Y18872
X27408Y18281
X28491Y18478
X28883Y18481
X29248Y18084
X29398Y18281
X29133Y17731
X28633Y17731
X31125Y19230
X29525Y20840
X29125Y20449
X28225Y20447
X28225Y20840
X27475Y20643
X25375Y19855
X24875Y19605
X24375Y19355
X23875Y19105
X23375Y18855
X22875Y19355
X23375Y19605
X23875Y19855
X24375Y20105
X24875Y20355
X25125Y20855
X24625Y21355
X24375Y20855
X23875Y20605
X23375Y20355
X22875Y20105
X22375Y19855
X21875Y20355
X21500Y20480
X21250Y20980
X20750Y20730
X20250Y21230
X20750Y21480
X21250Y21730
X21011Y22128
X20814Y22278
X20420Y22128
X20223Y22278
X19750Y22230
X20000Y21730
X21750Y21480
X22375Y21605
X22500Y21230
X22875Y20855
X22375Y20605
X22000Y20980
X23000Y21480
X23375Y21105
X23875Y21355
X23625Y21730
X23570Y22120
X22979Y22120
X22389Y22120
X21798Y22120
X24375Y22105
X27487Y22480
X31125Y24230
X31125Y25230
X30875Y25980
X30125Y26230
X29125Y26230
X28125Y26230
X27125Y26230
X26125Y26230
X26129Y25680
X25538Y25680
X24948Y25680
X24357Y25680
X23767Y25680
X23176Y25680
X22586Y25680
X21995Y25680
X21405Y25680
X20814Y25680
X20223Y25680
X20125Y26230
X19633Y25680
X19042Y25680
X19125Y26230
X18452Y25680
X17861Y25680
X17271Y25680
X16680Y25680
X16090Y25680
X15499Y25680
X14908Y25680
X14318Y25680
X14125Y26230
X15125Y26230
X16125Y26230
X17125Y26230
X18125Y26230
X15875Y24355
X14908Y24285
X14712Y24530
X14515Y24680
X14121Y24380
X14318Y24088
X13727Y24380
X13531Y24680
X13334Y24380
X13137Y24680
X12750Y24980
X12500Y24980
X12500Y25480
X12750Y25480
X12000Y25480
X11750Y25480
X11750Y24980
X12000Y24980
X11011Y24980
X10825Y25430
X10375Y25616
X9925Y25430
X9739Y24980
X9925Y24530
X10375Y24344
X10825Y24530
X11375Y23980
X11575Y23105
X11625Y22880
X11875Y22855
X13137Y22292
X13025Y21899
X13625Y21105
X14125Y20855
X14625Y20605
X15125Y20355
X15625Y20105
X15625Y17855
X15375Y23355
X15875Y23355
X16625Y23355
X17375Y23355
X14875Y23605
X14625Y23355
X14125Y23730
X13924Y24680
X13125Y26230
X12125Y26230
X11125Y26230
X10125Y26230
X9375Y25980
X9125Y25230
X9125Y24230
X21125Y26230
X22125Y26230
X23125Y26230
X24125Y26230
X25125Y26230
X25750Y13980
X25250Y13480
X25750Y13230
X26250Y12980
X26750Y12730
X27000Y12230
X26750Y11980
X26250Y12230
X25750Y12480
X25250Y12730
X24750Y12980
X24250Y12480
X24750Y12230
X25250Y11980
X25750Y11730
X26250Y11480
X26750Y11230
X26250Y10730
X25750Y10980
X25250Y11230
X24750Y11480
X24250Y11730
X23750Y11980
X23250Y11480
X22750Y11230
X22500Y10730
X22250Y10480
X22000Y10730
X21666Y10796
X21602Y11035
X21375Y11230
X21000Y10730
X21500Y10480
X21750Y9980
X21500Y9730
X21125Y9355
X20625Y9605
X21000Y9980
X20500Y10230
X19625Y9355
X19125Y8855
X19625Y8605
X19000Y8230
X18845Y7180
X19436Y7180
X19875Y6480
X20125Y6230
X20617Y6175
X20814Y5930
X21011Y5780
X21208Y6175
X21798Y6175
X21995Y5930
X22192Y5780
X22389Y6175
X22979Y6175
X23176Y5930
X23373Y5780
X23767Y5930
X23964Y5780
X24160Y6175
X23570Y6175
X23570Y7180
X22979Y7180
X22389Y7180
X21798Y7180
X21208Y7180
X20617Y7180
X19436Y6175
X19042Y5930
X19239Y5780
X18845Y6175
X18500Y6480
X18255Y6175
X17861Y5930
X18058Y5780
X17664Y6175
X17375Y6480
X17074Y6175
X16680Y5930
X16877Y5780
X16483Y6338
X16250Y6480
X15499Y5930
X15696Y5780
X15105Y5780
X14908Y5930
X14712Y6175
X14250Y6480
X14121Y7180
X14712Y7180
X15302Y7180
X15302Y6175
X13727Y5781
X13334Y5780
X13137Y6080
X12750Y5480
X12500Y5480
X12500Y4980
X12750Y4980
X12000Y4980
X11750Y4980
X11750Y5480
X12000Y5480
X11375Y6480
X12763Y7980
X14121Y4780
X14712Y4780
X15302Y4780
X15893Y4780
X16483Y4780
X17071Y4780
X17664Y4780
X18255Y4780
X18845Y4780
X19436Y4780
X20027Y4780
X20125Y4230
X20617Y4780
X21208Y4780
X21125Y4230
X21798Y4780
X22389Y4780
X22976Y4780
X23570Y4780
X24160Y4780
X24751Y4780
X25342Y4780
X25932Y4780
X26125Y4230
X25125Y4230
X24125Y4230
X23125Y4230
X22125Y4230
X19125Y4230
X18125Y4230
X17125Y4230
X16125Y4230
X15125Y4230
X14125Y4230
X13125Y4230
X12125Y4230
X11125Y4230
X10125Y4230
X9375Y4480
X17074Y7180
X20625Y8230
X20625Y8855
X21375Y8855
X21625Y9105
X22000Y8730
X22250Y8980
X22625Y8605
X22375Y8355
X23000Y8230
X23000Y8980
X22750Y9480
X22500Y9980
X22000Y9480
X22750Y10480
X23250Y10730
X23750Y10480
X24250Y10230
X24750Y9980
X25250Y9730
X24750Y9230
X24250Y9480
X23750Y9730
X23500Y9480
X23250Y9980
X23750Y8980
X24250Y8730
X24250Y8230
X24160Y7180
X25660Y6180
X26129Y6080
X26326Y5780
X26523Y6080
X26719Y5780
X26916Y6080
X27113Y5780
X27500Y5480
X27750Y5480
X27750Y4980
X27500Y4980
X28250Y4980
X28500Y4980
X28500Y5480
X28250Y5480
X29239Y5480
X29425Y5030
X29875Y4844
X30325Y5030
X30511Y5480
X30325Y5930
X29875Y6116
X29425Y5930
X28875Y6480
X30375Y7730
X29875Y8230
X29875Y8980
X29525Y9423
X29225Y9620
X29525Y9817
X29125Y10355
X29225Y10801
X29525Y10998
X29225Y11195
X28625Y11105
X28225Y11195
X27475Y11391
X27250Y11605
X27475Y10998
X27375Y10480
X27475Y10112
X27475Y9817
X28226Y10111
X27225Y8561
X27113Y8168
X26125Y6730
X27125Y4230
X28125Y4230
X29125Y4230
X30125Y4230
X30875Y4480
X31125Y5230
X31125Y6230
X31125Y8230
X31125Y9230
X31125Y10230
X30375Y10480
X31125Y11230
X31125Y12230
X26250Y13730
X24250Y10980
X24750Y10730
X25250Y10480
X25750Y10230
X23750Y11230
X22000Y11230
T02
X29875Y6980
X30875Y6980
X10375Y6980
X9375Y6980
X9375Y23480
X10375Y23480
X29875Y23480
X30875Y23480
T03
X28875Y21608
X12566Y23980
X11375Y8852
X27684Y6480
T04
X28875Y8852
X12566Y6480
X11375Y21608
X27684Y23980
T05
X29875Y24980
X10375Y24980
X10375Y5480
X29875Y5480
M30
