G75*
%MOIN*%
%OFA0B0*%
%FSLAX25Y25*%
%IPPOS*%
%LPD*%
%AMOC8*
5,1,8,0,0,1.08239X$1,22.5*
%
%ADD10C,0.00236*%
%ADD11C,0.00551*%
%ADD12C,0.01008*%
%ADD13C,0.00906*%
D10*
X0101467Y0093757D02*
X0105561Y0093757D01*
X0101467Y0093757D02*
X0101467Y0094701D01*
X0105561Y0094701D01*
X0105561Y0093757D01*
X0105561Y0093992D02*
X0101467Y0093992D01*
X0101467Y0094227D02*
X0105561Y0094227D01*
X0105561Y0094462D02*
X0101467Y0094462D01*
X0101467Y0094697D02*
X0105561Y0094697D01*
X0105561Y0095726D02*
X0101467Y0095726D01*
X0101467Y0096670D01*
X0105561Y0096670D01*
X0105561Y0095726D01*
X0105561Y0095961D02*
X0101467Y0095961D01*
X0101467Y0096196D02*
X0105561Y0096196D01*
X0105561Y0096431D02*
X0101467Y0096431D01*
X0101467Y0096666D02*
X0105561Y0096666D01*
X0105561Y0097694D02*
X0101467Y0097694D01*
X0101467Y0098638D01*
X0105561Y0098638D01*
X0105561Y0097694D01*
X0105561Y0097929D02*
X0101467Y0097929D01*
X0101467Y0098164D02*
X0105561Y0098164D01*
X0105561Y0098399D02*
X0101467Y0098399D01*
X0101467Y0098634D02*
X0105561Y0098634D01*
X0105561Y0099663D02*
X0101467Y0099663D01*
X0101467Y0100607D01*
X0105561Y0100607D01*
X0105561Y0099663D01*
X0105561Y0099898D02*
X0101467Y0099898D01*
X0101467Y0100133D02*
X0105561Y0100133D01*
X0105561Y0100368D02*
X0101467Y0100368D01*
X0101467Y0100603D02*
X0105561Y0100603D01*
X0105561Y0101631D02*
X0101467Y0101631D01*
X0101467Y0102575D01*
X0105561Y0102575D01*
X0105561Y0101631D01*
X0105561Y0101866D02*
X0101467Y0101866D01*
X0101467Y0102101D02*
X0105561Y0102101D01*
X0105561Y0102336D02*
X0101467Y0102336D01*
X0101467Y0102571D02*
X0105561Y0102571D01*
X0105561Y0107537D02*
X0101467Y0107537D01*
X0101467Y0108481D01*
X0105561Y0108481D01*
X0105561Y0107537D01*
X0105561Y0107772D02*
X0101467Y0107772D01*
X0101467Y0108007D02*
X0105561Y0108007D01*
X0105561Y0108242D02*
X0101467Y0108242D01*
X0101467Y0108477D02*
X0105561Y0108477D01*
X0105561Y0109505D02*
X0101467Y0109505D01*
X0101467Y0110449D01*
X0105561Y0110449D01*
X0105561Y0109505D01*
X0105561Y0109740D02*
X0101467Y0109740D01*
X0101467Y0109975D02*
X0105561Y0109975D01*
X0105561Y0110210D02*
X0101467Y0110210D01*
X0101467Y0110445D02*
X0105561Y0110445D01*
X0105561Y0111474D02*
X0101467Y0111474D01*
X0101467Y0112418D01*
X0105561Y0112418D01*
X0105561Y0111474D01*
X0105561Y0111709D02*
X0101467Y0111709D01*
X0101467Y0111944D02*
X0105561Y0111944D01*
X0105561Y0112179D02*
X0101467Y0112179D01*
X0101467Y0112414D02*
X0105561Y0112414D01*
X0105561Y0113442D02*
X0101467Y0113442D01*
X0101467Y0114386D01*
X0105561Y0114386D01*
X0105561Y0113442D01*
X0105561Y0113677D02*
X0101467Y0113677D01*
X0101467Y0113912D02*
X0105561Y0113912D01*
X0105561Y0114147D02*
X0101467Y0114147D01*
X0101467Y0114382D02*
X0105561Y0114382D01*
X0105561Y0115411D02*
X0101467Y0115411D01*
X0101467Y0116355D01*
X0105561Y0116355D01*
X0105561Y0115411D01*
X0105561Y0115646D02*
X0101467Y0115646D01*
X0101467Y0115881D02*
X0105561Y0115881D01*
X0105561Y0116116D02*
X0101467Y0116116D01*
X0101467Y0116351D02*
X0105561Y0116351D01*
X0105561Y0117379D02*
X0101467Y0117379D01*
X0101467Y0118323D01*
X0105561Y0118323D01*
X0105561Y0117379D01*
X0105561Y0117614D02*
X0101467Y0117614D01*
X0101467Y0117849D02*
X0105561Y0117849D01*
X0105561Y0118084D02*
X0101467Y0118084D01*
X0101467Y0118319D02*
X0105561Y0118319D01*
X0105561Y0119348D02*
X0101467Y0119348D01*
X0101467Y0120292D01*
X0105561Y0120292D01*
X0105561Y0119348D01*
X0105561Y0119583D02*
X0101467Y0119583D01*
X0101467Y0119818D02*
X0105561Y0119818D01*
X0105561Y0120053D02*
X0101467Y0120053D01*
X0101467Y0120288D02*
X0105561Y0120288D01*
X0105561Y0121316D02*
X0101467Y0121316D01*
X0101467Y0122260D01*
X0105561Y0122260D01*
X0105561Y0121316D01*
X0105561Y0121551D02*
X0101467Y0121551D01*
X0101467Y0121786D02*
X0105561Y0121786D01*
X0105561Y0122021D02*
X0101467Y0122021D01*
X0101467Y0122256D02*
X0105561Y0122256D01*
X0105561Y0123285D02*
X0101467Y0123285D01*
X0101467Y0124229D01*
X0105561Y0124229D01*
X0105561Y0123285D01*
X0105561Y0123520D02*
X0101467Y0123520D01*
X0101467Y0123755D02*
X0105561Y0123755D01*
X0105561Y0123990D02*
X0101467Y0123990D01*
X0101467Y0124225D02*
X0105561Y0124225D01*
X0105561Y0125253D02*
X0101467Y0125253D01*
X0101467Y0126197D01*
X0105561Y0126197D01*
X0105561Y0125253D01*
X0105561Y0125488D02*
X0101467Y0125488D01*
X0101467Y0125723D02*
X0105561Y0125723D01*
X0105561Y0125958D02*
X0101467Y0125958D01*
X0101467Y0126193D02*
X0105561Y0126193D01*
X0105561Y0131159D02*
X0101467Y0131159D01*
X0101467Y0132103D01*
X0105561Y0132103D01*
X0105561Y0131159D01*
X0105561Y0131394D02*
X0101467Y0131394D01*
X0101467Y0131629D02*
X0105561Y0131629D01*
X0105561Y0131864D02*
X0101467Y0131864D01*
X0101467Y0132099D02*
X0105561Y0132099D01*
X0105561Y0133127D02*
X0101467Y0133127D01*
X0101467Y0134071D01*
X0105561Y0134071D01*
X0105561Y0133127D01*
X0105561Y0133362D02*
X0101467Y0133362D01*
X0101467Y0133597D02*
X0105561Y0133597D01*
X0105561Y0133832D02*
X0101467Y0133832D01*
X0101467Y0134067D02*
X0105561Y0134067D01*
X0105561Y0135096D02*
X0101467Y0135096D01*
X0101467Y0136040D01*
X0105561Y0136040D01*
X0105561Y0135096D01*
X0105561Y0135331D02*
X0101467Y0135331D01*
X0101467Y0135566D02*
X0105561Y0135566D01*
X0105561Y0135801D02*
X0101467Y0135801D01*
X0101467Y0136036D02*
X0105561Y0136036D01*
X0105561Y0137064D02*
X0101467Y0137064D01*
X0101467Y0138008D01*
X0105561Y0138008D01*
X0105561Y0137064D01*
X0105561Y0137299D02*
X0101467Y0137299D01*
X0101467Y0137534D02*
X0105561Y0137534D01*
X0105561Y0137769D02*
X0101467Y0137769D01*
X0101467Y0138004D02*
X0105561Y0138004D01*
X0105561Y0139033D02*
X0101467Y0139033D01*
X0101467Y0139977D01*
X0105561Y0139977D01*
X0105561Y0139033D01*
X0105561Y0139268D02*
X0101467Y0139268D01*
X0101467Y0139503D02*
X0105561Y0139503D01*
X0105561Y0139738D02*
X0101467Y0139738D01*
X0101467Y0139973D02*
X0105561Y0139973D01*
X0105561Y0141001D02*
X0101467Y0141001D01*
X0101467Y0141945D01*
X0105561Y0141945D01*
X0105561Y0141001D01*
X0105561Y0141236D02*
X0101467Y0141236D01*
X0101467Y0141471D02*
X0105561Y0141471D01*
X0105561Y0141706D02*
X0101467Y0141706D01*
X0101467Y0141941D02*
X0105561Y0141941D01*
X0105561Y0142970D02*
X0101467Y0142970D01*
X0101467Y0143914D01*
X0105561Y0143914D01*
X0105561Y0142970D01*
X0105561Y0143205D02*
X0101467Y0143205D01*
X0101467Y0143440D02*
X0105561Y0143440D01*
X0105561Y0143675D02*
X0101467Y0143675D01*
X0101467Y0143910D02*
X0105561Y0143910D01*
X0105561Y0144938D02*
X0101467Y0144938D01*
X0101467Y0145882D01*
X0105561Y0145882D01*
X0105561Y0144938D01*
X0105561Y0145173D02*
X0101467Y0145173D01*
X0101467Y0145408D02*
X0105561Y0145408D01*
X0105561Y0145643D02*
X0101467Y0145643D01*
X0101467Y0145878D02*
X0105561Y0145878D01*
X0105561Y0146907D02*
X0101467Y0146907D01*
X0101467Y0147851D01*
X0105561Y0147851D01*
X0105561Y0146907D01*
X0105561Y0147142D02*
X0101467Y0147142D01*
X0101467Y0147377D02*
X0105561Y0147377D01*
X0105561Y0147612D02*
X0101467Y0147612D01*
X0101467Y0147847D02*
X0105561Y0147847D01*
X0105561Y0148875D02*
X0101467Y0148875D01*
X0101467Y0149819D01*
X0105561Y0149819D01*
X0105561Y0148875D01*
X0105561Y0149110D02*
X0101467Y0149110D01*
X0101467Y0149345D02*
X0105561Y0149345D01*
X0105561Y0149580D02*
X0101467Y0149580D01*
X0101467Y0149815D02*
X0105561Y0149815D01*
X0105561Y0154781D02*
X0101467Y0154781D01*
X0101467Y0155725D01*
X0105561Y0155725D01*
X0105561Y0154781D01*
X0105561Y0155016D02*
X0101467Y0155016D01*
X0101467Y0155251D02*
X0105561Y0155251D01*
X0105561Y0155486D02*
X0101467Y0155486D01*
X0101467Y0155721D02*
X0105561Y0155721D01*
X0105561Y0156749D02*
X0101467Y0156749D01*
X0101467Y0157693D01*
X0105561Y0157693D01*
X0105561Y0156749D01*
X0105561Y0156984D02*
X0101467Y0156984D01*
X0101467Y0157219D02*
X0105561Y0157219D01*
X0105561Y0157454D02*
X0101467Y0157454D01*
X0101467Y0157689D02*
X0105561Y0157689D01*
X0105561Y0158718D02*
X0101467Y0158718D01*
X0101467Y0159662D01*
X0105561Y0159662D01*
X0105561Y0158718D01*
X0105561Y0158953D02*
X0101467Y0158953D01*
X0101467Y0159188D02*
X0105561Y0159188D01*
X0105561Y0159423D02*
X0101467Y0159423D01*
X0101467Y0159658D02*
X0105561Y0159658D01*
X0105561Y0160686D02*
X0101467Y0160686D01*
X0101467Y0161630D01*
X0105561Y0161630D01*
X0105561Y0160686D01*
X0105561Y0160921D02*
X0101467Y0160921D01*
X0101467Y0161156D02*
X0105561Y0161156D01*
X0105561Y0161391D02*
X0101467Y0161391D01*
X0101467Y0161626D02*
X0105561Y0161626D01*
X0105561Y0162655D02*
X0101467Y0162655D01*
X0101467Y0163599D01*
X0105561Y0163599D01*
X0105561Y0162655D01*
X0105561Y0162890D02*
X0101467Y0162890D01*
X0101467Y0163125D02*
X0105561Y0163125D01*
X0105561Y0163360D02*
X0101467Y0163360D01*
X0101467Y0163595D02*
X0105561Y0163595D01*
X0105561Y0164623D02*
X0101467Y0164623D01*
X0101467Y0165567D01*
X0105561Y0165567D01*
X0105561Y0164623D01*
X0105561Y0164858D02*
X0101467Y0164858D01*
X0101467Y0165093D02*
X0105561Y0165093D01*
X0105561Y0165328D02*
X0101467Y0165328D01*
X0101467Y0165563D02*
X0105561Y0165563D01*
X0105561Y0166592D02*
X0101467Y0166592D01*
X0101467Y0167536D01*
X0105561Y0167536D01*
X0105561Y0166592D01*
X0105561Y0166827D02*
X0101467Y0166827D01*
X0101467Y0167062D02*
X0105561Y0167062D01*
X0105561Y0167297D02*
X0101467Y0167297D01*
X0101467Y0167532D02*
X0105561Y0167532D01*
X0105561Y0168560D02*
X0101467Y0168560D01*
X0101467Y0169504D01*
X0105561Y0169504D01*
X0105561Y0168560D01*
X0105561Y0168795D02*
X0101467Y0168795D01*
X0101467Y0169030D02*
X0105561Y0169030D01*
X0105561Y0169265D02*
X0101467Y0169265D01*
X0101467Y0169500D02*
X0105561Y0169500D01*
X0105561Y0170529D02*
X0101467Y0170529D01*
X0101467Y0171473D01*
X0105561Y0171473D01*
X0105561Y0170529D01*
X0105561Y0170764D02*
X0101467Y0170764D01*
X0101467Y0170999D02*
X0105561Y0170999D01*
X0105561Y0171234D02*
X0101467Y0171234D01*
X0101467Y0171469D02*
X0105561Y0171469D01*
X0105561Y0172497D02*
X0101467Y0172497D01*
X0101467Y0173441D01*
X0105561Y0173441D01*
X0105561Y0172497D01*
X0105561Y0172732D02*
X0101467Y0172732D01*
X0101467Y0172967D02*
X0105561Y0172967D01*
X0105561Y0173202D02*
X0101467Y0173202D01*
X0101467Y0173437D02*
X0105561Y0173437D01*
X0105561Y0178403D02*
X0101467Y0178403D01*
X0101467Y0179347D01*
X0105561Y0179347D01*
X0105561Y0178403D01*
X0105561Y0178638D02*
X0101467Y0178638D01*
X0101467Y0178873D02*
X0105561Y0178873D01*
X0105561Y0179108D02*
X0101467Y0179108D01*
X0101467Y0179343D02*
X0105561Y0179343D01*
X0105561Y0180371D02*
X0101467Y0180371D01*
X0101467Y0181315D01*
X0105561Y0181315D01*
X0105561Y0180371D01*
X0105561Y0180606D02*
X0101467Y0180606D01*
X0101467Y0180841D02*
X0105561Y0180841D01*
X0105561Y0181076D02*
X0101467Y0181076D01*
X0101467Y0181311D02*
X0105561Y0181311D01*
X0105561Y0182340D02*
X0101467Y0182340D01*
X0101467Y0183284D01*
X0105561Y0183284D01*
X0105561Y0182340D01*
X0105561Y0182575D02*
X0101467Y0182575D01*
X0101467Y0182810D02*
X0105561Y0182810D01*
X0105561Y0183045D02*
X0101467Y0183045D01*
X0101467Y0183280D02*
X0105561Y0183280D01*
X0105561Y0184308D02*
X0101467Y0184308D01*
X0101467Y0185252D01*
X0105561Y0185252D01*
X0105561Y0184308D01*
X0105561Y0184543D02*
X0101467Y0184543D01*
X0101467Y0184778D02*
X0105561Y0184778D01*
X0105561Y0185013D02*
X0101467Y0185013D01*
X0101467Y0185248D02*
X0105561Y0185248D01*
X0105561Y0186277D02*
X0101467Y0186277D01*
X0101467Y0187221D01*
X0105561Y0187221D01*
X0105561Y0186277D01*
X0105561Y0186512D02*
X0101467Y0186512D01*
X0101467Y0186747D02*
X0105561Y0186747D01*
X0105561Y0186982D02*
X0101467Y0186982D01*
X0101467Y0187217D02*
X0105561Y0187217D01*
X0105561Y0188245D02*
X0101467Y0188245D01*
X0101467Y0189189D01*
X0105561Y0189189D01*
X0105561Y0188245D01*
X0105561Y0188480D02*
X0101467Y0188480D01*
X0101467Y0188715D02*
X0105561Y0188715D01*
X0105561Y0188950D02*
X0101467Y0188950D01*
X0101467Y0189185D02*
X0105561Y0189185D01*
X0105561Y0190214D02*
X0101467Y0190214D01*
X0101467Y0191158D01*
X0105561Y0191158D01*
X0105561Y0190214D01*
X0105561Y0190449D02*
X0101467Y0190449D01*
X0101467Y0190684D02*
X0105561Y0190684D01*
X0105561Y0190919D02*
X0101467Y0190919D01*
X0101467Y0191154D02*
X0105561Y0191154D01*
X0105561Y0192182D02*
X0101467Y0192182D01*
X0101467Y0193126D01*
X0105561Y0193126D01*
X0105561Y0192182D01*
X0105561Y0192417D02*
X0101467Y0192417D01*
X0101467Y0192652D02*
X0105561Y0192652D01*
X0105561Y0192887D02*
X0101467Y0192887D01*
X0101467Y0193122D02*
X0105561Y0193122D01*
X0105561Y0194151D02*
X0101467Y0194151D01*
X0101467Y0195095D01*
X0105561Y0195095D01*
X0105561Y0194151D01*
X0105561Y0194386D02*
X0101467Y0194386D01*
X0101467Y0194621D02*
X0105561Y0194621D01*
X0105561Y0194856D02*
X0101467Y0194856D01*
X0101467Y0195091D02*
X0105561Y0195091D01*
X0105561Y0196119D02*
X0101467Y0196119D01*
X0101467Y0197063D01*
X0105561Y0197063D01*
X0105561Y0196119D01*
X0105561Y0196354D02*
X0101467Y0196354D01*
X0101467Y0196589D02*
X0105561Y0196589D01*
X0105561Y0196824D02*
X0101467Y0196824D01*
X0101467Y0197059D02*
X0105561Y0197059D01*
X0105561Y0202025D02*
X0101467Y0202025D01*
X0101467Y0202969D01*
X0105561Y0202969D01*
X0105561Y0202025D01*
X0105561Y0202260D02*
X0101467Y0202260D01*
X0101467Y0202495D02*
X0105561Y0202495D01*
X0105561Y0202730D02*
X0101467Y0202730D01*
X0101467Y0202965D02*
X0105561Y0202965D01*
X0105561Y0203993D02*
X0101467Y0203993D01*
X0101467Y0204937D01*
X0105561Y0204937D01*
X0105561Y0203993D01*
X0105561Y0204228D02*
X0101467Y0204228D01*
X0101467Y0204463D02*
X0105561Y0204463D01*
X0105561Y0204698D02*
X0101467Y0204698D01*
X0101467Y0204933D02*
X0105561Y0204933D01*
X0105561Y0205962D02*
X0101467Y0205962D01*
X0101467Y0206906D01*
X0105561Y0206906D01*
X0105561Y0205962D01*
X0105561Y0206197D02*
X0101467Y0206197D01*
X0101467Y0206432D02*
X0105561Y0206432D01*
X0105561Y0206667D02*
X0101467Y0206667D01*
X0101467Y0206902D02*
X0105561Y0206902D01*
X0105561Y0207930D02*
X0101467Y0207930D01*
X0101467Y0208874D01*
X0105561Y0208874D01*
X0105561Y0207930D01*
X0105561Y0208165D02*
X0101467Y0208165D01*
X0101467Y0208400D02*
X0105561Y0208400D01*
X0105561Y0208635D02*
X0101467Y0208635D01*
X0101467Y0208870D02*
X0105561Y0208870D01*
X0105561Y0209899D02*
X0101467Y0209899D01*
X0101467Y0210843D01*
X0105561Y0210843D01*
X0105561Y0209899D01*
X0105561Y0210134D02*
X0101467Y0210134D01*
X0101467Y0210369D02*
X0105561Y0210369D01*
X0105561Y0210604D02*
X0101467Y0210604D01*
X0101467Y0210839D02*
X0105561Y0210839D01*
X0121939Y0209899D02*
X0126033Y0209899D01*
X0121939Y0209899D02*
X0121939Y0210843D01*
X0126033Y0210843D01*
X0126033Y0209899D01*
X0126033Y0210134D02*
X0121939Y0210134D01*
X0121939Y0210369D02*
X0126033Y0210369D01*
X0126033Y0210604D02*
X0121939Y0210604D01*
X0121939Y0210839D02*
X0126033Y0210839D01*
X0126033Y0207930D02*
X0121939Y0207930D01*
X0121939Y0208874D01*
X0126033Y0208874D01*
X0126033Y0207930D01*
X0126033Y0208165D02*
X0121939Y0208165D01*
X0121939Y0208400D02*
X0126033Y0208400D01*
X0126033Y0208635D02*
X0121939Y0208635D01*
X0121939Y0208870D02*
X0126033Y0208870D01*
X0126033Y0205962D02*
X0121939Y0205962D01*
X0121939Y0206906D01*
X0126033Y0206906D01*
X0126033Y0205962D01*
X0126033Y0206197D02*
X0121939Y0206197D01*
X0121939Y0206432D02*
X0126033Y0206432D01*
X0126033Y0206667D02*
X0121939Y0206667D01*
X0121939Y0206902D02*
X0126033Y0206902D01*
X0126033Y0203993D02*
X0121939Y0203993D01*
X0121939Y0204937D01*
X0126033Y0204937D01*
X0126033Y0203993D01*
X0126033Y0204228D02*
X0121939Y0204228D01*
X0121939Y0204463D02*
X0126033Y0204463D01*
X0126033Y0204698D02*
X0121939Y0204698D01*
X0121939Y0204933D02*
X0126033Y0204933D01*
X0126033Y0202025D02*
X0121939Y0202025D01*
X0121939Y0202969D01*
X0126033Y0202969D01*
X0126033Y0202025D01*
X0126033Y0202260D02*
X0121939Y0202260D01*
X0121939Y0202495D02*
X0126033Y0202495D01*
X0126033Y0202730D02*
X0121939Y0202730D01*
X0121939Y0202965D02*
X0126033Y0202965D01*
X0126033Y0196119D02*
X0121939Y0196119D01*
X0121939Y0197063D01*
X0126033Y0197063D01*
X0126033Y0196119D01*
X0126033Y0196354D02*
X0121939Y0196354D01*
X0121939Y0196589D02*
X0126033Y0196589D01*
X0126033Y0196824D02*
X0121939Y0196824D01*
X0121939Y0197059D02*
X0126033Y0197059D01*
X0126033Y0194151D02*
X0121939Y0194151D01*
X0121939Y0195095D01*
X0126033Y0195095D01*
X0126033Y0194151D01*
X0126033Y0194386D02*
X0121939Y0194386D01*
X0121939Y0194621D02*
X0126033Y0194621D01*
X0126033Y0194856D02*
X0121939Y0194856D01*
X0121939Y0195091D02*
X0126033Y0195091D01*
X0126033Y0192182D02*
X0121939Y0192182D01*
X0121939Y0193126D01*
X0126033Y0193126D01*
X0126033Y0192182D01*
X0126033Y0192417D02*
X0121939Y0192417D01*
X0121939Y0192652D02*
X0126033Y0192652D01*
X0126033Y0192887D02*
X0121939Y0192887D01*
X0121939Y0193122D02*
X0126033Y0193122D01*
X0126033Y0190214D02*
X0121939Y0190214D01*
X0121939Y0191158D01*
X0126033Y0191158D01*
X0126033Y0190214D01*
X0126033Y0190449D02*
X0121939Y0190449D01*
X0121939Y0190684D02*
X0126033Y0190684D01*
X0126033Y0190919D02*
X0121939Y0190919D01*
X0121939Y0191154D02*
X0126033Y0191154D01*
X0126033Y0188245D02*
X0121939Y0188245D01*
X0121939Y0189189D01*
X0126033Y0189189D01*
X0126033Y0188245D01*
X0126033Y0188480D02*
X0121939Y0188480D01*
X0121939Y0188715D02*
X0126033Y0188715D01*
X0126033Y0188950D02*
X0121939Y0188950D01*
X0121939Y0189185D02*
X0126033Y0189185D01*
X0126033Y0186277D02*
X0121939Y0186277D01*
X0121939Y0187221D01*
X0126033Y0187221D01*
X0126033Y0186277D01*
X0126033Y0186512D02*
X0121939Y0186512D01*
X0121939Y0186747D02*
X0126033Y0186747D01*
X0126033Y0186982D02*
X0121939Y0186982D01*
X0121939Y0187217D02*
X0126033Y0187217D01*
X0126033Y0184308D02*
X0121939Y0184308D01*
X0121939Y0185252D01*
X0126033Y0185252D01*
X0126033Y0184308D01*
X0126033Y0184543D02*
X0121939Y0184543D01*
X0121939Y0184778D02*
X0126033Y0184778D01*
X0126033Y0185013D02*
X0121939Y0185013D01*
X0121939Y0185248D02*
X0126033Y0185248D01*
X0126033Y0182340D02*
X0121939Y0182340D01*
X0121939Y0183284D01*
X0126033Y0183284D01*
X0126033Y0182340D01*
X0126033Y0182575D02*
X0121939Y0182575D01*
X0121939Y0182810D02*
X0126033Y0182810D01*
X0126033Y0183045D02*
X0121939Y0183045D01*
X0121939Y0183280D02*
X0126033Y0183280D01*
X0126033Y0180371D02*
X0121939Y0180371D01*
X0121939Y0181315D01*
X0126033Y0181315D01*
X0126033Y0180371D01*
X0126033Y0180606D02*
X0121939Y0180606D01*
X0121939Y0180841D02*
X0126033Y0180841D01*
X0126033Y0181076D02*
X0121939Y0181076D01*
X0121939Y0181311D02*
X0126033Y0181311D01*
X0126033Y0178403D02*
X0121939Y0178403D01*
X0121939Y0179347D01*
X0126033Y0179347D01*
X0126033Y0178403D01*
X0126033Y0178638D02*
X0121939Y0178638D01*
X0121939Y0178873D02*
X0126033Y0178873D01*
X0126033Y0179108D02*
X0121939Y0179108D01*
X0121939Y0179343D02*
X0126033Y0179343D01*
X0126033Y0172497D02*
X0121939Y0172497D01*
X0121939Y0173441D01*
X0126033Y0173441D01*
X0126033Y0172497D01*
X0126033Y0172732D02*
X0121939Y0172732D01*
X0121939Y0172967D02*
X0126033Y0172967D01*
X0126033Y0173202D02*
X0121939Y0173202D01*
X0121939Y0173437D02*
X0126033Y0173437D01*
X0126033Y0170529D02*
X0121939Y0170529D01*
X0121939Y0171473D01*
X0126033Y0171473D01*
X0126033Y0170529D01*
X0126033Y0170764D02*
X0121939Y0170764D01*
X0121939Y0170999D02*
X0126033Y0170999D01*
X0126033Y0171234D02*
X0121939Y0171234D01*
X0121939Y0171469D02*
X0126033Y0171469D01*
X0126033Y0168560D02*
X0121939Y0168560D01*
X0121939Y0169504D01*
X0126033Y0169504D01*
X0126033Y0168560D01*
X0126033Y0168795D02*
X0121939Y0168795D01*
X0121939Y0169030D02*
X0126033Y0169030D01*
X0126033Y0169265D02*
X0121939Y0169265D01*
X0121939Y0169500D02*
X0126033Y0169500D01*
X0126033Y0166592D02*
X0121939Y0166592D01*
X0121939Y0167536D01*
X0126033Y0167536D01*
X0126033Y0166592D01*
X0126033Y0166827D02*
X0121939Y0166827D01*
X0121939Y0167062D02*
X0126033Y0167062D01*
X0126033Y0167297D02*
X0121939Y0167297D01*
X0121939Y0167532D02*
X0126033Y0167532D01*
X0126033Y0164623D02*
X0121939Y0164623D01*
X0121939Y0165567D01*
X0126033Y0165567D01*
X0126033Y0164623D01*
X0126033Y0164858D02*
X0121939Y0164858D01*
X0121939Y0165093D02*
X0126033Y0165093D01*
X0126033Y0165328D02*
X0121939Y0165328D01*
X0121939Y0165563D02*
X0126033Y0165563D01*
X0126033Y0162655D02*
X0121939Y0162655D01*
X0121939Y0163599D01*
X0126033Y0163599D01*
X0126033Y0162655D01*
X0126033Y0162890D02*
X0121939Y0162890D01*
X0121939Y0163125D02*
X0126033Y0163125D01*
X0126033Y0163360D02*
X0121939Y0163360D01*
X0121939Y0163595D02*
X0126033Y0163595D01*
X0126033Y0160686D02*
X0121939Y0160686D01*
X0121939Y0161630D01*
X0126033Y0161630D01*
X0126033Y0160686D01*
X0126033Y0160921D02*
X0121939Y0160921D01*
X0121939Y0161156D02*
X0126033Y0161156D01*
X0126033Y0161391D02*
X0121939Y0161391D01*
X0121939Y0161626D02*
X0126033Y0161626D01*
X0126033Y0158718D02*
X0121939Y0158718D01*
X0121939Y0159662D01*
X0126033Y0159662D01*
X0126033Y0158718D01*
X0126033Y0158953D02*
X0121939Y0158953D01*
X0121939Y0159188D02*
X0126033Y0159188D01*
X0126033Y0159423D02*
X0121939Y0159423D01*
X0121939Y0159658D02*
X0126033Y0159658D01*
X0126033Y0156749D02*
X0121939Y0156749D01*
X0121939Y0157693D01*
X0126033Y0157693D01*
X0126033Y0156749D01*
X0126033Y0156984D02*
X0121939Y0156984D01*
X0121939Y0157219D02*
X0126033Y0157219D01*
X0126033Y0157454D02*
X0121939Y0157454D01*
X0121939Y0157689D02*
X0126033Y0157689D01*
X0126033Y0154781D02*
X0121939Y0154781D01*
X0121939Y0155725D01*
X0126033Y0155725D01*
X0126033Y0154781D01*
X0126033Y0155016D02*
X0121939Y0155016D01*
X0121939Y0155251D02*
X0126033Y0155251D01*
X0126033Y0155486D02*
X0121939Y0155486D01*
X0121939Y0155721D02*
X0126033Y0155721D01*
X0126033Y0148875D02*
X0121939Y0148875D01*
X0121939Y0149819D01*
X0126033Y0149819D01*
X0126033Y0148875D01*
X0126033Y0149110D02*
X0121939Y0149110D01*
X0121939Y0149345D02*
X0126033Y0149345D01*
X0126033Y0149580D02*
X0121939Y0149580D01*
X0121939Y0149815D02*
X0126033Y0149815D01*
X0126033Y0146907D02*
X0121939Y0146907D01*
X0121939Y0147851D01*
X0126033Y0147851D01*
X0126033Y0146907D01*
X0126033Y0147142D02*
X0121939Y0147142D01*
X0121939Y0147377D02*
X0126033Y0147377D01*
X0126033Y0147612D02*
X0121939Y0147612D01*
X0121939Y0147847D02*
X0126033Y0147847D01*
X0126033Y0144938D02*
X0121939Y0144938D01*
X0121939Y0145882D01*
X0126033Y0145882D01*
X0126033Y0144938D01*
X0126033Y0145173D02*
X0121939Y0145173D01*
X0121939Y0145408D02*
X0126033Y0145408D01*
X0126033Y0145643D02*
X0121939Y0145643D01*
X0121939Y0145878D02*
X0126033Y0145878D01*
X0126033Y0142970D02*
X0121939Y0142970D01*
X0121939Y0143914D01*
X0126033Y0143914D01*
X0126033Y0142970D01*
X0126033Y0143205D02*
X0121939Y0143205D01*
X0121939Y0143440D02*
X0126033Y0143440D01*
X0126033Y0143675D02*
X0121939Y0143675D01*
X0121939Y0143910D02*
X0126033Y0143910D01*
X0126033Y0141001D02*
X0121939Y0141001D01*
X0121939Y0141945D01*
X0126033Y0141945D01*
X0126033Y0141001D01*
X0126033Y0141236D02*
X0121939Y0141236D01*
X0121939Y0141471D02*
X0126033Y0141471D01*
X0126033Y0141706D02*
X0121939Y0141706D01*
X0121939Y0141941D02*
X0126033Y0141941D01*
X0126033Y0139033D02*
X0121939Y0139033D01*
X0121939Y0139977D01*
X0126033Y0139977D01*
X0126033Y0139033D01*
X0126033Y0139268D02*
X0121939Y0139268D01*
X0121939Y0139503D02*
X0126033Y0139503D01*
X0126033Y0139738D02*
X0121939Y0139738D01*
X0121939Y0139973D02*
X0126033Y0139973D01*
X0126033Y0137064D02*
X0121939Y0137064D01*
X0121939Y0138008D01*
X0126033Y0138008D01*
X0126033Y0137064D01*
X0126033Y0137299D02*
X0121939Y0137299D01*
X0121939Y0137534D02*
X0126033Y0137534D01*
X0126033Y0137769D02*
X0121939Y0137769D01*
X0121939Y0138004D02*
X0126033Y0138004D01*
X0126033Y0135096D02*
X0121939Y0135096D01*
X0121939Y0136040D01*
X0126033Y0136040D01*
X0126033Y0135096D01*
X0126033Y0135331D02*
X0121939Y0135331D01*
X0121939Y0135566D02*
X0126033Y0135566D01*
X0126033Y0135801D02*
X0121939Y0135801D01*
X0121939Y0136036D02*
X0126033Y0136036D01*
X0126033Y0133127D02*
X0121939Y0133127D01*
X0121939Y0134071D01*
X0126033Y0134071D01*
X0126033Y0133127D01*
X0126033Y0133362D02*
X0121939Y0133362D01*
X0121939Y0133597D02*
X0126033Y0133597D01*
X0126033Y0133832D02*
X0121939Y0133832D01*
X0121939Y0134067D02*
X0126033Y0134067D01*
X0126033Y0131159D02*
X0121939Y0131159D01*
X0121939Y0132103D01*
X0126033Y0132103D01*
X0126033Y0131159D01*
X0126033Y0131394D02*
X0121939Y0131394D01*
X0121939Y0131629D02*
X0126033Y0131629D01*
X0126033Y0131864D02*
X0121939Y0131864D01*
X0121939Y0132099D02*
X0126033Y0132099D01*
X0126033Y0125253D02*
X0121939Y0125253D01*
X0121939Y0126197D01*
X0126033Y0126197D01*
X0126033Y0125253D01*
X0126033Y0125488D02*
X0121939Y0125488D01*
X0121939Y0125723D02*
X0126033Y0125723D01*
X0126033Y0125958D02*
X0121939Y0125958D01*
X0121939Y0126193D02*
X0126033Y0126193D01*
X0126033Y0123285D02*
X0121939Y0123285D01*
X0121939Y0124229D01*
X0126033Y0124229D01*
X0126033Y0123285D01*
X0126033Y0123520D02*
X0121939Y0123520D01*
X0121939Y0123755D02*
X0126033Y0123755D01*
X0126033Y0123990D02*
X0121939Y0123990D01*
X0121939Y0124225D02*
X0126033Y0124225D01*
X0126033Y0121316D02*
X0121939Y0121316D01*
X0121939Y0122260D01*
X0126033Y0122260D01*
X0126033Y0121316D01*
X0126033Y0121551D02*
X0121939Y0121551D01*
X0121939Y0121786D02*
X0126033Y0121786D01*
X0126033Y0122021D02*
X0121939Y0122021D01*
X0121939Y0122256D02*
X0126033Y0122256D01*
X0126033Y0119348D02*
X0121939Y0119348D01*
X0121939Y0120292D01*
X0126033Y0120292D01*
X0126033Y0119348D01*
X0126033Y0119583D02*
X0121939Y0119583D01*
X0121939Y0119818D02*
X0126033Y0119818D01*
X0126033Y0120053D02*
X0121939Y0120053D01*
X0121939Y0120288D02*
X0126033Y0120288D01*
X0126033Y0117379D02*
X0121939Y0117379D01*
X0121939Y0118323D01*
X0126033Y0118323D01*
X0126033Y0117379D01*
X0126033Y0117614D02*
X0121939Y0117614D01*
X0121939Y0117849D02*
X0126033Y0117849D01*
X0126033Y0118084D02*
X0121939Y0118084D01*
X0121939Y0118319D02*
X0126033Y0118319D01*
X0126033Y0115411D02*
X0121939Y0115411D01*
X0121939Y0116355D01*
X0126033Y0116355D01*
X0126033Y0115411D01*
X0126033Y0115646D02*
X0121939Y0115646D01*
X0121939Y0115881D02*
X0126033Y0115881D01*
X0126033Y0116116D02*
X0121939Y0116116D01*
X0121939Y0116351D02*
X0126033Y0116351D01*
X0126033Y0113442D02*
X0121939Y0113442D01*
X0121939Y0114386D01*
X0126033Y0114386D01*
X0126033Y0113442D01*
X0126033Y0113677D02*
X0121939Y0113677D01*
X0121939Y0113912D02*
X0126033Y0113912D01*
X0126033Y0114147D02*
X0121939Y0114147D01*
X0121939Y0114382D02*
X0126033Y0114382D01*
X0126033Y0111474D02*
X0121939Y0111474D01*
X0121939Y0112418D01*
X0126033Y0112418D01*
X0126033Y0111474D01*
X0126033Y0111709D02*
X0121939Y0111709D01*
X0121939Y0111944D02*
X0126033Y0111944D01*
X0126033Y0112179D02*
X0121939Y0112179D01*
X0121939Y0112414D02*
X0126033Y0112414D01*
X0126033Y0109505D02*
X0121939Y0109505D01*
X0121939Y0110449D01*
X0126033Y0110449D01*
X0126033Y0109505D01*
X0126033Y0109740D02*
X0121939Y0109740D01*
X0121939Y0109975D02*
X0126033Y0109975D01*
X0126033Y0110210D02*
X0121939Y0110210D01*
X0121939Y0110445D02*
X0126033Y0110445D01*
X0126033Y0107537D02*
X0121939Y0107537D01*
X0121939Y0108481D01*
X0126033Y0108481D01*
X0126033Y0107537D01*
X0126033Y0107772D02*
X0121939Y0107772D01*
X0121939Y0108007D02*
X0126033Y0108007D01*
X0126033Y0108242D02*
X0121939Y0108242D01*
X0121939Y0108477D02*
X0126033Y0108477D01*
X0126033Y0101631D02*
X0121939Y0101631D01*
X0121939Y0102575D01*
X0126033Y0102575D01*
X0126033Y0101631D01*
X0126033Y0101866D02*
X0121939Y0101866D01*
X0121939Y0102101D02*
X0126033Y0102101D01*
X0126033Y0102336D02*
X0121939Y0102336D01*
X0121939Y0102571D02*
X0126033Y0102571D01*
X0126033Y0099663D02*
X0121939Y0099663D01*
X0121939Y0100607D01*
X0126033Y0100607D01*
X0126033Y0099663D01*
X0126033Y0099898D02*
X0121939Y0099898D01*
X0121939Y0100133D02*
X0126033Y0100133D01*
X0126033Y0100368D02*
X0121939Y0100368D01*
X0121939Y0100603D02*
X0126033Y0100603D01*
X0126033Y0097694D02*
X0121939Y0097694D01*
X0121939Y0098638D01*
X0126033Y0098638D01*
X0126033Y0097694D01*
X0126033Y0097929D02*
X0121939Y0097929D01*
X0121939Y0098164D02*
X0126033Y0098164D01*
X0126033Y0098399D02*
X0121939Y0098399D01*
X0121939Y0098634D02*
X0126033Y0098634D01*
X0126033Y0095726D02*
X0121939Y0095726D01*
X0121939Y0096670D01*
X0126033Y0096670D01*
X0126033Y0095726D01*
X0126033Y0095961D02*
X0121939Y0095961D01*
X0121939Y0096196D02*
X0126033Y0096196D01*
X0126033Y0096431D02*
X0121939Y0096431D01*
X0121939Y0096666D02*
X0126033Y0096666D01*
X0126033Y0093757D02*
X0121939Y0093757D01*
X0121939Y0094701D01*
X0126033Y0094701D01*
X0126033Y0093757D01*
X0126033Y0093992D02*
X0121939Y0093992D01*
X0121939Y0094227D02*
X0126033Y0094227D01*
X0126033Y0094462D02*
X0121939Y0094462D01*
X0121939Y0094697D02*
X0126033Y0094697D01*
X0276467Y0094701D02*
X0280561Y0094701D01*
X0280561Y0093757D01*
X0276467Y0093757D01*
X0276467Y0094701D01*
X0276467Y0093992D02*
X0280561Y0093992D01*
X0280561Y0094227D02*
X0276467Y0094227D01*
X0276467Y0094462D02*
X0280561Y0094462D01*
X0280561Y0094697D02*
X0276467Y0094697D01*
X0276467Y0096670D02*
X0280561Y0096670D01*
X0280561Y0095726D01*
X0276467Y0095726D01*
X0276467Y0096670D01*
X0276467Y0095961D02*
X0280561Y0095961D01*
X0280561Y0096196D02*
X0276467Y0096196D01*
X0276467Y0096431D02*
X0280561Y0096431D01*
X0280561Y0096666D02*
X0276467Y0096666D01*
X0276467Y0098638D02*
X0280561Y0098638D01*
X0280561Y0097694D01*
X0276467Y0097694D01*
X0276467Y0098638D01*
X0276467Y0097929D02*
X0280561Y0097929D01*
X0280561Y0098164D02*
X0276467Y0098164D01*
X0276467Y0098399D02*
X0280561Y0098399D01*
X0280561Y0098634D02*
X0276467Y0098634D01*
X0276467Y0100607D02*
X0280561Y0100607D01*
X0280561Y0099663D01*
X0276467Y0099663D01*
X0276467Y0100607D01*
X0276467Y0099898D02*
X0280561Y0099898D01*
X0280561Y0100133D02*
X0276467Y0100133D01*
X0276467Y0100368D02*
X0280561Y0100368D01*
X0280561Y0100603D02*
X0276467Y0100603D01*
X0276467Y0102575D02*
X0280561Y0102575D01*
X0280561Y0101631D01*
X0276467Y0101631D01*
X0276467Y0102575D01*
X0276467Y0101866D02*
X0280561Y0101866D01*
X0280561Y0102101D02*
X0276467Y0102101D01*
X0276467Y0102336D02*
X0280561Y0102336D01*
X0280561Y0102571D02*
X0276467Y0102571D01*
X0276467Y0108481D02*
X0280561Y0108481D01*
X0280561Y0107537D01*
X0276467Y0107537D01*
X0276467Y0108481D01*
X0276467Y0107772D02*
X0280561Y0107772D01*
X0280561Y0108007D02*
X0276467Y0108007D01*
X0276467Y0108242D02*
X0280561Y0108242D01*
X0280561Y0108477D02*
X0276467Y0108477D01*
X0276467Y0110449D02*
X0280561Y0110449D01*
X0280561Y0109505D01*
X0276467Y0109505D01*
X0276467Y0110449D01*
X0276467Y0109740D02*
X0280561Y0109740D01*
X0280561Y0109975D02*
X0276467Y0109975D01*
X0276467Y0110210D02*
X0280561Y0110210D01*
X0280561Y0110445D02*
X0276467Y0110445D01*
X0276467Y0112418D02*
X0280561Y0112418D01*
X0280561Y0111474D01*
X0276467Y0111474D01*
X0276467Y0112418D01*
X0276467Y0111709D02*
X0280561Y0111709D01*
X0280561Y0111944D02*
X0276467Y0111944D01*
X0276467Y0112179D02*
X0280561Y0112179D01*
X0280561Y0112414D02*
X0276467Y0112414D01*
X0276467Y0114386D02*
X0280561Y0114386D01*
X0280561Y0113442D01*
X0276467Y0113442D01*
X0276467Y0114386D01*
X0276467Y0113677D02*
X0280561Y0113677D01*
X0280561Y0113912D02*
X0276467Y0113912D01*
X0276467Y0114147D02*
X0280561Y0114147D01*
X0280561Y0114382D02*
X0276467Y0114382D01*
X0276467Y0116355D02*
X0280561Y0116355D01*
X0280561Y0115411D01*
X0276467Y0115411D01*
X0276467Y0116355D01*
X0276467Y0115646D02*
X0280561Y0115646D01*
X0280561Y0115881D02*
X0276467Y0115881D01*
X0276467Y0116116D02*
X0280561Y0116116D01*
X0280561Y0116351D02*
X0276467Y0116351D01*
X0276467Y0118323D02*
X0280561Y0118323D01*
X0280561Y0117379D01*
X0276467Y0117379D01*
X0276467Y0118323D01*
X0276467Y0117614D02*
X0280561Y0117614D01*
X0280561Y0117849D02*
X0276467Y0117849D01*
X0276467Y0118084D02*
X0280561Y0118084D01*
X0280561Y0118319D02*
X0276467Y0118319D01*
X0276467Y0120292D02*
X0280561Y0120292D01*
X0280561Y0119348D01*
X0276467Y0119348D01*
X0276467Y0120292D01*
X0276467Y0119583D02*
X0280561Y0119583D01*
X0280561Y0119818D02*
X0276467Y0119818D01*
X0276467Y0120053D02*
X0280561Y0120053D01*
X0280561Y0120288D02*
X0276467Y0120288D01*
X0276467Y0122260D02*
X0280561Y0122260D01*
X0280561Y0121316D01*
X0276467Y0121316D01*
X0276467Y0122260D01*
X0276467Y0121551D02*
X0280561Y0121551D01*
X0280561Y0121786D02*
X0276467Y0121786D01*
X0276467Y0122021D02*
X0280561Y0122021D01*
X0280561Y0122256D02*
X0276467Y0122256D01*
X0276467Y0124229D02*
X0280561Y0124229D01*
X0280561Y0123285D01*
X0276467Y0123285D01*
X0276467Y0124229D01*
X0276467Y0123520D02*
X0280561Y0123520D01*
X0280561Y0123755D02*
X0276467Y0123755D01*
X0276467Y0123990D02*
X0280561Y0123990D01*
X0280561Y0124225D02*
X0276467Y0124225D01*
X0276467Y0126197D02*
X0280561Y0126197D01*
X0280561Y0125253D01*
X0276467Y0125253D01*
X0276467Y0126197D01*
X0276467Y0125488D02*
X0280561Y0125488D01*
X0280561Y0125723D02*
X0276467Y0125723D01*
X0276467Y0125958D02*
X0280561Y0125958D01*
X0280561Y0126193D02*
X0276467Y0126193D01*
X0276467Y0132103D02*
X0280561Y0132103D01*
X0280561Y0131159D01*
X0276467Y0131159D01*
X0276467Y0132103D01*
X0276467Y0131394D02*
X0280561Y0131394D01*
X0280561Y0131629D02*
X0276467Y0131629D01*
X0276467Y0131864D02*
X0280561Y0131864D01*
X0280561Y0132099D02*
X0276467Y0132099D01*
X0276467Y0134071D02*
X0280561Y0134071D01*
X0280561Y0133127D01*
X0276467Y0133127D01*
X0276467Y0134071D01*
X0276467Y0133362D02*
X0280561Y0133362D01*
X0280561Y0133597D02*
X0276467Y0133597D01*
X0276467Y0133832D02*
X0280561Y0133832D01*
X0280561Y0134067D02*
X0276467Y0134067D01*
X0276467Y0136040D02*
X0280561Y0136040D01*
X0280561Y0135096D01*
X0276467Y0135096D01*
X0276467Y0136040D01*
X0276467Y0135331D02*
X0280561Y0135331D01*
X0280561Y0135566D02*
X0276467Y0135566D01*
X0276467Y0135801D02*
X0280561Y0135801D01*
X0280561Y0136036D02*
X0276467Y0136036D01*
X0276467Y0138008D02*
X0280561Y0138008D01*
X0280561Y0137064D01*
X0276467Y0137064D01*
X0276467Y0138008D01*
X0276467Y0137299D02*
X0280561Y0137299D01*
X0280561Y0137534D02*
X0276467Y0137534D01*
X0276467Y0137769D02*
X0280561Y0137769D01*
X0280561Y0138004D02*
X0276467Y0138004D01*
X0276467Y0139977D02*
X0280561Y0139977D01*
X0280561Y0139033D01*
X0276467Y0139033D01*
X0276467Y0139977D01*
X0276467Y0139268D02*
X0280561Y0139268D01*
X0280561Y0139503D02*
X0276467Y0139503D01*
X0276467Y0139738D02*
X0280561Y0139738D01*
X0280561Y0139973D02*
X0276467Y0139973D01*
X0276467Y0141945D02*
X0280561Y0141945D01*
X0280561Y0141001D01*
X0276467Y0141001D01*
X0276467Y0141945D01*
X0276467Y0141236D02*
X0280561Y0141236D01*
X0280561Y0141471D02*
X0276467Y0141471D01*
X0276467Y0141706D02*
X0280561Y0141706D01*
X0280561Y0141941D02*
X0276467Y0141941D01*
X0276467Y0143914D02*
X0280561Y0143914D01*
X0280561Y0142970D01*
X0276467Y0142970D01*
X0276467Y0143914D01*
X0276467Y0143205D02*
X0280561Y0143205D01*
X0280561Y0143440D02*
X0276467Y0143440D01*
X0276467Y0143675D02*
X0280561Y0143675D01*
X0280561Y0143910D02*
X0276467Y0143910D01*
X0276467Y0145882D02*
X0280561Y0145882D01*
X0280561Y0144938D01*
X0276467Y0144938D01*
X0276467Y0145882D01*
X0276467Y0145173D02*
X0280561Y0145173D01*
X0280561Y0145408D02*
X0276467Y0145408D01*
X0276467Y0145643D02*
X0280561Y0145643D01*
X0280561Y0145878D02*
X0276467Y0145878D01*
X0276467Y0147851D02*
X0280561Y0147851D01*
X0280561Y0146907D01*
X0276467Y0146907D01*
X0276467Y0147851D01*
X0276467Y0147142D02*
X0280561Y0147142D01*
X0280561Y0147377D02*
X0276467Y0147377D01*
X0276467Y0147612D02*
X0280561Y0147612D01*
X0280561Y0147847D02*
X0276467Y0147847D01*
X0276467Y0149819D02*
X0280561Y0149819D01*
X0280561Y0148875D01*
X0276467Y0148875D01*
X0276467Y0149819D01*
X0276467Y0149110D02*
X0280561Y0149110D01*
X0280561Y0149345D02*
X0276467Y0149345D01*
X0276467Y0149580D02*
X0280561Y0149580D01*
X0280561Y0149815D02*
X0276467Y0149815D01*
X0276467Y0155725D02*
X0280561Y0155725D01*
X0280561Y0154781D01*
X0276467Y0154781D01*
X0276467Y0155725D01*
X0276467Y0155016D02*
X0280561Y0155016D01*
X0280561Y0155251D02*
X0276467Y0155251D01*
X0276467Y0155486D02*
X0280561Y0155486D01*
X0280561Y0155721D02*
X0276467Y0155721D01*
X0276467Y0157693D02*
X0280561Y0157693D01*
X0280561Y0156749D01*
X0276467Y0156749D01*
X0276467Y0157693D01*
X0276467Y0156984D02*
X0280561Y0156984D01*
X0280561Y0157219D02*
X0276467Y0157219D01*
X0276467Y0157454D02*
X0280561Y0157454D01*
X0280561Y0157689D02*
X0276467Y0157689D01*
X0276467Y0159662D02*
X0280561Y0159662D01*
X0280561Y0158718D01*
X0276467Y0158718D01*
X0276467Y0159662D01*
X0276467Y0158953D02*
X0280561Y0158953D01*
X0280561Y0159188D02*
X0276467Y0159188D01*
X0276467Y0159423D02*
X0280561Y0159423D01*
X0280561Y0159658D02*
X0276467Y0159658D01*
X0276467Y0161630D02*
X0280561Y0161630D01*
X0280561Y0160686D01*
X0276467Y0160686D01*
X0276467Y0161630D01*
X0276467Y0160921D02*
X0280561Y0160921D01*
X0280561Y0161156D02*
X0276467Y0161156D01*
X0276467Y0161391D02*
X0280561Y0161391D01*
X0280561Y0161626D02*
X0276467Y0161626D01*
X0276467Y0163599D02*
X0280561Y0163599D01*
X0280561Y0162655D01*
X0276467Y0162655D01*
X0276467Y0163599D01*
X0276467Y0162890D02*
X0280561Y0162890D01*
X0280561Y0163125D02*
X0276467Y0163125D01*
X0276467Y0163360D02*
X0280561Y0163360D01*
X0280561Y0163595D02*
X0276467Y0163595D01*
X0276467Y0165567D02*
X0280561Y0165567D01*
X0280561Y0164623D01*
X0276467Y0164623D01*
X0276467Y0165567D01*
X0276467Y0164858D02*
X0280561Y0164858D01*
X0280561Y0165093D02*
X0276467Y0165093D01*
X0276467Y0165328D02*
X0280561Y0165328D01*
X0280561Y0165563D02*
X0276467Y0165563D01*
X0276467Y0167536D02*
X0280561Y0167536D01*
X0280561Y0166592D01*
X0276467Y0166592D01*
X0276467Y0167536D01*
X0276467Y0166827D02*
X0280561Y0166827D01*
X0280561Y0167062D02*
X0276467Y0167062D01*
X0276467Y0167297D02*
X0280561Y0167297D01*
X0280561Y0167532D02*
X0276467Y0167532D01*
X0276467Y0169504D02*
X0280561Y0169504D01*
X0280561Y0168560D01*
X0276467Y0168560D01*
X0276467Y0169504D01*
X0276467Y0168795D02*
X0280561Y0168795D01*
X0280561Y0169030D02*
X0276467Y0169030D01*
X0276467Y0169265D02*
X0280561Y0169265D01*
X0280561Y0169500D02*
X0276467Y0169500D01*
X0276467Y0171473D02*
X0280561Y0171473D01*
X0280561Y0170529D01*
X0276467Y0170529D01*
X0276467Y0171473D01*
X0276467Y0170764D02*
X0280561Y0170764D01*
X0280561Y0170999D02*
X0276467Y0170999D01*
X0276467Y0171234D02*
X0280561Y0171234D01*
X0280561Y0171469D02*
X0276467Y0171469D01*
X0276467Y0173441D02*
X0280561Y0173441D01*
X0280561Y0172497D01*
X0276467Y0172497D01*
X0276467Y0173441D01*
X0276467Y0172732D02*
X0280561Y0172732D01*
X0280561Y0172967D02*
X0276467Y0172967D01*
X0276467Y0173202D02*
X0280561Y0173202D01*
X0280561Y0173437D02*
X0276467Y0173437D01*
X0276467Y0179347D02*
X0280561Y0179347D01*
X0280561Y0178403D01*
X0276467Y0178403D01*
X0276467Y0179347D01*
X0276467Y0178638D02*
X0280561Y0178638D01*
X0280561Y0178873D02*
X0276467Y0178873D01*
X0276467Y0179108D02*
X0280561Y0179108D01*
X0280561Y0179343D02*
X0276467Y0179343D01*
X0276467Y0181315D02*
X0280561Y0181315D01*
X0280561Y0180371D01*
X0276467Y0180371D01*
X0276467Y0181315D01*
X0276467Y0180606D02*
X0280561Y0180606D01*
X0280561Y0180841D02*
X0276467Y0180841D01*
X0276467Y0181076D02*
X0280561Y0181076D01*
X0280561Y0181311D02*
X0276467Y0181311D01*
X0276467Y0183284D02*
X0280561Y0183284D01*
X0280561Y0182340D01*
X0276467Y0182340D01*
X0276467Y0183284D01*
X0276467Y0182575D02*
X0280561Y0182575D01*
X0280561Y0182810D02*
X0276467Y0182810D01*
X0276467Y0183045D02*
X0280561Y0183045D01*
X0280561Y0183280D02*
X0276467Y0183280D01*
X0276467Y0185252D02*
X0280561Y0185252D01*
X0280561Y0184308D01*
X0276467Y0184308D01*
X0276467Y0185252D01*
X0276467Y0184543D02*
X0280561Y0184543D01*
X0280561Y0184778D02*
X0276467Y0184778D01*
X0276467Y0185013D02*
X0280561Y0185013D01*
X0280561Y0185248D02*
X0276467Y0185248D01*
X0276467Y0187221D02*
X0280561Y0187221D01*
X0280561Y0186277D01*
X0276467Y0186277D01*
X0276467Y0187221D01*
X0276467Y0186512D02*
X0280561Y0186512D01*
X0280561Y0186747D02*
X0276467Y0186747D01*
X0276467Y0186982D02*
X0280561Y0186982D01*
X0280561Y0187217D02*
X0276467Y0187217D01*
X0276467Y0189189D02*
X0280561Y0189189D01*
X0280561Y0188245D01*
X0276467Y0188245D01*
X0276467Y0189189D01*
X0276467Y0188480D02*
X0280561Y0188480D01*
X0280561Y0188715D02*
X0276467Y0188715D01*
X0276467Y0188950D02*
X0280561Y0188950D01*
X0280561Y0189185D02*
X0276467Y0189185D01*
X0276467Y0191158D02*
X0280561Y0191158D01*
X0280561Y0190214D01*
X0276467Y0190214D01*
X0276467Y0191158D01*
X0276467Y0190449D02*
X0280561Y0190449D01*
X0280561Y0190684D02*
X0276467Y0190684D01*
X0276467Y0190919D02*
X0280561Y0190919D01*
X0280561Y0191154D02*
X0276467Y0191154D01*
X0276467Y0193126D02*
X0280561Y0193126D01*
X0280561Y0192182D01*
X0276467Y0192182D01*
X0276467Y0193126D01*
X0276467Y0192417D02*
X0280561Y0192417D01*
X0280561Y0192652D02*
X0276467Y0192652D01*
X0276467Y0192887D02*
X0280561Y0192887D01*
X0280561Y0193122D02*
X0276467Y0193122D01*
X0276467Y0195095D02*
X0280561Y0195095D01*
X0280561Y0194151D01*
X0276467Y0194151D01*
X0276467Y0195095D01*
X0276467Y0194386D02*
X0280561Y0194386D01*
X0280561Y0194621D02*
X0276467Y0194621D01*
X0276467Y0194856D02*
X0280561Y0194856D01*
X0280561Y0195091D02*
X0276467Y0195091D01*
X0276467Y0197063D02*
X0280561Y0197063D01*
X0280561Y0196119D01*
X0276467Y0196119D01*
X0276467Y0197063D01*
X0276467Y0196354D02*
X0280561Y0196354D01*
X0280561Y0196589D02*
X0276467Y0196589D01*
X0276467Y0196824D02*
X0280561Y0196824D01*
X0280561Y0197059D02*
X0276467Y0197059D01*
X0276467Y0202969D02*
X0280561Y0202969D01*
X0280561Y0202025D01*
X0276467Y0202025D01*
X0276467Y0202969D01*
X0276467Y0202260D02*
X0280561Y0202260D01*
X0280561Y0202495D02*
X0276467Y0202495D01*
X0276467Y0202730D02*
X0280561Y0202730D01*
X0280561Y0202965D02*
X0276467Y0202965D01*
X0276467Y0204937D02*
X0280561Y0204937D01*
X0280561Y0203993D01*
X0276467Y0203993D01*
X0276467Y0204937D01*
X0276467Y0204228D02*
X0280561Y0204228D01*
X0280561Y0204463D02*
X0276467Y0204463D01*
X0276467Y0204698D02*
X0280561Y0204698D01*
X0280561Y0204933D02*
X0276467Y0204933D01*
X0276467Y0206906D02*
X0280561Y0206906D01*
X0280561Y0205962D01*
X0276467Y0205962D01*
X0276467Y0206906D01*
X0276467Y0206197D02*
X0280561Y0206197D01*
X0280561Y0206432D02*
X0276467Y0206432D01*
X0276467Y0206667D02*
X0280561Y0206667D01*
X0280561Y0206902D02*
X0276467Y0206902D01*
X0276467Y0208874D02*
X0280561Y0208874D01*
X0280561Y0207930D01*
X0276467Y0207930D01*
X0276467Y0208874D01*
X0276467Y0208165D02*
X0280561Y0208165D01*
X0280561Y0208400D02*
X0276467Y0208400D01*
X0276467Y0208635D02*
X0280561Y0208635D01*
X0280561Y0208870D02*
X0276467Y0208870D01*
X0276467Y0210843D02*
X0280561Y0210843D01*
X0280561Y0209899D01*
X0276467Y0209899D01*
X0276467Y0210843D01*
X0276467Y0210134D02*
X0280561Y0210134D01*
X0280561Y0210369D02*
X0276467Y0210369D01*
X0276467Y0210604D02*
X0280561Y0210604D01*
X0280561Y0210839D02*
X0276467Y0210839D01*
X0296939Y0210843D02*
X0301033Y0210843D01*
X0301033Y0209899D01*
X0296939Y0209899D01*
X0296939Y0210843D01*
X0296939Y0210134D02*
X0301033Y0210134D01*
X0301033Y0210369D02*
X0296939Y0210369D01*
X0296939Y0210604D02*
X0301033Y0210604D01*
X0301033Y0210839D02*
X0296939Y0210839D01*
X0296939Y0208874D02*
X0301033Y0208874D01*
X0301033Y0207930D01*
X0296939Y0207930D01*
X0296939Y0208874D01*
X0296939Y0208165D02*
X0301033Y0208165D01*
X0301033Y0208400D02*
X0296939Y0208400D01*
X0296939Y0208635D02*
X0301033Y0208635D01*
X0301033Y0208870D02*
X0296939Y0208870D01*
X0296939Y0206906D02*
X0301033Y0206906D01*
X0301033Y0205962D01*
X0296939Y0205962D01*
X0296939Y0206906D01*
X0296939Y0206197D02*
X0301033Y0206197D01*
X0301033Y0206432D02*
X0296939Y0206432D01*
X0296939Y0206667D02*
X0301033Y0206667D01*
X0301033Y0206902D02*
X0296939Y0206902D01*
X0296939Y0204937D02*
X0301033Y0204937D01*
X0301033Y0203993D01*
X0296939Y0203993D01*
X0296939Y0204937D01*
X0296939Y0204228D02*
X0301033Y0204228D01*
X0301033Y0204463D02*
X0296939Y0204463D01*
X0296939Y0204698D02*
X0301033Y0204698D01*
X0301033Y0204933D02*
X0296939Y0204933D01*
X0296939Y0202969D02*
X0301033Y0202969D01*
X0301033Y0202025D01*
X0296939Y0202025D01*
X0296939Y0202969D01*
X0296939Y0202260D02*
X0301033Y0202260D01*
X0301033Y0202495D02*
X0296939Y0202495D01*
X0296939Y0202730D02*
X0301033Y0202730D01*
X0301033Y0202965D02*
X0296939Y0202965D01*
X0296939Y0197063D02*
X0301033Y0197063D01*
X0301033Y0196119D01*
X0296939Y0196119D01*
X0296939Y0197063D01*
X0296939Y0196354D02*
X0301033Y0196354D01*
X0301033Y0196589D02*
X0296939Y0196589D01*
X0296939Y0196824D02*
X0301033Y0196824D01*
X0301033Y0197059D02*
X0296939Y0197059D01*
X0296939Y0195095D02*
X0301033Y0195095D01*
X0301033Y0194151D01*
X0296939Y0194151D01*
X0296939Y0195095D01*
X0296939Y0194386D02*
X0301033Y0194386D01*
X0301033Y0194621D02*
X0296939Y0194621D01*
X0296939Y0194856D02*
X0301033Y0194856D01*
X0301033Y0195091D02*
X0296939Y0195091D01*
X0296939Y0193126D02*
X0301033Y0193126D01*
X0301033Y0192182D01*
X0296939Y0192182D01*
X0296939Y0193126D01*
X0296939Y0192417D02*
X0301033Y0192417D01*
X0301033Y0192652D02*
X0296939Y0192652D01*
X0296939Y0192887D02*
X0301033Y0192887D01*
X0301033Y0193122D02*
X0296939Y0193122D01*
X0296939Y0191158D02*
X0301033Y0191158D01*
X0301033Y0190214D01*
X0296939Y0190214D01*
X0296939Y0191158D01*
X0296939Y0190449D02*
X0301033Y0190449D01*
X0301033Y0190684D02*
X0296939Y0190684D01*
X0296939Y0190919D02*
X0301033Y0190919D01*
X0301033Y0191154D02*
X0296939Y0191154D01*
X0296939Y0189189D02*
X0301033Y0189189D01*
X0301033Y0188245D01*
X0296939Y0188245D01*
X0296939Y0189189D01*
X0296939Y0188480D02*
X0301033Y0188480D01*
X0301033Y0188715D02*
X0296939Y0188715D01*
X0296939Y0188950D02*
X0301033Y0188950D01*
X0301033Y0189185D02*
X0296939Y0189185D01*
X0296939Y0187221D02*
X0301033Y0187221D01*
X0301033Y0186277D01*
X0296939Y0186277D01*
X0296939Y0187221D01*
X0296939Y0186512D02*
X0301033Y0186512D01*
X0301033Y0186747D02*
X0296939Y0186747D01*
X0296939Y0186982D02*
X0301033Y0186982D01*
X0301033Y0187217D02*
X0296939Y0187217D01*
X0296939Y0185252D02*
X0301033Y0185252D01*
X0301033Y0184308D01*
X0296939Y0184308D01*
X0296939Y0185252D01*
X0296939Y0184543D02*
X0301033Y0184543D01*
X0301033Y0184778D02*
X0296939Y0184778D01*
X0296939Y0185013D02*
X0301033Y0185013D01*
X0301033Y0185248D02*
X0296939Y0185248D01*
X0296939Y0183284D02*
X0301033Y0183284D01*
X0301033Y0182340D01*
X0296939Y0182340D01*
X0296939Y0183284D01*
X0296939Y0182575D02*
X0301033Y0182575D01*
X0301033Y0182810D02*
X0296939Y0182810D01*
X0296939Y0183045D02*
X0301033Y0183045D01*
X0301033Y0183280D02*
X0296939Y0183280D01*
X0296939Y0181315D02*
X0301033Y0181315D01*
X0301033Y0180371D01*
X0296939Y0180371D01*
X0296939Y0181315D01*
X0296939Y0180606D02*
X0301033Y0180606D01*
X0301033Y0180841D02*
X0296939Y0180841D01*
X0296939Y0181076D02*
X0301033Y0181076D01*
X0301033Y0181311D02*
X0296939Y0181311D01*
X0296939Y0179347D02*
X0301033Y0179347D01*
X0301033Y0178403D01*
X0296939Y0178403D01*
X0296939Y0179347D01*
X0296939Y0178638D02*
X0301033Y0178638D01*
X0301033Y0178873D02*
X0296939Y0178873D01*
X0296939Y0179108D02*
X0301033Y0179108D01*
X0301033Y0179343D02*
X0296939Y0179343D01*
X0296939Y0173441D02*
X0301033Y0173441D01*
X0301033Y0172497D01*
X0296939Y0172497D01*
X0296939Y0173441D01*
X0296939Y0172732D02*
X0301033Y0172732D01*
X0301033Y0172967D02*
X0296939Y0172967D01*
X0296939Y0173202D02*
X0301033Y0173202D01*
X0301033Y0173437D02*
X0296939Y0173437D01*
X0296939Y0171473D02*
X0301033Y0171473D01*
X0301033Y0170529D01*
X0296939Y0170529D01*
X0296939Y0171473D01*
X0296939Y0170764D02*
X0301033Y0170764D01*
X0301033Y0170999D02*
X0296939Y0170999D01*
X0296939Y0171234D02*
X0301033Y0171234D01*
X0301033Y0171469D02*
X0296939Y0171469D01*
X0296939Y0169504D02*
X0301033Y0169504D01*
X0301033Y0168560D01*
X0296939Y0168560D01*
X0296939Y0169504D01*
X0296939Y0168795D02*
X0301033Y0168795D01*
X0301033Y0169030D02*
X0296939Y0169030D01*
X0296939Y0169265D02*
X0301033Y0169265D01*
X0301033Y0169500D02*
X0296939Y0169500D01*
X0296939Y0167536D02*
X0301033Y0167536D01*
X0301033Y0166592D01*
X0296939Y0166592D01*
X0296939Y0167536D01*
X0296939Y0166827D02*
X0301033Y0166827D01*
X0301033Y0167062D02*
X0296939Y0167062D01*
X0296939Y0167297D02*
X0301033Y0167297D01*
X0301033Y0167532D02*
X0296939Y0167532D01*
X0296939Y0165567D02*
X0301033Y0165567D01*
X0301033Y0164623D01*
X0296939Y0164623D01*
X0296939Y0165567D01*
X0296939Y0164858D02*
X0301033Y0164858D01*
X0301033Y0165093D02*
X0296939Y0165093D01*
X0296939Y0165328D02*
X0301033Y0165328D01*
X0301033Y0165563D02*
X0296939Y0165563D01*
X0296939Y0163599D02*
X0301033Y0163599D01*
X0301033Y0162655D01*
X0296939Y0162655D01*
X0296939Y0163599D01*
X0296939Y0162890D02*
X0301033Y0162890D01*
X0301033Y0163125D02*
X0296939Y0163125D01*
X0296939Y0163360D02*
X0301033Y0163360D01*
X0301033Y0163595D02*
X0296939Y0163595D01*
X0296939Y0161630D02*
X0301033Y0161630D01*
X0301033Y0160686D01*
X0296939Y0160686D01*
X0296939Y0161630D01*
X0296939Y0160921D02*
X0301033Y0160921D01*
X0301033Y0161156D02*
X0296939Y0161156D01*
X0296939Y0161391D02*
X0301033Y0161391D01*
X0301033Y0161626D02*
X0296939Y0161626D01*
X0296939Y0159662D02*
X0301033Y0159662D01*
X0301033Y0158718D01*
X0296939Y0158718D01*
X0296939Y0159662D01*
X0296939Y0158953D02*
X0301033Y0158953D01*
X0301033Y0159188D02*
X0296939Y0159188D01*
X0296939Y0159423D02*
X0301033Y0159423D01*
X0301033Y0159658D02*
X0296939Y0159658D01*
X0296939Y0157693D02*
X0301033Y0157693D01*
X0301033Y0156749D01*
X0296939Y0156749D01*
X0296939Y0157693D01*
X0296939Y0156984D02*
X0301033Y0156984D01*
X0301033Y0157219D02*
X0296939Y0157219D01*
X0296939Y0157454D02*
X0301033Y0157454D01*
X0301033Y0157689D02*
X0296939Y0157689D01*
X0296939Y0155725D02*
X0301033Y0155725D01*
X0301033Y0154781D01*
X0296939Y0154781D01*
X0296939Y0155725D01*
X0296939Y0155016D02*
X0301033Y0155016D01*
X0301033Y0155251D02*
X0296939Y0155251D01*
X0296939Y0155486D02*
X0301033Y0155486D01*
X0301033Y0155721D02*
X0296939Y0155721D01*
X0296939Y0149819D02*
X0301033Y0149819D01*
X0301033Y0148875D01*
X0296939Y0148875D01*
X0296939Y0149819D01*
X0296939Y0149110D02*
X0301033Y0149110D01*
X0301033Y0149345D02*
X0296939Y0149345D01*
X0296939Y0149580D02*
X0301033Y0149580D01*
X0301033Y0149815D02*
X0296939Y0149815D01*
X0296939Y0147851D02*
X0301033Y0147851D01*
X0301033Y0146907D01*
X0296939Y0146907D01*
X0296939Y0147851D01*
X0296939Y0147142D02*
X0301033Y0147142D01*
X0301033Y0147377D02*
X0296939Y0147377D01*
X0296939Y0147612D02*
X0301033Y0147612D01*
X0301033Y0147847D02*
X0296939Y0147847D01*
X0296939Y0145882D02*
X0301033Y0145882D01*
X0301033Y0144938D01*
X0296939Y0144938D01*
X0296939Y0145882D01*
X0296939Y0145173D02*
X0301033Y0145173D01*
X0301033Y0145408D02*
X0296939Y0145408D01*
X0296939Y0145643D02*
X0301033Y0145643D01*
X0301033Y0145878D02*
X0296939Y0145878D01*
X0296939Y0143914D02*
X0301033Y0143914D01*
X0301033Y0142970D01*
X0296939Y0142970D01*
X0296939Y0143914D01*
X0296939Y0143205D02*
X0301033Y0143205D01*
X0301033Y0143440D02*
X0296939Y0143440D01*
X0296939Y0143675D02*
X0301033Y0143675D01*
X0301033Y0143910D02*
X0296939Y0143910D01*
X0296939Y0141945D02*
X0301033Y0141945D01*
X0301033Y0141001D01*
X0296939Y0141001D01*
X0296939Y0141945D01*
X0296939Y0141236D02*
X0301033Y0141236D01*
X0301033Y0141471D02*
X0296939Y0141471D01*
X0296939Y0141706D02*
X0301033Y0141706D01*
X0301033Y0141941D02*
X0296939Y0141941D01*
X0296939Y0139977D02*
X0301033Y0139977D01*
X0301033Y0139033D01*
X0296939Y0139033D01*
X0296939Y0139977D01*
X0296939Y0139268D02*
X0301033Y0139268D01*
X0301033Y0139503D02*
X0296939Y0139503D01*
X0296939Y0139738D02*
X0301033Y0139738D01*
X0301033Y0139973D02*
X0296939Y0139973D01*
X0296939Y0138008D02*
X0301033Y0138008D01*
X0301033Y0137064D01*
X0296939Y0137064D01*
X0296939Y0138008D01*
X0296939Y0137299D02*
X0301033Y0137299D01*
X0301033Y0137534D02*
X0296939Y0137534D01*
X0296939Y0137769D02*
X0301033Y0137769D01*
X0301033Y0138004D02*
X0296939Y0138004D01*
X0296939Y0136040D02*
X0301033Y0136040D01*
X0301033Y0135096D01*
X0296939Y0135096D01*
X0296939Y0136040D01*
X0296939Y0135331D02*
X0301033Y0135331D01*
X0301033Y0135566D02*
X0296939Y0135566D01*
X0296939Y0135801D02*
X0301033Y0135801D01*
X0301033Y0136036D02*
X0296939Y0136036D01*
X0296939Y0134071D02*
X0301033Y0134071D01*
X0301033Y0133127D01*
X0296939Y0133127D01*
X0296939Y0134071D01*
X0296939Y0133362D02*
X0301033Y0133362D01*
X0301033Y0133597D02*
X0296939Y0133597D01*
X0296939Y0133832D02*
X0301033Y0133832D01*
X0301033Y0134067D02*
X0296939Y0134067D01*
X0296939Y0132103D02*
X0301033Y0132103D01*
X0301033Y0131159D01*
X0296939Y0131159D01*
X0296939Y0132103D01*
X0296939Y0131394D02*
X0301033Y0131394D01*
X0301033Y0131629D02*
X0296939Y0131629D01*
X0296939Y0131864D02*
X0301033Y0131864D01*
X0301033Y0132099D02*
X0296939Y0132099D01*
X0296939Y0126197D02*
X0301033Y0126197D01*
X0301033Y0125253D01*
X0296939Y0125253D01*
X0296939Y0126197D01*
X0296939Y0125488D02*
X0301033Y0125488D01*
X0301033Y0125723D02*
X0296939Y0125723D01*
X0296939Y0125958D02*
X0301033Y0125958D01*
X0301033Y0126193D02*
X0296939Y0126193D01*
X0296939Y0124229D02*
X0301033Y0124229D01*
X0301033Y0123285D01*
X0296939Y0123285D01*
X0296939Y0124229D01*
X0296939Y0123520D02*
X0301033Y0123520D01*
X0301033Y0123755D02*
X0296939Y0123755D01*
X0296939Y0123990D02*
X0301033Y0123990D01*
X0301033Y0124225D02*
X0296939Y0124225D01*
X0296939Y0122260D02*
X0301033Y0122260D01*
X0301033Y0121316D01*
X0296939Y0121316D01*
X0296939Y0122260D01*
X0296939Y0121551D02*
X0301033Y0121551D01*
X0301033Y0121786D02*
X0296939Y0121786D01*
X0296939Y0122021D02*
X0301033Y0122021D01*
X0301033Y0122256D02*
X0296939Y0122256D01*
X0296939Y0120292D02*
X0301033Y0120292D01*
X0301033Y0119348D01*
X0296939Y0119348D01*
X0296939Y0120292D01*
X0296939Y0119583D02*
X0301033Y0119583D01*
X0301033Y0119818D02*
X0296939Y0119818D01*
X0296939Y0120053D02*
X0301033Y0120053D01*
X0301033Y0120288D02*
X0296939Y0120288D01*
X0296939Y0118323D02*
X0301033Y0118323D01*
X0301033Y0117379D01*
X0296939Y0117379D01*
X0296939Y0118323D01*
X0296939Y0117614D02*
X0301033Y0117614D01*
X0301033Y0117849D02*
X0296939Y0117849D01*
X0296939Y0118084D02*
X0301033Y0118084D01*
X0301033Y0118319D02*
X0296939Y0118319D01*
X0296939Y0116355D02*
X0301033Y0116355D01*
X0301033Y0115411D01*
X0296939Y0115411D01*
X0296939Y0116355D01*
X0296939Y0115646D02*
X0301033Y0115646D01*
X0301033Y0115881D02*
X0296939Y0115881D01*
X0296939Y0116116D02*
X0301033Y0116116D01*
X0301033Y0116351D02*
X0296939Y0116351D01*
X0296939Y0114386D02*
X0301033Y0114386D01*
X0301033Y0113442D01*
X0296939Y0113442D01*
X0296939Y0114386D01*
X0296939Y0113677D02*
X0301033Y0113677D01*
X0301033Y0113912D02*
X0296939Y0113912D01*
X0296939Y0114147D02*
X0301033Y0114147D01*
X0301033Y0114382D02*
X0296939Y0114382D01*
X0296939Y0112418D02*
X0301033Y0112418D01*
X0301033Y0111474D01*
X0296939Y0111474D01*
X0296939Y0112418D01*
X0296939Y0111709D02*
X0301033Y0111709D01*
X0301033Y0111944D02*
X0296939Y0111944D01*
X0296939Y0112179D02*
X0301033Y0112179D01*
X0301033Y0112414D02*
X0296939Y0112414D01*
X0296939Y0110449D02*
X0301033Y0110449D01*
X0301033Y0109505D01*
X0296939Y0109505D01*
X0296939Y0110449D01*
X0296939Y0109740D02*
X0301033Y0109740D01*
X0301033Y0109975D02*
X0296939Y0109975D01*
X0296939Y0110210D02*
X0301033Y0110210D01*
X0301033Y0110445D02*
X0296939Y0110445D01*
X0296939Y0108481D02*
X0301033Y0108481D01*
X0301033Y0107537D01*
X0296939Y0107537D01*
X0296939Y0108481D01*
X0296939Y0107772D02*
X0301033Y0107772D01*
X0301033Y0108007D02*
X0296939Y0108007D01*
X0296939Y0108242D02*
X0301033Y0108242D01*
X0301033Y0108477D02*
X0296939Y0108477D01*
X0296939Y0102575D02*
X0301033Y0102575D01*
X0301033Y0101631D01*
X0296939Y0101631D01*
X0296939Y0102575D01*
X0296939Y0101866D02*
X0301033Y0101866D01*
X0301033Y0102101D02*
X0296939Y0102101D01*
X0296939Y0102336D02*
X0301033Y0102336D01*
X0301033Y0102571D02*
X0296939Y0102571D01*
X0296939Y0100607D02*
X0301033Y0100607D01*
X0301033Y0099663D01*
X0296939Y0099663D01*
X0296939Y0100607D01*
X0296939Y0099898D02*
X0301033Y0099898D01*
X0301033Y0100133D02*
X0296939Y0100133D01*
X0296939Y0100368D02*
X0301033Y0100368D01*
X0301033Y0100603D02*
X0296939Y0100603D01*
X0296939Y0098638D02*
X0301033Y0098638D01*
X0301033Y0097694D01*
X0296939Y0097694D01*
X0296939Y0098638D01*
X0296939Y0097929D02*
X0301033Y0097929D01*
X0301033Y0098164D02*
X0296939Y0098164D01*
X0296939Y0098399D02*
X0301033Y0098399D01*
X0301033Y0098634D02*
X0296939Y0098634D01*
X0296939Y0096670D02*
X0301033Y0096670D01*
X0301033Y0095726D01*
X0296939Y0095726D01*
X0296939Y0096670D01*
X0296939Y0095961D02*
X0301033Y0095961D01*
X0301033Y0096196D02*
X0296939Y0096196D01*
X0296939Y0096431D02*
X0301033Y0096431D01*
X0301033Y0096666D02*
X0296939Y0096666D01*
X0296939Y0094701D02*
X0301033Y0094701D01*
X0301033Y0093757D01*
X0296939Y0093757D01*
X0296939Y0094701D01*
X0296939Y0093992D02*
X0301033Y0093992D01*
X0301033Y0094227D02*
X0296939Y0094227D01*
X0296939Y0094462D02*
X0301033Y0094462D01*
X0301033Y0094697D02*
X0296939Y0094697D01*
D11*
X0295521Y0103953D02*
X0300877Y0103953D01*
X0295521Y0103953D02*
X0295521Y0106159D01*
X0300877Y0106159D01*
X0300877Y0103953D01*
X0300877Y0104503D02*
X0295521Y0104503D01*
X0295521Y0105053D02*
X0300877Y0105053D01*
X0300877Y0105603D02*
X0295521Y0105603D01*
X0295521Y0106153D02*
X0300877Y0106153D01*
X0281979Y0106159D02*
X0276623Y0106159D01*
X0281979Y0106159D02*
X0281979Y0103953D01*
X0276623Y0103953D01*
X0276623Y0106159D01*
X0276623Y0104503D02*
X0281979Y0104503D01*
X0281979Y0105053D02*
X0276623Y0105053D01*
X0276623Y0105603D02*
X0281979Y0105603D01*
X0281979Y0106153D02*
X0276623Y0106153D01*
X0276623Y0129781D02*
X0281979Y0129781D01*
X0281979Y0127575D01*
X0276623Y0127575D01*
X0276623Y0129781D01*
X0276623Y0128125D02*
X0281979Y0128125D01*
X0281979Y0128675D02*
X0276623Y0128675D01*
X0276623Y0129225D02*
X0281979Y0129225D01*
X0281979Y0129775D02*
X0276623Y0129775D01*
X0295521Y0127575D02*
X0300877Y0127575D01*
X0295521Y0127575D02*
X0295521Y0129781D01*
X0300877Y0129781D01*
X0300877Y0127575D01*
X0300877Y0128125D02*
X0295521Y0128125D01*
X0295521Y0128675D02*
X0300877Y0128675D01*
X0300877Y0129225D02*
X0295521Y0129225D01*
X0295521Y0129775D02*
X0300877Y0129775D01*
X0300877Y0151197D02*
X0295521Y0151197D01*
X0295521Y0153403D01*
X0300877Y0153403D01*
X0300877Y0151197D01*
X0300877Y0151747D02*
X0295521Y0151747D01*
X0295521Y0152297D02*
X0300877Y0152297D01*
X0300877Y0152847D02*
X0295521Y0152847D01*
X0295521Y0153397D02*
X0300877Y0153397D01*
X0281979Y0153403D02*
X0276623Y0153403D01*
X0281979Y0153403D02*
X0281979Y0151197D01*
X0276623Y0151197D01*
X0276623Y0153403D01*
X0276623Y0151747D02*
X0281979Y0151747D01*
X0281979Y0152297D02*
X0276623Y0152297D01*
X0276623Y0152847D02*
X0281979Y0152847D01*
X0281979Y0153397D02*
X0276623Y0153397D01*
X0276623Y0177025D02*
X0281979Y0177025D01*
X0281979Y0174819D01*
X0276623Y0174819D01*
X0276623Y0177025D01*
X0276623Y0175369D02*
X0281979Y0175369D01*
X0281979Y0175919D02*
X0276623Y0175919D01*
X0276623Y0176469D02*
X0281979Y0176469D01*
X0281979Y0177019D02*
X0276623Y0177019D01*
X0295521Y0174819D02*
X0300877Y0174819D01*
X0295521Y0174819D02*
X0295521Y0177025D01*
X0300877Y0177025D01*
X0300877Y0174819D01*
X0300877Y0175369D02*
X0295521Y0175369D01*
X0295521Y0175919D02*
X0300877Y0175919D01*
X0300877Y0176469D02*
X0295521Y0176469D01*
X0295521Y0177019D02*
X0300877Y0177019D01*
X0300877Y0198441D02*
X0295521Y0198441D01*
X0295521Y0200647D01*
X0300877Y0200647D01*
X0300877Y0198441D01*
X0300877Y0198991D02*
X0295521Y0198991D01*
X0295521Y0199541D02*
X0300877Y0199541D01*
X0300877Y0200091D02*
X0295521Y0200091D01*
X0295521Y0200641D02*
X0300877Y0200641D01*
X0281979Y0200647D02*
X0276623Y0200647D01*
X0281979Y0200647D02*
X0281979Y0198441D01*
X0276623Y0198441D01*
X0276623Y0200647D01*
X0276623Y0198991D02*
X0281979Y0198991D01*
X0281979Y0199541D02*
X0276623Y0199541D01*
X0276623Y0200091D02*
X0281979Y0200091D01*
X0281979Y0200641D02*
X0276623Y0200641D01*
X0125877Y0198441D02*
X0120521Y0198441D01*
X0120521Y0200647D01*
X0125877Y0200647D01*
X0125877Y0198441D01*
X0125877Y0198991D02*
X0120521Y0198991D01*
X0120521Y0199541D02*
X0125877Y0199541D01*
X0125877Y0200091D02*
X0120521Y0200091D01*
X0120521Y0200641D02*
X0125877Y0200641D01*
X0106979Y0200647D02*
X0101623Y0200647D01*
X0106979Y0200647D02*
X0106979Y0198441D01*
X0101623Y0198441D01*
X0101623Y0200647D01*
X0101623Y0198991D02*
X0106979Y0198991D01*
X0106979Y0199541D02*
X0101623Y0199541D01*
X0101623Y0200091D02*
X0106979Y0200091D01*
X0106979Y0200641D02*
X0101623Y0200641D01*
X0101623Y0177025D02*
X0106979Y0177025D01*
X0106979Y0174819D01*
X0101623Y0174819D01*
X0101623Y0177025D01*
X0101623Y0175369D02*
X0106979Y0175369D01*
X0106979Y0175919D02*
X0101623Y0175919D01*
X0101623Y0176469D02*
X0106979Y0176469D01*
X0106979Y0177019D02*
X0101623Y0177019D01*
X0120521Y0174819D02*
X0125877Y0174819D01*
X0120521Y0174819D02*
X0120521Y0177025D01*
X0125877Y0177025D01*
X0125877Y0174819D01*
X0125877Y0175369D02*
X0120521Y0175369D01*
X0120521Y0175919D02*
X0125877Y0175919D01*
X0125877Y0176469D02*
X0120521Y0176469D01*
X0120521Y0177019D02*
X0125877Y0177019D01*
X0125877Y0151197D02*
X0120521Y0151197D01*
X0120521Y0153403D01*
X0125877Y0153403D01*
X0125877Y0151197D01*
X0125877Y0151747D02*
X0120521Y0151747D01*
X0120521Y0152297D02*
X0125877Y0152297D01*
X0125877Y0152847D02*
X0120521Y0152847D01*
X0120521Y0153397D02*
X0125877Y0153397D01*
X0106979Y0153403D02*
X0101623Y0153403D01*
X0106979Y0153403D02*
X0106979Y0151197D01*
X0101623Y0151197D01*
X0101623Y0153403D01*
X0101623Y0151747D02*
X0106979Y0151747D01*
X0106979Y0152297D02*
X0101623Y0152297D01*
X0101623Y0152847D02*
X0106979Y0152847D01*
X0106979Y0153397D02*
X0101623Y0153397D01*
X0101623Y0129781D02*
X0106979Y0129781D01*
X0106979Y0127575D01*
X0101623Y0127575D01*
X0101623Y0129781D01*
X0101623Y0128125D02*
X0106979Y0128125D01*
X0106979Y0128675D02*
X0101623Y0128675D01*
X0101623Y0129225D02*
X0106979Y0129225D01*
X0106979Y0129775D02*
X0101623Y0129775D01*
X0120521Y0127575D02*
X0125877Y0127575D01*
X0120521Y0127575D02*
X0120521Y0129781D01*
X0125877Y0129781D01*
X0125877Y0127575D01*
X0125877Y0128125D02*
X0120521Y0128125D01*
X0120521Y0128675D02*
X0125877Y0128675D01*
X0125877Y0129225D02*
X0120521Y0129225D01*
X0120521Y0129775D02*
X0125877Y0129775D01*
X0125877Y0103953D02*
X0120521Y0103953D01*
X0120521Y0106159D01*
X0125877Y0106159D01*
X0125877Y0103953D01*
X0125877Y0104503D02*
X0120521Y0104503D01*
X0120521Y0105053D02*
X0125877Y0105053D01*
X0125877Y0105603D02*
X0120521Y0105603D01*
X0120521Y0106153D02*
X0125877Y0106153D01*
X0106979Y0106159D02*
X0101623Y0106159D01*
X0106979Y0106159D02*
X0106979Y0103953D01*
X0101623Y0103953D01*
X0101623Y0106159D01*
X0101623Y0104503D02*
X0106979Y0104503D01*
X0106979Y0105053D02*
X0101623Y0105053D01*
X0101623Y0105603D02*
X0106979Y0105603D01*
X0106979Y0106153D02*
X0101623Y0106153D01*
D12*
X0108152Y0078986D02*
X0119348Y0078986D01*
X0108152Y0078986D02*
X0108152Y0084276D01*
X0119348Y0084276D01*
X0119348Y0078986D01*
X0119348Y0079993D02*
X0108152Y0079993D01*
X0108152Y0081000D02*
X0119348Y0081000D01*
X0119348Y0082007D02*
X0108152Y0082007D01*
X0108152Y0083014D02*
X0119348Y0083014D01*
X0119348Y0084021D02*
X0108152Y0084021D01*
X0283152Y0084276D02*
X0294348Y0084276D01*
X0294348Y0078986D01*
X0283152Y0078986D01*
X0283152Y0084276D01*
X0283152Y0079993D02*
X0294348Y0079993D01*
X0294348Y0081000D02*
X0283152Y0081000D01*
X0283152Y0082007D02*
X0294348Y0082007D01*
X0294348Y0083014D02*
X0283152Y0083014D01*
X0283152Y0084021D02*
X0294348Y0084021D01*
X0294348Y0225614D02*
X0283152Y0225614D01*
X0294348Y0225614D02*
X0294348Y0220324D01*
X0283152Y0220324D01*
X0283152Y0225614D01*
X0283152Y0221331D02*
X0294348Y0221331D01*
X0294348Y0222338D02*
X0283152Y0222338D01*
X0283152Y0223345D02*
X0294348Y0223345D01*
X0294348Y0224352D02*
X0283152Y0224352D01*
X0283152Y0225359D02*
X0294348Y0225359D01*
X0119348Y0220324D02*
X0108152Y0220324D01*
X0108152Y0225614D01*
X0119348Y0225614D01*
X0119348Y0220324D01*
X0119348Y0221331D02*
X0108152Y0221331D01*
X0108152Y0222338D02*
X0119348Y0222338D01*
X0119348Y0223345D02*
X0108152Y0223345D01*
X0108152Y0224352D02*
X0119348Y0224352D01*
X0119348Y0225359D02*
X0108152Y0225359D01*
D13*
X0116349Y0246946D02*
X0116349Y0250568D01*
X0121151Y0250568D01*
X0121151Y0246946D01*
X0116349Y0246946D01*
X0116349Y0247851D02*
X0121151Y0247851D01*
X0121151Y0248756D02*
X0116349Y0248756D01*
X0116349Y0249661D02*
X0121151Y0249661D01*
X0121151Y0250566D02*
X0116349Y0250566D01*
X0116349Y0254032D02*
X0116349Y0257654D01*
X0121151Y0257654D01*
X0121151Y0254032D01*
X0116349Y0254032D01*
X0116349Y0254937D02*
X0121151Y0254937D01*
X0121151Y0255842D02*
X0116349Y0255842D01*
X0116349Y0256747D02*
X0121151Y0256747D01*
X0121151Y0257652D02*
X0116349Y0257652D01*
X0123849Y0257654D02*
X0123849Y0254032D01*
X0123849Y0257654D02*
X0128651Y0257654D01*
X0128651Y0254032D01*
X0123849Y0254032D01*
X0123849Y0254937D02*
X0128651Y0254937D01*
X0128651Y0255842D02*
X0123849Y0255842D01*
X0123849Y0256747D02*
X0128651Y0256747D01*
X0128651Y0257652D02*
X0123849Y0257652D01*
X0123849Y0250568D02*
X0123849Y0246946D01*
X0123849Y0250568D02*
X0128651Y0250568D01*
X0128651Y0246946D01*
X0123849Y0246946D01*
X0123849Y0247851D02*
X0128651Y0247851D01*
X0128651Y0248756D02*
X0123849Y0248756D01*
X0123849Y0249661D02*
X0128651Y0249661D01*
X0128651Y0250566D02*
X0123849Y0250566D01*
X0273849Y0250568D02*
X0273849Y0246946D01*
X0273849Y0250568D02*
X0278651Y0250568D01*
X0278651Y0246946D01*
X0273849Y0246946D01*
X0273849Y0247851D02*
X0278651Y0247851D01*
X0278651Y0248756D02*
X0273849Y0248756D01*
X0273849Y0249661D02*
X0278651Y0249661D01*
X0278651Y0250566D02*
X0273849Y0250566D01*
X0273849Y0254032D02*
X0273849Y0257654D01*
X0278651Y0257654D01*
X0278651Y0254032D01*
X0273849Y0254032D01*
X0273849Y0254937D02*
X0278651Y0254937D01*
X0278651Y0255842D02*
X0273849Y0255842D01*
X0273849Y0256747D02*
X0278651Y0256747D01*
X0278651Y0257652D02*
X0273849Y0257652D01*
X0281349Y0257654D02*
X0281349Y0254032D01*
X0281349Y0257654D02*
X0286151Y0257654D01*
X0286151Y0254032D01*
X0281349Y0254032D01*
X0281349Y0254937D02*
X0286151Y0254937D01*
X0286151Y0255842D02*
X0281349Y0255842D01*
X0281349Y0256747D02*
X0286151Y0256747D01*
X0286151Y0257652D02*
X0281349Y0257652D01*
X0281349Y0250568D02*
X0281349Y0246946D01*
X0281349Y0250568D02*
X0286151Y0250568D01*
X0286151Y0246946D01*
X0281349Y0246946D01*
X0281349Y0247851D02*
X0286151Y0247851D01*
X0286151Y0248756D02*
X0281349Y0248756D01*
X0281349Y0249661D02*
X0286151Y0249661D01*
X0286151Y0250566D02*
X0281349Y0250566D01*
X0286151Y0057654D02*
X0286151Y0054032D01*
X0281349Y0054032D01*
X0281349Y0057654D01*
X0286151Y0057654D01*
X0286151Y0054937D02*
X0281349Y0054937D01*
X0281349Y0055842D02*
X0286151Y0055842D01*
X0286151Y0056747D02*
X0281349Y0056747D01*
X0281349Y0057652D02*
X0286151Y0057652D01*
X0286151Y0050568D02*
X0286151Y0046946D01*
X0281349Y0046946D01*
X0281349Y0050568D01*
X0286151Y0050568D01*
X0286151Y0047851D02*
X0281349Y0047851D01*
X0281349Y0048756D02*
X0286151Y0048756D01*
X0286151Y0049661D02*
X0281349Y0049661D01*
X0281349Y0050566D02*
X0286151Y0050566D01*
X0278651Y0050568D02*
X0278651Y0046946D01*
X0273849Y0046946D01*
X0273849Y0050568D01*
X0278651Y0050568D01*
X0278651Y0047851D02*
X0273849Y0047851D01*
X0273849Y0048756D02*
X0278651Y0048756D01*
X0278651Y0049661D02*
X0273849Y0049661D01*
X0273849Y0050566D02*
X0278651Y0050566D01*
X0278651Y0054032D02*
X0278651Y0057654D01*
X0278651Y0054032D02*
X0273849Y0054032D01*
X0273849Y0057654D01*
X0278651Y0057654D01*
X0278651Y0054937D02*
X0273849Y0054937D01*
X0273849Y0055842D02*
X0278651Y0055842D01*
X0278651Y0056747D02*
X0273849Y0056747D01*
X0273849Y0057652D02*
X0278651Y0057652D01*
X0128651Y0057654D02*
X0128651Y0054032D01*
X0123849Y0054032D01*
X0123849Y0057654D01*
X0128651Y0057654D01*
X0128651Y0054937D02*
X0123849Y0054937D01*
X0123849Y0055842D02*
X0128651Y0055842D01*
X0128651Y0056747D02*
X0123849Y0056747D01*
X0123849Y0057652D02*
X0128651Y0057652D01*
X0128651Y0050568D02*
X0128651Y0046946D01*
X0123849Y0046946D01*
X0123849Y0050568D01*
X0128651Y0050568D01*
X0128651Y0047851D02*
X0123849Y0047851D01*
X0123849Y0048756D02*
X0128651Y0048756D01*
X0128651Y0049661D02*
X0123849Y0049661D01*
X0123849Y0050566D02*
X0128651Y0050566D01*
X0121151Y0050568D02*
X0121151Y0046946D01*
X0116349Y0046946D01*
X0116349Y0050568D01*
X0121151Y0050568D01*
X0121151Y0047851D02*
X0116349Y0047851D01*
X0116349Y0048756D02*
X0121151Y0048756D01*
X0121151Y0049661D02*
X0116349Y0049661D01*
X0116349Y0050566D02*
X0121151Y0050566D01*
X0121151Y0054032D02*
X0121151Y0057654D01*
X0121151Y0054032D02*
X0116349Y0054032D01*
X0116349Y0057654D01*
X0121151Y0057654D01*
X0121151Y0054937D02*
X0116349Y0054937D01*
X0116349Y0055842D02*
X0121151Y0055842D01*
X0121151Y0056747D02*
X0116349Y0056747D01*
X0116349Y0057652D02*
X0121151Y0057652D01*
M02*
