G75*
%MOIN*%
%OFA0B0*%
%FSLAX25Y25*%
%IPPOS*%
%LPD*%
%AMOC8*
5,1,8,0,0,1.08239X$1,22.5*
%
%ADD10C,0.00000*%
%ADD11C,0.00000*%
D10*
X0088750Y0044800D02*
X0093750Y0039800D01*
X0308750Y0039800D01*
X0313750Y0044800D01*
X0313750Y0259800D01*
X0308750Y0264800D01*
X0093750Y0264800D01*
X0088750Y0259800D01*
X0088750Y0044800D01*
D11*
X0123248Y0064800D02*
X0123250Y0064898D01*
X0123256Y0064995D01*
X0123266Y0065092D01*
X0123280Y0065189D01*
X0123297Y0065285D01*
X0123319Y0065381D01*
X0123344Y0065475D01*
X0123374Y0065568D01*
X0123407Y0065660D01*
X0123443Y0065751D01*
X0123484Y0065840D01*
X0123528Y0065927D01*
X0123575Y0066013D01*
X0123626Y0066096D01*
X0123680Y0066177D01*
X0123738Y0066256D01*
X0123798Y0066333D01*
X0123862Y0066407D01*
X0123928Y0066479D01*
X0123998Y0066547D01*
X0124070Y0066613D01*
X0124145Y0066676D01*
X0124222Y0066736D01*
X0124302Y0066793D01*
X0124384Y0066846D01*
X0124468Y0066896D01*
X0124554Y0066943D01*
X0124641Y0066986D01*
X0124731Y0067025D01*
X0124822Y0067061D01*
X0124914Y0067093D01*
X0125007Y0067121D01*
X0125102Y0067146D01*
X0125198Y0067166D01*
X0125294Y0067183D01*
X0125391Y0067196D01*
X0125488Y0067205D01*
X0125586Y0067210D01*
X0125683Y0067211D01*
X0125781Y0067208D01*
X0125879Y0067201D01*
X0125976Y0067190D01*
X0126072Y0067175D01*
X0126168Y0067157D01*
X0126263Y0067134D01*
X0126357Y0067108D01*
X0126450Y0067077D01*
X0126542Y0067043D01*
X0126632Y0067006D01*
X0126721Y0066965D01*
X0126808Y0066920D01*
X0126893Y0066872D01*
X0126976Y0066820D01*
X0127056Y0066765D01*
X0127135Y0066707D01*
X0127211Y0066645D01*
X0127284Y0066581D01*
X0127355Y0066513D01*
X0127423Y0066443D01*
X0127488Y0066370D01*
X0127551Y0066295D01*
X0127610Y0066217D01*
X0127665Y0066137D01*
X0127718Y0066055D01*
X0127767Y0065970D01*
X0127813Y0065884D01*
X0127855Y0065796D01*
X0127893Y0065706D01*
X0127928Y0065614D01*
X0127959Y0065522D01*
X0127987Y0065428D01*
X0128010Y0065333D01*
X0128030Y0065237D01*
X0128046Y0065141D01*
X0128058Y0065044D01*
X0128066Y0064947D01*
X0128070Y0064849D01*
X0128070Y0064751D01*
X0128066Y0064653D01*
X0128058Y0064556D01*
X0128046Y0064459D01*
X0128030Y0064363D01*
X0128010Y0064267D01*
X0127987Y0064172D01*
X0127959Y0064078D01*
X0127928Y0063986D01*
X0127893Y0063894D01*
X0127855Y0063804D01*
X0127813Y0063716D01*
X0127767Y0063630D01*
X0127718Y0063545D01*
X0127665Y0063463D01*
X0127610Y0063383D01*
X0127551Y0063305D01*
X0127488Y0063230D01*
X0127423Y0063157D01*
X0127355Y0063087D01*
X0127284Y0063019D01*
X0127211Y0062955D01*
X0127135Y0062893D01*
X0127056Y0062835D01*
X0126976Y0062780D01*
X0126893Y0062728D01*
X0126808Y0062680D01*
X0126721Y0062635D01*
X0126632Y0062594D01*
X0126542Y0062557D01*
X0126450Y0062523D01*
X0126357Y0062492D01*
X0126263Y0062466D01*
X0126168Y0062443D01*
X0126072Y0062425D01*
X0125976Y0062410D01*
X0125879Y0062399D01*
X0125781Y0062392D01*
X0125683Y0062389D01*
X0125586Y0062390D01*
X0125488Y0062395D01*
X0125391Y0062404D01*
X0125294Y0062417D01*
X0125198Y0062434D01*
X0125102Y0062454D01*
X0125007Y0062479D01*
X0124914Y0062507D01*
X0124822Y0062539D01*
X0124731Y0062575D01*
X0124641Y0062614D01*
X0124554Y0062657D01*
X0124468Y0062704D01*
X0124384Y0062754D01*
X0124302Y0062807D01*
X0124222Y0062864D01*
X0124145Y0062924D01*
X0124070Y0062987D01*
X0123998Y0063053D01*
X0123928Y0063121D01*
X0123862Y0063193D01*
X0123798Y0063267D01*
X0123738Y0063344D01*
X0123680Y0063423D01*
X0123626Y0063504D01*
X0123575Y0063587D01*
X0123528Y0063673D01*
X0123484Y0063760D01*
X0123443Y0063849D01*
X0123407Y0063940D01*
X0123374Y0064032D01*
X0123344Y0064125D01*
X0123319Y0064219D01*
X0123297Y0064315D01*
X0123280Y0064411D01*
X0123266Y0064508D01*
X0123256Y0064605D01*
X0123250Y0064702D01*
X0123248Y0064800D01*
X0111535Y0088520D02*
X0111537Y0088614D01*
X0111543Y0088708D01*
X0111553Y0088801D01*
X0111567Y0088894D01*
X0111585Y0088987D01*
X0111606Y0089078D01*
X0111632Y0089169D01*
X0111662Y0089258D01*
X0111695Y0089346D01*
X0111732Y0089432D01*
X0111772Y0089517D01*
X0111816Y0089600D01*
X0111864Y0089681D01*
X0111915Y0089760D01*
X0111969Y0089837D01*
X0112027Y0089912D01*
X0112087Y0089983D01*
X0112151Y0090053D01*
X0112217Y0090119D01*
X0112287Y0090183D01*
X0112358Y0090243D01*
X0112433Y0090301D01*
X0112510Y0090355D01*
X0112589Y0090406D01*
X0112670Y0090454D01*
X0112753Y0090498D01*
X0112838Y0090538D01*
X0112924Y0090575D01*
X0113012Y0090608D01*
X0113101Y0090638D01*
X0113192Y0090664D01*
X0113283Y0090685D01*
X0113376Y0090703D01*
X0113469Y0090717D01*
X0113562Y0090727D01*
X0113656Y0090733D01*
X0113750Y0090735D01*
X0113844Y0090733D01*
X0113938Y0090727D01*
X0114031Y0090717D01*
X0114124Y0090703D01*
X0114217Y0090685D01*
X0114308Y0090664D01*
X0114399Y0090638D01*
X0114488Y0090608D01*
X0114576Y0090575D01*
X0114662Y0090538D01*
X0114747Y0090498D01*
X0114830Y0090454D01*
X0114911Y0090406D01*
X0114990Y0090355D01*
X0115067Y0090301D01*
X0115142Y0090243D01*
X0115213Y0090183D01*
X0115283Y0090119D01*
X0115349Y0090053D01*
X0115413Y0089983D01*
X0115473Y0089912D01*
X0115531Y0089837D01*
X0115585Y0089760D01*
X0115636Y0089681D01*
X0115684Y0089600D01*
X0115728Y0089517D01*
X0115768Y0089432D01*
X0115805Y0089346D01*
X0115838Y0089258D01*
X0115868Y0089169D01*
X0115894Y0089078D01*
X0115915Y0088987D01*
X0115933Y0088894D01*
X0115947Y0088801D01*
X0115957Y0088708D01*
X0115963Y0088614D01*
X0115965Y0088520D01*
X0115963Y0088426D01*
X0115957Y0088332D01*
X0115947Y0088239D01*
X0115933Y0088146D01*
X0115915Y0088053D01*
X0115894Y0087962D01*
X0115868Y0087871D01*
X0115838Y0087782D01*
X0115805Y0087694D01*
X0115768Y0087608D01*
X0115728Y0087523D01*
X0115684Y0087440D01*
X0115636Y0087359D01*
X0115585Y0087280D01*
X0115531Y0087203D01*
X0115473Y0087128D01*
X0115413Y0087057D01*
X0115349Y0086987D01*
X0115283Y0086921D01*
X0115213Y0086857D01*
X0115142Y0086797D01*
X0115067Y0086739D01*
X0114990Y0086685D01*
X0114911Y0086634D01*
X0114830Y0086586D01*
X0114747Y0086542D01*
X0114662Y0086502D01*
X0114576Y0086465D01*
X0114488Y0086432D01*
X0114399Y0086402D01*
X0114308Y0086376D01*
X0114217Y0086355D01*
X0114124Y0086337D01*
X0114031Y0086323D01*
X0113938Y0086313D01*
X0113844Y0086307D01*
X0113750Y0086305D01*
X0113656Y0086307D01*
X0113562Y0086313D01*
X0113469Y0086323D01*
X0113376Y0086337D01*
X0113283Y0086355D01*
X0113192Y0086376D01*
X0113101Y0086402D01*
X0113012Y0086432D01*
X0112924Y0086465D01*
X0112838Y0086502D01*
X0112753Y0086542D01*
X0112670Y0086586D01*
X0112589Y0086634D01*
X0112510Y0086685D01*
X0112433Y0086739D01*
X0112358Y0086797D01*
X0112287Y0086857D01*
X0112217Y0086921D01*
X0112151Y0086987D01*
X0112087Y0087057D01*
X0112027Y0087128D01*
X0111969Y0087203D01*
X0111915Y0087280D01*
X0111864Y0087359D01*
X0111816Y0087440D01*
X0111772Y0087523D01*
X0111732Y0087608D01*
X0111695Y0087694D01*
X0111662Y0087782D01*
X0111632Y0087871D01*
X0111606Y0087962D01*
X0111585Y0088053D01*
X0111567Y0088146D01*
X0111553Y0088239D01*
X0111543Y0088332D01*
X0111537Y0088426D01*
X0111535Y0088520D01*
X0111339Y0216080D02*
X0111341Y0216178D01*
X0111347Y0216275D01*
X0111357Y0216372D01*
X0111371Y0216469D01*
X0111388Y0216565D01*
X0111410Y0216661D01*
X0111435Y0216755D01*
X0111465Y0216848D01*
X0111498Y0216940D01*
X0111534Y0217031D01*
X0111575Y0217120D01*
X0111619Y0217207D01*
X0111666Y0217293D01*
X0111717Y0217376D01*
X0111771Y0217457D01*
X0111829Y0217536D01*
X0111889Y0217613D01*
X0111953Y0217687D01*
X0112019Y0217759D01*
X0112089Y0217827D01*
X0112161Y0217893D01*
X0112236Y0217956D01*
X0112313Y0218016D01*
X0112393Y0218073D01*
X0112475Y0218126D01*
X0112559Y0218176D01*
X0112645Y0218223D01*
X0112732Y0218266D01*
X0112822Y0218305D01*
X0112913Y0218341D01*
X0113005Y0218373D01*
X0113098Y0218401D01*
X0113193Y0218426D01*
X0113289Y0218446D01*
X0113385Y0218463D01*
X0113482Y0218476D01*
X0113579Y0218485D01*
X0113677Y0218490D01*
X0113774Y0218491D01*
X0113872Y0218488D01*
X0113970Y0218481D01*
X0114067Y0218470D01*
X0114163Y0218455D01*
X0114259Y0218437D01*
X0114354Y0218414D01*
X0114448Y0218388D01*
X0114541Y0218357D01*
X0114633Y0218323D01*
X0114723Y0218286D01*
X0114812Y0218245D01*
X0114899Y0218200D01*
X0114984Y0218152D01*
X0115067Y0218100D01*
X0115147Y0218045D01*
X0115226Y0217987D01*
X0115302Y0217925D01*
X0115375Y0217861D01*
X0115446Y0217793D01*
X0115514Y0217723D01*
X0115579Y0217650D01*
X0115642Y0217575D01*
X0115701Y0217497D01*
X0115756Y0217417D01*
X0115809Y0217335D01*
X0115858Y0217250D01*
X0115904Y0217164D01*
X0115946Y0217076D01*
X0115984Y0216986D01*
X0116019Y0216894D01*
X0116050Y0216802D01*
X0116078Y0216708D01*
X0116101Y0216613D01*
X0116121Y0216517D01*
X0116137Y0216421D01*
X0116149Y0216324D01*
X0116157Y0216227D01*
X0116161Y0216129D01*
X0116161Y0216031D01*
X0116157Y0215933D01*
X0116149Y0215836D01*
X0116137Y0215739D01*
X0116121Y0215643D01*
X0116101Y0215547D01*
X0116078Y0215452D01*
X0116050Y0215358D01*
X0116019Y0215266D01*
X0115984Y0215174D01*
X0115946Y0215084D01*
X0115904Y0214996D01*
X0115858Y0214910D01*
X0115809Y0214825D01*
X0115756Y0214743D01*
X0115701Y0214663D01*
X0115642Y0214585D01*
X0115579Y0214510D01*
X0115514Y0214437D01*
X0115446Y0214367D01*
X0115375Y0214299D01*
X0115302Y0214235D01*
X0115226Y0214173D01*
X0115147Y0214115D01*
X0115067Y0214060D01*
X0114984Y0214008D01*
X0114899Y0213960D01*
X0114812Y0213915D01*
X0114723Y0213874D01*
X0114633Y0213837D01*
X0114541Y0213803D01*
X0114448Y0213772D01*
X0114354Y0213746D01*
X0114259Y0213723D01*
X0114163Y0213705D01*
X0114067Y0213690D01*
X0113970Y0213679D01*
X0113872Y0213672D01*
X0113774Y0213669D01*
X0113677Y0213670D01*
X0113579Y0213675D01*
X0113482Y0213684D01*
X0113385Y0213697D01*
X0113289Y0213714D01*
X0113193Y0213734D01*
X0113098Y0213759D01*
X0113005Y0213787D01*
X0112913Y0213819D01*
X0112822Y0213855D01*
X0112732Y0213894D01*
X0112645Y0213937D01*
X0112559Y0213984D01*
X0112475Y0214034D01*
X0112393Y0214087D01*
X0112313Y0214144D01*
X0112236Y0214204D01*
X0112161Y0214267D01*
X0112089Y0214333D01*
X0112019Y0214401D01*
X0111953Y0214473D01*
X0111889Y0214547D01*
X0111829Y0214624D01*
X0111771Y0214703D01*
X0111717Y0214784D01*
X0111666Y0214867D01*
X0111619Y0214953D01*
X0111575Y0215040D01*
X0111534Y0215129D01*
X0111498Y0215220D01*
X0111465Y0215312D01*
X0111435Y0215405D01*
X0111410Y0215499D01*
X0111388Y0215595D01*
X0111371Y0215691D01*
X0111357Y0215788D01*
X0111347Y0215885D01*
X0111341Y0215982D01*
X0111339Y0216080D01*
X0123444Y0239800D02*
X0123446Y0239894D01*
X0123452Y0239988D01*
X0123462Y0240081D01*
X0123476Y0240174D01*
X0123494Y0240267D01*
X0123515Y0240358D01*
X0123541Y0240449D01*
X0123571Y0240538D01*
X0123604Y0240626D01*
X0123641Y0240712D01*
X0123681Y0240797D01*
X0123725Y0240880D01*
X0123773Y0240961D01*
X0123824Y0241040D01*
X0123878Y0241117D01*
X0123936Y0241192D01*
X0123996Y0241263D01*
X0124060Y0241333D01*
X0124126Y0241399D01*
X0124196Y0241463D01*
X0124267Y0241523D01*
X0124342Y0241581D01*
X0124419Y0241635D01*
X0124498Y0241686D01*
X0124579Y0241734D01*
X0124662Y0241778D01*
X0124747Y0241818D01*
X0124833Y0241855D01*
X0124921Y0241888D01*
X0125010Y0241918D01*
X0125101Y0241944D01*
X0125192Y0241965D01*
X0125285Y0241983D01*
X0125378Y0241997D01*
X0125471Y0242007D01*
X0125565Y0242013D01*
X0125659Y0242015D01*
X0125753Y0242013D01*
X0125847Y0242007D01*
X0125940Y0241997D01*
X0126033Y0241983D01*
X0126126Y0241965D01*
X0126217Y0241944D01*
X0126308Y0241918D01*
X0126397Y0241888D01*
X0126485Y0241855D01*
X0126571Y0241818D01*
X0126656Y0241778D01*
X0126739Y0241734D01*
X0126820Y0241686D01*
X0126899Y0241635D01*
X0126976Y0241581D01*
X0127051Y0241523D01*
X0127122Y0241463D01*
X0127192Y0241399D01*
X0127258Y0241333D01*
X0127322Y0241263D01*
X0127382Y0241192D01*
X0127440Y0241117D01*
X0127494Y0241040D01*
X0127545Y0240961D01*
X0127593Y0240880D01*
X0127637Y0240797D01*
X0127677Y0240712D01*
X0127714Y0240626D01*
X0127747Y0240538D01*
X0127777Y0240449D01*
X0127803Y0240358D01*
X0127824Y0240267D01*
X0127842Y0240174D01*
X0127856Y0240081D01*
X0127866Y0239988D01*
X0127872Y0239894D01*
X0127874Y0239800D01*
X0127872Y0239706D01*
X0127866Y0239612D01*
X0127856Y0239519D01*
X0127842Y0239426D01*
X0127824Y0239333D01*
X0127803Y0239242D01*
X0127777Y0239151D01*
X0127747Y0239062D01*
X0127714Y0238974D01*
X0127677Y0238888D01*
X0127637Y0238803D01*
X0127593Y0238720D01*
X0127545Y0238639D01*
X0127494Y0238560D01*
X0127440Y0238483D01*
X0127382Y0238408D01*
X0127322Y0238337D01*
X0127258Y0238267D01*
X0127192Y0238201D01*
X0127122Y0238137D01*
X0127051Y0238077D01*
X0126976Y0238019D01*
X0126899Y0237965D01*
X0126820Y0237914D01*
X0126739Y0237866D01*
X0126656Y0237822D01*
X0126571Y0237782D01*
X0126485Y0237745D01*
X0126397Y0237712D01*
X0126308Y0237682D01*
X0126217Y0237656D01*
X0126126Y0237635D01*
X0126033Y0237617D01*
X0125940Y0237603D01*
X0125847Y0237593D01*
X0125753Y0237587D01*
X0125659Y0237585D01*
X0125565Y0237587D01*
X0125471Y0237593D01*
X0125378Y0237603D01*
X0125285Y0237617D01*
X0125192Y0237635D01*
X0125101Y0237656D01*
X0125010Y0237682D01*
X0124921Y0237712D01*
X0124833Y0237745D01*
X0124747Y0237782D01*
X0124662Y0237822D01*
X0124579Y0237866D01*
X0124498Y0237914D01*
X0124419Y0237965D01*
X0124342Y0238019D01*
X0124267Y0238077D01*
X0124196Y0238137D01*
X0124126Y0238201D01*
X0124060Y0238267D01*
X0123996Y0238337D01*
X0123936Y0238408D01*
X0123878Y0238483D01*
X0123824Y0238560D01*
X0123773Y0238639D01*
X0123725Y0238720D01*
X0123681Y0238803D01*
X0123641Y0238888D01*
X0123604Y0238974D01*
X0123571Y0239062D01*
X0123541Y0239151D01*
X0123515Y0239242D01*
X0123494Y0239333D01*
X0123476Y0239426D01*
X0123462Y0239519D01*
X0123452Y0239612D01*
X0123446Y0239706D01*
X0123444Y0239800D01*
X0274430Y0239800D02*
X0274432Y0239898D01*
X0274438Y0239995D01*
X0274448Y0240092D01*
X0274462Y0240189D01*
X0274479Y0240285D01*
X0274501Y0240381D01*
X0274526Y0240475D01*
X0274556Y0240568D01*
X0274589Y0240660D01*
X0274625Y0240751D01*
X0274666Y0240840D01*
X0274710Y0240927D01*
X0274757Y0241013D01*
X0274808Y0241096D01*
X0274862Y0241177D01*
X0274920Y0241256D01*
X0274980Y0241333D01*
X0275044Y0241407D01*
X0275110Y0241479D01*
X0275180Y0241547D01*
X0275252Y0241613D01*
X0275327Y0241676D01*
X0275404Y0241736D01*
X0275484Y0241793D01*
X0275566Y0241846D01*
X0275650Y0241896D01*
X0275736Y0241943D01*
X0275823Y0241986D01*
X0275913Y0242025D01*
X0276004Y0242061D01*
X0276096Y0242093D01*
X0276189Y0242121D01*
X0276284Y0242146D01*
X0276380Y0242166D01*
X0276476Y0242183D01*
X0276573Y0242196D01*
X0276670Y0242205D01*
X0276768Y0242210D01*
X0276865Y0242211D01*
X0276963Y0242208D01*
X0277061Y0242201D01*
X0277158Y0242190D01*
X0277254Y0242175D01*
X0277350Y0242157D01*
X0277445Y0242134D01*
X0277539Y0242108D01*
X0277632Y0242077D01*
X0277724Y0242043D01*
X0277814Y0242006D01*
X0277903Y0241965D01*
X0277990Y0241920D01*
X0278075Y0241872D01*
X0278158Y0241820D01*
X0278238Y0241765D01*
X0278317Y0241707D01*
X0278393Y0241645D01*
X0278466Y0241581D01*
X0278537Y0241513D01*
X0278605Y0241443D01*
X0278670Y0241370D01*
X0278733Y0241295D01*
X0278792Y0241217D01*
X0278847Y0241137D01*
X0278900Y0241055D01*
X0278949Y0240970D01*
X0278995Y0240884D01*
X0279037Y0240796D01*
X0279075Y0240706D01*
X0279110Y0240614D01*
X0279141Y0240522D01*
X0279169Y0240428D01*
X0279192Y0240333D01*
X0279212Y0240237D01*
X0279228Y0240141D01*
X0279240Y0240044D01*
X0279248Y0239947D01*
X0279252Y0239849D01*
X0279252Y0239751D01*
X0279248Y0239653D01*
X0279240Y0239556D01*
X0279228Y0239459D01*
X0279212Y0239363D01*
X0279192Y0239267D01*
X0279169Y0239172D01*
X0279141Y0239078D01*
X0279110Y0238986D01*
X0279075Y0238894D01*
X0279037Y0238804D01*
X0278995Y0238716D01*
X0278949Y0238630D01*
X0278900Y0238545D01*
X0278847Y0238463D01*
X0278792Y0238383D01*
X0278733Y0238305D01*
X0278670Y0238230D01*
X0278605Y0238157D01*
X0278537Y0238087D01*
X0278466Y0238019D01*
X0278393Y0237955D01*
X0278317Y0237893D01*
X0278238Y0237835D01*
X0278158Y0237780D01*
X0278075Y0237728D01*
X0277990Y0237680D01*
X0277903Y0237635D01*
X0277814Y0237594D01*
X0277724Y0237557D01*
X0277632Y0237523D01*
X0277539Y0237492D01*
X0277445Y0237466D01*
X0277350Y0237443D01*
X0277254Y0237425D01*
X0277158Y0237410D01*
X0277061Y0237399D01*
X0276963Y0237392D01*
X0276865Y0237389D01*
X0276768Y0237390D01*
X0276670Y0237395D01*
X0276573Y0237404D01*
X0276476Y0237417D01*
X0276380Y0237434D01*
X0276284Y0237454D01*
X0276189Y0237479D01*
X0276096Y0237507D01*
X0276004Y0237539D01*
X0275913Y0237575D01*
X0275823Y0237614D01*
X0275736Y0237657D01*
X0275650Y0237704D01*
X0275566Y0237754D01*
X0275484Y0237807D01*
X0275404Y0237864D01*
X0275327Y0237924D01*
X0275252Y0237987D01*
X0275180Y0238053D01*
X0275110Y0238121D01*
X0275044Y0238193D01*
X0274980Y0238267D01*
X0274920Y0238344D01*
X0274862Y0238423D01*
X0274808Y0238504D01*
X0274757Y0238587D01*
X0274710Y0238673D01*
X0274666Y0238760D01*
X0274625Y0238849D01*
X0274589Y0238940D01*
X0274556Y0239032D01*
X0274526Y0239125D01*
X0274501Y0239219D01*
X0274479Y0239315D01*
X0274462Y0239411D01*
X0274448Y0239508D01*
X0274438Y0239605D01*
X0274432Y0239702D01*
X0274430Y0239800D01*
X0286535Y0216080D02*
X0286537Y0216174D01*
X0286543Y0216268D01*
X0286553Y0216361D01*
X0286567Y0216454D01*
X0286585Y0216547D01*
X0286606Y0216638D01*
X0286632Y0216729D01*
X0286662Y0216818D01*
X0286695Y0216906D01*
X0286732Y0216992D01*
X0286772Y0217077D01*
X0286816Y0217160D01*
X0286864Y0217241D01*
X0286915Y0217320D01*
X0286969Y0217397D01*
X0287027Y0217472D01*
X0287087Y0217543D01*
X0287151Y0217613D01*
X0287217Y0217679D01*
X0287287Y0217743D01*
X0287358Y0217803D01*
X0287433Y0217861D01*
X0287510Y0217915D01*
X0287589Y0217966D01*
X0287670Y0218014D01*
X0287753Y0218058D01*
X0287838Y0218098D01*
X0287924Y0218135D01*
X0288012Y0218168D01*
X0288101Y0218198D01*
X0288192Y0218224D01*
X0288283Y0218245D01*
X0288376Y0218263D01*
X0288469Y0218277D01*
X0288562Y0218287D01*
X0288656Y0218293D01*
X0288750Y0218295D01*
X0288844Y0218293D01*
X0288938Y0218287D01*
X0289031Y0218277D01*
X0289124Y0218263D01*
X0289217Y0218245D01*
X0289308Y0218224D01*
X0289399Y0218198D01*
X0289488Y0218168D01*
X0289576Y0218135D01*
X0289662Y0218098D01*
X0289747Y0218058D01*
X0289830Y0218014D01*
X0289911Y0217966D01*
X0289990Y0217915D01*
X0290067Y0217861D01*
X0290142Y0217803D01*
X0290213Y0217743D01*
X0290283Y0217679D01*
X0290349Y0217613D01*
X0290413Y0217543D01*
X0290473Y0217472D01*
X0290531Y0217397D01*
X0290585Y0217320D01*
X0290636Y0217241D01*
X0290684Y0217160D01*
X0290728Y0217077D01*
X0290768Y0216992D01*
X0290805Y0216906D01*
X0290838Y0216818D01*
X0290868Y0216729D01*
X0290894Y0216638D01*
X0290915Y0216547D01*
X0290933Y0216454D01*
X0290947Y0216361D01*
X0290957Y0216268D01*
X0290963Y0216174D01*
X0290965Y0216080D01*
X0290963Y0215986D01*
X0290957Y0215892D01*
X0290947Y0215799D01*
X0290933Y0215706D01*
X0290915Y0215613D01*
X0290894Y0215522D01*
X0290868Y0215431D01*
X0290838Y0215342D01*
X0290805Y0215254D01*
X0290768Y0215168D01*
X0290728Y0215083D01*
X0290684Y0215000D01*
X0290636Y0214919D01*
X0290585Y0214840D01*
X0290531Y0214763D01*
X0290473Y0214688D01*
X0290413Y0214617D01*
X0290349Y0214547D01*
X0290283Y0214481D01*
X0290213Y0214417D01*
X0290142Y0214357D01*
X0290067Y0214299D01*
X0289990Y0214245D01*
X0289911Y0214194D01*
X0289830Y0214146D01*
X0289747Y0214102D01*
X0289662Y0214062D01*
X0289576Y0214025D01*
X0289488Y0213992D01*
X0289399Y0213962D01*
X0289308Y0213936D01*
X0289217Y0213915D01*
X0289124Y0213897D01*
X0289031Y0213883D01*
X0288938Y0213873D01*
X0288844Y0213867D01*
X0288750Y0213865D01*
X0288656Y0213867D01*
X0288562Y0213873D01*
X0288469Y0213883D01*
X0288376Y0213897D01*
X0288283Y0213915D01*
X0288192Y0213936D01*
X0288101Y0213962D01*
X0288012Y0213992D01*
X0287924Y0214025D01*
X0287838Y0214062D01*
X0287753Y0214102D01*
X0287670Y0214146D01*
X0287589Y0214194D01*
X0287510Y0214245D01*
X0287433Y0214299D01*
X0287358Y0214357D01*
X0287287Y0214417D01*
X0287217Y0214481D01*
X0287151Y0214547D01*
X0287087Y0214617D01*
X0287027Y0214688D01*
X0286969Y0214763D01*
X0286915Y0214840D01*
X0286864Y0214919D01*
X0286816Y0215000D01*
X0286772Y0215083D01*
X0286732Y0215168D01*
X0286695Y0215254D01*
X0286662Y0215342D01*
X0286632Y0215431D01*
X0286606Y0215522D01*
X0286585Y0215613D01*
X0286567Y0215706D01*
X0286553Y0215799D01*
X0286543Y0215892D01*
X0286537Y0215986D01*
X0286535Y0216080D01*
X0286339Y0088520D02*
X0286341Y0088618D01*
X0286347Y0088715D01*
X0286357Y0088812D01*
X0286371Y0088909D01*
X0286388Y0089005D01*
X0286410Y0089101D01*
X0286435Y0089195D01*
X0286465Y0089288D01*
X0286498Y0089380D01*
X0286534Y0089471D01*
X0286575Y0089560D01*
X0286619Y0089647D01*
X0286666Y0089733D01*
X0286717Y0089816D01*
X0286771Y0089897D01*
X0286829Y0089976D01*
X0286889Y0090053D01*
X0286953Y0090127D01*
X0287019Y0090199D01*
X0287089Y0090267D01*
X0287161Y0090333D01*
X0287236Y0090396D01*
X0287313Y0090456D01*
X0287393Y0090513D01*
X0287475Y0090566D01*
X0287559Y0090616D01*
X0287645Y0090663D01*
X0287732Y0090706D01*
X0287822Y0090745D01*
X0287913Y0090781D01*
X0288005Y0090813D01*
X0288098Y0090841D01*
X0288193Y0090866D01*
X0288289Y0090886D01*
X0288385Y0090903D01*
X0288482Y0090916D01*
X0288579Y0090925D01*
X0288677Y0090930D01*
X0288774Y0090931D01*
X0288872Y0090928D01*
X0288970Y0090921D01*
X0289067Y0090910D01*
X0289163Y0090895D01*
X0289259Y0090877D01*
X0289354Y0090854D01*
X0289448Y0090828D01*
X0289541Y0090797D01*
X0289633Y0090763D01*
X0289723Y0090726D01*
X0289812Y0090685D01*
X0289899Y0090640D01*
X0289984Y0090592D01*
X0290067Y0090540D01*
X0290147Y0090485D01*
X0290226Y0090427D01*
X0290302Y0090365D01*
X0290375Y0090301D01*
X0290446Y0090233D01*
X0290514Y0090163D01*
X0290579Y0090090D01*
X0290642Y0090015D01*
X0290701Y0089937D01*
X0290756Y0089857D01*
X0290809Y0089775D01*
X0290858Y0089690D01*
X0290904Y0089604D01*
X0290946Y0089516D01*
X0290984Y0089426D01*
X0291019Y0089334D01*
X0291050Y0089242D01*
X0291078Y0089148D01*
X0291101Y0089053D01*
X0291121Y0088957D01*
X0291137Y0088861D01*
X0291149Y0088764D01*
X0291157Y0088667D01*
X0291161Y0088569D01*
X0291161Y0088471D01*
X0291157Y0088373D01*
X0291149Y0088276D01*
X0291137Y0088179D01*
X0291121Y0088083D01*
X0291101Y0087987D01*
X0291078Y0087892D01*
X0291050Y0087798D01*
X0291019Y0087706D01*
X0290984Y0087614D01*
X0290946Y0087524D01*
X0290904Y0087436D01*
X0290858Y0087350D01*
X0290809Y0087265D01*
X0290756Y0087183D01*
X0290701Y0087103D01*
X0290642Y0087025D01*
X0290579Y0086950D01*
X0290514Y0086877D01*
X0290446Y0086807D01*
X0290375Y0086739D01*
X0290302Y0086675D01*
X0290226Y0086613D01*
X0290147Y0086555D01*
X0290067Y0086500D01*
X0289984Y0086448D01*
X0289899Y0086400D01*
X0289812Y0086355D01*
X0289723Y0086314D01*
X0289633Y0086277D01*
X0289541Y0086243D01*
X0289448Y0086212D01*
X0289354Y0086186D01*
X0289259Y0086163D01*
X0289163Y0086145D01*
X0289067Y0086130D01*
X0288970Y0086119D01*
X0288872Y0086112D01*
X0288774Y0086109D01*
X0288677Y0086110D01*
X0288579Y0086115D01*
X0288482Y0086124D01*
X0288385Y0086137D01*
X0288289Y0086154D01*
X0288193Y0086174D01*
X0288098Y0086199D01*
X0288005Y0086227D01*
X0287913Y0086259D01*
X0287822Y0086295D01*
X0287732Y0086334D01*
X0287645Y0086377D01*
X0287559Y0086424D01*
X0287475Y0086474D01*
X0287393Y0086527D01*
X0287313Y0086584D01*
X0287236Y0086644D01*
X0287161Y0086707D01*
X0287089Y0086773D01*
X0287019Y0086841D01*
X0286953Y0086913D01*
X0286889Y0086987D01*
X0286829Y0087064D01*
X0286771Y0087143D01*
X0286717Y0087224D01*
X0286666Y0087307D01*
X0286619Y0087393D01*
X0286575Y0087480D01*
X0286534Y0087569D01*
X0286498Y0087660D01*
X0286465Y0087752D01*
X0286435Y0087845D01*
X0286410Y0087939D01*
X0286388Y0088035D01*
X0286371Y0088131D01*
X0286357Y0088228D01*
X0286347Y0088325D01*
X0286341Y0088422D01*
X0286339Y0088520D01*
X0274626Y0064800D02*
X0274628Y0064894D01*
X0274634Y0064988D01*
X0274644Y0065081D01*
X0274658Y0065174D01*
X0274676Y0065267D01*
X0274697Y0065358D01*
X0274723Y0065449D01*
X0274753Y0065538D01*
X0274786Y0065626D01*
X0274823Y0065712D01*
X0274863Y0065797D01*
X0274907Y0065880D01*
X0274955Y0065961D01*
X0275006Y0066040D01*
X0275060Y0066117D01*
X0275118Y0066192D01*
X0275178Y0066263D01*
X0275242Y0066333D01*
X0275308Y0066399D01*
X0275378Y0066463D01*
X0275449Y0066523D01*
X0275524Y0066581D01*
X0275601Y0066635D01*
X0275680Y0066686D01*
X0275761Y0066734D01*
X0275844Y0066778D01*
X0275929Y0066818D01*
X0276015Y0066855D01*
X0276103Y0066888D01*
X0276192Y0066918D01*
X0276283Y0066944D01*
X0276374Y0066965D01*
X0276467Y0066983D01*
X0276560Y0066997D01*
X0276653Y0067007D01*
X0276747Y0067013D01*
X0276841Y0067015D01*
X0276935Y0067013D01*
X0277029Y0067007D01*
X0277122Y0066997D01*
X0277215Y0066983D01*
X0277308Y0066965D01*
X0277399Y0066944D01*
X0277490Y0066918D01*
X0277579Y0066888D01*
X0277667Y0066855D01*
X0277753Y0066818D01*
X0277838Y0066778D01*
X0277921Y0066734D01*
X0278002Y0066686D01*
X0278081Y0066635D01*
X0278158Y0066581D01*
X0278233Y0066523D01*
X0278304Y0066463D01*
X0278374Y0066399D01*
X0278440Y0066333D01*
X0278504Y0066263D01*
X0278564Y0066192D01*
X0278622Y0066117D01*
X0278676Y0066040D01*
X0278727Y0065961D01*
X0278775Y0065880D01*
X0278819Y0065797D01*
X0278859Y0065712D01*
X0278896Y0065626D01*
X0278929Y0065538D01*
X0278959Y0065449D01*
X0278985Y0065358D01*
X0279006Y0065267D01*
X0279024Y0065174D01*
X0279038Y0065081D01*
X0279048Y0064988D01*
X0279054Y0064894D01*
X0279056Y0064800D01*
X0279054Y0064706D01*
X0279048Y0064612D01*
X0279038Y0064519D01*
X0279024Y0064426D01*
X0279006Y0064333D01*
X0278985Y0064242D01*
X0278959Y0064151D01*
X0278929Y0064062D01*
X0278896Y0063974D01*
X0278859Y0063888D01*
X0278819Y0063803D01*
X0278775Y0063720D01*
X0278727Y0063639D01*
X0278676Y0063560D01*
X0278622Y0063483D01*
X0278564Y0063408D01*
X0278504Y0063337D01*
X0278440Y0063267D01*
X0278374Y0063201D01*
X0278304Y0063137D01*
X0278233Y0063077D01*
X0278158Y0063019D01*
X0278081Y0062965D01*
X0278002Y0062914D01*
X0277921Y0062866D01*
X0277838Y0062822D01*
X0277753Y0062782D01*
X0277667Y0062745D01*
X0277579Y0062712D01*
X0277490Y0062682D01*
X0277399Y0062656D01*
X0277308Y0062635D01*
X0277215Y0062617D01*
X0277122Y0062603D01*
X0277029Y0062593D01*
X0276935Y0062587D01*
X0276841Y0062585D01*
X0276747Y0062587D01*
X0276653Y0062593D01*
X0276560Y0062603D01*
X0276467Y0062617D01*
X0276374Y0062635D01*
X0276283Y0062656D01*
X0276192Y0062682D01*
X0276103Y0062712D01*
X0276015Y0062745D01*
X0275929Y0062782D01*
X0275844Y0062822D01*
X0275761Y0062866D01*
X0275680Y0062914D01*
X0275601Y0062965D01*
X0275524Y0063019D01*
X0275449Y0063077D01*
X0275378Y0063137D01*
X0275308Y0063201D01*
X0275242Y0063267D01*
X0275178Y0063337D01*
X0275118Y0063408D01*
X0275060Y0063483D01*
X0275006Y0063560D01*
X0274955Y0063639D01*
X0274907Y0063720D01*
X0274863Y0063803D01*
X0274823Y0063888D01*
X0274786Y0063974D01*
X0274753Y0064062D01*
X0274723Y0064151D01*
X0274697Y0064242D01*
X0274676Y0064333D01*
X0274658Y0064426D01*
X0274644Y0064519D01*
X0274634Y0064612D01*
X0274628Y0064706D01*
X0274626Y0064800D01*
M02*
