%
M48
M72
T01C0.0080
T02C0.0100
T03C0.0120
T04C0.0130
T05C0.0140
T06C0.0150
T07C0.0160
T08C0.0240
T09C0.0246
T10C0.0285
T11C0.0400
T12C0.0433
T13C0.0443
T14C0.1250
%
T01
X6873Y7523
X7423Y7295
X7973Y7523
X8201Y8073
X7973Y8623
X7423Y8851
X6873Y8623
X6645Y8073
X9923Y8573
X10423Y8573
X10173Y8073
X10173Y7573
X10423Y7073
X9923Y7073
X11173Y6948
X11298Y8698
X11548Y8823
X12173Y10073
X12173Y10573
X11673Y10323
X11173Y10323
X10673Y10073
X10673Y10573
X10173Y10823
X10673Y11573
X11226Y11323
X11423Y11823
X9173Y10823
X9173Y13823
X10173Y13823
X10173Y16823
X9173Y16823
X12423Y17948
X12623Y18073
X12873Y18323
X13673Y18823
X13923Y19123
X14173Y19323
X14798Y19198
X15173Y19198
X15548Y19197
X15850Y20146
X15548Y21073
X15173Y21073
X14798Y21073
X13548Y20698
X13673Y20323
X13673Y19948
X11923Y21898
X12423Y22573
X13541Y22698
X13548Y22323
X15048Y22573
X15298Y22323
X17173Y21823
X17673Y21823
X17673Y21198
X17673Y20698
X19673Y21573
X20673Y21573
X21923Y21073
X21923Y20073
X21623Y19448
X22123Y19248
X23423Y19373
X23423Y19073
X25673Y20073
X25673Y21073
X24029Y21073
X24173Y23323
X24673Y23323
X25923Y23073
X25923Y23573
X25765Y25073
X26710Y25073
X26395Y26323
X26080Y26323
X25765Y26573
X25450Y26323
X25136Y26323
X25136Y26823
X25450Y26823
X26080Y26823
X26395Y26823
X26710Y26573
X27025Y26323
X27340Y26323
X27655Y26573
X27970Y26323
X28285Y26323
X28600Y26573
X28915Y26323
X29230Y26323
X29545Y26573
X29860Y26323
X30175Y26323
X30490Y26573
X30805Y26323
X31120Y26323
X31435Y26573
X31750Y26323
X32065Y26323
X32065Y26823
X31750Y26823
X31120Y26823
X30805Y26823
X30175Y26823
X29860Y26823
X29230Y26823
X28915Y26823
X28285Y26823
X27970Y26823
X27340Y26823
X27025Y26823
X26710Y28073
X25765Y28073
X27655Y28298
X28600Y28073
X29545Y28073
X30490Y28073
X31435Y28073
X32380Y28023
X32380Y25123
X31435Y25073
X30490Y25073
X29545Y25073
X28600Y25073
X29673Y23573
X29673Y23073
X31673Y23323
X32173Y23323
X33423Y23073
X33423Y23573
X33173Y21073
X33173Y20073
X32173Y19648
X31923Y19448
X33298Y19121
X33673Y19121
X34173Y19121
X34548Y19121
X34548Y17526
X34173Y17523
X33673Y17523
X33298Y17526
X33298Y17123
X34173Y16823
X34673Y16823
X36048Y17448
X36423Y17448
X36298Y16449
X36673Y16448
X37048Y16448
X35996Y15500
X36298Y14573
X36673Y14573
X37048Y14573
X36548Y13448
X36798Y13073
X34673Y13823
X34173Y13823
X34173Y14448
X34173Y14948
X32173Y14073
X31173Y14073
X29923Y14573
X29923Y16448
X29600Y16448
X29246Y16448
X30223Y16673
X30223Y17023
X30223Y17823
X29973Y18323
X30548Y18423
X28850Y17323
X28171Y17922
X27923Y18138
X27423Y17723
X27173Y17923
X27298Y18573
X27048Y18698
X29423Y20073
X29423Y21073
X31529Y21073
X31173Y17073
X32173Y17073
X27673Y16823
X27423Y16523
X27048Y16448
X26173Y15573
X26173Y14573
X27817Y14573
X27673Y12323
X27173Y12323
X25923Y12073
X25923Y12573
X25765Y10573
X26710Y10573
X26395Y9323
X26080Y9323
X25765Y9073
X25450Y8823
X25136Y8823
X25136Y9323
X25450Y9323
X26080Y8823
X26395Y8823
X26710Y9073
X27025Y8823
X27340Y8823
X27655Y9073
X27970Y8823
X28285Y8823
X28600Y9073
X28915Y8823
X29230Y8823
X29545Y9073
X29860Y8823
X30175Y8823
X30490Y9073
X30805Y8823
X31120Y8823
X31435Y9073
X31120Y9323
X30805Y9323
X30175Y9323
X29860Y9323
X29230Y9323
X28915Y9323
X28285Y9323
X27970Y9323
X27340Y9323
X27025Y9323
X28600Y10573
X29545Y10573
X30490Y10573
X30523Y11848
X29673Y12073
X29673Y12573
X33010Y10573
X33325Y9323
X33639Y9323
X33010Y8823
X32695Y9323
X32695Y7573
X33325Y7573
X33639Y7573
X30490Y7573
X29545Y7573
X28600Y7573
X27655Y7348
X26710Y7573
X25765Y7573
X24191Y8823
X23876Y8823
X23561Y9073
X23876Y9323
X24191Y9323
X23246Y9323
X22931Y9323
X22616Y9073
X22931Y8823
X23246Y8823
X22301Y8823
X21986Y8823
X21671Y9073
X21986Y9323
X22301Y9323
X21041Y9323
X20726Y9323
X20411Y9073
X20096Y8823
X19781Y8823
X19466Y9073
X19151Y8823
X18836Y8823
X18836Y9323
X18521Y9323
X18206Y9323
X18206Y8823
X19151Y9323
X19781Y9323
X20096Y9323
X20726Y8823
X21041Y8823
X20411Y7573
X19466Y7573
X21923Y7198
X22616Y7573
X23561Y7573
X23561Y10573
X22616Y10573
X21671Y10573
X20411Y10573
X19466Y10573
X18423Y12073
X18423Y12573
X19673Y12323
X20173Y12323
X22173Y12073
X22173Y12573
X22423Y14573
X22423Y15573
X20317Y14573
X20120Y15923
X19923Y16123
X18673Y15573
X18673Y14573
X15173Y12073
X14923Y15278
X14798Y15475
X14923Y15672
X14798Y15869
X14923Y16065
X18548Y18198
X17673Y18823
X17173Y18823
X19673Y18573
X20673Y18573
X22173Y23073
X22173Y23573
X22616Y25073
X23561Y25073
X23876Y26323
X24191Y26323
X24191Y26823
X23876Y26823
X23561Y26573
X23246Y26323
X22931Y26323
X22616Y26573
X22301Y26323
X21986Y26323
X21671Y26573
X21986Y26823
X22301Y26823
X22931Y26823
X23246Y26823
X23561Y28073
X22616Y28073
X21671Y28073
X20411Y28073
X18836Y28073
X19151Y26823
X19466Y26823
X19781Y26823
X20096Y26823
X20411Y26573
X20096Y26323
X19781Y26323
X19466Y26323
X19151Y26323
X18836Y26573
X20726Y26323
X21041Y26323
X21041Y26823
X20726Y26823
X20411Y25073
X18836Y25073
X12173Y25073
X12173Y25573
X11673Y25323
X11173Y25323
X10673Y25073
X10673Y25573
X10173Y25323
X9923Y25273
X11423Y24323
X11423Y23973
X11923Y24323
X10173Y22823
X9173Y22823
X9173Y19823
X10173Y19823
X7423Y26795
X7973Y27023
X8201Y27573
X7973Y28123
X7423Y28351
X6873Y28123
X6645Y27573
X6873Y27023
X8923Y28573
X9923Y28573
X10423Y28573
X10173Y28073
X10173Y27573
X10423Y27073
X9923Y27073
X13673Y7573
X36923Y18823
X36923Y19581
X37048Y19778
X36923Y19975
X37048Y20172
X36923Y20369
X39423Y20823
X39798Y20948
X40298Y20820
X40298Y20564
X40298Y21076
X40298Y21332
X40298Y22073
X40298Y22823
X42548Y22823
X42548Y22073
X42548Y21823
X42548Y21332
X42548Y21076
X42548Y20820
X42548Y20564
X43048Y21073
X43298Y21073
X43298Y20823
X43298Y20448
X43548Y20448
X44173Y21448
X44173Y21698
X44173Y21948
X44173Y22448
X43548Y22948
X43548Y23448
X43298Y23448
X43298Y23823
X43298Y24073
X43048Y24073
X44173Y24448
X44173Y24698
X44173Y24948
X44173Y25448
X44798Y24823
X42548Y26073
X43873Y27023
X44423Y26795
X44973Y27023
X45201Y27573
X44973Y28123
X44423Y28351
X43873Y28123
X43645Y27573
X41423Y25698
X44798Y21823
X42098Y19573
X41423Y19323
X41423Y19823
X40376Y19123
X40173Y19323
X39798Y18448
X40673Y18073
X41173Y18573
X41673Y18573
X42423Y17823
X41673Y17073
X41173Y17073
X40673Y17573
X42298Y15963
X43923Y14573
X42923Y13117
X42655Y12900
X42923Y12684
X42655Y12467
X42923Y12250
X42655Y12034
X42923Y11817
X42655Y11601
X42923Y11384
X42655Y11168
X42923Y10951
X42655Y10735
X42923Y10518
X42655Y10302
X42923Y10085
X41373Y10361
X40923Y9198
X41423Y8323
X42003Y8073
X42673Y8073
X42923Y8323
X43645Y8073
X43873Y8623
X44423Y8851
X44973Y8623
X45201Y8073
X44973Y7523
X44423Y7295
X43873Y7523
X42423Y7323
X41673Y7073
X41373Y12723
X39418Y13073
X40673Y14573
X39418Y15448
X39173Y15323
T02
X35723Y19123
X36923Y21198
X43048Y22323
X43298Y22323
X43298Y22573
X44423Y23198
X44798Y23198
X44798Y23448
X44423Y23948
X43298Y25323
X43048Y25323
X43298Y25573
X44423Y20948
X44798Y20448
X44798Y20198
X44423Y20198
T03
X38423Y20323
X37923Y20323
X37923Y19823
X38423Y19823
X34673Y20198
X34423Y20198
X33423Y20573
X33173Y20573
X32798Y22073
X32798Y22573
X34048Y23823
X34298Y23823
X30548Y23823
X30298Y23823
X29048Y22573
X29048Y22073
X29423Y20573
X29673Y20573
X30673Y20198
X30923Y20198
X27173Y20198
X26923Y20198
X25923Y20573
X25673Y20573
X25298Y22073
X25298Y22573
X26548Y23823
X26798Y23823
X23048Y23823
X22798Y23823
X20548Y23073
X20548Y22823
X20173Y21823
X20173Y21573
X20548Y20073
X20548Y19823
X20173Y18823
X20173Y18573
X21923Y20573
X22173Y20573
X23173Y20198
X23423Y20198
X25673Y18073
X26173Y18073
X26173Y17573
X25673Y17573
X24923Y15448
X24673Y15448
X25923Y15073
X26173Y15073
X26548Y13573
X26548Y13073
X25298Y11823
X25048Y11823
X22798Y13073
X22798Y13573
X22423Y15073
X22173Y15073
X21173Y15448
X20923Y15448
X18673Y15073
X18423Y15073
X17423Y15448
X17173Y15448
X19048Y13573
X19048Y13073
X17798Y11823
X17548Y11823
X21298Y11823
X21548Y11823
X28423Y15448
X28673Y15448
X29673Y15073
X29923Y15073
X31298Y15573
X31298Y15823
X31673Y16823
X31673Y17073
X34798Y16198
X34798Y15948
X35673Y14323
X34798Y13198
X34798Y12948
X35173Y11948
X31673Y13823
X31673Y14073
X31298Y12823
X31298Y12573
X29048Y11823
X28798Y11823
X17048Y19448
X17048Y19698
X16173Y21323
X17048Y22448
X17048Y22698
X16673Y23698
X12673Y19823
X12673Y19323
X12173Y19323
X12173Y19823
X10048Y21073
X10048Y21323
X9673Y20073
X9673Y19823
X8173Y19448
X7798Y20073
X7548Y20073
X10048Y18323
X10048Y18073
X9673Y17073
X9673Y16823
X8173Y16448
X7798Y17073
X7548Y17073
X10048Y15323
X10048Y15073
X9673Y14073
X9673Y13823
X8173Y13448
X7798Y14073
X7548Y14073
X10048Y12323
X10048Y12073
X9673Y11073
X9673Y10823
X7798Y11073
X7548Y11073
X13423Y15323
X13923Y15323
X13923Y15823
X13423Y15823
X8173Y22448
X7798Y23073
X7548Y23073
X9673Y23073
X9673Y22823
X10048Y24073
X10048Y24323
X44600Y11817
T04
X38673Y14823
X29923Y15573
X24923Y18823
X21923Y25073
X13173Y20948
X11423Y20573
X12673Y25073
X31750Y7573
T05
X35173Y10948
X35173Y11448
X37673Y10948
X39073Y22073
X38673Y22948
X37673Y22948
X39073Y23823
X38673Y24698
X37673Y24698
X16673Y24698
X16673Y24198
X14173Y24698
X12773Y13573
X13173Y12698
X14173Y12698
X12773Y11823
X13173Y10948
X14173Y10948
T06
X17498Y13723
X17848Y13723
X17848Y14073
X17498Y14073
X17498Y14423
X17848Y14423
X21248Y14423
X21248Y14073
X21248Y13723
X21598Y13723
X21598Y14073
X21598Y14423
X24998Y14423
X24998Y14073
X24998Y13723
X25348Y13723
X25348Y14073
X25348Y14423
X28748Y14423
X28748Y14073
X28748Y13723
X29098Y13723
X29098Y14073
X29098Y14423
X32323Y13248
X32323Y12898
X32673Y12898
X33023Y12898
X33023Y13248
X32673Y13248
X32673Y15898
X33023Y15898
X33023Y16248
X32673Y16248
X32323Y16248
X32323Y15898
X33998Y21223
X34348Y21223
X34348Y21573
X33998Y21573
X33998Y21923
X34348Y21923
X30598Y21923
X30598Y21573
X30598Y21223
X30248Y21223
X30248Y21573
X30248Y21923
X26848Y21923
X26848Y21573
X26848Y21223
X26498Y21223
X26498Y21573
X26498Y21923
X23098Y21923
X23098Y21573
X23098Y21223
X22748Y21223
X22748Y21573
X22748Y21923
X19523Y22398
X19173Y22398
X18823Y22398
X18823Y22748
X19173Y22748
X19523Y22748
X19523Y19748
X19523Y19398
X19173Y19398
X18823Y19398
X18823Y19748
X19173Y19748
X9023Y20648
X8673Y20648
X8323Y20648
X8323Y20998
X8673Y20998
X9023Y20998
X9023Y23648
X8673Y23648
X8323Y23648
X8323Y23998
X8673Y23998
X9023Y23998
X9023Y17998
X9023Y17648
X8673Y17648
X8323Y17648
X8323Y17998
X8673Y17998
X8673Y14998
X8673Y14648
X9023Y14648
X9023Y14998
X8323Y14998
X8323Y14648
X8323Y11998
X8323Y11648
X8673Y11648
X9023Y11648
X9023Y11998
X8673Y11998
T07
X6173Y15323
X6183Y16930
X6183Y17430
X6183Y17930
X6183Y20430
X11423Y22573
X13173Y24198
X12673Y26573
X17173Y25823
X17173Y27323
X14423Y21573
X15923Y18573
X15923Y16573
X13423Y18323
X11923Y17823
X11923Y16823
X11923Y15948
X11923Y15573
X11923Y15198
X15173Y10948
X16173Y10948
X17173Y9823
X17173Y8323
X23673Y11073
X28048Y16448
X28798Y16448
X27798Y18698
X23923Y17823
X23923Y17073
X22923Y17073
X22923Y18573
X21673Y18573
X28173Y24573
X34673Y25823
X35673Y24698
X36673Y24698
X39423Y22948
X39423Y21198
X39798Y18823
X38173Y17573
X39673Y17073
X40173Y16573
X40173Y16198
X40173Y15823
X39673Y15823
X40832Y15823
X40832Y16198
X40832Y16573
X42048Y16198
X42048Y14573
X42048Y13823
X42423Y13823
X41673Y13823
X41048Y13073
X41048Y11573
X38673Y11448
X39173Y9073
X34673Y8323
X34673Y9823
X37423Y14073
X39673Y14573
X38173Y15823
X44298Y15823
X44298Y19823
X40298Y26073
X41923Y27073
X42298Y28198
X34673Y27323
X6183Y26073
T08
X15673Y26573
X36173Y26573
X37173Y26573
X42423Y18573
X42423Y17073
X36173Y9073
X15673Y9073
X14673Y9073
T09
X15763Y22024
X15763Y24623
X36082Y13623
X36082Y11024
T10
X34624Y9073
X34624Y9073
X34624Y9073
X34624Y9073
X34624Y26573
X34624Y26573
X34624Y26573
X34624Y26573
T11
X40923Y24698
X41923Y24698
X41923Y23698
X40923Y23698
T12
X38673Y26073
X37673Y26073
X36673Y26073
X35673Y26073
X35673Y27073
X36673Y27073
X37673Y27073
X38673Y27073
X16173Y27073
X16173Y26073
X15173Y26073
X14173Y26073
X13173Y26073
X13173Y27073
X14173Y27073
X15173Y27073
X15173Y9573
X15173Y8573
X16173Y8573
X16173Y9573
X14173Y9573
X14173Y8573
X13173Y8573
X13173Y9573
X35673Y9573
X35673Y8573
X36673Y8573
X37673Y8573
X38673Y8573
X38673Y9573
X37673Y9573
X36673Y9573
T13
X17222Y9073
X17222Y9073
X17222Y9073
X17222Y9073
X17222Y26573
X17222Y26573
X17222Y26573
X17222Y26573
T14
X7423Y27573
X7423Y8073
X44423Y8073
X44423Y27573
M30
