G75*
%MOIN*%
%OFA0B0*%
%FSLAX25Y25*%
%IPPOS*%
%LPD*%
%AMOC8*
5,1,8,0,0,1.08239X$1,22.5*
%
%ADD10C,0.00000*%
%ADD11C,0.00000*%
D10*
X0059229Y0065733D02*
X0059229Y0290733D01*
X0459229Y0290733D01*
X0459229Y0065733D01*
X0059229Y0065733D01*
D11*
X0129564Y0085733D02*
X0129566Y0085826D01*
X0129572Y0085918D01*
X0129582Y0086010D01*
X0129596Y0086101D01*
X0129613Y0086192D01*
X0129635Y0086282D01*
X0129660Y0086371D01*
X0129689Y0086459D01*
X0129722Y0086545D01*
X0129759Y0086630D01*
X0129799Y0086714D01*
X0129843Y0086795D01*
X0129890Y0086875D01*
X0129940Y0086953D01*
X0129994Y0087028D01*
X0130051Y0087101D01*
X0130111Y0087171D01*
X0130174Y0087239D01*
X0130240Y0087304D01*
X0130308Y0087366D01*
X0130379Y0087426D01*
X0130453Y0087482D01*
X0130529Y0087535D01*
X0130607Y0087584D01*
X0130687Y0087631D01*
X0130769Y0087673D01*
X0130853Y0087713D01*
X0130938Y0087748D01*
X0131025Y0087780D01*
X0131113Y0087809D01*
X0131202Y0087833D01*
X0131292Y0087854D01*
X0131383Y0087870D01*
X0131475Y0087883D01*
X0131567Y0087892D01*
X0131660Y0087897D01*
X0131752Y0087898D01*
X0131845Y0087895D01*
X0131937Y0087888D01*
X0132029Y0087877D01*
X0132120Y0087862D01*
X0132211Y0087844D01*
X0132301Y0087821D01*
X0132389Y0087795D01*
X0132477Y0087765D01*
X0132563Y0087731D01*
X0132647Y0087694D01*
X0132730Y0087652D01*
X0132811Y0087608D01*
X0132891Y0087560D01*
X0132968Y0087509D01*
X0133042Y0087454D01*
X0133115Y0087396D01*
X0133185Y0087336D01*
X0133252Y0087272D01*
X0133316Y0087206D01*
X0133378Y0087136D01*
X0133436Y0087065D01*
X0133491Y0086991D01*
X0133543Y0086914D01*
X0133592Y0086835D01*
X0133638Y0086755D01*
X0133680Y0086672D01*
X0133718Y0086588D01*
X0133753Y0086502D01*
X0133784Y0086415D01*
X0133811Y0086327D01*
X0133834Y0086237D01*
X0133854Y0086147D01*
X0133870Y0086056D01*
X0133882Y0085964D01*
X0133890Y0085872D01*
X0133894Y0085779D01*
X0133894Y0085687D01*
X0133890Y0085594D01*
X0133882Y0085502D01*
X0133870Y0085410D01*
X0133854Y0085319D01*
X0133834Y0085229D01*
X0133811Y0085139D01*
X0133784Y0085051D01*
X0133753Y0084964D01*
X0133718Y0084878D01*
X0133680Y0084794D01*
X0133638Y0084711D01*
X0133592Y0084631D01*
X0133543Y0084552D01*
X0133491Y0084475D01*
X0133436Y0084401D01*
X0133378Y0084330D01*
X0133316Y0084260D01*
X0133252Y0084194D01*
X0133185Y0084130D01*
X0133115Y0084070D01*
X0133042Y0084012D01*
X0132968Y0083957D01*
X0132891Y0083906D01*
X0132812Y0083858D01*
X0132730Y0083814D01*
X0132647Y0083772D01*
X0132563Y0083735D01*
X0132477Y0083701D01*
X0132389Y0083671D01*
X0132301Y0083645D01*
X0132211Y0083622D01*
X0132120Y0083604D01*
X0132029Y0083589D01*
X0131937Y0083578D01*
X0131845Y0083571D01*
X0131752Y0083568D01*
X0131660Y0083569D01*
X0131567Y0083574D01*
X0131475Y0083583D01*
X0131383Y0083596D01*
X0131292Y0083612D01*
X0131202Y0083633D01*
X0131113Y0083657D01*
X0131025Y0083686D01*
X0130938Y0083718D01*
X0130853Y0083753D01*
X0130769Y0083793D01*
X0130687Y0083835D01*
X0130607Y0083882D01*
X0130529Y0083931D01*
X0130453Y0083984D01*
X0130379Y0084040D01*
X0130308Y0084100D01*
X0130240Y0084162D01*
X0130174Y0084227D01*
X0130111Y0084295D01*
X0130051Y0084365D01*
X0129994Y0084438D01*
X0129940Y0084513D01*
X0129890Y0084591D01*
X0129843Y0084671D01*
X0129799Y0084752D01*
X0129759Y0084836D01*
X0129722Y0084921D01*
X0129689Y0085007D01*
X0129660Y0085095D01*
X0129635Y0085184D01*
X0129613Y0085274D01*
X0129596Y0085365D01*
X0129582Y0085456D01*
X0129572Y0085548D01*
X0129566Y0085640D01*
X0129564Y0085733D01*
X0129564Y0095733D02*
X0129566Y0095826D01*
X0129572Y0095918D01*
X0129582Y0096010D01*
X0129596Y0096101D01*
X0129613Y0096192D01*
X0129635Y0096282D01*
X0129660Y0096371D01*
X0129689Y0096459D01*
X0129722Y0096545D01*
X0129759Y0096630D01*
X0129799Y0096714D01*
X0129843Y0096795D01*
X0129890Y0096875D01*
X0129940Y0096953D01*
X0129994Y0097028D01*
X0130051Y0097101D01*
X0130111Y0097171D01*
X0130174Y0097239D01*
X0130240Y0097304D01*
X0130308Y0097366D01*
X0130379Y0097426D01*
X0130453Y0097482D01*
X0130529Y0097535D01*
X0130607Y0097584D01*
X0130687Y0097631D01*
X0130769Y0097673D01*
X0130853Y0097713D01*
X0130938Y0097748D01*
X0131025Y0097780D01*
X0131113Y0097809D01*
X0131202Y0097833D01*
X0131292Y0097854D01*
X0131383Y0097870D01*
X0131475Y0097883D01*
X0131567Y0097892D01*
X0131660Y0097897D01*
X0131752Y0097898D01*
X0131845Y0097895D01*
X0131937Y0097888D01*
X0132029Y0097877D01*
X0132120Y0097862D01*
X0132211Y0097844D01*
X0132301Y0097821D01*
X0132389Y0097795D01*
X0132477Y0097765D01*
X0132563Y0097731D01*
X0132647Y0097694D01*
X0132730Y0097652D01*
X0132811Y0097608D01*
X0132891Y0097560D01*
X0132968Y0097509D01*
X0133042Y0097454D01*
X0133115Y0097396D01*
X0133185Y0097336D01*
X0133252Y0097272D01*
X0133316Y0097206D01*
X0133378Y0097136D01*
X0133436Y0097065D01*
X0133491Y0096991D01*
X0133543Y0096914D01*
X0133592Y0096835D01*
X0133638Y0096755D01*
X0133680Y0096672D01*
X0133718Y0096588D01*
X0133753Y0096502D01*
X0133784Y0096415D01*
X0133811Y0096327D01*
X0133834Y0096237D01*
X0133854Y0096147D01*
X0133870Y0096056D01*
X0133882Y0095964D01*
X0133890Y0095872D01*
X0133894Y0095779D01*
X0133894Y0095687D01*
X0133890Y0095594D01*
X0133882Y0095502D01*
X0133870Y0095410D01*
X0133854Y0095319D01*
X0133834Y0095229D01*
X0133811Y0095139D01*
X0133784Y0095051D01*
X0133753Y0094964D01*
X0133718Y0094878D01*
X0133680Y0094794D01*
X0133638Y0094711D01*
X0133592Y0094631D01*
X0133543Y0094552D01*
X0133491Y0094475D01*
X0133436Y0094401D01*
X0133378Y0094330D01*
X0133316Y0094260D01*
X0133252Y0094194D01*
X0133185Y0094130D01*
X0133115Y0094070D01*
X0133042Y0094012D01*
X0132968Y0093957D01*
X0132891Y0093906D01*
X0132812Y0093858D01*
X0132730Y0093814D01*
X0132647Y0093772D01*
X0132563Y0093735D01*
X0132477Y0093701D01*
X0132389Y0093671D01*
X0132301Y0093645D01*
X0132211Y0093622D01*
X0132120Y0093604D01*
X0132029Y0093589D01*
X0131937Y0093578D01*
X0131845Y0093571D01*
X0131752Y0093568D01*
X0131660Y0093569D01*
X0131567Y0093574D01*
X0131475Y0093583D01*
X0131383Y0093596D01*
X0131292Y0093612D01*
X0131202Y0093633D01*
X0131113Y0093657D01*
X0131025Y0093686D01*
X0130938Y0093718D01*
X0130853Y0093753D01*
X0130769Y0093793D01*
X0130687Y0093835D01*
X0130607Y0093882D01*
X0130529Y0093931D01*
X0130453Y0093984D01*
X0130379Y0094040D01*
X0130308Y0094100D01*
X0130240Y0094162D01*
X0130174Y0094227D01*
X0130111Y0094295D01*
X0130051Y0094365D01*
X0129994Y0094438D01*
X0129940Y0094513D01*
X0129890Y0094591D01*
X0129843Y0094671D01*
X0129799Y0094752D01*
X0129759Y0094836D01*
X0129722Y0094921D01*
X0129689Y0095007D01*
X0129660Y0095095D01*
X0129635Y0095184D01*
X0129613Y0095274D01*
X0129596Y0095365D01*
X0129582Y0095456D01*
X0129572Y0095548D01*
X0129566Y0095640D01*
X0129564Y0095733D01*
X0139564Y0095733D02*
X0139566Y0095826D01*
X0139572Y0095918D01*
X0139582Y0096010D01*
X0139596Y0096101D01*
X0139613Y0096192D01*
X0139635Y0096282D01*
X0139660Y0096371D01*
X0139689Y0096459D01*
X0139722Y0096545D01*
X0139759Y0096630D01*
X0139799Y0096714D01*
X0139843Y0096795D01*
X0139890Y0096875D01*
X0139940Y0096953D01*
X0139994Y0097028D01*
X0140051Y0097101D01*
X0140111Y0097171D01*
X0140174Y0097239D01*
X0140240Y0097304D01*
X0140308Y0097366D01*
X0140379Y0097426D01*
X0140453Y0097482D01*
X0140529Y0097535D01*
X0140607Y0097584D01*
X0140687Y0097631D01*
X0140769Y0097673D01*
X0140853Y0097713D01*
X0140938Y0097748D01*
X0141025Y0097780D01*
X0141113Y0097809D01*
X0141202Y0097833D01*
X0141292Y0097854D01*
X0141383Y0097870D01*
X0141475Y0097883D01*
X0141567Y0097892D01*
X0141660Y0097897D01*
X0141752Y0097898D01*
X0141845Y0097895D01*
X0141937Y0097888D01*
X0142029Y0097877D01*
X0142120Y0097862D01*
X0142211Y0097844D01*
X0142301Y0097821D01*
X0142389Y0097795D01*
X0142477Y0097765D01*
X0142563Y0097731D01*
X0142647Y0097694D01*
X0142730Y0097652D01*
X0142811Y0097608D01*
X0142891Y0097560D01*
X0142968Y0097509D01*
X0143042Y0097454D01*
X0143115Y0097396D01*
X0143185Y0097336D01*
X0143252Y0097272D01*
X0143316Y0097206D01*
X0143378Y0097136D01*
X0143436Y0097065D01*
X0143491Y0096991D01*
X0143543Y0096914D01*
X0143592Y0096835D01*
X0143638Y0096755D01*
X0143680Y0096672D01*
X0143718Y0096588D01*
X0143753Y0096502D01*
X0143784Y0096415D01*
X0143811Y0096327D01*
X0143834Y0096237D01*
X0143854Y0096147D01*
X0143870Y0096056D01*
X0143882Y0095964D01*
X0143890Y0095872D01*
X0143894Y0095779D01*
X0143894Y0095687D01*
X0143890Y0095594D01*
X0143882Y0095502D01*
X0143870Y0095410D01*
X0143854Y0095319D01*
X0143834Y0095229D01*
X0143811Y0095139D01*
X0143784Y0095051D01*
X0143753Y0094964D01*
X0143718Y0094878D01*
X0143680Y0094794D01*
X0143638Y0094711D01*
X0143592Y0094631D01*
X0143543Y0094552D01*
X0143491Y0094475D01*
X0143436Y0094401D01*
X0143378Y0094330D01*
X0143316Y0094260D01*
X0143252Y0094194D01*
X0143185Y0094130D01*
X0143115Y0094070D01*
X0143042Y0094012D01*
X0142968Y0093957D01*
X0142891Y0093906D01*
X0142812Y0093858D01*
X0142730Y0093814D01*
X0142647Y0093772D01*
X0142563Y0093735D01*
X0142477Y0093701D01*
X0142389Y0093671D01*
X0142301Y0093645D01*
X0142211Y0093622D01*
X0142120Y0093604D01*
X0142029Y0093589D01*
X0141937Y0093578D01*
X0141845Y0093571D01*
X0141752Y0093568D01*
X0141660Y0093569D01*
X0141567Y0093574D01*
X0141475Y0093583D01*
X0141383Y0093596D01*
X0141292Y0093612D01*
X0141202Y0093633D01*
X0141113Y0093657D01*
X0141025Y0093686D01*
X0140938Y0093718D01*
X0140853Y0093753D01*
X0140769Y0093793D01*
X0140687Y0093835D01*
X0140607Y0093882D01*
X0140529Y0093931D01*
X0140453Y0093984D01*
X0140379Y0094040D01*
X0140308Y0094100D01*
X0140240Y0094162D01*
X0140174Y0094227D01*
X0140111Y0094295D01*
X0140051Y0094365D01*
X0139994Y0094438D01*
X0139940Y0094513D01*
X0139890Y0094591D01*
X0139843Y0094671D01*
X0139799Y0094752D01*
X0139759Y0094836D01*
X0139722Y0094921D01*
X0139689Y0095007D01*
X0139660Y0095095D01*
X0139635Y0095184D01*
X0139613Y0095274D01*
X0139596Y0095365D01*
X0139582Y0095456D01*
X0139572Y0095548D01*
X0139566Y0095640D01*
X0139564Y0095733D01*
X0139564Y0085733D02*
X0139566Y0085826D01*
X0139572Y0085918D01*
X0139582Y0086010D01*
X0139596Y0086101D01*
X0139613Y0086192D01*
X0139635Y0086282D01*
X0139660Y0086371D01*
X0139689Y0086459D01*
X0139722Y0086545D01*
X0139759Y0086630D01*
X0139799Y0086714D01*
X0139843Y0086795D01*
X0139890Y0086875D01*
X0139940Y0086953D01*
X0139994Y0087028D01*
X0140051Y0087101D01*
X0140111Y0087171D01*
X0140174Y0087239D01*
X0140240Y0087304D01*
X0140308Y0087366D01*
X0140379Y0087426D01*
X0140453Y0087482D01*
X0140529Y0087535D01*
X0140607Y0087584D01*
X0140687Y0087631D01*
X0140769Y0087673D01*
X0140853Y0087713D01*
X0140938Y0087748D01*
X0141025Y0087780D01*
X0141113Y0087809D01*
X0141202Y0087833D01*
X0141292Y0087854D01*
X0141383Y0087870D01*
X0141475Y0087883D01*
X0141567Y0087892D01*
X0141660Y0087897D01*
X0141752Y0087898D01*
X0141845Y0087895D01*
X0141937Y0087888D01*
X0142029Y0087877D01*
X0142120Y0087862D01*
X0142211Y0087844D01*
X0142301Y0087821D01*
X0142389Y0087795D01*
X0142477Y0087765D01*
X0142563Y0087731D01*
X0142647Y0087694D01*
X0142730Y0087652D01*
X0142811Y0087608D01*
X0142891Y0087560D01*
X0142968Y0087509D01*
X0143042Y0087454D01*
X0143115Y0087396D01*
X0143185Y0087336D01*
X0143252Y0087272D01*
X0143316Y0087206D01*
X0143378Y0087136D01*
X0143436Y0087065D01*
X0143491Y0086991D01*
X0143543Y0086914D01*
X0143592Y0086835D01*
X0143638Y0086755D01*
X0143680Y0086672D01*
X0143718Y0086588D01*
X0143753Y0086502D01*
X0143784Y0086415D01*
X0143811Y0086327D01*
X0143834Y0086237D01*
X0143854Y0086147D01*
X0143870Y0086056D01*
X0143882Y0085964D01*
X0143890Y0085872D01*
X0143894Y0085779D01*
X0143894Y0085687D01*
X0143890Y0085594D01*
X0143882Y0085502D01*
X0143870Y0085410D01*
X0143854Y0085319D01*
X0143834Y0085229D01*
X0143811Y0085139D01*
X0143784Y0085051D01*
X0143753Y0084964D01*
X0143718Y0084878D01*
X0143680Y0084794D01*
X0143638Y0084711D01*
X0143592Y0084631D01*
X0143543Y0084552D01*
X0143491Y0084475D01*
X0143436Y0084401D01*
X0143378Y0084330D01*
X0143316Y0084260D01*
X0143252Y0084194D01*
X0143185Y0084130D01*
X0143115Y0084070D01*
X0143042Y0084012D01*
X0142968Y0083957D01*
X0142891Y0083906D01*
X0142812Y0083858D01*
X0142730Y0083814D01*
X0142647Y0083772D01*
X0142563Y0083735D01*
X0142477Y0083701D01*
X0142389Y0083671D01*
X0142301Y0083645D01*
X0142211Y0083622D01*
X0142120Y0083604D01*
X0142029Y0083589D01*
X0141937Y0083578D01*
X0141845Y0083571D01*
X0141752Y0083568D01*
X0141660Y0083569D01*
X0141567Y0083574D01*
X0141475Y0083583D01*
X0141383Y0083596D01*
X0141292Y0083612D01*
X0141202Y0083633D01*
X0141113Y0083657D01*
X0141025Y0083686D01*
X0140938Y0083718D01*
X0140853Y0083753D01*
X0140769Y0083793D01*
X0140687Y0083835D01*
X0140607Y0083882D01*
X0140529Y0083931D01*
X0140453Y0083984D01*
X0140379Y0084040D01*
X0140308Y0084100D01*
X0140240Y0084162D01*
X0140174Y0084227D01*
X0140111Y0084295D01*
X0140051Y0084365D01*
X0139994Y0084438D01*
X0139940Y0084513D01*
X0139890Y0084591D01*
X0139843Y0084671D01*
X0139799Y0084752D01*
X0139759Y0084836D01*
X0139722Y0084921D01*
X0139689Y0085007D01*
X0139660Y0085095D01*
X0139635Y0085184D01*
X0139613Y0085274D01*
X0139596Y0085365D01*
X0139582Y0085456D01*
X0139572Y0085548D01*
X0139566Y0085640D01*
X0139564Y0085733D01*
X0149564Y0085733D02*
X0149566Y0085826D01*
X0149572Y0085918D01*
X0149582Y0086010D01*
X0149596Y0086101D01*
X0149613Y0086192D01*
X0149635Y0086282D01*
X0149660Y0086371D01*
X0149689Y0086459D01*
X0149722Y0086545D01*
X0149759Y0086630D01*
X0149799Y0086714D01*
X0149843Y0086795D01*
X0149890Y0086875D01*
X0149940Y0086953D01*
X0149994Y0087028D01*
X0150051Y0087101D01*
X0150111Y0087171D01*
X0150174Y0087239D01*
X0150240Y0087304D01*
X0150308Y0087366D01*
X0150379Y0087426D01*
X0150453Y0087482D01*
X0150529Y0087535D01*
X0150607Y0087584D01*
X0150687Y0087631D01*
X0150769Y0087673D01*
X0150853Y0087713D01*
X0150938Y0087748D01*
X0151025Y0087780D01*
X0151113Y0087809D01*
X0151202Y0087833D01*
X0151292Y0087854D01*
X0151383Y0087870D01*
X0151475Y0087883D01*
X0151567Y0087892D01*
X0151660Y0087897D01*
X0151752Y0087898D01*
X0151845Y0087895D01*
X0151937Y0087888D01*
X0152029Y0087877D01*
X0152120Y0087862D01*
X0152211Y0087844D01*
X0152301Y0087821D01*
X0152389Y0087795D01*
X0152477Y0087765D01*
X0152563Y0087731D01*
X0152647Y0087694D01*
X0152730Y0087652D01*
X0152811Y0087608D01*
X0152891Y0087560D01*
X0152968Y0087509D01*
X0153042Y0087454D01*
X0153115Y0087396D01*
X0153185Y0087336D01*
X0153252Y0087272D01*
X0153316Y0087206D01*
X0153378Y0087136D01*
X0153436Y0087065D01*
X0153491Y0086991D01*
X0153543Y0086914D01*
X0153592Y0086835D01*
X0153638Y0086755D01*
X0153680Y0086672D01*
X0153718Y0086588D01*
X0153753Y0086502D01*
X0153784Y0086415D01*
X0153811Y0086327D01*
X0153834Y0086237D01*
X0153854Y0086147D01*
X0153870Y0086056D01*
X0153882Y0085964D01*
X0153890Y0085872D01*
X0153894Y0085779D01*
X0153894Y0085687D01*
X0153890Y0085594D01*
X0153882Y0085502D01*
X0153870Y0085410D01*
X0153854Y0085319D01*
X0153834Y0085229D01*
X0153811Y0085139D01*
X0153784Y0085051D01*
X0153753Y0084964D01*
X0153718Y0084878D01*
X0153680Y0084794D01*
X0153638Y0084711D01*
X0153592Y0084631D01*
X0153543Y0084552D01*
X0153491Y0084475D01*
X0153436Y0084401D01*
X0153378Y0084330D01*
X0153316Y0084260D01*
X0153252Y0084194D01*
X0153185Y0084130D01*
X0153115Y0084070D01*
X0153042Y0084012D01*
X0152968Y0083957D01*
X0152891Y0083906D01*
X0152812Y0083858D01*
X0152730Y0083814D01*
X0152647Y0083772D01*
X0152563Y0083735D01*
X0152477Y0083701D01*
X0152389Y0083671D01*
X0152301Y0083645D01*
X0152211Y0083622D01*
X0152120Y0083604D01*
X0152029Y0083589D01*
X0151937Y0083578D01*
X0151845Y0083571D01*
X0151752Y0083568D01*
X0151660Y0083569D01*
X0151567Y0083574D01*
X0151475Y0083583D01*
X0151383Y0083596D01*
X0151292Y0083612D01*
X0151202Y0083633D01*
X0151113Y0083657D01*
X0151025Y0083686D01*
X0150938Y0083718D01*
X0150853Y0083753D01*
X0150769Y0083793D01*
X0150687Y0083835D01*
X0150607Y0083882D01*
X0150529Y0083931D01*
X0150453Y0083984D01*
X0150379Y0084040D01*
X0150308Y0084100D01*
X0150240Y0084162D01*
X0150174Y0084227D01*
X0150111Y0084295D01*
X0150051Y0084365D01*
X0149994Y0084438D01*
X0149940Y0084513D01*
X0149890Y0084591D01*
X0149843Y0084671D01*
X0149799Y0084752D01*
X0149759Y0084836D01*
X0149722Y0084921D01*
X0149689Y0085007D01*
X0149660Y0085095D01*
X0149635Y0085184D01*
X0149613Y0085274D01*
X0149596Y0085365D01*
X0149582Y0085456D01*
X0149572Y0085548D01*
X0149566Y0085640D01*
X0149564Y0085733D01*
X0149564Y0095733D02*
X0149566Y0095826D01*
X0149572Y0095918D01*
X0149582Y0096010D01*
X0149596Y0096101D01*
X0149613Y0096192D01*
X0149635Y0096282D01*
X0149660Y0096371D01*
X0149689Y0096459D01*
X0149722Y0096545D01*
X0149759Y0096630D01*
X0149799Y0096714D01*
X0149843Y0096795D01*
X0149890Y0096875D01*
X0149940Y0096953D01*
X0149994Y0097028D01*
X0150051Y0097101D01*
X0150111Y0097171D01*
X0150174Y0097239D01*
X0150240Y0097304D01*
X0150308Y0097366D01*
X0150379Y0097426D01*
X0150453Y0097482D01*
X0150529Y0097535D01*
X0150607Y0097584D01*
X0150687Y0097631D01*
X0150769Y0097673D01*
X0150853Y0097713D01*
X0150938Y0097748D01*
X0151025Y0097780D01*
X0151113Y0097809D01*
X0151202Y0097833D01*
X0151292Y0097854D01*
X0151383Y0097870D01*
X0151475Y0097883D01*
X0151567Y0097892D01*
X0151660Y0097897D01*
X0151752Y0097898D01*
X0151845Y0097895D01*
X0151937Y0097888D01*
X0152029Y0097877D01*
X0152120Y0097862D01*
X0152211Y0097844D01*
X0152301Y0097821D01*
X0152389Y0097795D01*
X0152477Y0097765D01*
X0152563Y0097731D01*
X0152647Y0097694D01*
X0152730Y0097652D01*
X0152811Y0097608D01*
X0152891Y0097560D01*
X0152968Y0097509D01*
X0153042Y0097454D01*
X0153115Y0097396D01*
X0153185Y0097336D01*
X0153252Y0097272D01*
X0153316Y0097206D01*
X0153378Y0097136D01*
X0153436Y0097065D01*
X0153491Y0096991D01*
X0153543Y0096914D01*
X0153592Y0096835D01*
X0153638Y0096755D01*
X0153680Y0096672D01*
X0153718Y0096588D01*
X0153753Y0096502D01*
X0153784Y0096415D01*
X0153811Y0096327D01*
X0153834Y0096237D01*
X0153854Y0096147D01*
X0153870Y0096056D01*
X0153882Y0095964D01*
X0153890Y0095872D01*
X0153894Y0095779D01*
X0153894Y0095687D01*
X0153890Y0095594D01*
X0153882Y0095502D01*
X0153870Y0095410D01*
X0153854Y0095319D01*
X0153834Y0095229D01*
X0153811Y0095139D01*
X0153784Y0095051D01*
X0153753Y0094964D01*
X0153718Y0094878D01*
X0153680Y0094794D01*
X0153638Y0094711D01*
X0153592Y0094631D01*
X0153543Y0094552D01*
X0153491Y0094475D01*
X0153436Y0094401D01*
X0153378Y0094330D01*
X0153316Y0094260D01*
X0153252Y0094194D01*
X0153185Y0094130D01*
X0153115Y0094070D01*
X0153042Y0094012D01*
X0152968Y0093957D01*
X0152891Y0093906D01*
X0152812Y0093858D01*
X0152730Y0093814D01*
X0152647Y0093772D01*
X0152563Y0093735D01*
X0152477Y0093701D01*
X0152389Y0093671D01*
X0152301Y0093645D01*
X0152211Y0093622D01*
X0152120Y0093604D01*
X0152029Y0093589D01*
X0151937Y0093578D01*
X0151845Y0093571D01*
X0151752Y0093568D01*
X0151660Y0093569D01*
X0151567Y0093574D01*
X0151475Y0093583D01*
X0151383Y0093596D01*
X0151292Y0093612D01*
X0151202Y0093633D01*
X0151113Y0093657D01*
X0151025Y0093686D01*
X0150938Y0093718D01*
X0150853Y0093753D01*
X0150769Y0093793D01*
X0150687Y0093835D01*
X0150607Y0093882D01*
X0150529Y0093931D01*
X0150453Y0093984D01*
X0150379Y0094040D01*
X0150308Y0094100D01*
X0150240Y0094162D01*
X0150174Y0094227D01*
X0150111Y0094295D01*
X0150051Y0094365D01*
X0149994Y0094438D01*
X0149940Y0094513D01*
X0149890Y0094591D01*
X0149843Y0094671D01*
X0149799Y0094752D01*
X0149759Y0094836D01*
X0149722Y0094921D01*
X0149689Y0095007D01*
X0149660Y0095095D01*
X0149635Y0095184D01*
X0149613Y0095274D01*
X0149596Y0095365D01*
X0149582Y0095456D01*
X0149572Y0095548D01*
X0149566Y0095640D01*
X0149564Y0095733D01*
X0159564Y0095733D02*
X0159566Y0095826D01*
X0159572Y0095918D01*
X0159582Y0096010D01*
X0159596Y0096101D01*
X0159613Y0096192D01*
X0159635Y0096282D01*
X0159660Y0096371D01*
X0159689Y0096459D01*
X0159722Y0096545D01*
X0159759Y0096630D01*
X0159799Y0096714D01*
X0159843Y0096795D01*
X0159890Y0096875D01*
X0159940Y0096953D01*
X0159994Y0097028D01*
X0160051Y0097101D01*
X0160111Y0097171D01*
X0160174Y0097239D01*
X0160240Y0097304D01*
X0160308Y0097366D01*
X0160379Y0097426D01*
X0160453Y0097482D01*
X0160529Y0097535D01*
X0160607Y0097584D01*
X0160687Y0097631D01*
X0160769Y0097673D01*
X0160853Y0097713D01*
X0160938Y0097748D01*
X0161025Y0097780D01*
X0161113Y0097809D01*
X0161202Y0097833D01*
X0161292Y0097854D01*
X0161383Y0097870D01*
X0161475Y0097883D01*
X0161567Y0097892D01*
X0161660Y0097897D01*
X0161752Y0097898D01*
X0161845Y0097895D01*
X0161937Y0097888D01*
X0162029Y0097877D01*
X0162120Y0097862D01*
X0162211Y0097844D01*
X0162301Y0097821D01*
X0162389Y0097795D01*
X0162477Y0097765D01*
X0162563Y0097731D01*
X0162647Y0097694D01*
X0162730Y0097652D01*
X0162811Y0097608D01*
X0162891Y0097560D01*
X0162968Y0097509D01*
X0163042Y0097454D01*
X0163115Y0097396D01*
X0163185Y0097336D01*
X0163252Y0097272D01*
X0163316Y0097206D01*
X0163378Y0097136D01*
X0163436Y0097065D01*
X0163491Y0096991D01*
X0163543Y0096914D01*
X0163592Y0096835D01*
X0163638Y0096755D01*
X0163680Y0096672D01*
X0163718Y0096588D01*
X0163753Y0096502D01*
X0163784Y0096415D01*
X0163811Y0096327D01*
X0163834Y0096237D01*
X0163854Y0096147D01*
X0163870Y0096056D01*
X0163882Y0095964D01*
X0163890Y0095872D01*
X0163894Y0095779D01*
X0163894Y0095687D01*
X0163890Y0095594D01*
X0163882Y0095502D01*
X0163870Y0095410D01*
X0163854Y0095319D01*
X0163834Y0095229D01*
X0163811Y0095139D01*
X0163784Y0095051D01*
X0163753Y0094964D01*
X0163718Y0094878D01*
X0163680Y0094794D01*
X0163638Y0094711D01*
X0163592Y0094631D01*
X0163543Y0094552D01*
X0163491Y0094475D01*
X0163436Y0094401D01*
X0163378Y0094330D01*
X0163316Y0094260D01*
X0163252Y0094194D01*
X0163185Y0094130D01*
X0163115Y0094070D01*
X0163042Y0094012D01*
X0162968Y0093957D01*
X0162891Y0093906D01*
X0162812Y0093858D01*
X0162730Y0093814D01*
X0162647Y0093772D01*
X0162563Y0093735D01*
X0162477Y0093701D01*
X0162389Y0093671D01*
X0162301Y0093645D01*
X0162211Y0093622D01*
X0162120Y0093604D01*
X0162029Y0093589D01*
X0161937Y0093578D01*
X0161845Y0093571D01*
X0161752Y0093568D01*
X0161660Y0093569D01*
X0161567Y0093574D01*
X0161475Y0093583D01*
X0161383Y0093596D01*
X0161292Y0093612D01*
X0161202Y0093633D01*
X0161113Y0093657D01*
X0161025Y0093686D01*
X0160938Y0093718D01*
X0160853Y0093753D01*
X0160769Y0093793D01*
X0160687Y0093835D01*
X0160607Y0093882D01*
X0160529Y0093931D01*
X0160453Y0093984D01*
X0160379Y0094040D01*
X0160308Y0094100D01*
X0160240Y0094162D01*
X0160174Y0094227D01*
X0160111Y0094295D01*
X0160051Y0094365D01*
X0159994Y0094438D01*
X0159940Y0094513D01*
X0159890Y0094591D01*
X0159843Y0094671D01*
X0159799Y0094752D01*
X0159759Y0094836D01*
X0159722Y0094921D01*
X0159689Y0095007D01*
X0159660Y0095095D01*
X0159635Y0095184D01*
X0159613Y0095274D01*
X0159596Y0095365D01*
X0159582Y0095456D01*
X0159572Y0095548D01*
X0159566Y0095640D01*
X0159564Y0095733D01*
X0159564Y0085733D02*
X0159566Y0085826D01*
X0159572Y0085918D01*
X0159582Y0086010D01*
X0159596Y0086101D01*
X0159613Y0086192D01*
X0159635Y0086282D01*
X0159660Y0086371D01*
X0159689Y0086459D01*
X0159722Y0086545D01*
X0159759Y0086630D01*
X0159799Y0086714D01*
X0159843Y0086795D01*
X0159890Y0086875D01*
X0159940Y0086953D01*
X0159994Y0087028D01*
X0160051Y0087101D01*
X0160111Y0087171D01*
X0160174Y0087239D01*
X0160240Y0087304D01*
X0160308Y0087366D01*
X0160379Y0087426D01*
X0160453Y0087482D01*
X0160529Y0087535D01*
X0160607Y0087584D01*
X0160687Y0087631D01*
X0160769Y0087673D01*
X0160853Y0087713D01*
X0160938Y0087748D01*
X0161025Y0087780D01*
X0161113Y0087809D01*
X0161202Y0087833D01*
X0161292Y0087854D01*
X0161383Y0087870D01*
X0161475Y0087883D01*
X0161567Y0087892D01*
X0161660Y0087897D01*
X0161752Y0087898D01*
X0161845Y0087895D01*
X0161937Y0087888D01*
X0162029Y0087877D01*
X0162120Y0087862D01*
X0162211Y0087844D01*
X0162301Y0087821D01*
X0162389Y0087795D01*
X0162477Y0087765D01*
X0162563Y0087731D01*
X0162647Y0087694D01*
X0162730Y0087652D01*
X0162811Y0087608D01*
X0162891Y0087560D01*
X0162968Y0087509D01*
X0163042Y0087454D01*
X0163115Y0087396D01*
X0163185Y0087336D01*
X0163252Y0087272D01*
X0163316Y0087206D01*
X0163378Y0087136D01*
X0163436Y0087065D01*
X0163491Y0086991D01*
X0163543Y0086914D01*
X0163592Y0086835D01*
X0163638Y0086755D01*
X0163680Y0086672D01*
X0163718Y0086588D01*
X0163753Y0086502D01*
X0163784Y0086415D01*
X0163811Y0086327D01*
X0163834Y0086237D01*
X0163854Y0086147D01*
X0163870Y0086056D01*
X0163882Y0085964D01*
X0163890Y0085872D01*
X0163894Y0085779D01*
X0163894Y0085687D01*
X0163890Y0085594D01*
X0163882Y0085502D01*
X0163870Y0085410D01*
X0163854Y0085319D01*
X0163834Y0085229D01*
X0163811Y0085139D01*
X0163784Y0085051D01*
X0163753Y0084964D01*
X0163718Y0084878D01*
X0163680Y0084794D01*
X0163638Y0084711D01*
X0163592Y0084631D01*
X0163543Y0084552D01*
X0163491Y0084475D01*
X0163436Y0084401D01*
X0163378Y0084330D01*
X0163316Y0084260D01*
X0163252Y0084194D01*
X0163185Y0084130D01*
X0163115Y0084070D01*
X0163042Y0084012D01*
X0162968Y0083957D01*
X0162891Y0083906D01*
X0162812Y0083858D01*
X0162730Y0083814D01*
X0162647Y0083772D01*
X0162563Y0083735D01*
X0162477Y0083701D01*
X0162389Y0083671D01*
X0162301Y0083645D01*
X0162211Y0083622D01*
X0162120Y0083604D01*
X0162029Y0083589D01*
X0161937Y0083578D01*
X0161845Y0083571D01*
X0161752Y0083568D01*
X0161660Y0083569D01*
X0161567Y0083574D01*
X0161475Y0083583D01*
X0161383Y0083596D01*
X0161292Y0083612D01*
X0161202Y0083633D01*
X0161113Y0083657D01*
X0161025Y0083686D01*
X0160938Y0083718D01*
X0160853Y0083753D01*
X0160769Y0083793D01*
X0160687Y0083835D01*
X0160607Y0083882D01*
X0160529Y0083931D01*
X0160453Y0083984D01*
X0160379Y0084040D01*
X0160308Y0084100D01*
X0160240Y0084162D01*
X0160174Y0084227D01*
X0160111Y0084295D01*
X0160051Y0084365D01*
X0159994Y0084438D01*
X0159940Y0084513D01*
X0159890Y0084591D01*
X0159843Y0084671D01*
X0159799Y0084752D01*
X0159759Y0084836D01*
X0159722Y0084921D01*
X0159689Y0085007D01*
X0159660Y0085095D01*
X0159635Y0085184D01*
X0159613Y0085274D01*
X0159596Y0085365D01*
X0159582Y0085456D01*
X0159572Y0085548D01*
X0159566Y0085640D01*
X0159564Y0085733D01*
X0170007Y0090733D02*
X0170009Y0090827D01*
X0170015Y0090921D01*
X0170025Y0091014D01*
X0170039Y0091107D01*
X0170057Y0091200D01*
X0170078Y0091291D01*
X0170104Y0091382D01*
X0170134Y0091471D01*
X0170167Y0091559D01*
X0170204Y0091645D01*
X0170244Y0091730D01*
X0170288Y0091813D01*
X0170336Y0091894D01*
X0170387Y0091973D01*
X0170441Y0092050D01*
X0170499Y0092125D01*
X0170559Y0092196D01*
X0170623Y0092266D01*
X0170689Y0092332D01*
X0170759Y0092396D01*
X0170830Y0092456D01*
X0170905Y0092514D01*
X0170982Y0092568D01*
X0171061Y0092619D01*
X0171142Y0092667D01*
X0171225Y0092711D01*
X0171310Y0092751D01*
X0171396Y0092788D01*
X0171484Y0092821D01*
X0171573Y0092851D01*
X0171664Y0092877D01*
X0171755Y0092898D01*
X0171848Y0092916D01*
X0171941Y0092930D01*
X0172034Y0092940D01*
X0172128Y0092946D01*
X0172222Y0092948D01*
X0172316Y0092946D01*
X0172410Y0092940D01*
X0172503Y0092930D01*
X0172596Y0092916D01*
X0172689Y0092898D01*
X0172780Y0092877D01*
X0172871Y0092851D01*
X0172960Y0092821D01*
X0173048Y0092788D01*
X0173134Y0092751D01*
X0173219Y0092711D01*
X0173302Y0092667D01*
X0173383Y0092619D01*
X0173462Y0092568D01*
X0173539Y0092514D01*
X0173614Y0092456D01*
X0173685Y0092396D01*
X0173755Y0092332D01*
X0173821Y0092266D01*
X0173885Y0092196D01*
X0173945Y0092125D01*
X0174003Y0092050D01*
X0174057Y0091973D01*
X0174108Y0091894D01*
X0174156Y0091813D01*
X0174200Y0091730D01*
X0174240Y0091645D01*
X0174277Y0091559D01*
X0174310Y0091471D01*
X0174340Y0091382D01*
X0174366Y0091291D01*
X0174387Y0091200D01*
X0174405Y0091107D01*
X0174419Y0091014D01*
X0174429Y0090921D01*
X0174435Y0090827D01*
X0174437Y0090733D01*
X0174435Y0090639D01*
X0174429Y0090545D01*
X0174419Y0090452D01*
X0174405Y0090359D01*
X0174387Y0090266D01*
X0174366Y0090175D01*
X0174340Y0090084D01*
X0174310Y0089995D01*
X0174277Y0089907D01*
X0174240Y0089821D01*
X0174200Y0089736D01*
X0174156Y0089653D01*
X0174108Y0089572D01*
X0174057Y0089493D01*
X0174003Y0089416D01*
X0173945Y0089341D01*
X0173885Y0089270D01*
X0173821Y0089200D01*
X0173755Y0089134D01*
X0173685Y0089070D01*
X0173614Y0089010D01*
X0173539Y0088952D01*
X0173462Y0088898D01*
X0173383Y0088847D01*
X0173302Y0088799D01*
X0173219Y0088755D01*
X0173134Y0088715D01*
X0173048Y0088678D01*
X0172960Y0088645D01*
X0172871Y0088615D01*
X0172780Y0088589D01*
X0172689Y0088568D01*
X0172596Y0088550D01*
X0172503Y0088536D01*
X0172410Y0088526D01*
X0172316Y0088520D01*
X0172222Y0088518D01*
X0172128Y0088520D01*
X0172034Y0088526D01*
X0171941Y0088536D01*
X0171848Y0088550D01*
X0171755Y0088568D01*
X0171664Y0088589D01*
X0171573Y0088615D01*
X0171484Y0088645D01*
X0171396Y0088678D01*
X0171310Y0088715D01*
X0171225Y0088755D01*
X0171142Y0088799D01*
X0171061Y0088847D01*
X0170982Y0088898D01*
X0170905Y0088952D01*
X0170830Y0089010D01*
X0170759Y0089070D01*
X0170689Y0089134D01*
X0170623Y0089200D01*
X0170559Y0089270D01*
X0170499Y0089341D01*
X0170441Y0089416D01*
X0170387Y0089493D01*
X0170336Y0089572D01*
X0170288Y0089653D01*
X0170244Y0089736D01*
X0170204Y0089821D01*
X0170167Y0089907D01*
X0170134Y0089995D01*
X0170104Y0090084D01*
X0170078Y0090175D01*
X0170057Y0090266D01*
X0170039Y0090359D01*
X0170025Y0090452D01*
X0170015Y0090545D01*
X0170009Y0090639D01*
X0170007Y0090733D01*
X0170009Y0090827D01*
X0170015Y0090921D01*
X0170025Y0091014D01*
X0170039Y0091107D01*
X0170057Y0091200D01*
X0170078Y0091291D01*
X0170104Y0091382D01*
X0170134Y0091471D01*
X0170167Y0091559D01*
X0170204Y0091645D01*
X0170244Y0091730D01*
X0170288Y0091813D01*
X0170336Y0091894D01*
X0170387Y0091973D01*
X0170441Y0092050D01*
X0170499Y0092125D01*
X0170559Y0092196D01*
X0170623Y0092266D01*
X0170689Y0092332D01*
X0170759Y0092396D01*
X0170830Y0092456D01*
X0170905Y0092514D01*
X0170982Y0092568D01*
X0171061Y0092619D01*
X0171142Y0092667D01*
X0171225Y0092711D01*
X0171310Y0092751D01*
X0171396Y0092788D01*
X0171484Y0092821D01*
X0171573Y0092851D01*
X0171664Y0092877D01*
X0171755Y0092898D01*
X0171848Y0092916D01*
X0171941Y0092930D01*
X0172034Y0092940D01*
X0172128Y0092946D01*
X0172222Y0092948D01*
X0172316Y0092946D01*
X0172410Y0092940D01*
X0172503Y0092930D01*
X0172596Y0092916D01*
X0172689Y0092898D01*
X0172780Y0092877D01*
X0172871Y0092851D01*
X0172960Y0092821D01*
X0173048Y0092788D01*
X0173134Y0092751D01*
X0173219Y0092711D01*
X0173302Y0092667D01*
X0173383Y0092619D01*
X0173462Y0092568D01*
X0173539Y0092514D01*
X0173614Y0092456D01*
X0173685Y0092396D01*
X0173755Y0092332D01*
X0173821Y0092266D01*
X0173885Y0092196D01*
X0173945Y0092125D01*
X0174003Y0092050D01*
X0174057Y0091973D01*
X0174108Y0091894D01*
X0174156Y0091813D01*
X0174200Y0091730D01*
X0174240Y0091645D01*
X0174277Y0091559D01*
X0174310Y0091471D01*
X0174340Y0091382D01*
X0174366Y0091291D01*
X0174387Y0091200D01*
X0174405Y0091107D01*
X0174419Y0091014D01*
X0174429Y0090921D01*
X0174435Y0090827D01*
X0174437Y0090733D01*
X0174435Y0090639D01*
X0174429Y0090545D01*
X0174419Y0090452D01*
X0174405Y0090359D01*
X0174387Y0090266D01*
X0174366Y0090175D01*
X0174340Y0090084D01*
X0174310Y0089995D01*
X0174277Y0089907D01*
X0174240Y0089821D01*
X0174200Y0089736D01*
X0174156Y0089653D01*
X0174108Y0089572D01*
X0174057Y0089493D01*
X0174003Y0089416D01*
X0173945Y0089341D01*
X0173885Y0089270D01*
X0173821Y0089200D01*
X0173755Y0089134D01*
X0173685Y0089070D01*
X0173614Y0089010D01*
X0173539Y0088952D01*
X0173462Y0088898D01*
X0173383Y0088847D01*
X0173302Y0088799D01*
X0173219Y0088755D01*
X0173134Y0088715D01*
X0173048Y0088678D01*
X0172960Y0088645D01*
X0172871Y0088615D01*
X0172780Y0088589D01*
X0172689Y0088568D01*
X0172596Y0088550D01*
X0172503Y0088536D01*
X0172410Y0088526D01*
X0172316Y0088520D01*
X0172222Y0088518D01*
X0172128Y0088520D01*
X0172034Y0088526D01*
X0171941Y0088536D01*
X0171848Y0088550D01*
X0171755Y0088568D01*
X0171664Y0088589D01*
X0171573Y0088615D01*
X0171484Y0088645D01*
X0171396Y0088678D01*
X0171310Y0088715D01*
X0171225Y0088755D01*
X0171142Y0088799D01*
X0171061Y0088847D01*
X0170982Y0088898D01*
X0170905Y0088952D01*
X0170830Y0089010D01*
X0170759Y0089070D01*
X0170689Y0089134D01*
X0170623Y0089200D01*
X0170559Y0089270D01*
X0170499Y0089341D01*
X0170441Y0089416D01*
X0170387Y0089493D01*
X0170336Y0089572D01*
X0170288Y0089653D01*
X0170244Y0089736D01*
X0170204Y0089821D01*
X0170167Y0089907D01*
X0170134Y0089995D01*
X0170104Y0090084D01*
X0170078Y0090175D01*
X0170057Y0090266D01*
X0170039Y0090359D01*
X0170025Y0090452D01*
X0170015Y0090545D01*
X0170009Y0090639D01*
X0170007Y0090733D01*
X0170009Y0090827D01*
X0170015Y0090921D01*
X0170025Y0091014D01*
X0170039Y0091107D01*
X0170057Y0091200D01*
X0170078Y0091291D01*
X0170104Y0091382D01*
X0170134Y0091471D01*
X0170167Y0091559D01*
X0170204Y0091645D01*
X0170244Y0091730D01*
X0170288Y0091813D01*
X0170336Y0091894D01*
X0170387Y0091973D01*
X0170441Y0092050D01*
X0170499Y0092125D01*
X0170559Y0092196D01*
X0170623Y0092266D01*
X0170689Y0092332D01*
X0170759Y0092396D01*
X0170830Y0092456D01*
X0170905Y0092514D01*
X0170982Y0092568D01*
X0171061Y0092619D01*
X0171142Y0092667D01*
X0171225Y0092711D01*
X0171310Y0092751D01*
X0171396Y0092788D01*
X0171484Y0092821D01*
X0171573Y0092851D01*
X0171664Y0092877D01*
X0171755Y0092898D01*
X0171848Y0092916D01*
X0171941Y0092930D01*
X0172034Y0092940D01*
X0172128Y0092946D01*
X0172222Y0092948D01*
X0172316Y0092946D01*
X0172410Y0092940D01*
X0172503Y0092930D01*
X0172596Y0092916D01*
X0172689Y0092898D01*
X0172780Y0092877D01*
X0172871Y0092851D01*
X0172960Y0092821D01*
X0173048Y0092788D01*
X0173134Y0092751D01*
X0173219Y0092711D01*
X0173302Y0092667D01*
X0173383Y0092619D01*
X0173462Y0092568D01*
X0173539Y0092514D01*
X0173614Y0092456D01*
X0173685Y0092396D01*
X0173755Y0092332D01*
X0173821Y0092266D01*
X0173885Y0092196D01*
X0173945Y0092125D01*
X0174003Y0092050D01*
X0174057Y0091973D01*
X0174108Y0091894D01*
X0174156Y0091813D01*
X0174200Y0091730D01*
X0174240Y0091645D01*
X0174277Y0091559D01*
X0174310Y0091471D01*
X0174340Y0091382D01*
X0174366Y0091291D01*
X0174387Y0091200D01*
X0174405Y0091107D01*
X0174419Y0091014D01*
X0174429Y0090921D01*
X0174435Y0090827D01*
X0174437Y0090733D01*
X0174435Y0090639D01*
X0174429Y0090545D01*
X0174419Y0090452D01*
X0174405Y0090359D01*
X0174387Y0090266D01*
X0174366Y0090175D01*
X0174340Y0090084D01*
X0174310Y0089995D01*
X0174277Y0089907D01*
X0174240Y0089821D01*
X0174200Y0089736D01*
X0174156Y0089653D01*
X0174108Y0089572D01*
X0174057Y0089493D01*
X0174003Y0089416D01*
X0173945Y0089341D01*
X0173885Y0089270D01*
X0173821Y0089200D01*
X0173755Y0089134D01*
X0173685Y0089070D01*
X0173614Y0089010D01*
X0173539Y0088952D01*
X0173462Y0088898D01*
X0173383Y0088847D01*
X0173302Y0088799D01*
X0173219Y0088755D01*
X0173134Y0088715D01*
X0173048Y0088678D01*
X0172960Y0088645D01*
X0172871Y0088615D01*
X0172780Y0088589D01*
X0172689Y0088568D01*
X0172596Y0088550D01*
X0172503Y0088536D01*
X0172410Y0088526D01*
X0172316Y0088520D01*
X0172222Y0088518D01*
X0172128Y0088520D01*
X0172034Y0088526D01*
X0171941Y0088536D01*
X0171848Y0088550D01*
X0171755Y0088568D01*
X0171664Y0088589D01*
X0171573Y0088615D01*
X0171484Y0088645D01*
X0171396Y0088678D01*
X0171310Y0088715D01*
X0171225Y0088755D01*
X0171142Y0088799D01*
X0171061Y0088847D01*
X0170982Y0088898D01*
X0170905Y0088952D01*
X0170830Y0089010D01*
X0170759Y0089070D01*
X0170689Y0089134D01*
X0170623Y0089200D01*
X0170559Y0089270D01*
X0170499Y0089341D01*
X0170441Y0089416D01*
X0170387Y0089493D01*
X0170336Y0089572D01*
X0170288Y0089653D01*
X0170244Y0089736D01*
X0170204Y0089821D01*
X0170167Y0089907D01*
X0170134Y0089995D01*
X0170104Y0090084D01*
X0170078Y0090175D01*
X0170057Y0090266D01*
X0170039Y0090359D01*
X0170025Y0090452D01*
X0170015Y0090545D01*
X0170009Y0090639D01*
X0170007Y0090733D01*
X0170009Y0090827D01*
X0170015Y0090921D01*
X0170025Y0091014D01*
X0170039Y0091107D01*
X0170057Y0091200D01*
X0170078Y0091291D01*
X0170104Y0091382D01*
X0170134Y0091471D01*
X0170167Y0091559D01*
X0170204Y0091645D01*
X0170244Y0091730D01*
X0170288Y0091813D01*
X0170336Y0091894D01*
X0170387Y0091973D01*
X0170441Y0092050D01*
X0170499Y0092125D01*
X0170559Y0092196D01*
X0170623Y0092266D01*
X0170689Y0092332D01*
X0170759Y0092396D01*
X0170830Y0092456D01*
X0170905Y0092514D01*
X0170982Y0092568D01*
X0171061Y0092619D01*
X0171142Y0092667D01*
X0171225Y0092711D01*
X0171310Y0092751D01*
X0171396Y0092788D01*
X0171484Y0092821D01*
X0171573Y0092851D01*
X0171664Y0092877D01*
X0171755Y0092898D01*
X0171848Y0092916D01*
X0171941Y0092930D01*
X0172034Y0092940D01*
X0172128Y0092946D01*
X0172222Y0092948D01*
X0172316Y0092946D01*
X0172410Y0092940D01*
X0172503Y0092930D01*
X0172596Y0092916D01*
X0172689Y0092898D01*
X0172780Y0092877D01*
X0172871Y0092851D01*
X0172960Y0092821D01*
X0173048Y0092788D01*
X0173134Y0092751D01*
X0173219Y0092711D01*
X0173302Y0092667D01*
X0173383Y0092619D01*
X0173462Y0092568D01*
X0173539Y0092514D01*
X0173614Y0092456D01*
X0173685Y0092396D01*
X0173755Y0092332D01*
X0173821Y0092266D01*
X0173885Y0092196D01*
X0173945Y0092125D01*
X0174003Y0092050D01*
X0174057Y0091973D01*
X0174108Y0091894D01*
X0174156Y0091813D01*
X0174200Y0091730D01*
X0174240Y0091645D01*
X0174277Y0091559D01*
X0174310Y0091471D01*
X0174340Y0091382D01*
X0174366Y0091291D01*
X0174387Y0091200D01*
X0174405Y0091107D01*
X0174419Y0091014D01*
X0174429Y0090921D01*
X0174435Y0090827D01*
X0174437Y0090733D01*
X0174435Y0090639D01*
X0174429Y0090545D01*
X0174419Y0090452D01*
X0174405Y0090359D01*
X0174387Y0090266D01*
X0174366Y0090175D01*
X0174340Y0090084D01*
X0174310Y0089995D01*
X0174277Y0089907D01*
X0174240Y0089821D01*
X0174200Y0089736D01*
X0174156Y0089653D01*
X0174108Y0089572D01*
X0174057Y0089493D01*
X0174003Y0089416D01*
X0173945Y0089341D01*
X0173885Y0089270D01*
X0173821Y0089200D01*
X0173755Y0089134D01*
X0173685Y0089070D01*
X0173614Y0089010D01*
X0173539Y0088952D01*
X0173462Y0088898D01*
X0173383Y0088847D01*
X0173302Y0088799D01*
X0173219Y0088755D01*
X0173134Y0088715D01*
X0173048Y0088678D01*
X0172960Y0088645D01*
X0172871Y0088615D01*
X0172780Y0088589D01*
X0172689Y0088568D01*
X0172596Y0088550D01*
X0172503Y0088536D01*
X0172410Y0088526D01*
X0172316Y0088520D01*
X0172222Y0088518D01*
X0172128Y0088520D01*
X0172034Y0088526D01*
X0171941Y0088536D01*
X0171848Y0088550D01*
X0171755Y0088568D01*
X0171664Y0088589D01*
X0171573Y0088615D01*
X0171484Y0088645D01*
X0171396Y0088678D01*
X0171310Y0088715D01*
X0171225Y0088755D01*
X0171142Y0088799D01*
X0171061Y0088847D01*
X0170982Y0088898D01*
X0170905Y0088952D01*
X0170830Y0089010D01*
X0170759Y0089070D01*
X0170689Y0089134D01*
X0170623Y0089200D01*
X0170559Y0089270D01*
X0170499Y0089341D01*
X0170441Y0089416D01*
X0170387Y0089493D01*
X0170336Y0089572D01*
X0170288Y0089653D01*
X0170244Y0089736D01*
X0170204Y0089821D01*
X0170167Y0089907D01*
X0170134Y0089995D01*
X0170104Y0090084D01*
X0170078Y0090175D01*
X0170057Y0090266D01*
X0170039Y0090359D01*
X0170025Y0090452D01*
X0170015Y0090545D01*
X0170009Y0090639D01*
X0170007Y0090733D01*
X0156405Y0220241D02*
X0156407Y0220311D01*
X0156413Y0220380D01*
X0156423Y0220449D01*
X0156436Y0220517D01*
X0156454Y0220584D01*
X0156475Y0220651D01*
X0156500Y0220716D01*
X0156529Y0220779D01*
X0156561Y0220841D01*
X0156597Y0220901D01*
X0156636Y0220958D01*
X0156678Y0221014D01*
X0156723Y0221067D01*
X0156771Y0221117D01*
X0156822Y0221164D01*
X0156876Y0221209D01*
X0156932Y0221250D01*
X0156990Y0221288D01*
X0157050Y0221323D01*
X0157113Y0221355D01*
X0157176Y0221382D01*
X0157242Y0221406D01*
X0157308Y0221427D01*
X0157376Y0221443D01*
X0157444Y0221456D01*
X0157513Y0221465D01*
X0157583Y0221470D01*
X0157652Y0221471D01*
X0157722Y0221468D01*
X0157791Y0221461D01*
X0157860Y0221450D01*
X0157928Y0221436D01*
X0157995Y0221417D01*
X0158061Y0221395D01*
X0158126Y0221369D01*
X0158189Y0221339D01*
X0158250Y0221306D01*
X0158309Y0221270D01*
X0158366Y0221230D01*
X0158421Y0221187D01*
X0158473Y0221141D01*
X0158523Y0221092D01*
X0158570Y0221040D01*
X0158613Y0220986D01*
X0158654Y0220930D01*
X0158691Y0220871D01*
X0158725Y0220810D01*
X0158756Y0220748D01*
X0158783Y0220683D01*
X0158806Y0220618D01*
X0158825Y0220551D01*
X0158841Y0220483D01*
X0158853Y0220414D01*
X0158861Y0220345D01*
X0158865Y0220276D01*
X0158865Y0220206D01*
X0158861Y0220137D01*
X0158853Y0220068D01*
X0158841Y0219999D01*
X0158825Y0219931D01*
X0158806Y0219864D01*
X0158783Y0219799D01*
X0158756Y0219734D01*
X0158725Y0219672D01*
X0158691Y0219611D01*
X0158654Y0219552D01*
X0158613Y0219496D01*
X0158570Y0219442D01*
X0158523Y0219390D01*
X0158473Y0219341D01*
X0158421Y0219295D01*
X0158366Y0219252D01*
X0158309Y0219212D01*
X0158250Y0219176D01*
X0158189Y0219143D01*
X0158126Y0219113D01*
X0158061Y0219087D01*
X0157995Y0219065D01*
X0157928Y0219046D01*
X0157860Y0219032D01*
X0157791Y0219021D01*
X0157722Y0219014D01*
X0157652Y0219011D01*
X0157583Y0219012D01*
X0157513Y0219017D01*
X0157444Y0219026D01*
X0157376Y0219039D01*
X0157308Y0219055D01*
X0157242Y0219076D01*
X0157176Y0219100D01*
X0157113Y0219127D01*
X0157050Y0219159D01*
X0156990Y0219194D01*
X0156932Y0219232D01*
X0156876Y0219273D01*
X0156822Y0219318D01*
X0156771Y0219365D01*
X0156723Y0219415D01*
X0156678Y0219468D01*
X0156636Y0219524D01*
X0156597Y0219581D01*
X0156561Y0219641D01*
X0156529Y0219703D01*
X0156500Y0219766D01*
X0156475Y0219831D01*
X0156454Y0219898D01*
X0156436Y0219965D01*
X0156423Y0220033D01*
X0156413Y0220102D01*
X0156407Y0220171D01*
X0156405Y0220241D01*
X0156405Y0246225D02*
X0156407Y0246295D01*
X0156413Y0246364D01*
X0156423Y0246433D01*
X0156436Y0246501D01*
X0156454Y0246568D01*
X0156475Y0246635D01*
X0156500Y0246700D01*
X0156529Y0246763D01*
X0156561Y0246825D01*
X0156597Y0246885D01*
X0156636Y0246942D01*
X0156678Y0246998D01*
X0156723Y0247051D01*
X0156771Y0247101D01*
X0156822Y0247148D01*
X0156876Y0247193D01*
X0156932Y0247234D01*
X0156990Y0247272D01*
X0157050Y0247307D01*
X0157113Y0247339D01*
X0157176Y0247366D01*
X0157242Y0247390D01*
X0157308Y0247411D01*
X0157376Y0247427D01*
X0157444Y0247440D01*
X0157513Y0247449D01*
X0157583Y0247454D01*
X0157652Y0247455D01*
X0157722Y0247452D01*
X0157791Y0247445D01*
X0157860Y0247434D01*
X0157928Y0247420D01*
X0157995Y0247401D01*
X0158061Y0247379D01*
X0158126Y0247353D01*
X0158189Y0247323D01*
X0158250Y0247290D01*
X0158309Y0247254D01*
X0158366Y0247214D01*
X0158421Y0247171D01*
X0158473Y0247125D01*
X0158523Y0247076D01*
X0158570Y0247024D01*
X0158613Y0246970D01*
X0158654Y0246914D01*
X0158691Y0246855D01*
X0158725Y0246794D01*
X0158756Y0246732D01*
X0158783Y0246667D01*
X0158806Y0246602D01*
X0158825Y0246535D01*
X0158841Y0246467D01*
X0158853Y0246398D01*
X0158861Y0246329D01*
X0158865Y0246260D01*
X0158865Y0246190D01*
X0158861Y0246121D01*
X0158853Y0246052D01*
X0158841Y0245983D01*
X0158825Y0245915D01*
X0158806Y0245848D01*
X0158783Y0245783D01*
X0158756Y0245718D01*
X0158725Y0245656D01*
X0158691Y0245595D01*
X0158654Y0245536D01*
X0158613Y0245480D01*
X0158570Y0245426D01*
X0158523Y0245374D01*
X0158473Y0245325D01*
X0158421Y0245279D01*
X0158366Y0245236D01*
X0158309Y0245196D01*
X0158250Y0245160D01*
X0158189Y0245127D01*
X0158126Y0245097D01*
X0158061Y0245071D01*
X0157995Y0245049D01*
X0157928Y0245030D01*
X0157860Y0245016D01*
X0157791Y0245005D01*
X0157722Y0244998D01*
X0157652Y0244995D01*
X0157583Y0244996D01*
X0157513Y0245001D01*
X0157444Y0245010D01*
X0157376Y0245023D01*
X0157308Y0245039D01*
X0157242Y0245060D01*
X0157176Y0245084D01*
X0157113Y0245111D01*
X0157050Y0245143D01*
X0156990Y0245178D01*
X0156932Y0245216D01*
X0156876Y0245257D01*
X0156822Y0245302D01*
X0156771Y0245349D01*
X0156723Y0245399D01*
X0156678Y0245452D01*
X0156636Y0245508D01*
X0156597Y0245565D01*
X0156561Y0245625D01*
X0156529Y0245687D01*
X0156500Y0245750D01*
X0156475Y0245815D01*
X0156454Y0245882D01*
X0156436Y0245949D01*
X0156423Y0246017D01*
X0156413Y0246086D01*
X0156407Y0246155D01*
X0156405Y0246225D01*
X0149564Y0260733D02*
X0149566Y0260826D01*
X0149572Y0260918D01*
X0149582Y0261010D01*
X0149596Y0261101D01*
X0149613Y0261192D01*
X0149635Y0261282D01*
X0149660Y0261371D01*
X0149689Y0261459D01*
X0149722Y0261545D01*
X0149759Y0261630D01*
X0149799Y0261714D01*
X0149843Y0261795D01*
X0149890Y0261875D01*
X0149940Y0261953D01*
X0149994Y0262028D01*
X0150051Y0262101D01*
X0150111Y0262171D01*
X0150174Y0262239D01*
X0150240Y0262304D01*
X0150308Y0262366D01*
X0150379Y0262426D01*
X0150453Y0262482D01*
X0150529Y0262535D01*
X0150607Y0262584D01*
X0150687Y0262631D01*
X0150769Y0262673D01*
X0150853Y0262713D01*
X0150938Y0262748D01*
X0151025Y0262780D01*
X0151113Y0262809D01*
X0151202Y0262833D01*
X0151292Y0262854D01*
X0151383Y0262870D01*
X0151475Y0262883D01*
X0151567Y0262892D01*
X0151660Y0262897D01*
X0151752Y0262898D01*
X0151845Y0262895D01*
X0151937Y0262888D01*
X0152029Y0262877D01*
X0152120Y0262862D01*
X0152211Y0262844D01*
X0152301Y0262821D01*
X0152389Y0262795D01*
X0152477Y0262765D01*
X0152563Y0262731D01*
X0152647Y0262694D01*
X0152730Y0262652D01*
X0152811Y0262608D01*
X0152891Y0262560D01*
X0152968Y0262509D01*
X0153042Y0262454D01*
X0153115Y0262396D01*
X0153185Y0262336D01*
X0153252Y0262272D01*
X0153316Y0262206D01*
X0153378Y0262136D01*
X0153436Y0262065D01*
X0153491Y0261991D01*
X0153543Y0261914D01*
X0153592Y0261835D01*
X0153638Y0261755D01*
X0153680Y0261672D01*
X0153718Y0261588D01*
X0153753Y0261502D01*
X0153784Y0261415D01*
X0153811Y0261327D01*
X0153834Y0261237D01*
X0153854Y0261147D01*
X0153870Y0261056D01*
X0153882Y0260964D01*
X0153890Y0260872D01*
X0153894Y0260779D01*
X0153894Y0260687D01*
X0153890Y0260594D01*
X0153882Y0260502D01*
X0153870Y0260410D01*
X0153854Y0260319D01*
X0153834Y0260229D01*
X0153811Y0260139D01*
X0153784Y0260051D01*
X0153753Y0259964D01*
X0153718Y0259878D01*
X0153680Y0259794D01*
X0153638Y0259711D01*
X0153592Y0259631D01*
X0153543Y0259552D01*
X0153491Y0259475D01*
X0153436Y0259401D01*
X0153378Y0259330D01*
X0153316Y0259260D01*
X0153252Y0259194D01*
X0153185Y0259130D01*
X0153115Y0259070D01*
X0153042Y0259012D01*
X0152968Y0258957D01*
X0152891Y0258906D01*
X0152812Y0258858D01*
X0152730Y0258814D01*
X0152647Y0258772D01*
X0152563Y0258735D01*
X0152477Y0258701D01*
X0152389Y0258671D01*
X0152301Y0258645D01*
X0152211Y0258622D01*
X0152120Y0258604D01*
X0152029Y0258589D01*
X0151937Y0258578D01*
X0151845Y0258571D01*
X0151752Y0258568D01*
X0151660Y0258569D01*
X0151567Y0258574D01*
X0151475Y0258583D01*
X0151383Y0258596D01*
X0151292Y0258612D01*
X0151202Y0258633D01*
X0151113Y0258657D01*
X0151025Y0258686D01*
X0150938Y0258718D01*
X0150853Y0258753D01*
X0150769Y0258793D01*
X0150687Y0258835D01*
X0150607Y0258882D01*
X0150529Y0258931D01*
X0150453Y0258984D01*
X0150379Y0259040D01*
X0150308Y0259100D01*
X0150240Y0259162D01*
X0150174Y0259227D01*
X0150111Y0259295D01*
X0150051Y0259365D01*
X0149994Y0259438D01*
X0149940Y0259513D01*
X0149890Y0259591D01*
X0149843Y0259671D01*
X0149799Y0259752D01*
X0149759Y0259836D01*
X0149722Y0259921D01*
X0149689Y0260007D01*
X0149660Y0260095D01*
X0149635Y0260184D01*
X0149613Y0260274D01*
X0149596Y0260365D01*
X0149582Y0260456D01*
X0149572Y0260548D01*
X0149566Y0260640D01*
X0149564Y0260733D01*
X0139564Y0260733D02*
X0139566Y0260826D01*
X0139572Y0260918D01*
X0139582Y0261010D01*
X0139596Y0261101D01*
X0139613Y0261192D01*
X0139635Y0261282D01*
X0139660Y0261371D01*
X0139689Y0261459D01*
X0139722Y0261545D01*
X0139759Y0261630D01*
X0139799Y0261714D01*
X0139843Y0261795D01*
X0139890Y0261875D01*
X0139940Y0261953D01*
X0139994Y0262028D01*
X0140051Y0262101D01*
X0140111Y0262171D01*
X0140174Y0262239D01*
X0140240Y0262304D01*
X0140308Y0262366D01*
X0140379Y0262426D01*
X0140453Y0262482D01*
X0140529Y0262535D01*
X0140607Y0262584D01*
X0140687Y0262631D01*
X0140769Y0262673D01*
X0140853Y0262713D01*
X0140938Y0262748D01*
X0141025Y0262780D01*
X0141113Y0262809D01*
X0141202Y0262833D01*
X0141292Y0262854D01*
X0141383Y0262870D01*
X0141475Y0262883D01*
X0141567Y0262892D01*
X0141660Y0262897D01*
X0141752Y0262898D01*
X0141845Y0262895D01*
X0141937Y0262888D01*
X0142029Y0262877D01*
X0142120Y0262862D01*
X0142211Y0262844D01*
X0142301Y0262821D01*
X0142389Y0262795D01*
X0142477Y0262765D01*
X0142563Y0262731D01*
X0142647Y0262694D01*
X0142730Y0262652D01*
X0142811Y0262608D01*
X0142891Y0262560D01*
X0142968Y0262509D01*
X0143042Y0262454D01*
X0143115Y0262396D01*
X0143185Y0262336D01*
X0143252Y0262272D01*
X0143316Y0262206D01*
X0143378Y0262136D01*
X0143436Y0262065D01*
X0143491Y0261991D01*
X0143543Y0261914D01*
X0143592Y0261835D01*
X0143638Y0261755D01*
X0143680Y0261672D01*
X0143718Y0261588D01*
X0143753Y0261502D01*
X0143784Y0261415D01*
X0143811Y0261327D01*
X0143834Y0261237D01*
X0143854Y0261147D01*
X0143870Y0261056D01*
X0143882Y0260964D01*
X0143890Y0260872D01*
X0143894Y0260779D01*
X0143894Y0260687D01*
X0143890Y0260594D01*
X0143882Y0260502D01*
X0143870Y0260410D01*
X0143854Y0260319D01*
X0143834Y0260229D01*
X0143811Y0260139D01*
X0143784Y0260051D01*
X0143753Y0259964D01*
X0143718Y0259878D01*
X0143680Y0259794D01*
X0143638Y0259711D01*
X0143592Y0259631D01*
X0143543Y0259552D01*
X0143491Y0259475D01*
X0143436Y0259401D01*
X0143378Y0259330D01*
X0143316Y0259260D01*
X0143252Y0259194D01*
X0143185Y0259130D01*
X0143115Y0259070D01*
X0143042Y0259012D01*
X0142968Y0258957D01*
X0142891Y0258906D01*
X0142812Y0258858D01*
X0142730Y0258814D01*
X0142647Y0258772D01*
X0142563Y0258735D01*
X0142477Y0258701D01*
X0142389Y0258671D01*
X0142301Y0258645D01*
X0142211Y0258622D01*
X0142120Y0258604D01*
X0142029Y0258589D01*
X0141937Y0258578D01*
X0141845Y0258571D01*
X0141752Y0258568D01*
X0141660Y0258569D01*
X0141567Y0258574D01*
X0141475Y0258583D01*
X0141383Y0258596D01*
X0141292Y0258612D01*
X0141202Y0258633D01*
X0141113Y0258657D01*
X0141025Y0258686D01*
X0140938Y0258718D01*
X0140853Y0258753D01*
X0140769Y0258793D01*
X0140687Y0258835D01*
X0140607Y0258882D01*
X0140529Y0258931D01*
X0140453Y0258984D01*
X0140379Y0259040D01*
X0140308Y0259100D01*
X0140240Y0259162D01*
X0140174Y0259227D01*
X0140111Y0259295D01*
X0140051Y0259365D01*
X0139994Y0259438D01*
X0139940Y0259513D01*
X0139890Y0259591D01*
X0139843Y0259671D01*
X0139799Y0259752D01*
X0139759Y0259836D01*
X0139722Y0259921D01*
X0139689Y0260007D01*
X0139660Y0260095D01*
X0139635Y0260184D01*
X0139613Y0260274D01*
X0139596Y0260365D01*
X0139582Y0260456D01*
X0139572Y0260548D01*
X0139566Y0260640D01*
X0139564Y0260733D01*
X0129564Y0260733D02*
X0129566Y0260826D01*
X0129572Y0260918D01*
X0129582Y0261010D01*
X0129596Y0261101D01*
X0129613Y0261192D01*
X0129635Y0261282D01*
X0129660Y0261371D01*
X0129689Y0261459D01*
X0129722Y0261545D01*
X0129759Y0261630D01*
X0129799Y0261714D01*
X0129843Y0261795D01*
X0129890Y0261875D01*
X0129940Y0261953D01*
X0129994Y0262028D01*
X0130051Y0262101D01*
X0130111Y0262171D01*
X0130174Y0262239D01*
X0130240Y0262304D01*
X0130308Y0262366D01*
X0130379Y0262426D01*
X0130453Y0262482D01*
X0130529Y0262535D01*
X0130607Y0262584D01*
X0130687Y0262631D01*
X0130769Y0262673D01*
X0130853Y0262713D01*
X0130938Y0262748D01*
X0131025Y0262780D01*
X0131113Y0262809D01*
X0131202Y0262833D01*
X0131292Y0262854D01*
X0131383Y0262870D01*
X0131475Y0262883D01*
X0131567Y0262892D01*
X0131660Y0262897D01*
X0131752Y0262898D01*
X0131845Y0262895D01*
X0131937Y0262888D01*
X0132029Y0262877D01*
X0132120Y0262862D01*
X0132211Y0262844D01*
X0132301Y0262821D01*
X0132389Y0262795D01*
X0132477Y0262765D01*
X0132563Y0262731D01*
X0132647Y0262694D01*
X0132730Y0262652D01*
X0132811Y0262608D01*
X0132891Y0262560D01*
X0132968Y0262509D01*
X0133042Y0262454D01*
X0133115Y0262396D01*
X0133185Y0262336D01*
X0133252Y0262272D01*
X0133316Y0262206D01*
X0133378Y0262136D01*
X0133436Y0262065D01*
X0133491Y0261991D01*
X0133543Y0261914D01*
X0133592Y0261835D01*
X0133638Y0261755D01*
X0133680Y0261672D01*
X0133718Y0261588D01*
X0133753Y0261502D01*
X0133784Y0261415D01*
X0133811Y0261327D01*
X0133834Y0261237D01*
X0133854Y0261147D01*
X0133870Y0261056D01*
X0133882Y0260964D01*
X0133890Y0260872D01*
X0133894Y0260779D01*
X0133894Y0260687D01*
X0133890Y0260594D01*
X0133882Y0260502D01*
X0133870Y0260410D01*
X0133854Y0260319D01*
X0133834Y0260229D01*
X0133811Y0260139D01*
X0133784Y0260051D01*
X0133753Y0259964D01*
X0133718Y0259878D01*
X0133680Y0259794D01*
X0133638Y0259711D01*
X0133592Y0259631D01*
X0133543Y0259552D01*
X0133491Y0259475D01*
X0133436Y0259401D01*
X0133378Y0259330D01*
X0133316Y0259260D01*
X0133252Y0259194D01*
X0133185Y0259130D01*
X0133115Y0259070D01*
X0133042Y0259012D01*
X0132968Y0258957D01*
X0132891Y0258906D01*
X0132812Y0258858D01*
X0132730Y0258814D01*
X0132647Y0258772D01*
X0132563Y0258735D01*
X0132477Y0258701D01*
X0132389Y0258671D01*
X0132301Y0258645D01*
X0132211Y0258622D01*
X0132120Y0258604D01*
X0132029Y0258589D01*
X0131937Y0258578D01*
X0131845Y0258571D01*
X0131752Y0258568D01*
X0131660Y0258569D01*
X0131567Y0258574D01*
X0131475Y0258583D01*
X0131383Y0258596D01*
X0131292Y0258612D01*
X0131202Y0258633D01*
X0131113Y0258657D01*
X0131025Y0258686D01*
X0130938Y0258718D01*
X0130853Y0258753D01*
X0130769Y0258793D01*
X0130687Y0258835D01*
X0130607Y0258882D01*
X0130529Y0258931D01*
X0130453Y0258984D01*
X0130379Y0259040D01*
X0130308Y0259100D01*
X0130240Y0259162D01*
X0130174Y0259227D01*
X0130111Y0259295D01*
X0130051Y0259365D01*
X0129994Y0259438D01*
X0129940Y0259513D01*
X0129890Y0259591D01*
X0129843Y0259671D01*
X0129799Y0259752D01*
X0129759Y0259836D01*
X0129722Y0259921D01*
X0129689Y0260007D01*
X0129660Y0260095D01*
X0129635Y0260184D01*
X0129613Y0260274D01*
X0129596Y0260365D01*
X0129582Y0260456D01*
X0129572Y0260548D01*
X0129566Y0260640D01*
X0129564Y0260733D01*
X0129564Y0270733D02*
X0129566Y0270826D01*
X0129572Y0270918D01*
X0129582Y0271010D01*
X0129596Y0271101D01*
X0129613Y0271192D01*
X0129635Y0271282D01*
X0129660Y0271371D01*
X0129689Y0271459D01*
X0129722Y0271545D01*
X0129759Y0271630D01*
X0129799Y0271714D01*
X0129843Y0271795D01*
X0129890Y0271875D01*
X0129940Y0271953D01*
X0129994Y0272028D01*
X0130051Y0272101D01*
X0130111Y0272171D01*
X0130174Y0272239D01*
X0130240Y0272304D01*
X0130308Y0272366D01*
X0130379Y0272426D01*
X0130453Y0272482D01*
X0130529Y0272535D01*
X0130607Y0272584D01*
X0130687Y0272631D01*
X0130769Y0272673D01*
X0130853Y0272713D01*
X0130938Y0272748D01*
X0131025Y0272780D01*
X0131113Y0272809D01*
X0131202Y0272833D01*
X0131292Y0272854D01*
X0131383Y0272870D01*
X0131475Y0272883D01*
X0131567Y0272892D01*
X0131660Y0272897D01*
X0131752Y0272898D01*
X0131845Y0272895D01*
X0131937Y0272888D01*
X0132029Y0272877D01*
X0132120Y0272862D01*
X0132211Y0272844D01*
X0132301Y0272821D01*
X0132389Y0272795D01*
X0132477Y0272765D01*
X0132563Y0272731D01*
X0132647Y0272694D01*
X0132730Y0272652D01*
X0132811Y0272608D01*
X0132891Y0272560D01*
X0132968Y0272509D01*
X0133042Y0272454D01*
X0133115Y0272396D01*
X0133185Y0272336D01*
X0133252Y0272272D01*
X0133316Y0272206D01*
X0133378Y0272136D01*
X0133436Y0272065D01*
X0133491Y0271991D01*
X0133543Y0271914D01*
X0133592Y0271835D01*
X0133638Y0271755D01*
X0133680Y0271672D01*
X0133718Y0271588D01*
X0133753Y0271502D01*
X0133784Y0271415D01*
X0133811Y0271327D01*
X0133834Y0271237D01*
X0133854Y0271147D01*
X0133870Y0271056D01*
X0133882Y0270964D01*
X0133890Y0270872D01*
X0133894Y0270779D01*
X0133894Y0270687D01*
X0133890Y0270594D01*
X0133882Y0270502D01*
X0133870Y0270410D01*
X0133854Y0270319D01*
X0133834Y0270229D01*
X0133811Y0270139D01*
X0133784Y0270051D01*
X0133753Y0269964D01*
X0133718Y0269878D01*
X0133680Y0269794D01*
X0133638Y0269711D01*
X0133592Y0269631D01*
X0133543Y0269552D01*
X0133491Y0269475D01*
X0133436Y0269401D01*
X0133378Y0269330D01*
X0133316Y0269260D01*
X0133252Y0269194D01*
X0133185Y0269130D01*
X0133115Y0269070D01*
X0133042Y0269012D01*
X0132968Y0268957D01*
X0132891Y0268906D01*
X0132812Y0268858D01*
X0132730Y0268814D01*
X0132647Y0268772D01*
X0132563Y0268735D01*
X0132477Y0268701D01*
X0132389Y0268671D01*
X0132301Y0268645D01*
X0132211Y0268622D01*
X0132120Y0268604D01*
X0132029Y0268589D01*
X0131937Y0268578D01*
X0131845Y0268571D01*
X0131752Y0268568D01*
X0131660Y0268569D01*
X0131567Y0268574D01*
X0131475Y0268583D01*
X0131383Y0268596D01*
X0131292Y0268612D01*
X0131202Y0268633D01*
X0131113Y0268657D01*
X0131025Y0268686D01*
X0130938Y0268718D01*
X0130853Y0268753D01*
X0130769Y0268793D01*
X0130687Y0268835D01*
X0130607Y0268882D01*
X0130529Y0268931D01*
X0130453Y0268984D01*
X0130379Y0269040D01*
X0130308Y0269100D01*
X0130240Y0269162D01*
X0130174Y0269227D01*
X0130111Y0269295D01*
X0130051Y0269365D01*
X0129994Y0269438D01*
X0129940Y0269513D01*
X0129890Y0269591D01*
X0129843Y0269671D01*
X0129799Y0269752D01*
X0129759Y0269836D01*
X0129722Y0269921D01*
X0129689Y0270007D01*
X0129660Y0270095D01*
X0129635Y0270184D01*
X0129613Y0270274D01*
X0129596Y0270365D01*
X0129582Y0270456D01*
X0129572Y0270548D01*
X0129566Y0270640D01*
X0129564Y0270733D01*
X0139564Y0270733D02*
X0139566Y0270826D01*
X0139572Y0270918D01*
X0139582Y0271010D01*
X0139596Y0271101D01*
X0139613Y0271192D01*
X0139635Y0271282D01*
X0139660Y0271371D01*
X0139689Y0271459D01*
X0139722Y0271545D01*
X0139759Y0271630D01*
X0139799Y0271714D01*
X0139843Y0271795D01*
X0139890Y0271875D01*
X0139940Y0271953D01*
X0139994Y0272028D01*
X0140051Y0272101D01*
X0140111Y0272171D01*
X0140174Y0272239D01*
X0140240Y0272304D01*
X0140308Y0272366D01*
X0140379Y0272426D01*
X0140453Y0272482D01*
X0140529Y0272535D01*
X0140607Y0272584D01*
X0140687Y0272631D01*
X0140769Y0272673D01*
X0140853Y0272713D01*
X0140938Y0272748D01*
X0141025Y0272780D01*
X0141113Y0272809D01*
X0141202Y0272833D01*
X0141292Y0272854D01*
X0141383Y0272870D01*
X0141475Y0272883D01*
X0141567Y0272892D01*
X0141660Y0272897D01*
X0141752Y0272898D01*
X0141845Y0272895D01*
X0141937Y0272888D01*
X0142029Y0272877D01*
X0142120Y0272862D01*
X0142211Y0272844D01*
X0142301Y0272821D01*
X0142389Y0272795D01*
X0142477Y0272765D01*
X0142563Y0272731D01*
X0142647Y0272694D01*
X0142730Y0272652D01*
X0142811Y0272608D01*
X0142891Y0272560D01*
X0142968Y0272509D01*
X0143042Y0272454D01*
X0143115Y0272396D01*
X0143185Y0272336D01*
X0143252Y0272272D01*
X0143316Y0272206D01*
X0143378Y0272136D01*
X0143436Y0272065D01*
X0143491Y0271991D01*
X0143543Y0271914D01*
X0143592Y0271835D01*
X0143638Y0271755D01*
X0143680Y0271672D01*
X0143718Y0271588D01*
X0143753Y0271502D01*
X0143784Y0271415D01*
X0143811Y0271327D01*
X0143834Y0271237D01*
X0143854Y0271147D01*
X0143870Y0271056D01*
X0143882Y0270964D01*
X0143890Y0270872D01*
X0143894Y0270779D01*
X0143894Y0270687D01*
X0143890Y0270594D01*
X0143882Y0270502D01*
X0143870Y0270410D01*
X0143854Y0270319D01*
X0143834Y0270229D01*
X0143811Y0270139D01*
X0143784Y0270051D01*
X0143753Y0269964D01*
X0143718Y0269878D01*
X0143680Y0269794D01*
X0143638Y0269711D01*
X0143592Y0269631D01*
X0143543Y0269552D01*
X0143491Y0269475D01*
X0143436Y0269401D01*
X0143378Y0269330D01*
X0143316Y0269260D01*
X0143252Y0269194D01*
X0143185Y0269130D01*
X0143115Y0269070D01*
X0143042Y0269012D01*
X0142968Y0268957D01*
X0142891Y0268906D01*
X0142812Y0268858D01*
X0142730Y0268814D01*
X0142647Y0268772D01*
X0142563Y0268735D01*
X0142477Y0268701D01*
X0142389Y0268671D01*
X0142301Y0268645D01*
X0142211Y0268622D01*
X0142120Y0268604D01*
X0142029Y0268589D01*
X0141937Y0268578D01*
X0141845Y0268571D01*
X0141752Y0268568D01*
X0141660Y0268569D01*
X0141567Y0268574D01*
X0141475Y0268583D01*
X0141383Y0268596D01*
X0141292Y0268612D01*
X0141202Y0268633D01*
X0141113Y0268657D01*
X0141025Y0268686D01*
X0140938Y0268718D01*
X0140853Y0268753D01*
X0140769Y0268793D01*
X0140687Y0268835D01*
X0140607Y0268882D01*
X0140529Y0268931D01*
X0140453Y0268984D01*
X0140379Y0269040D01*
X0140308Y0269100D01*
X0140240Y0269162D01*
X0140174Y0269227D01*
X0140111Y0269295D01*
X0140051Y0269365D01*
X0139994Y0269438D01*
X0139940Y0269513D01*
X0139890Y0269591D01*
X0139843Y0269671D01*
X0139799Y0269752D01*
X0139759Y0269836D01*
X0139722Y0269921D01*
X0139689Y0270007D01*
X0139660Y0270095D01*
X0139635Y0270184D01*
X0139613Y0270274D01*
X0139596Y0270365D01*
X0139582Y0270456D01*
X0139572Y0270548D01*
X0139566Y0270640D01*
X0139564Y0270733D01*
X0149564Y0270733D02*
X0149566Y0270826D01*
X0149572Y0270918D01*
X0149582Y0271010D01*
X0149596Y0271101D01*
X0149613Y0271192D01*
X0149635Y0271282D01*
X0149660Y0271371D01*
X0149689Y0271459D01*
X0149722Y0271545D01*
X0149759Y0271630D01*
X0149799Y0271714D01*
X0149843Y0271795D01*
X0149890Y0271875D01*
X0149940Y0271953D01*
X0149994Y0272028D01*
X0150051Y0272101D01*
X0150111Y0272171D01*
X0150174Y0272239D01*
X0150240Y0272304D01*
X0150308Y0272366D01*
X0150379Y0272426D01*
X0150453Y0272482D01*
X0150529Y0272535D01*
X0150607Y0272584D01*
X0150687Y0272631D01*
X0150769Y0272673D01*
X0150853Y0272713D01*
X0150938Y0272748D01*
X0151025Y0272780D01*
X0151113Y0272809D01*
X0151202Y0272833D01*
X0151292Y0272854D01*
X0151383Y0272870D01*
X0151475Y0272883D01*
X0151567Y0272892D01*
X0151660Y0272897D01*
X0151752Y0272898D01*
X0151845Y0272895D01*
X0151937Y0272888D01*
X0152029Y0272877D01*
X0152120Y0272862D01*
X0152211Y0272844D01*
X0152301Y0272821D01*
X0152389Y0272795D01*
X0152477Y0272765D01*
X0152563Y0272731D01*
X0152647Y0272694D01*
X0152730Y0272652D01*
X0152811Y0272608D01*
X0152891Y0272560D01*
X0152968Y0272509D01*
X0153042Y0272454D01*
X0153115Y0272396D01*
X0153185Y0272336D01*
X0153252Y0272272D01*
X0153316Y0272206D01*
X0153378Y0272136D01*
X0153436Y0272065D01*
X0153491Y0271991D01*
X0153543Y0271914D01*
X0153592Y0271835D01*
X0153638Y0271755D01*
X0153680Y0271672D01*
X0153718Y0271588D01*
X0153753Y0271502D01*
X0153784Y0271415D01*
X0153811Y0271327D01*
X0153834Y0271237D01*
X0153854Y0271147D01*
X0153870Y0271056D01*
X0153882Y0270964D01*
X0153890Y0270872D01*
X0153894Y0270779D01*
X0153894Y0270687D01*
X0153890Y0270594D01*
X0153882Y0270502D01*
X0153870Y0270410D01*
X0153854Y0270319D01*
X0153834Y0270229D01*
X0153811Y0270139D01*
X0153784Y0270051D01*
X0153753Y0269964D01*
X0153718Y0269878D01*
X0153680Y0269794D01*
X0153638Y0269711D01*
X0153592Y0269631D01*
X0153543Y0269552D01*
X0153491Y0269475D01*
X0153436Y0269401D01*
X0153378Y0269330D01*
X0153316Y0269260D01*
X0153252Y0269194D01*
X0153185Y0269130D01*
X0153115Y0269070D01*
X0153042Y0269012D01*
X0152968Y0268957D01*
X0152891Y0268906D01*
X0152812Y0268858D01*
X0152730Y0268814D01*
X0152647Y0268772D01*
X0152563Y0268735D01*
X0152477Y0268701D01*
X0152389Y0268671D01*
X0152301Y0268645D01*
X0152211Y0268622D01*
X0152120Y0268604D01*
X0152029Y0268589D01*
X0151937Y0268578D01*
X0151845Y0268571D01*
X0151752Y0268568D01*
X0151660Y0268569D01*
X0151567Y0268574D01*
X0151475Y0268583D01*
X0151383Y0268596D01*
X0151292Y0268612D01*
X0151202Y0268633D01*
X0151113Y0268657D01*
X0151025Y0268686D01*
X0150938Y0268718D01*
X0150853Y0268753D01*
X0150769Y0268793D01*
X0150687Y0268835D01*
X0150607Y0268882D01*
X0150529Y0268931D01*
X0150453Y0268984D01*
X0150379Y0269040D01*
X0150308Y0269100D01*
X0150240Y0269162D01*
X0150174Y0269227D01*
X0150111Y0269295D01*
X0150051Y0269365D01*
X0149994Y0269438D01*
X0149940Y0269513D01*
X0149890Y0269591D01*
X0149843Y0269671D01*
X0149799Y0269752D01*
X0149759Y0269836D01*
X0149722Y0269921D01*
X0149689Y0270007D01*
X0149660Y0270095D01*
X0149635Y0270184D01*
X0149613Y0270274D01*
X0149596Y0270365D01*
X0149582Y0270456D01*
X0149572Y0270548D01*
X0149566Y0270640D01*
X0149564Y0270733D01*
X0159564Y0270733D02*
X0159566Y0270826D01*
X0159572Y0270918D01*
X0159582Y0271010D01*
X0159596Y0271101D01*
X0159613Y0271192D01*
X0159635Y0271282D01*
X0159660Y0271371D01*
X0159689Y0271459D01*
X0159722Y0271545D01*
X0159759Y0271630D01*
X0159799Y0271714D01*
X0159843Y0271795D01*
X0159890Y0271875D01*
X0159940Y0271953D01*
X0159994Y0272028D01*
X0160051Y0272101D01*
X0160111Y0272171D01*
X0160174Y0272239D01*
X0160240Y0272304D01*
X0160308Y0272366D01*
X0160379Y0272426D01*
X0160453Y0272482D01*
X0160529Y0272535D01*
X0160607Y0272584D01*
X0160687Y0272631D01*
X0160769Y0272673D01*
X0160853Y0272713D01*
X0160938Y0272748D01*
X0161025Y0272780D01*
X0161113Y0272809D01*
X0161202Y0272833D01*
X0161292Y0272854D01*
X0161383Y0272870D01*
X0161475Y0272883D01*
X0161567Y0272892D01*
X0161660Y0272897D01*
X0161752Y0272898D01*
X0161845Y0272895D01*
X0161937Y0272888D01*
X0162029Y0272877D01*
X0162120Y0272862D01*
X0162211Y0272844D01*
X0162301Y0272821D01*
X0162389Y0272795D01*
X0162477Y0272765D01*
X0162563Y0272731D01*
X0162647Y0272694D01*
X0162730Y0272652D01*
X0162811Y0272608D01*
X0162891Y0272560D01*
X0162968Y0272509D01*
X0163042Y0272454D01*
X0163115Y0272396D01*
X0163185Y0272336D01*
X0163252Y0272272D01*
X0163316Y0272206D01*
X0163378Y0272136D01*
X0163436Y0272065D01*
X0163491Y0271991D01*
X0163543Y0271914D01*
X0163592Y0271835D01*
X0163638Y0271755D01*
X0163680Y0271672D01*
X0163718Y0271588D01*
X0163753Y0271502D01*
X0163784Y0271415D01*
X0163811Y0271327D01*
X0163834Y0271237D01*
X0163854Y0271147D01*
X0163870Y0271056D01*
X0163882Y0270964D01*
X0163890Y0270872D01*
X0163894Y0270779D01*
X0163894Y0270687D01*
X0163890Y0270594D01*
X0163882Y0270502D01*
X0163870Y0270410D01*
X0163854Y0270319D01*
X0163834Y0270229D01*
X0163811Y0270139D01*
X0163784Y0270051D01*
X0163753Y0269964D01*
X0163718Y0269878D01*
X0163680Y0269794D01*
X0163638Y0269711D01*
X0163592Y0269631D01*
X0163543Y0269552D01*
X0163491Y0269475D01*
X0163436Y0269401D01*
X0163378Y0269330D01*
X0163316Y0269260D01*
X0163252Y0269194D01*
X0163185Y0269130D01*
X0163115Y0269070D01*
X0163042Y0269012D01*
X0162968Y0268957D01*
X0162891Y0268906D01*
X0162812Y0268858D01*
X0162730Y0268814D01*
X0162647Y0268772D01*
X0162563Y0268735D01*
X0162477Y0268701D01*
X0162389Y0268671D01*
X0162301Y0268645D01*
X0162211Y0268622D01*
X0162120Y0268604D01*
X0162029Y0268589D01*
X0161937Y0268578D01*
X0161845Y0268571D01*
X0161752Y0268568D01*
X0161660Y0268569D01*
X0161567Y0268574D01*
X0161475Y0268583D01*
X0161383Y0268596D01*
X0161292Y0268612D01*
X0161202Y0268633D01*
X0161113Y0268657D01*
X0161025Y0268686D01*
X0160938Y0268718D01*
X0160853Y0268753D01*
X0160769Y0268793D01*
X0160687Y0268835D01*
X0160607Y0268882D01*
X0160529Y0268931D01*
X0160453Y0268984D01*
X0160379Y0269040D01*
X0160308Y0269100D01*
X0160240Y0269162D01*
X0160174Y0269227D01*
X0160111Y0269295D01*
X0160051Y0269365D01*
X0159994Y0269438D01*
X0159940Y0269513D01*
X0159890Y0269591D01*
X0159843Y0269671D01*
X0159799Y0269752D01*
X0159759Y0269836D01*
X0159722Y0269921D01*
X0159689Y0270007D01*
X0159660Y0270095D01*
X0159635Y0270184D01*
X0159613Y0270274D01*
X0159596Y0270365D01*
X0159582Y0270456D01*
X0159572Y0270548D01*
X0159566Y0270640D01*
X0159564Y0270733D01*
X0159564Y0260733D02*
X0159566Y0260826D01*
X0159572Y0260918D01*
X0159582Y0261010D01*
X0159596Y0261101D01*
X0159613Y0261192D01*
X0159635Y0261282D01*
X0159660Y0261371D01*
X0159689Y0261459D01*
X0159722Y0261545D01*
X0159759Y0261630D01*
X0159799Y0261714D01*
X0159843Y0261795D01*
X0159890Y0261875D01*
X0159940Y0261953D01*
X0159994Y0262028D01*
X0160051Y0262101D01*
X0160111Y0262171D01*
X0160174Y0262239D01*
X0160240Y0262304D01*
X0160308Y0262366D01*
X0160379Y0262426D01*
X0160453Y0262482D01*
X0160529Y0262535D01*
X0160607Y0262584D01*
X0160687Y0262631D01*
X0160769Y0262673D01*
X0160853Y0262713D01*
X0160938Y0262748D01*
X0161025Y0262780D01*
X0161113Y0262809D01*
X0161202Y0262833D01*
X0161292Y0262854D01*
X0161383Y0262870D01*
X0161475Y0262883D01*
X0161567Y0262892D01*
X0161660Y0262897D01*
X0161752Y0262898D01*
X0161845Y0262895D01*
X0161937Y0262888D01*
X0162029Y0262877D01*
X0162120Y0262862D01*
X0162211Y0262844D01*
X0162301Y0262821D01*
X0162389Y0262795D01*
X0162477Y0262765D01*
X0162563Y0262731D01*
X0162647Y0262694D01*
X0162730Y0262652D01*
X0162811Y0262608D01*
X0162891Y0262560D01*
X0162968Y0262509D01*
X0163042Y0262454D01*
X0163115Y0262396D01*
X0163185Y0262336D01*
X0163252Y0262272D01*
X0163316Y0262206D01*
X0163378Y0262136D01*
X0163436Y0262065D01*
X0163491Y0261991D01*
X0163543Y0261914D01*
X0163592Y0261835D01*
X0163638Y0261755D01*
X0163680Y0261672D01*
X0163718Y0261588D01*
X0163753Y0261502D01*
X0163784Y0261415D01*
X0163811Y0261327D01*
X0163834Y0261237D01*
X0163854Y0261147D01*
X0163870Y0261056D01*
X0163882Y0260964D01*
X0163890Y0260872D01*
X0163894Y0260779D01*
X0163894Y0260687D01*
X0163890Y0260594D01*
X0163882Y0260502D01*
X0163870Y0260410D01*
X0163854Y0260319D01*
X0163834Y0260229D01*
X0163811Y0260139D01*
X0163784Y0260051D01*
X0163753Y0259964D01*
X0163718Y0259878D01*
X0163680Y0259794D01*
X0163638Y0259711D01*
X0163592Y0259631D01*
X0163543Y0259552D01*
X0163491Y0259475D01*
X0163436Y0259401D01*
X0163378Y0259330D01*
X0163316Y0259260D01*
X0163252Y0259194D01*
X0163185Y0259130D01*
X0163115Y0259070D01*
X0163042Y0259012D01*
X0162968Y0258957D01*
X0162891Y0258906D01*
X0162812Y0258858D01*
X0162730Y0258814D01*
X0162647Y0258772D01*
X0162563Y0258735D01*
X0162477Y0258701D01*
X0162389Y0258671D01*
X0162301Y0258645D01*
X0162211Y0258622D01*
X0162120Y0258604D01*
X0162029Y0258589D01*
X0161937Y0258578D01*
X0161845Y0258571D01*
X0161752Y0258568D01*
X0161660Y0258569D01*
X0161567Y0258574D01*
X0161475Y0258583D01*
X0161383Y0258596D01*
X0161292Y0258612D01*
X0161202Y0258633D01*
X0161113Y0258657D01*
X0161025Y0258686D01*
X0160938Y0258718D01*
X0160853Y0258753D01*
X0160769Y0258793D01*
X0160687Y0258835D01*
X0160607Y0258882D01*
X0160529Y0258931D01*
X0160453Y0258984D01*
X0160379Y0259040D01*
X0160308Y0259100D01*
X0160240Y0259162D01*
X0160174Y0259227D01*
X0160111Y0259295D01*
X0160051Y0259365D01*
X0159994Y0259438D01*
X0159940Y0259513D01*
X0159890Y0259591D01*
X0159843Y0259671D01*
X0159799Y0259752D01*
X0159759Y0259836D01*
X0159722Y0259921D01*
X0159689Y0260007D01*
X0159660Y0260095D01*
X0159635Y0260184D01*
X0159613Y0260274D01*
X0159596Y0260365D01*
X0159582Y0260456D01*
X0159572Y0260548D01*
X0159566Y0260640D01*
X0159564Y0260733D01*
X0170007Y0265733D02*
X0170009Y0265827D01*
X0170015Y0265921D01*
X0170025Y0266014D01*
X0170039Y0266107D01*
X0170057Y0266200D01*
X0170078Y0266291D01*
X0170104Y0266382D01*
X0170134Y0266471D01*
X0170167Y0266559D01*
X0170204Y0266645D01*
X0170244Y0266730D01*
X0170288Y0266813D01*
X0170336Y0266894D01*
X0170387Y0266973D01*
X0170441Y0267050D01*
X0170499Y0267125D01*
X0170559Y0267196D01*
X0170623Y0267266D01*
X0170689Y0267332D01*
X0170759Y0267396D01*
X0170830Y0267456D01*
X0170905Y0267514D01*
X0170982Y0267568D01*
X0171061Y0267619D01*
X0171142Y0267667D01*
X0171225Y0267711D01*
X0171310Y0267751D01*
X0171396Y0267788D01*
X0171484Y0267821D01*
X0171573Y0267851D01*
X0171664Y0267877D01*
X0171755Y0267898D01*
X0171848Y0267916D01*
X0171941Y0267930D01*
X0172034Y0267940D01*
X0172128Y0267946D01*
X0172222Y0267948D01*
X0172316Y0267946D01*
X0172410Y0267940D01*
X0172503Y0267930D01*
X0172596Y0267916D01*
X0172689Y0267898D01*
X0172780Y0267877D01*
X0172871Y0267851D01*
X0172960Y0267821D01*
X0173048Y0267788D01*
X0173134Y0267751D01*
X0173219Y0267711D01*
X0173302Y0267667D01*
X0173383Y0267619D01*
X0173462Y0267568D01*
X0173539Y0267514D01*
X0173614Y0267456D01*
X0173685Y0267396D01*
X0173755Y0267332D01*
X0173821Y0267266D01*
X0173885Y0267196D01*
X0173945Y0267125D01*
X0174003Y0267050D01*
X0174057Y0266973D01*
X0174108Y0266894D01*
X0174156Y0266813D01*
X0174200Y0266730D01*
X0174240Y0266645D01*
X0174277Y0266559D01*
X0174310Y0266471D01*
X0174340Y0266382D01*
X0174366Y0266291D01*
X0174387Y0266200D01*
X0174405Y0266107D01*
X0174419Y0266014D01*
X0174429Y0265921D01*
X0174435Y0265827D01*
X0174437Y0265733D01*
X0174435Y0265639D01*
X0174429Y0265545D01*
X0174419Y0265452D01*
X0174405Y0265359D01*
X0174387Y0265266D01*
X0174366Y0265175D01*
X0174340Y0265084D01*
X0174310Y0264995D01*
X0174277Y0264907D01*
X0174240Y0264821D01*
X0174200Y0264736D01*
X0174156Y0264653D01*
X0174108Y0264572D01*
X0174057Y0264493D01*
X0174003Y0264416D01*
X0173945Y0264341D01*
X0173885Y0264270D01*
X0173821Y0264200D01*
X0173755Y0264134D01*
X0173685Y0264070D01*
X0173614Y0264010D01*
X0173539Y0263952D01*
X0173462Y0263898D01*
X0173383Y0263847D01*
X0173302Y0263799D01*
X0173219Y0263755D01*
X0173134Y0263715D01*
X0173048Y0263678D01*
X0172960Y0263645D01*
X0172871Y0263615D01*
X0172780Y0263589D01*
X0172689Y0263568D01*
X0172596Y0263550D01*
X0172503Y0263536D01*
X0172410Y0263526D01*
X0172316Y0263520D01*
X0172222Y0263518D01*
X0172128Y0263520D01*
X0172034Y0263526D01*
X0171941Y0263536D01*
X0171848Y0263550D01*
X0171755Y0263568D01*
X0171664Y0263589D01*
X0171573Y0263615D01*
X0171484Y0263645D01*
X0171396Y0263678D01*
X0171310Y0263715D01*
X0171225Y0263755D01*
X0171142Y0263799D01*
X0171061Y0263847D01*
X0170982Y0263898D01*
X0170905Y0263952D01*
X0170830Y0264010D01*
X0170759Y0264070D01*
X0170689Y0264134D01*
X0170623Y0264200D01*
X0170559Y0264270D01*
X0170499Y0264341D01*
X0170441Y0264416D01*
X0170387Y0264493D01*
X0170336Y0264572D01*
X0170288Y0264653D01*
X0170244Y0264736D01*
X0170204Y0264821D01*
X0170167Y0264907D01*
X0170134Y0264995D01*
X0170104Y0265084D01*
X0170078Y0265175D01*
X0170057Y0265266D01*
X0170039Y0265359D01*
X0170025Y0265452D01*
X0170015Y0265545D01*
X0170009Y0265639D01*
X0170007Y0265733D01*
X0170009Y0265827D01*
X0170015Y0265921D01*
X0170025Y0266014D01*
X0170039Y0266107D01*
X0170057Y0266200D01*
X0170078Y0266291D01*
X0170104Y0266382D01*
X0170134Y0266471D01*
X0170167Y0266559D01*
X0170204Y0266645D01*
X0170244Y0266730D01*
X0170288Y0266813D01*
X0170336Y0266894D01*
X0170387Y0266973D01*
X0170441Y0267050D01*
X0170499Y0267125D01*
X0170559Y0267196D01*
X0170623Y0267266D01*
X0170689Y0267332D01*
X0170759Y0267396D01*
X0170830Y0267456D01*
X0170905Y0267514D01*
X0170982Y0267568D01*
X0171061Y0267619D01*
X0171142Y0267667D01*
X0171225Y0267711D01*
X0171310Y0267751D01*
X0171396Y0267788D01*
X0171484Y0267821D01*
X0171573Y0267851D01*
X0171664Y0267877D01*
X0171755Y0267898D01*
X0171848Y0267916D01*
X0171941Y0267930D01*
X0172034Y0267940D01*
X0172128Y0267946D01*
X0172222Y0267948D01*
X0172316Y0267946D01*
X0172410Y0267940D01*
X0172503Y0267930D01*
X0172596Y0267916D01*
X0172689Y0267898D01*
X0172780Y0267877D01*
X0172871Y0267851D01*
X0172960Y0267821D01*
X0173048Y0267788D01*
X0173134Y0267751D01*
X0173219Y0267711D01*
X0173302Y0267667D01*
X0173383Y0267619D01*
X0173462Y0267568D01*
X0173539Y0267514D01*
X0173614Y0267456D01*
X0173685Y0267396D01*
X0173755Y0267332D01*
X0173821Y0267266D01*
X0173885Y0267196D01*
X0173945Y0267125D01*
X0174003Y0267050D01*
X0174057Y0266973D01*
X0174108Y0266894D01*
X0174156Y0266813D01*
X0174200Y0266730D01*
X0174240Y0266645D01*
X0174277Y0266559D01*
X0174310Y0266471D01*
X0174340Y0266382D01*
X0174366Y0266291D01*
X0174387Y0266200D01*
X0174405Y0266107D01*
X0174419Y0266014D01*
X0174429Y0265921D01*
X0174435Y0265827D01*
X0174437Y0265733D01*
X0174435Y0265639D01*
X0174429Y0265545D01*
X0174419Y0265452D01*
X0174405Y0265359D01*
X0174387Y0265266D01*
X0174366Y0265175D01*
X0174340Y0265084D01*
X0174310Y0264995D01*
X0174277Y0264907D01*
X0174240Y0264821D01*
X0174200Y0264736D01*
X0174156Y0264653D01*
X0174108Y0264572D01*
X0174057Y0264493D01*
X0174003Y0264416D01*
X0173945Y0264341D01*
X0173885Y0264270D01*
X0173821Y0264200D01*
X0173755Y0264134D01*
X0173685Y0264070D01*
X0173614Y0264010D01*
X0173539Y0263952D01*
X0173462Y0263898D01*
X0173383Y0263847D01*
X0173302Y0263799D01*
X0173219Y0263755D01*
X0173134Y0263715D01*
X0173048Y0263678D01*
X0172960Y0263645D01*
X0172871Y0263615D01*
X0172780Y0263589D01*
X0172689Y0263568D01*
X0172596Y0263550D01*
X0172503Y0263536D01*
X0172410Y0263526D01*
X0172316Y0263520D01*
X0172222Y0263518D01*
X0172128Y0263520D01*
X0172034Y0263526D01*
X0171941Y0263536D01*
X0171848Y0263550D01*
X0171755Y0263568D01*
X0171664Y0263589D01*
X0171573Y0263615D01*
X0171484Y0263645D01*
X0171396Y0263678D01*
X0171310Y0263715D01*
X0171225Y0263755D01*
X0171142Y0263799D01*
X0171061Y0263847D01*
X0170982Y0263898D01*
X0170905Y0263952D01*
X0170830Y0264010D01*
X0170759Y0264070D01*
X0170689Y0264134D01*
X0170623Y0264200D01*
X0170559Y0264270D01*
X0170499Y0264341D01*
X0170441Y0264416D01*
X0170387Y0264493D01*
X0170336Y0264572D01*
X0170288Y0264653D01*
X0170244Y0264736D01*
X0170204Y0264821D01*
X0170167Y0264907D01*
X0170134Y0264995D01*
X0170104Y0265084D01*
X0170078Y0265175D01*
X0170057Y0265266D01*
X0170039Y0265359D01*
X0170025Y0265452D01*
X0170015Y0265545D01*
X0170009Y0265639D01*
X0170007Y0265733D01*
X0170009Y0265827D01*
X0170015Y0265921D01*
X0170025Y0266014D01*
X0170039Y0266107D01*
X0170057Y0266200D01*
X0170078Y0266291D01*
X0170104Y0266382D01*
X0170134Y0266471D01*
X0170167Y0266559D01*
X0170204Y0266645D01*
X0170244Y0266730D01*
X0170288Y0266813D01*
X0170336Y0266894D01*
X0170387Y0266973D01*
X0170441Y0267050D01*
X0170499Y0267125D01*
X0170559Y0267196D01*
X0170623Y0267266D01*
X0170689Y0267332D01*
X0170759Y0267396D01*
X0170830Y0267456D01*
X0170905Y0267514D01*
X0170982Y0267568D01*
X0171061Y0267619D01*
X0171142Y0267667D01*
X0171225Y0267711D01*
X0171310Y0267751D01*
X0171396Y0267788D01*
X0171484Y0267821D01*
X0171573Y0267851D01*
X0171664Y0267877D01*
X0171755Y0267898D01*
X0171848Y0267916D01*
X0171941Y0267930D01*
X0172034Y0267940D01*
X0172128Y0267946D01*
X0172222Y0267948D01*
X0172316Y0267946D01*
X0172410Y0267940D01*
X0172503Y0267930D01*
X0172596Y0267916D01*
X0172689Y0267898D01*
X0172780Y0267877D01*
X0172871Y0267851D01*
X0172960Y0267821D01*
X0173048Y0267788D01*
X0173134Y0267751D01*
X0173219Y0267711D01*
X0173302Y0267667D01*
X0173383Y0267619D01*
X0173462Y0267568D01*
X0173539Y0267514D01*
X0173614Y0267456D01*
X0173685Y0267396D01*
X0173755Y0267332D01*
X0173821Y0267266D01*
X0173885Y0267196D01*
X0173945Y0267125D01*
X0174003Y0267050D01*
X0174057Y0266973D01*
X0174108Y0266894D01*
X0174156Y0266813D01*
X0174200Y0266730D01*
X0174240Y0266645D01*
X0174277Y0266559D01*
X0174310Y0266471D01*
X0174340Y0266382D01*
X0174366Y0266291D01*
X0174387Y0266200D01*
X0174405Y0266107D01*
X0174419Y0266014D01*
X0174429Y0265921D01*
X0174435Y0265827D01*
X0174437Y0265733D01*
X0174435Y0265639D01*
X0174429Y0265545D01*
X0174419Y0265452D01*
X0174405Y0265359D01*
X0174387Y0265266D01*
X0174366Y0265175D01*
X0174340Y0265084D01*
X0174310Y0264995D01*
X0174277Y0264907D01*
X0174240Y0264821D01*
X0174200Y0264736D01*
X0174156Y0264653D01*
X0174108Y0264572D01*
X0174057Y0264493D01*
X0174003Y0264416D01*
X0173945Y0264341D01*
X0173885Y0264270D01*
X0173821Y0264200D01*
X0173755Y0264134D01*
X0173685Y0264070D01*
X0173614Y0264010D01*
X0173539Y0263952D01*
X0173462Y0263898D01*
X0173383Y0263847D01*
X0173302Y0263799D01*
X0173219Y0263755D01*
X0173134Y0263715D01*
X0173048Y0263678D01*
X0172960Y0263645D01*
X0172871Y0263615D01*
X0172780Y0263589D01*
X0172689Y0263568D01*
X0172596Y0263550D01*
X0172503Y0263536D01*
X0172410Y0263526D01*
X0172316Y0263520D01*
X0172222Y0263518D01*
X0172128Y0263520D01*
X0172034Y0263526D01*
X0171941Y0263536D01*
X0171848Y0263550D01*
X0171755Y0263568D01*
X0171664Y0263589D01*
X0171573Y0263615D01*
X0171484Y0263645D01*
X0171396Y0263678D01*
X0171310Y0263715D01*
X0171225Y0263755D01*
X0171142Y0263799D01*
X0171061Y0263847D01*
X0170982Y0263898D01*
X0170905Y0263952D01*
X0170830Y0264010D01*
X0170759Y0264070D01*
X0170689Y0264134D01*
X0170623Y0264200D01*
X0170559Y0264270D01*
X0170499Y0264341D01*
X0170441Y0264416D01*
X0170387Y0264493D01*
X0170336Y0264572D01*
X0170288Y0264653D01*
X0170244Y0264736D01*
X0170204Y0264821D01*
X0170167Y0264907D01*
X0170134Y0264995D01*
X0170104Y0265084D01*
X0170078Y0265175D01*
X0170057Y0265266D01*
X0170039Y0265359D01*
X0170025Y0265452D01*
X0170015Y0265545D01*
X0170009Y0265639D01*
X0170007Y0265733D01*
X0170009Y0265827D01*
X0170015Y0265921D01*
X0170025Y0266014D01*
X0170039Y0266107D01*
X0170057Y0266200D01*
X0170078Y0266291D01*
X0170104Y0266382D01*
X0170134Y0266471D01*
X0170167Y0266559D01*
X0170204Y0266645D01*
X0170244Y0266730D01*
X0170288Y0266813D01*
X0170336Y0266894D01*
X0170387Y0266973D01*
X0170441Y0267050D01*
X0170499Y0267125D01*
X0170559Y0267196D01*
X0170623Y0267266D01*
X0170689Y0267332D01*
X0170759Y0267396D01*
X0170830Y0267456D01*
X0170905Y0267514D01*
X0170982Y0267568D01*
X0171061Y0267619D01*
X0171142Y0267667D01*
X0171225Y0267711D01*
X0171310Y0267751D01*
X0171396Y0267788D01*
X0171484Y0267821D01*
X0171573Y0267851D01*
X0171664Y0267877D01*
X0171755Y0267898D01*
X0171848Y0267916D01*
X0171941Y0267930D01*
X0172034Y0267940D01*
X0172128Y0267946D01*
X0172222Y0267948D01*
X0172316Y0267946D01*
X0172410Y0267940D01*
X0172503Y0267930D01*
X0172596Y0267916D01*
X0172689Y0267898D01*
X0172780Y0267877D01*
X0172871Y0267851D01*
X0172960Y0267821D01*
X0173048Y0267788D01*
X0173134Y0267751D01*
X0173219Y0267711D01*
X0173302Y0267667D01*
X0173383Y0267619D01*
X0173462Y0267568D01*
X0173539Y0267514D01*
X0173614Y0267456D01*
X0173685Y0267396D01*
X0173755Y0267332D01*
X0173821Y0267266D01*
X0173885Y0267196D01*
X0173945Y0267125D01*
X0174003Y0267050D01*
X0174057Y0266973D01*
X0174108Y0266894D01*
X0174156Y0266813D01*
X0174200Y0266730D01*
X0174240Y0266645D01*
X0174277Y0266559D01*
X0174310Y0266471D01*
X0174340Y0266382D01*
X0174366Y0266291D01*
X0174387Y0266200D01*
X0174405Y0266107D01*
X0174419Y0266014D01*
X0174429Y0265921D01*
X0174435Y0265827D01*
X0174437Y0265733D01*
X0174435Y0265639D01*
X0174429Y0265545D01*
X0174419Y0265452D01*
X0174405Y0265359D01*
X0174387Y0265266D01*
X0174366Y0265175D01*
X0174340Y0265084D01*
X0174310Y0264995D01*
X0174277Y0264907D01*
X0174240Y0264821D01*
X0174200Y0264736D01*
X0174156Y0264653D01*
X0174108Y0264572D01*
X0174057Y0264493D01*
X0174003Y0264416D01*
X0173945Y0264341D01*
X0173885Y0264270D01*
X0173821Y0264200D01*
X0173755Y0264134D01*
X0173685Y0264070D01*
X0173614Y0264010D01*
X0173539Y0263952D01*
X0173462Y0263898D01*
X0173383Y0263847D01*
X0173302Y0263799D01*
X0173219Y0263755D01*
X0173134Y0263715D01*
X0173048Y0263678D01*
X0172960Y0263645D01*
X0172871Y0263615D01*
X0172780Y0263589D01*
X0172689Y0263568D01*
X0172596Y0263550D01*
X0172503Y0263536D01*
X0172410Y0263526D01*
X0172316Y0263520D01*
X0172222Y0263518D01*
X0172128Y0263520D01*
X0172034Y0263526D01*
X0171941Y0263536D01*
X0171848Y0263550D01*
X0171755Y0263568D01*
X0171664Y0263589D01*
X0171573Y0263615D01*
X0171484Y0263645D01*
X0171396Y0263678D01*
X0171310Y0263715D01*
X0171225Y0263755D01*
X0171142Y0263799D01*
X0171061Y0263847D01*
X0170982Y0263898D01*
X0170905Y0263952D01*
X0170830Y0264010D01*
X0170759Y0264070D01*
X0170689Y0264134D01*
X0170623Y0264200D01*
X0170559Y0264270D01*
X0170499Y0264341D01*
X0170441Y0264416D01*
X0170387Y0264493D01*
X0170336Y0264572D01*
X0170288Y0264653D01*
X0170244Y0264736D01*
X0170204Y0264821D01*
X0170167Y0264907D01*
X0170134Y0264995D01*
X0170104Y0265084D01*
X0170078Y0265175D01*
X0170057Y0265266D01*
X0170039Y0265359D01*
X0170025Y0265452D01*
X0170015Y0265545D01*
X0170009Y0265639D01*
X0170007Y0265733D01*
X0344810Y0265733D02*
X0344812Y0265808D01*
X0344818Y0265883D01*
X0344828Y0265958D01*
X0344842Y0266032D01*
X0344859Y0266105D01*
X0344881Y0266178D01*
X0344906Y0266248D01*
X0344935Y0266318D01*
X0344968Y0266386D01*
X0345004Y0266452D01*
X0345044Y0266516D01*
X0345087Y0266578D01*
X0345133Y0266637D01*
X0345182Y0266694D01*
X0345235Y0266749D01*
X0345290Y0266800D01*
X0345347Y0266849D01*
X0345407Y0266894D01*
X0345470Y0266936D01*
X0345534Y0266975D01*
X0345601Y0267010D01*
X0345669Y0267042D01*
X0345739Y0267070D01*
X0345810Y0267095D01*
X0345883Y0267115D01*
X0345956Y0267132D01*
X0346031Y0267145D01*
X0346105Y0267154D01*
X0346181Y0267159D01*
X0346256Y0267160D01*
X0346331Y0267157D01*
X0346406Y0267150D01*
X0346481Y0267139D01*
X0346555Y0267124D01*
X0346628Y0267106D01*
X0346699Y0267083D01*
X0346770Y0267057D01*
X0346839Y0267027D01*
X0346907Y0266993D01*
X0346972Y0266956D01*
X0347036Y0266916D01*
X0347097Y0266872D01*
X0347156Y0266825D01*
X0347212Y0266775D01*
X0347266Y0266722D01*
X0347317Y0266666D01*
X0347364Y0266608D01*
X0347409Y0266547D01*
X0347450Y0266484D01*
X0347488Y0266419D01*
X0347523Y0266352D01*
X0347554Y0266283D01*
X0347581Y0266213D01*
X0347604Y0266142D01*
X0347624Y0266069D01*
X0347640Y0265995D01*
X0347652Y0265921D01*
X0347660Y0265846D01*
X0347664Y0265771D01*
X0347664Y0265695D01*
X0347660Y0265620D01*
X0347652Y0265545D01*
X0347640Y0265471D01*
X0347624Y0265397D01*
X0347604Y0265324D01*
X0347581Y0265253D01*
X0347554Y0265183D01*
X0347523Y0265114D01*
X0347488Y0265047D01*
X0347450Y0264982D01*
X0347409Y0264919D01*
X0347364Y0264858D01*
X0347317Y0264800D01*
X0347266Y0264744D01*
X0347212Y0264691D01*
X0347156Y0264641D01*
X0347097Y0264594D01*
X0347036Y0264550D01*
X0346972Y0264510D01*
X0346907Y0264473D01*
X0346839Y0264439D01*
X0346770Y0264409D01*
X0346699Y0264383D01*
X0346628Y0264360D01*
X0346555Y0264342D01*
X0346481Y0264327D01*
X0346406Y0264316D01*
X0346331Y0264309D01*
X0346256Y0264306D01*
X0346181Y0264307D01*
X0346105Y0264312D01*
X0346031Y0264321D01*
X0345956Y0264334D01*
X0345883Y0264351D01*
X0345810Y0264371D01*
X0345739Y0264396D01*
X0345669Y0264424D01*
X0345601Y0264456D01*
X0345534Y0264491D01*
X0345470Y0264530D01*
X0345407Y0264572D01*
X0345347Y0264617D01*
X0345290Y0264666D01*
X0345235Y0264717D01*
X0345182Y0264772D01*
X0345133Y0264829D01*
X0345087Y0264888D01*
X0345044Y0264950D01*
X0345004Y0265014D01*
X0344968Y0265080D01*
X0344935Y0265148D01*
X0344906Y0265218D01*
X0344881Y0265288D01*
X0344859Y0265361D01*
X0344842Y0265434D01*
X0344828Y0265508D01*
X0344818Y0265583D01*
X0344812Y0265658D01*
X0344810Y0265733D01*
X0344812Y0265808D01*
X0344818Y0265883D01*
X0344828Y0265958D01*
X0344842Y0266032D01*
X0344859Y0266105D01*
X0344881Y0266178D01*
X0344906Y0266248D01*
X0344935Y0266318D01*
X0344968Y0266386D01*
X0345004Y0266452D01*
X0345044Y0266516D01*
X0345087Y0266578D01*
X0345133Y0266637D01*
X0345182Y0266694D01*
X0345235Y0266749D01*
X0345290Y0266800D01*
X0345347Y0266849D01*
X0345407Y0266894D01*
X0345470Y0266936D01*
X0345534Y0266975D01*
X0345601Y0267010D01*
X0345669Y0267042D01*
X0345739Y0267070D01*
X0345810Y0267095D01*
X0345883Y0267115D01*
X0345956Y0267132D01*
X0346031Y0267145D01*
X0346105Y0267154D01*
X0346181Y0267159D01*
X0346256Y0267160D01*
X0346331Y0267157D01*
X0346406Y0267150D01*
X0346481Y0267139D01*
X0346555Y0267124D01*
X0346628Y0267106D01*
X0346699Y0267083D01*
X0346770Y0267057D01*
X0346839Y0267027D01*
X0346907Y0266993D01*
X0346972Y0266956D01*
X0347036Y0266916D01*
X0347097Y0266872D01*
X0347156Y0266825D01*
X0347212Y0266775D01*
X0347266Y0266722D01*
X0347317Y0266666D01*
X0347364Y0266608D01*
X0347409Y0266547D01*
X0347450Y0266484D01*
X0347488Y0266419D01*
X0347523Y0266352D01*
X0347554Y0266283D01*
X0347581Y0266213D01*
X0347604Y0266142D01*
X0347624Y0266069D01*
X0347640Y0265995D01*
X0347652Y0265921D01*
X0347660Y0265846D01*
X0347664Y0265771D01*
X0347664Y0265695D01*
X0347660Y0265620D01*
X0347652Y0265545D01*
X0347640Y0265471D01*
X0347624Y0265397D01*
X0347604Y0265324D01*
X0347581Y0265253D01*
X0347554Y0265183D01*
X0347523Y0265114D01*
X0347488Y0265047D01*
X0347450Y0264982D01*
X0347409Y0264919D01*
X0347364Y0264858D01*
X0347317Y0264800D01*
X0347266Y0264744D01*
X0347212Y0264691D01*
X0347156Y0264641D01*
X0347097Y0264594D01*
X0347036Y0264550D01*
X0346972Y0264510D01*
X0346907Y0264473D01*
X0346839Y0264439D01*
X0346770Y0264409D01*
X0346699Y0264383D01*
X0346628Y0264360D01*
X0346555Y0264342D01*
X0346481Y0264327D01*
X0346406Y0264316D01*
X0346331Y0264309D01*
X0346256Y0264306D01*
X0346181Y0264307D01*
X0346105Y0264312D01*
X0346031Y0264321D01*
X0345956Y0264334D01*
X0345883Y0264351D01*
X0345810Y0264371D01*
X0345739Y0264396D01*
X0345669Y0264424D01*
X0345601Y0264456D01*
X0345534Y0264491D01*
X0345470Y0264530D01*
X0345407Y0264572D01*
X0345347Y0264617D01*
X0345290Y0264666D01*
X0345235Y0264717D01*
X0345182Y0264772D01*
X0345133Y0264829D01*
X0345087Y0264888D01*
X0345044Y0264950D01*
X0345004Y0265014D01*
X0344968Y0265080D01*
X0344935Y0265148D01*
X0344906Y0265218D01*
X0344881Y0265288D01*
X0344859Y0265361D01*
X0344842Y0265434D01*
X0344828Y0265508D01*
X0344818Y0265583D01*
X0344812Y0265658D01*
X0344810Y0265733D01*
X0344812Y0265808D01*
X0344818Y0265883D01*
X0344828Y0265958D01*
X0344842Y0266032D01*
X0344859Y0266105D01*
X0344881Y0266178D01*
X0344906Y0266248D01*
X0344935Y0266318D01*
X0344968Y0266386D01*
X0345004Y0266452D01*
X0345044Y0266516D01*
X0345087Y0266578D01*
X0345133Y0266637D01*
X0345182Y0266694D01*
X0345235Y0266749D01*
X0345290Y0266800D01*
X0345347Y0266849D01*
X0345407Y0266894D01*
X0345470Y0266936D01*
X0345534Y0266975D01*
X0345601Y0267010D01*
X0345669Y0267042D01*
X0345739Y0267070D01*
X0345810Y0267095D01*
X0345883Y0267115D01*
X0345956Y0267132D01*
X0346031Y0267145D01*
X0346105Y0267154D01*
X0346181Y0267159D01*
X0346256Y0267160D01*
X0346331Y0267157D01*
X0346406Y0267150D01*
X0346481Y0267139D01*
X0346555Y0267124D01*
X0346628Y0267106D01*
X0346699Y0267083D01*
X0346770Y0267057D01*
X0346839Y0267027D01*
X0346907Y0266993D01*
X0346972Y0266956D01*
X0347036Y0266916D01*
X0347097Y0266872D01*
X0347156Y0266825D01*
X0347212Y0266775D01*
X0347266Y0266722D01*
X0347317Y0266666D01*
X0347364Y0266608D01*
X0347409Y0266547D01*
X0347450Y0266484D01*
X0347488Y0266419D01*
X0347523Y0266352D01*
X0347554Y0266283D01*
X0347581Y0266213D01*
X0347604Y0266142D01*
X0347624Y0266069D01*
X0347640Y0265995D01*
X0347652Y0265921D01*
X0347660Y0265846D01*
X0347664Y0265771D01*
X0347664Y0265695D01*
X0347660Y0265620D01*
X0347652Y0265545D01*
X0347640Y0265471D01*
X0347624Y0265397D01*
X0347604Y0265324D01*
X0347581Y0265253D01*
X0347554Y0265183D01*
X0347523Y0265114D01*
X0347488Y0265047D01*
X0347450Y0264982D01*
X0347409Y0264919D01*
X0347364Y0264858D01*
X0347317Y0264800D01*
X0347266Y0264744D01*
X0347212Y0264691D01*
X0347156Y0264641D01*
X0347097Y0264594D01*
X0347036Y0264550D01*
X0346972Y0264510D01*
X0346907Y0264473D01*
X0346839Y0264439D01*
X0346770Y0264409D01*
X0346699Y0264383D01*
X0346628Y0264360D01*
X0346555Y0264342D01*
X0346481Y0264327D01*
X0346406Y0264316D01*
X0346331Y0264309D01*
X0346256Y0264306D01*
X0346181Y0264307D01*
X0346105Y0264312D01*
X0346031Y0264321D01*
X0345956Y0264334D01*
X0345883Y0264351D01*
X0345810Y0264371D01*
X0345739Y0264396D01*
X0345669Y0264424D01*
X0345601Y0264456D01*
X0345534Y0264491D01*
X0345470Y0264530D01*
X0345407Y0264572D01*
X0345347Y0264617D01*
X0345290Y0264666D01*
X0345235Y0264717D01*
X0345182Y0264772D01*
X0345133Y0264829D01*
X0345087Y0264888D01*
X0345044Y0264950D01*
X0345004Y0265014D01*
X0344968Y0265080D01*
X0344935Y0265148D01*
X0344906Y0265218D01*
X0344881Y0265288D01*
X0344859Y0265361D01*
X0344842Y0265434D01*
X0344828Y0265508D01*
X0344818Y0265583D01*
X0344812Y0265658D01*
X0344810Y0265733D01*
X0344812Y0265808D01*
X0344818Y0265883D01*
X0344828Y0265958D01*
X0344842Y0266032D01*
X0344859Y0266105D01*
X0344881Y0266178D01*
X0344906Y0266248D01*
X0344935Y0266318D01*
X0344968Y0266386D01*
X0345004Y0266452D01*
X0345044Y0266516D01*
X0345087Y0266578D01*
X0345133Y0266637D01*
X0345182Y0266694D01*
X0345235Y0266749D01*
X0345290Y0266800D01*
X0345347Y0266849D01*
X0345407Y0266894D01*
X0345470Y0266936D01*
X0345534Y0266975D01*
X0345601Y0267010D01*
X0345669Y0267042D01*
X0345739Y0267070D01*
X0345810Y0267095D01*
X0345883Y0267115D01*
X0345956Y0267132D01*
X0346031Y0267145D01*
X0346105Y0267154D01*
X0346181Y0267159D01*
X0346256Y0267160D01*
X0346331Y0267157D01*
X0346406Y0267150D01*
X0346481Y0267139D01*
X0346555Y0267124D01*
X0346628Y0267106D01*
X0346699Y0267083D01*
X0346770Y0267057D01*
X0346839Y0267027D01*
X0346907Y0266993D01*
X0346972Y0266956D01*
X0347036Y0266916D01*
X0347097Y0266872D01*
X0347156Y0266825D01*
X0347212Y0266775D01*
X0347266Y0266722D01*
X0347317Y0266666D01*
X0347364Y0266608D01*
X0347409Y0266547D01*
X0347450Y0266484D01*
X0347488Y0266419D01*
X0347523Y0266352D01*
X0347554Y0266283D01*
X0347581Y0266213D01*
X0347604Y0266142D01*
X0347624Y0266069D01*
X0347640Y0265995D01*
X0347652Y0265921D01*
X0347660Y0265846D01*
X0347664Y0265771D01*
X0347664Y0265695D01*
X0347660Y0265620D01*
X0347652Y0265545D01*
X0347640Y0265471D01*
X0347624Y0265397D01*
X0347604Y0265324D01*
X0347581Y0265253D01*
X0347554Y0265183D01*
X0347523Y0265114D01*
X0347488Y0265047D01*
X0347450Y0264982D01*
X0347409Y0264919D01*
X0347364Y0264858D01*
X0347317Y0264800D01*
X0347266Y0264744D01*
X0347212Y0264691D01*
X0347156Y0264641D01*
X0347097Y0264594D01*
X0347036Y0264550D01*
X0346972Y0264510D01*
X0346907Y0264473D01*
X0346839Y0264439D01*
X0346770Y0264409D01*
X0346699Y0264383D01*
X0346628Y0264360D01*
X0346555Y0264342D01*
X0346481Y0264327D01*
X0346406Y0264316D01*
X0346331Y0264309D01*
X0346256Y0264306D01*
X0346181Y0264307D01*
X0346105Y0264312D01*
X0346031Y0264321D01*
X0345956Y0264334D01*
X0345883Y0264351D01*
X0345810Y0264371D01*
X0345739Y0264396D01*
X0345669Y0264424D01*
X0345601Y0264456D01*
X0345534Y0264491D01*
X0345470Y0264530D01*
X0345407Y0264572D01*
X0345347Y0264617D01*
X0345290Y0264666D01*
X0345235Y0264717D01*
X0345182Y0264772D01*
X0345133Y0264829D01*
X0345087Y0264888D01*
X0345044Y0264950D01*
X0345004Y0265014D01*
X0344968Y0265080D01*
X0344935Y0265148D01*
X0344906Y0265218D01*
X0344881Y0265288D01*
X0344859Y0265361D01*
X0344842Y0265434D01*
X0344828Y0265508D01*
X0344818Y0265583D01*
X0344812Y0265658D01*
X0344810Y0265733D01*
X0354564Y0260733D02*
X0354566Y0260826D01*
X0354572Y0260918D01*
X0354582Y0261010D01*
X0354596Y0261101D01*
X0354613Y0261192D01*
X0354635Y0261282D01*
X0354660Y0261371D01*
X0354689Y0261459D01*
X0354722Y0261545D01*
X0354759Y0261630D01*
X0354799Y0261714D01*
X0354843Y0261795D01*
X0354890Y0261875D01*
X0354940Y0261953D01*
X0354994Y0262028D01*
X0355051Y0262101D01*
X0355111Y0262171D01*
X0355174Y0262239D01*
X0355240Y0262304D01*
X0355308Y0262366D01*
X0355379Y0262426D01*
X0355453Y0262482D01*
X0355529Y0262535D01*
X0355607Y0262584D01*
X0355687Y0262631D01*
X0355769Y0262673D01*
X0355853Y0262713D01*
X0355938Y0262748D01*
X0356025Y0262780D01*
X0356113Y0262809D01*
X0356202Y0262833D01*
X0356292Y0262854D01*
X0356383Y0262870D01*
X0356475Y0262883D01*
X0356567Y0262892D01*
X0356660Y0262897D01*
X0356752Y0262898D01*
X0356845Y0262895D01*
X0356937Y0262888D01*
X0357029Y0262877D01*
X0357120Y0262862D01*
X0357211Y0262844D01*
X0357301Y0262821D01*
X0357389Y0262795D01*
X0357477Y0262765D01*
X0357563Y0262731D01*
X0357647Y0262694D01*
X0357730Y0262652D01*
X0357811Y0262608D01*
X0357891Y0262560D01*
X0357968Y0262509D01*
X0358042Y0262454D01*
X0358115Y0262396D01*
X0358185Y0262336D01*
X0358252Y0262272D01*
X0358316Y0262206D01*
X0358378Y0262136D01*
X0358436Y0262065D01*
X0358491Y0261991D01*
X0358543Y0261914D01*
X0358592Y0261835D01*
X0358638Y0261755D01*
X0358680Y0261672D01*
X0358718Y0261588D01*
X0358753Y0261502D01*
X0358784Y0261415D01*
X0358811Y0261327D01*
X0358834Y0261237D01*
X0358854Y0261147D01*
X0358870Y0261056D01*
X0358882Y0260964D01*
X0358890Y0260872D01*
X0358894Y0260779D01*
X0358894Y0260687D01*
X0358890Y0260594D01*
X0358882Y0260502D01*
X0358870Y0260410D01*
X0358854Y0260319D01*
X0358834Y0260229D01*
X0358811Y0260139D01*
X0358784Y0260051D01*
X0358753Y0259964D01*
X0358718Y0259878D01*
X0358680Y0259794D01*
X0358638Y0259711D01*
X0358592Y0259631D01*
X0358543Y0259552D01*
X0358491Y0259475D01*
X0358436Y0259401D01*
X0358378Y0259330D01*
X0358316Y0259260D01*
X0358252Y0259194D01*
X0358185Y0259130D01*
X0358115Y0259070D01*
X0358042Y0259012D01*
X0357968Y0258957D01*
X0357891Y0258906D01*
X0357812Y0258858D01*
X0357730Y0258814D01*
X0357647Y0258772D01*
X0357563Y0258735D01*
X0357477Y0258701D01*
X0357389Y0258671D01*
X0357301Y0258645D01*
X0357211Y0258622D01*
X0357120Y0258604D01*
X0357029Y0258589D01*
X0356937Y0258578D01*
X0356845Y0258571D01*
X0356752Y0258568D01*
X0356660Y0258569D01*
X0356567Y0258574D01*
X0356475Y0258583D01*
X0356383Y0258596D01*
X0356292Y0258612D01*
X0356202Y0258633D01*
X0356113Y0258657D01*
X0356025Y0258686D01*
X0355938Y0258718D01*
X0355853Y0258753D01*
X0355769Y0258793D01*
X0355687Y0258835D01*
X0355607Y0258882D01*
X0355529Y0258931D01*
X0355453Y0258984D01*
X0355379Y0259040D01*
X0355308Y0259100D01*
X0355240Y0259162D01*
X0355174Y0259227D01*
X0355111Y0259295D01*
X0355051Y0259365D01*
X0354994Y0259438D01*
X0354940Y0259513D01*
X0354890Y0259591D01*
X0354843Y0259671D01*
X0354799Y0259752D01*
X0354759Y0259836D01*
X0354722Y0259921D01*
X0354689Y0260007D01*
X0354660Y0260095D01*
X0354635Y0260184D01*
X0354613Y0260274D01*
X0354596Y0260365D01*
X0354582Y0260456D01*
X0354572Y0260548D01*
X0354566Y0260640D01*
X0354564Y0260733D01*
X0354564Y0270733D02*
X0354566Y0270826D01*
X0354572Y0270918D01*
X0354582Y0271010D01*
X0354596Y0271101D01*
X0354613Y0271192D01*
X0354635Y0271282D01*
X0354660Y0271371D01*
X0354689Y0271459D01*
X0354722Y0271545D01*
X0354759Y0271630D01*
X0354799Y0271714D01*
X0354843Y0271795D01*
X0354890Y0271875D01*
X0354940Y0271953D01*
X0354994Y0272028D01*
X0355051Y0272101D01*
X0355111Y0272171D01*
X0355174Y0272239D01*
X0355240Y0272304D01*
X0355308Y0272366D01*
X0355379Y0272426D01*
X0355453Y0272482D01*
X0355529Y0272535D01*
X0355607Y0272584D01*
X0355687Y0272631D01*
X0355769Y0272673D01*
X0355853Y0272713D01*
X0355938Y0272748D01*
X0356025Y0272780D01*
X0356113Y0272809D01*
X0356202Y0272833D01*
X0356292Y0272854D01*
X0356383Y0272870D01*
X0356475Y0272883D01*
X0356567Y0272892D01*
X0356660Y0272897D01*
X0356752Y0272898D01*
X0356845Y0272895D01*
X0356937Y0272888D01*
X0357029Y0272877D01*
X0357120Y0272862D01*
X0357211Y0272844D01*
X0357301Y0272821D01*
X0357389Y0272795D01*
X0357477Y0272765D01*
X0357563Y0272731D01*
X0357647Y0272694D01*
X0357730Y0272652D01*
X0357811Y0272608D01*
X0357891Y0272560D01*
X0357968Y0272509D01*
X0358042Y0272454D01*
X0358115Y0272396D01*
X0358185Y0272336D01*
X0358252Y0272272D01*
X0358316Y0272206D01*
X0358378Y0272136D01*
X0358436Y0272065D01*
X0358491Y0271991D01*
X0358543Y0271914D01*
X0358592Y0271835D01*
X0358638Y0271755D01*
X0358680Y0271672D01*
X0358718Y0271588D01*
X0358753Y0271502D01*
X0358784Y0271415D01*
X0358811Y0271327D01*
X0358834Y0271237D01*
X0358854Y0271147D01*
X0358870Y0271056D01*
X0358882Y0270964D01*
X0358890Y0270872D01*
X0358894Y0270779D01*
X0358894Y0270687D01*
X0358890Y0270594D01*
X0358882Y0270502D01*
X0358870Y0270410D01*
X0358854Y0270319D01*
X0358834Y0270229D01*
X0358811Y0270139D01*
X0358784Y0270051D01*
X0358753Y0269964D01*
X0358718Y0269878D01*
X0358680Y0269794D01*
X0358638Y0269711D01*
X0358592Y0269631D01*
X0358543Y0269552D01*
X0358491Y0269475D01*
X0358436Y0269401D01*
X0358378Y0269330D01*
X0358316Y0269260D01*
X0358252Y0269194D01*
X0358185Y0269130D01*
X0358115Y0269070D01*
X0358042Y0269012D01*
X0357968Y0268957D01*
X0357891Y0268906D01*
X0357812Y0268858D01*
X0357730Y0268814D01*
X0357647Y0268772D01*
X0357563Y0268735D01*
X0357477Y0268701D01*
X0357389Y0268671D01*
X0357301Y0268645D01*
X0357211Y0268622D01*
X0357120Y0268604D01*
X0357029Y0268589D01*
X0356937Y0268578D01*
X0356845Y0268571D01*
X0356752Y0268568D01*
X0356660Y0268569D01*
X0356567Y0268574D01*
X0356475Y0268583D01*
X0356383Y0268596D01*
X0356292Y0268612D01*
X0356202Y0268633D01*
X0356113Y0268657D01*
X0356025Y0268686D01*
X0355938Y0268718D01*
X0355853Y0268753D01*
X0355769Y0268793D01*
X0355687Y0268835D01*
X0355607Y0268882D01*
X0355529Y0268931D01*
X0355453Y0268984D01*
X0355379Y0269040D01*
X0355308Y0269100D01*
X0355240Y0269162D01*
X0355174Y0269227D01*
X0355111Y0269295D01*
X0355051Y0269365D01*
X0354994Y0269438D01*
X0354940Y0269513D01*
X0354890Y0269591D01*
X0354843Y0269671D01*
X0354799Y0269752D01*
X0354759Y0269836D01*
X0354722Y0269921D01*
X0354689Y0270007D01*
X0354660Y0270095D01*
X0354635Y0270184D01*
X0354613Y0270274D01*
X0354596Y0270365D01*
X0354582Y0270456D01*
X0354572Y0270548D01*
X0354566Y0270640D01*
X0354564Y0270733D01*
X0364564Y0270733D02*
X0364566Y0270826D01*
X0364572Y0270918D01*
X0364582Y0271010D01*
X0364596Y0271101D01*
X0364613Y0271192D01*
X0364635Y0271282D01*
X0364660Y0271371D01*
X0364689Y0271459D01*
X0364722Y0271545D01*
X0364759Y0271630D01*
X0364799Y0271714D01*
X0364843Y0271795D01*
X0364890Y0271875D01*
X0364940Y0271953D01*
X0364994Y0272028D01*
X0365051Y0272101D01*
X0365111Y0272171D01*
X0365174Y0272239D01*
X0365240Y0272304D01*
X0365308Y0272366D01*
X0365379Y0272426D01*
X0365453Y0272482D01*
X0365529Y0272535D01*
X0365607Y0272584D01*
X0365687Y0272631D01*
X0365769Y0272673D01*
X0365853Y0272713D01*
X0365938Y0272748D01*
X0366025Y0272780D01*
X0366113Y0272809D01*
X0366202Y0272833D01*
X0366292Y0272854D01*
X0366383Y0272870D01*
X0366475Y0272883D01*
X0366567Y0272892D01*
X0366660Y0272897D01*
X0366752Y0272898D01*
X0366845Y0272895D01*
X0366937Y0272888D01*
X0367029Y0272877D01*
X0367120Y0272862D01*
X0367211Y0272844D01*
X0367301Y0272821D01*
X0367389Y0272795D01*
X0367477Y0272765D01*
X0367563Y0272731D01*
X0367647Y0272694D01*
X0367730Y0272652D01*
X0367811Y0272608D01*
X0367891Y0272560D01*
X0367968Y0272509D01*
X0368042Y0272454D01*
X0368115Y0272396D01*
X0368185Y0272336D01*
X0368252Y0272272D01*
X0368316Y0272206D01*
X0368378Y0272136D01*
X0368436Y0272065D01*
X0368491Y0271991D01*
X0368543Y0271914D01*
X0368592Y0271835D01*
X0368638Y0271755D01*
X0368680Y0271672D01*
X0368718Y0271588D01*
X0368753Y0271502D01*
X0368784Y0271415D01*
X0368811Y0271327D01*
X0368834Y0271237D01*
X0368854Y0271147D01*
X0368870Y0271056D01*
X0368882Y0270964D01*
X0368890Y0270872D01*
X0368894Y0270779D01*
X0368894Y0270687D01*
X0368890Y0270594D01*
X0368882Y0270502D01*
X0368870Y0270410D01*
X0368854Y0270319D01*
X0368834Y0270229D01*
X0368811Y0270139D01*
X0368784Y0270051D01*
X0368753Y0269964D01*
X0368718Y0269878D01*
X0368680Y0269794D01*
X0368638Y0269711D01*
X0368592Y0269631D01*
X0368543Y0269552D01*
X0368491Y0269475D01*
X0368436Y0269401D01*
X0368378Y0269330D01*
X0368316Y0269260D01*
X0368252Y0269194D01*
X0368185Y0269130D01*
X0368115Y0269070D01*
X0368042Y0269012D01*
X0367968Y0268957D01*
X0367891Y0268906D01*
X0367812Y0268858D01*
X0367730Y0268814D01*
X0367647Y0268772D01*
X0367563Y0268735D01*
X0367477Y0268701D01*
X0367389Y0268671D01*
X0367301Y0268645D01*
X0367211Y0268622D01*
X0367120Y0268604D01*
X0367029Y0268589D01*
X0366937Y0268578D01*
X0366845Y0268571D01*
X0366752Y0268568D01*
X0366660Y0268569D01*
X0366567Y0268574D01*
X0366475Y0268583D01*
X0366383Y0268596D01*
X0366292Y0268612D01*
X0366202Y0268633D01*
X0366113Y0268657D01*
X0366025Y0268686D01*
X0365938Y0268718D01*
X0365853Y0268753D01*
X0365769Y0268793D01*
X0365687Y0268835D01*
X0365607Y0268882D01*
X0365529Y0268931D01*
X0365453Y0268984D01*
X0365379Y0269040D01*
X0365308Y0269100D01*
X0365240Y0269162D01*
X0365174Y0269227D01*
X0365111Y0269295D01*
X0365051Y0269365D01*
X0364994Y0269438D01*
X0364940Y0269513D01*
X0364890Y0269591D01*
X0364843Y0269671D01*
X0364799Y0269752D01*
X0364759Y0269836D01*
X0364722Y0269921D01*
X0364689Y0270007D01*
X0364660Y0270095D01*
X0364635Y0270184D01*
X0364613Y0270274D01*
X0364596Y0270365D01*
X0364582Y0270456D01*
X0364572Y0270548D01*
X0364566Y0270640D01*
X0364564Y0270733D01*
X0364564Y0260733D02*
X0364566Y0260826D01*
X0364572Y0260918D01*
X0364582Y0261010D01*
X0364596Y0261101D01*
X0364613Y0261192D01*
X0364635Y0261282D01*
X0364660Y0261371D01*
X0364689Y0261459D01*
X0364722Y0261545D01*
X0364759Y0261630D01*
X0364799Y0261714D01*
X0364843Y0261795D01*
X0364890Y0261875D01*
X0364940Y0261953D01*
X0364994Y0262028D01*
X0365051Y0262101D01*
X0365111Y0262171D01*
X0365174Y0262239D01*
X0365240Y0262304D01*
X0365308Y0262366D01*
X0365379Y0262426D01*
X0365453Y0262482D01*
X0365529Y0262535D01*
X0365607Y0262584D01*
X0365687Y0262631D01*
X0365769Y0262673D01*
X0365853Y0262713D01*
X0365938Y0262748D01*
X0366025Y0262780D01*
X0366113Y0262809D01*
X0366202Y0262833D01*
X0366292Y0262854D01*
X0366383Y0262870D01*
X0366475Y0262883D01*
X0366567Y0262892D01*
X0366660Y0262897D01*
X0366752Y0262898D01*
X0366845Y0262895D01*
X0366937Y0262888D01*
X0367029Y0262877D01*
X0367120Y0262862D01*
X0367211Y0262844D01*
X0367301Y0262821D01*
X0367389Y0262795D01*
X0367477Y0262765D01*
X0367563Y0262731D01*
X0367647Y0262694D01*
X0367730Y0262652D01*
X0367811Y0262608D01*
X0367891Y0262560D01*
X0367968Y0262509D01*
X0368042Y0262454D01*
X0368115Y0262396D01*
X0368185Y0262336D01*
X0368252Y0262272D01*
X0368316Y0262206D01*
X0368378Y0262136D01*
X0368436Y0262065D01*
X0368491Y0261991D01*
X0368543Y0261914D01*
X0368592Y0261835D01*
X0368638Y0261755D01*
X0368680Y0261672D01*
X0368718Y0261588D01*
X0368753Y0261502D01*
X0368784Y0261415D01*
X0368811Y0261327D01*
X0368834Y0261237D01*
X0368854Y0261147D01*
X0368870Y0261056D01*
X0368882Y0260964D01*
X0368890Y0260872D01*
X0368894Y0260779D01*
X0368894Y0260687D01*
X0368890Y0260594D01*
X0368882Y0260502D01*
X0368870Y0260410D01*
X0368854Y0260319D01*
X0368834Y0260229D01*
X0368811Y0260139D01*
X0368784Y0260051D01*
X0368753Y0259964D01*
X0368718Y0259878D01*
X0368680Y0259794D01*
X0368638Y0259711D01*
X0368592Y0259631D01*
X0368543Y0259552D01*
X0368491Y0259475D01*
X0368436Y0259401D01*
X0368378Y0259330D01*
X0368316Y0259260D01*
X0368252Y0259194D01*
X0368185Y0259130D01*
X0368115Y0259070D01*
X0368042Y0259012D01*
X0367968Y0258957D01*
X0367891Y0258906D01*
X0367812Y0258858D01*
X0367730Y0258814D01*
X0367647Y0258772D01*
X0367563Y0258735D01*
X0367477Y0258701D01*
X0367389Y0258671D01*
X0367301Y0258645D01*
X0367211Y0258622D01*
X0367120Y0258604D01*
X0367029Y0258589D01*
X0366937Y0258578D01*
X0366845Y0258571D01*
X0366752Y0258568D01*
X0366660Y0258569D01*
X0366567Y0258574D01*
X0366475Y0258583D01*
X0366383Y0258596D01*
X0366292Y0258612D01*
X0366202Y0258633D01*
X0366113Y0258657D01*
X0366025Y0258686D01*
X0365938Y0258718D01*
X0365853Y0258753D01*
X0365769Y0258793D01*
X0365687Y0258835D01*
X0365607Y0258882D01*
X0365529Y0258931D01*
X0365453Y0258984D01*
X0365379Y0259040D01*
X0365308Y0259100D01*
X0365240Y0259162D01*
X0365174Y0259227D01*
X0365111Y0259295D01*
X0365051Y0259365D01*
X0364994Y0259438D01*
X0364940Y0259513D01*
X0364890Y0259591D01*
X0364843Y0259671D01*
X0364799Y0259752D01*
X0364759Y0259836D01*
X0364722Y0259921D01*
X0364689Y0260007D01*
X0364660Y0260095D01*
X0364635Y0260184D01*
X0364613Y0260274D01*
X0364596Y0260365D01*
X0364582Y0260456D01*
X0364572Y0260548D01*
X0364566Y0260640D01*
X0364564Y0260733D01*
X0374564Y0260733D02*
X0374566Y0260826D01*
X0374572Y0260918D01*
X0374582Y0261010D01*
X0374596Y0261101D01*
X0374613Y0261192D01*
X0374635Y0261282D01*
X0374660Y0261371D01*
X0374689Y0261459D01*
X0374722Y0261545D01*
X0374759Y0261630D01*
X0374799Y0261714D01*
X0374843Y0261795D01*
X0374890Y0261875D01*
X0374940Y0261953D01*
X0374994Y0262028D01*
X0375051Y0262101D01*
X0375111Y0262171D01*
X0375174Y0262239D01*
X0375240Y0262304D01*
X0375308Y0262366D01*
X0375379Y0262426D01*
X0375453Y0262482D01*
X0375529Y0262535D01*
X0375607Y0262584D01*
X0375687Y0262631D01*
X0375769Y0262673D01*
X0375853Y0262713D01*
X0375938Y0262748D01*
X0376025Y0262780D01*
X0376113Y0262809D01*
X0376202Y0262833D01*
X0376292Y0262854D01*
X0376383Y0262870D01*
X0376475Y0262883D01*
X0376567Y0262892D01*
X0376660Y0262897D01*
X0376752Y0262898D01*
X0376845Y0262895D01*
X0376937Y0262888D01*
X0377029Y0262877D01*
X0377120Y0262862D01*
X0377211Y0262844D01*
X0377301Y0262821D01*
X0377389Y0262795D01*
X0377477Y0262765D01*
X0377563Y0262731D01*
X0377647Y0262694D01*
X0377730Y0262652D01*
X0377811Y0262608D01*
X0377891Y0262560D01*
X0377968Y0262509D01*
X0378042Y0262454D01*
X0378115Y0262396D01*
X0378185Y0262336D01*
X0378252Y0262272D01*
X0378316Y0262206D01*
X0378378Y0262136D01*
X0378436Y0262065D01*
X0378491Y0261991D01*
X0378543Y0261914D01*
X0378592Y0261835D01*
X0378638Y0261755D01*
X0378680Y0261672D01*
X0378718Y0261588D01*
X0378753Y0261502D01*
X0378784Y0261415D01*
X0378811Y0261327D01*
X0378834Y0261237D01*
X0378854Y0261147D01*
X0378870Y0261056D01*
X0378882Y0260964D01*
X0378890Y0260872D01*
X0378894Y0260779D01*
X0378894Y0260687D01*
X0378890Y0260594D01*
X0378882Y0260502D01*
X0378870Y0260410D01*
X0378854Y0260319D01*
X0378834Y0260229D01*
X0378811Y0260139D01*
X0378784Y0260051D01*
X0378753Y0259964D01*
X0378718Y0259878D01*
X0378680Y0259794D01*
X0378638Y0259711D01*
X0378592Y0259631D01*
X0378543Y0259552D01*
X0378491Y0259475D01*
X0378436Y0259401D01*
X0378378Y0259330D01*
X0378316Y0259260D01*
X0378252Y0259194D01*
X0378185Y0259130D01*
X0378115Y0259070D01*
X0378042Y0259012D01*
X0377968Y0258957D01*
X0377891Y0258906D01*
X0377812Y0258858D01*
X0377730Y0258814D01*
X0377647Y0258772D01*
X0377563Y0258735D01*
X0377477Y0258701D01*
X0377389Y0258671D01*
X0377301Y0258645D01*
X0377211Y0258622D01*
X0377120Y0258604D01*
X0377029Y0258589D01*
X0376937Y0258578D01*
X0376845Y0258571D01*
X0376752Y0258568D01*
X0376660Y0258569D01*
X0376567Y0258574D01*
X0376475Y0258583D01*
X0376383Y0258596D01*
X0376292Y0258612D01*
X0376202Y0258633D01*
X0376113Y0258657D01*
X0376025Y0258686D01*
X0375938Y0258718D01*
X0375853Y0258753D01*
X0375769Y0258793D01*
X0375687Y0258835D01*
X0375607Y0258882D01*
X0375529Y0258931D01*
X0375453Y0258984D01*
X0375379Y0259040D01*
X0375308Y0259100D01*
X0375240Y0259162D01*
X0375174Y0259227D01*
X0375111Y0259295D01*
X0375051Y0259365D01*
X0374994Y0259438D01*
X0374940Y0259513D01*
X0374890Y0259591D01*
X0374843Y0259671D01*
X0374799Y0259752D01*
X0374759Y0259836D01*
X0374722Y0259921D01*
X0374689Y0260007D01*
X0374660Y0260095D01*
X0374635Y0260184D01*
X0374613Y0260274D01*
X0374596Y0260365D01*
X0374582Y0260456D01*
X0374572Y0260548D01*
X0374566Y0260640D01*
X0374564Y0260733D01*
X0374564Y0270733D02*
X0374566Y0270826D01*
X0374572Y0270918D01*
X0374582Y0271010D01*
X0374596Y0271101D01*
X0374613Y0271192D01*
X0374635Y0271282D01*
X0374660Y0271371D01*
X0374689Y0271459D01*
X0374722Y0271545D01*
X0374759Y0271630D01*
X0374799Y0271714D01*
X0374843Y0271795D01*
X0374890Y0271875D01*
X0374940Y0271953D01*
X0374994Y0272028D01*
X0375051Y0272101D01*
X0375111Y0272171D01*
X0375174Y0272239D01*
X0375240Y0272304D01*
X0375308Y0272366D01*
X0375379Y0272426D01*
X0375453Y0272482D01*
X0375529Y0272535D01*
X0375607Y0272584D01*
X0375687Y0272631D01*
X0375769Y0272673D01*
X0375853Y0272713D01*
X0375938Y0272748D01*
X0376025Y0272780D01*
X0376113Y0272809D01*
X0376202Y0272833D01*
X0376292Y0272854D01*
X0376383Y0272870D01*
X0376475Y0272883D01*
X0376567Y0272892D01*
X0376660Y0272897D01*
X0376752Y0272898D01*
X0376845Y0272895D01*
X0376937Y0272888D01*
X0377029Y0272877D01*
X0377120Y0272862D01*
X0377211Y0272844D01*
X0377301Y0272821D01*
X0377389Y0272795D01*
X0377477Y0272765D01*
X0377563Y0272731D01*
X0377647Y0272694D01*
X0377730Y0272652D01*
X0377811Y0272608D01*
X0377891Y0272560D01*
X0377968Y0272509D01*
X0378042Y0272454D01*
X0378115Y0272396D01*
X0378185Y0272336D01*
X0378252Y0272272D01*
X0378316Y0272206D01*
X0378378Y0272136D01*
X0378436Y0272065D01*
X0378491Y0271991D01*
X0378543Y0271914D01*
X0378592Y0271835D01*
X0378638Y0271755D01*
X0378680Y0271672D01*
X0378718Y0271588D01*
X0378753Y0271502D01*
X0378784Y0271415D01*
X0378811Y0271327D01*
X0378834Y0271237D01*
X0378854Y0271147D01*
X0378870Y0271056D01*
X0378882Y0270964D01*
X0378890Y0270872D01*
X0378894Y0270779D01*
X0378894Y0270687D01*
X0378890Y0270594D01*
X0378882Y0270502D01*
X0378870Y0270410D01*
X0378854Y0270319D01*
X0378834Y0270229D01*
X0378811Y0270139D01*
X0378784Y0270051D01*
X0378753Y0269964D01*
X0378718Y0269878D01*
X0378680Y0269794D01*
X0378638Y0269711D01*
X0378592Y0269631D01*
X0378543Y0269552D01*
X0378491Y0269475D01*
X0378436Y0269401D01*
X0378378Y0269330D01*
X0378316Y0269260D01*
X0378252Y0269194D01*
X0378185Y0269130D01*
X0378115Y0269070D01*
X0378042Y0269012D01*
X0377968Y0268957D01*
X0377891Y0268906D01*
X0377812Y0268858D01*
X0377730Y0268814D01*
X0377647Y0268772D01*
X0377563Y0268735D01*
X0377477Y0268701D01*
X0377389Y0268671D01*
X0377301Y0268645D01*
X0377211Y0268622D01*
X0377120Y0268604D01*
X0377029Y0268589D01*
X0376937Y0268578D01*
X0376845Y0268571D01*
X0376752Y0268568D01*
X0376660Y0268569D01*
X0376567Y0268574D01*
X0376475Y0268583D01*
X0376383Y0268596D01*
X0376292Y0268612D01*
X0376202Y0268633D01*
X0376113Y0268657D01*
X0376025Y0268686D01*
X0375938Y0268718D01*
X0375853Y0268753D01*
X0375769Y0268793D01*
X0375687Y0268835D01*
X0375607Y0268882D01*
X0375529Y0268931D01*
X0375453Y0268984D01*
X0375379Y0269040D01*
X0375308Y0269100D01*
X0375240Y0269162D01*
X0375174Y0269227D01*
X0375111Y0269295D01*
X0375051Y0269365D01*
X0374994Y0269438D01*
X0374940Y0269513D01*
X0374890Y0269591D01*
X0374843Y0269671D01*
X0374799Y0269752D01*
X0374759Y0269836D01*
X0374722Y0269921D01*
X0374689Y0270007D01*
X0374660Y0270095D01*
X0374635Y0270184D01*
X0374613Y0270274D01*
X0374596Y0270365D01*
X0374582Y0270456D01*
X0374572Y0270548D01*
X0374566Y0270640D01*
X0374564Y0270733D01*
X0384564Y0270733D02*
X0384566Y0270826D01*
X0384572Y0270918D01*
X0384582Y0271010D01*
X0384596Y0271101D01*
X0384613Y0271192D01*
X0384635Y0271282D01*
X0384660Y0271371D01*
X0384689Y0271459D01*
X0384722Y0271545D01*
X0384759Y0271630D01*
X0384799Y0271714D01*
X0384843Y0271795D01*
X0384890Y0271875D01*
X0384940Y0271953D01*
X0384994Y0272028D01*
X0385051Y0272101D01*
X0385111Y0272171D01*
X0385174Y0272239D01*
X0385240Y0272304D01*
X0385308Y0272366D01*
X0385379Y0272426D01*
X0385453Y0272482D01*
X0385529Y0272535D01*
X0385607Y0272584D01*
X0385687Y0272631D01*
X0385769Y0272673D01*
X0385853Y0272713D01*
X0385938Y0272748D01*
X0386025Y0272780D01*
X0386113Y0272809D01*
X0386202Y0272833D01*
X0386292Y0272854D01*
X0386383Y0272870D01*
X0386475Y0272883D01*
X0386567Y0272892D01*
X0386660Y0272897D01*
X0386752Y0272898D01*
X0386845Y0272895D01*
X0386937Y0272888D01*
X0387029Y0272877D01*
X0387120Y0272862D01*
X0387211Y0272844D01*
X0387301Y0272821D01*
X0387389Y0272795D01*
X0387477Y0272765D01*
X0387563Y0272731D01*
X0387647Y0272694D01*
X0387730Y0272652D01*
X0387811Y0272608D01*
X0387891Y0272560D01*
X0387968Y0272509D01*
X0388042Y0272454D01*
X0388115Y0272396D01*
X0388185Y0272336D01*
X0388252Y0272272D01*
X0388316Y0272206D01*
X0388378Y0272136D01*
X0388436Y0272065D01*
X0388491Y0271991D01*
X0388543Y0271914D01*
X0388592Y0271835D01*
X0388638Y0271755D01*
X0388680Y0271672D01*
X0388718Y0271588D01*
X0388753Y0271502D01*
X0388784Y0271415D01*
X0388811Y0271327D01*
X0388834Y0271237D01*
X0388854Y0271147D01*
X0388870Y0271056D01*
X0388882Y0270964D01*
X0388890Y0270872D01*
X0388894Y0270779D01*
X0388894Y0270687D01*
X0388890Y0270594D01*
X0388882Y0270502D01*
X0388870Y0270410D01*
X0388854Y0270319D01*
X0388834Y0270229D01*
X0388811Y0270139D01*
X0388784Y0270051D01*
X0388753Y0269964D01*
X0388718Y0269878D01*
X0388680Y0269794D01*
X0388638Y0269711D01*
X0388592Y0269631D01*
X0388543Y0269552D01*
X0388491Y0269475D01*
X0388436Y0269401D01*
X0388378Y0269330D01*
X0388316Y0269260D01*
X0388252Y0269194D01*
X0388185Y0269130D01*
X0388115Y0269070D01*
X0388042Y0269012D01*
X0387968Y0268957D01*
X0387891Y0268906D01*
X0387812Y0268858D01*
X0387730Y0268814D01*
X0387647Y0268772D01*
X0387563Y0268735D01*
X0387477Y0268701D01*
X0387389Y0268671D01*
X0387301Y0268645D01*
X0387211Y0268622D01*
X0387120Y0268604D01*
X0387029Y0268589D01*
X0386937Y0268578D01*
X0386845Y0268571D01*
X0386752Y0268568D01*
X0386660Y0268569D01*
X0386567Y0268574D01*
X0386475Y0268583D01*
X0386383Y0268596D01*
X0386292Y0268612D01*
X0386202Y0268633D01*
X0386113Y0268657D01*
X0386025Y0268686D01*
X0385938Y0268718D01*
X0385853Y0268753D01*
X0385769Y0268793D01*
X0385687Y0268835D01*
X0385607Y0268882D01*
X0385529Y0268931D01*
X0385453Y0268984D01*
X0385379Y0269040D01*
X0385308Y0269100D01*
X0385240Y0269162D01*
X0385174Y0269227D01*
X0385111Y0269295D01*
X0385051Y0269365D01*
X0384994Y0269438D01*
X0384940Y0269513D01*
X0384890Y0269591D01*
X0384843Y0269671D01*
X0384799Y0269752D01*
X0384759Y0269836D01*
X0384722Y0269921D01*
X0384689Y0270007D01*
X0384660Y0270095D01*
X0384635Y0270184D01*
X0384613Y0270274D01*
X0384596Y0270365D01*
X0384582Y0270456D01*
X0384572Y0270548D01*
X0384566Y0270640D01*
X0384564Y0270733D01*
X0384564Y0260733D02*
X0384566Y0260826D01*
X0384572Y0260918D01*
X0384582Y0261010D01*
X0384596Y0261101D01*
X0384613Y0261192D01*
X0384635Y0261282D01*
X0384660Y0261371D01*
X0384689Y0261459D01*
X0384722Y0261545D01*
X0384759Y0261630D01*
X0384799Y0261714D01*
X0384843Y0261795D01*
X0384890Y0261875D01*
X0384940Y0261953D01*
X0384994Y0262028D01*
X0385051Y0262101D01*
X0385111Y0262171D01*
X0385174Y0262239D01*
X0385240Y0262304D01*
X0385308Y0262366D01*
X0385379Y0262426D01*
X0385453Y0262482D01*
X0385529Y0262535D01*
X0385607Y0262584D01*
X0385687Y0262631D01*
X0385769Y0262673D01*
X0385853Y0262713D01*
X0385938Y0262748D01*
X0386025Y0262780D01*
X0386113Y0262809D01*
X0386202Y0262833D01*
X0386292Y0262854D01*
X0386383Y0262870D01*
X0386475Y0262883D01*
X0386567Y0262892D01*
X0386660Y0262897D01*
X0386752Y0262898D01*
X0386845Y0262895D01*
X0386937Y0262888D01*
X0387029Y0262877D01*
X0387120Y0262862D01*
X0387211Y0262844D01*
X0387301Y0262821D01*
X0387389Y0262795D01*
X0387477Y0262765D01*
X0387563Y0262731D01*
X0387647Y0262694D01*
X0387730Y0262652D01*
X0387811Y0262608D01*
X0387891Y0262560D01*
X0387968Y0262509D01*
X0388042Y0262454D01*
X0388115Y0262396D01*
X0388185Y0262336D01*
X0388252Y0262272D01*
X0388316Y0262206D01*
X0388378Y0262136D01*
X0388436Y0262065D01*
X0388491Y0261991D01*
X0388543Y0261914D01*
X0388592Y0261835D01*
X0388638Y0261755D01*
X0388680Y0261672D01*
X0388718Y0261588D01*
X0388753Y0261502D01*
X0388784Y0261415D01*
X0388811Y0261327D01*
X0388834Y0261237D01*
X0388854Y0261147D01*
X0388870Y0261056D01*
X0388882Y0260964D01*
X0388890Y0260872D01*
X0388894Y0260779D01*
X0388894Y0260687D01*
X0388890Y0260594D01*
X0388882Y0260502D01*
X0388870Y0260410D01*
X0388854Y0260319D01*
X0388834Y0260229D01*
X0388811Y0260139D01*
X0388784Y0260051D01*
X0388753Y0259964D01*
X0388718Y0259878D01*
X0388680Y0259794D01*
X0388638Y0259711D01*
X0388592Y0259631D01*
X0388543Y0259552D01*
X0388491Y0259475D01*
X0388436Y0259401D01*
X0388378Y0259330D01*
X0388316Y0259260D01*
X0388252Y0259194D01*
X0388185Y0259130D01*
X0388115Y0259070D01*
X0388042Y0259012D01*
X0387968Y0258957D01*
X0387891Y0258906D01*
X0387812Y0258858D01*
X0387730Y0258814D01*
X0387647Y0258772D01*
X0387563Y0258735D01*
X0387477Y0258701D01*
X0387389Y0258671D01*
X0387301Y0258645D01*
X0387211Y0258622D01*
X0387120Y0258604D01*
X0387029Y0258589D01*
X0386937Y0258578D01*
X0386845Y0258571D01*
X0386752Y0258568D01*
X0386660Y0258569D01*
X0386567Y0258574D01*
X0386475Y0258583D01*
X0386383Y0258596D01*
X0386292Y0258612D01*
X0386202Y0258633D01*
X0386113Y0258657D01*
X0386025Y0258686D01*
X0385938Y0258718D01*
X0385853Y0258753D01*
X0385769Y0258793D01*
X0385687Y0258835D01*
X0385607Y0258882D01*
X0385529Y0258931D01*
X0385453Y0258984D01*
X0385379Y0259040D01*
X0385308Y0259100D01*
X0385240Y0259162D01*
X0385174Y0259227D01*
X0385111Y0259295D01*
X0385051Y0259365D01*
X0384994Y0259438D01*
X0384940Y0259513D01*
X0384890Y0259591D01*
X0384843Y0259671D01*
X0384799Y0259752D01*
X0384759Y0259836D01*
X0384722Y0259921D01*
X0384689Y0260007D01*
X0384660Y0260095D01*
X0384635Y0260184D01*
X0384613Y0260274D01*
X0384596Y0260365D01*
X0384582Y0260456D01*
X0384572Y0260548D01*
X0384566Y0260640D01*
X0384564Y0260733D01*
X0359594Y0136225D02*
X0359596Y0136295D01*
X0359602Y0136364D01*
X0359612Y0136433D01*
X0359625Y0136501D01*
X0359643Y0136568D01*
X0359664Y0136635D01*
X0359689Y0136700D01*
X0359718Y0136763D01*
X0359750Y0136825D01*
X0359786Y0136885D01*
X0359825Y0136942D01*
X0359867Y0136998D01*
X0359912Y0137051D01*
X0359960Y0137101D01*
X0360011Y0137148D01*
X0360065Y0137193D01*
X0360121Y0137234D01*
X0360179Y0137272D01*
X0360239Y0137307D01*
X0360302Y0137339D01*
X0360365Y0137366D01*
X0360431Y0137390D01*
X0360497Y0137411D01*
X0360565Y0137427D01*
X0360633Y0137440D01*
X0360702Y0137449D01*
X0360772Y0137454D01*
X0360841Y0137455D01*
X0360911Y0137452D01*
X0360980Y0137445D01*
X0361049Y0137434D01*
X0361117Y0137420D01*
X0361184Y0137401D01*
X0361250Y0137379D01*
X0361315Y0137353D01*
X0361378Y0137323D01*
X0361439Y0137290D01*
X0361498Y0137254D01*
X0361555Y0137214D01*
X0361610Y0137171D01*
X0361662Y0137125D01*
X0361712Y0137076D01*
X0361759Y0137024D01*
X0361802Y0136970D01*
X0361843Y0136914D01*
X0361880Y0136855D01*
X0361914Y0136794D01*
X0361945Y0136732D01*
X0361972Y0136667D01*
X0361995Y0136602D01*
X0362014Y0136535D01*
X0362030Y0136467D01*
X0362042Y0136398D01*
X0362050Y0136329D01*
X0362054Y0136260D01*
X0362054Y0136190D01*
X0362050Y0136121D01*
X0362042Y0136052D01*
X0362030Y0135983D01*
X0362014Y0135915D01*
X0361995Y0135848D01*
X0361972Y0135783D01*
X0361945Y0135718D01*
X0361914Y0135656D01*
X0361880Y0135595D01*
X0361843Y0135536D01*
X0361802Y0135480D01*
X0361759Y0135426D01*
X0361712Y0135374D01*
X0361662Y0135325D01*
X0361610Y0135279D01*
X0361555Y0135236D01*
X0361498Y0135196D01*
X0361439Y0135160D01*
X0361378Y0135127D01*
X0361315Y0135097D01*
X0361250Y0135071D01*
X0361184Y0135049D01*
X0361117Y0135030D01*
X0361049Y0135016D01*
X0360980Y0135005D01*
X0360911Y0134998D01*
X0360841Y0134995D01*
X0360772Y0134996D01*
X0360702Y0135001D01*
X0360633Y0135010D01*
X0360565Y0135023D01*
X0360497Y0135039D01*
X0360431Y0135060D01*
X0360365Y0135084D01*
X0360302Y0135111D01*
X0360239Y0135143D01*
X0360179Y0135178D01*
X0360121Y0135216D01*
X0360065Y0135257D01*
X0360011Y0135302D01*
X0359960Y0135349D01*
X0359912Y0135399D01*
X0359867Y0135452D01*
X0359825Y0135508D01*
X0359786Y0135565D01*
X0359750Y0135625D01*
X0359718Y0135687D01*
X0359689Y0135750D01*
X0359664Y0135815D01*
X0359643Y0135882D01*
X0359625Y0135949D01*
X0359612Y0136017D01*
X0359602Y0136086D01*
X0359596Y0136155D01*
X0359594Y0136225D01*
X0359594Y0110241D02*
X0359596Y0110311D01*
X0359602Y0110380D01*
X0359612Y0110449D01*
X0359625Y0110517D01*
X0359643Y0110584D01*
X0359664Y0110651D01*
X0359689Y0110716D01*
X0359718Y0110779D01*
X0359750Y0110841D01*
X0359786Y0110901D01*
X0359825Y0110958D01*
X0359867Y0111014D01*
X0359912Y0111067D01*
X0359960Y0111117D01*
X0360011Y0111164D01*
X0360065Y0111209D01*
X0360121Y0111250D01*
X0360179Y0111288D01*
X0360239Y0111323D01*
X0360302Y0111355D01*
X0360365Y0111382D01*
X0360431Y0111406D01*
X0360497Y0111427D01*
X0360565Y0111443D01*
X0360633Y0111456D01*
X0360702Y0111465D01*
X0360772Y0111470D01*
X0360841Y0111471D01*
X0360911Y0111468D01*
X0360980Y0111461D01*
X0361049Y0111450D01*
X0361117Y0111436D01*
X0361184Y0111417D01*
X0361250Y0111395D01*
X0361315Y0111369D01*
X0361378Y0111339D01*
X0361439Y0111306D01*
X0361498Y0111270D01*
X0361555Y0111230D01*
X0361610Y0111187D01*
X0361662Y0111141D01*
X0361712Y0111092D01*
X0361759Y0111040D01*
X0361802Y0110986D01*
X0361843Y0110930D01*
X0361880Y0110871D01*
X0361914Y0110810D01*
X0361945Y0110748D01*
X0361972Y0110683D01*
X0361995Y0110618D01*
X0362014Y0110551D01*
X0362030Y0110483D01*
X0362042Y0110414D01*
X0362050Y0110345D01*
X0362054Y0110276D01*
X0362054Y0110206D01*
X0362050Y0110137D01*
X0362042Y0110068D01*
X0362030Y0109999D01*
X0362014Y0109931D01*
X0361995Y0109864D01*
X0361972Y0109799D01*
X0361945Y0109734D01*
X0361914Y0109672D01*
X0361880Y0109611D01*
X0361843Y0109552D01*
X0361802Y0109496D01*
X0361759Y0109442D01*
X0361712Y0109390D01*
X0361662Y0109341D01*
X0361610Y0109295D01*
X0361555Y0109252D01*
X0361498Y0109212D01*
X0361439Y0109176D01*
X0361378Y0109143D01*
X0361315Y0109113D01*
X0361250Y0109087D01*
X0361184Y0109065D01*
X0361117Y0109046D01*
X0361049Y0109032D01*
X0360980Y0109021D01*
X0360911Y0109014D01*
X0360841Y0109011D01*
X0360772Y0109012D01*
X0360702Y0109017D01*
X0360633Y0109026D01*
X0360565Y0109039D01*
X0360497Y0109055D01*
X0360431Y0109076D01*
X0360365Y0109100D01*
X0360302Y0109127D01*
X0360239Y0109159D01*
X0360179Y0109194D01*
X0360121Y0109232D01*
X0360065Y0109273D01*
X0360011Y0109318D01*
X0359960Y0109365D01*
X0359912Y0109415D01*
X0359867Y0109468D01*
X0359825Y0109524D01*
X0359786Y0109581D01*
X0359750Y0109641D01*
X0359718Y0109703D01*
X0359689Y0109766D01*
X0359664Y0109831D01*
X0359643Y0109898D01*
X0359625Y0109965D01*
X0359612Y0110033D01*
X0359602Y0110102D01*
X0359596Y0110171D01*
X0359594Y0110241D01*
X0354564Y0095733D02*
X0354566Y0095826D01*
X0354572Y0095918D01*
X0354582Y0096010D01*
X0354596Y0096101D01*
X0354613Y0096192D01*
X0354635Y0096282D01*
X0354660Y0096371D01*
X0354689Y0096459D01*
X0354722Y0096545D01*
X0354759Y0096630D01*
X0354799Y0096714D01*
X0354843Y0096795D01*
X0354890Y0096875D01*
X0354940Y0096953D01*
X0354994Y0097028D01*
X0355051Y0097101D01*
X0355111Y0097171D01*
X0355174Y0097239D01*
X0355240Y0097304D01*
X0355308Y0097366D01*
X0355379Y0097426D01*
X0355453Y0097482D01*
X0355529Y0097535D01*
X0355607Y0097584D01*
X0355687Y0097631D01*
X0355769Y0097673D01*
X0355853Y0097713D01*
X0355938Y0097748D01*
X0356025Y0097780D01*
X0356113Y0097809D01*
X0356202Y0097833D01*
X0356292Y0097854D01*
X0356383Y0097870D01*
X0356475Y0097883D01*
X0356567Y0097892D01*
X0356660Y0097897D01*
X0356752Y0097898D01*
X0356845Y0097895D01*
X0356937Y0097888D01*
X0357029Y0097877D01*
X0357120Y0097862D01*
X0357211Y0097844D01*
X0357301Y0097821D01*
X0357389Y0097795D01*
X0357477Y0097765D01*
X0357563Y0097731D01*
X0357647Y0097694D01*
X0357730Y0097652D01*
X0357811Y0097608D01*
X0357891Y0097560D01*
X0357968Y0097509D01*
X0358042Y0097454D01*
X0358115Y0097396D01*
X0358185Y0097336D01*
X0358252Y0097272D01*
X0358316Y0097206D01*
X0358378Y0097136D01*
X0358436Y0097065D01*
X0358491Y0096991D01*
X0358543Y0096914D01*
X0358592Y0096835D01*
X0358638Y0096755D01*
X0358680Y0096672D01*
X0358718Y0096588D01*
X0358753Y0096502D01*
X0358784Y0096415D01*
X0358811Y0096327D01*
X0358834Y0096237D01*
X0358854Y0096147D01*
X0358870Y0096056D01*
X0358882Y0095964D01*
X0358890Y0095872D01*
X0358894Y0095779D01*
X0358894Y0095687D01*
X0358890Y0095594D01*
X0358882Y0095502D01*
X0358870Y0095410D01*
X0358854Y0095319D01*
X0358834Y0095229D01*
X0358811Y0095139D01*
X0358784Y0095051D01*
X0358753Y0094964D01*
X0358718Y0094878D01*
X0358680Y0094794D01*
X0358638Y0094711D01*
X0358592Y0094631D01*
X0358543Y0094552D01*
X0358491Y0094475D01*
X0358436Y0094401D01*
X0358378Y0094330D01*
X0358316Y0094260D01*
X0358252Y0094194D01*
X0358185Y0094130D01*
X0358115Y0094070D01*
X0358042Y0094012D01*
X0357968Y0093957D01*
X0357891Y0093906D01*
X0357812Y0093858D01*
X0357730Y0093814D01*
X0357647Y0093772D01*
X0357563Y0093735D01*
X0357477Y0093701D01*
X0357389Y0093671D01*
X0357301Y0093645D01*
X0357211Y0093622D01*
X0357120Y0093604D01*
X0357029Y0093589D01*
X0356937Y0093578D01*
X0356845Y0093571D01*
X0356752Y0093568D01*
X0356660Y0093569D01*
X0356567Y0093574D01*
X0356475Y0093583D01*
X0356383Y0093596D01*
X0356292Y0093612D01*
X0356202Y0093633D01*
X0356113Y0093657D01*
X0356025Y0093686D01*
X0355938Y0093718D01*
X0355853Y0093753D01*
X0355769Y0093793D01*
X0355687Y0093835D01*
X0355607Y0093882D01*
X0355529Y0093931D01*
X0355453Y0093984D01*
X0355379Y0094040D01*
X0355308Y0094100D01*
X0355240Y0094162D01*
X0355174Y0094227D01*
X0355111Y0094295D01*
X0355051Y0094365D01*
X0354994Y0094438D01*
X0354940Y0094513D01*
X0354890Y0094591D01*
X0354843Y0094671D01*
X0354799Y0094752D01*
X0354759Y0094836D01*
X0354722Y0094921D01*
X0354689Y0095007D01*
X0354660Y0095095D01*
X0354635Y0095184D01*
X0354613Y0095274D01*
X0354596Y0095365D01*
X0354582Y0095456D01*
X0354572Y0095548D01*
X0354566Y0095640D01*
X0354564Y0095733D01*
X0344810Y0090733D02*
X0344812Y0090808D01*
X0344818Y0090883D01*
X0344828Y0090958D01*
X0344842Y0091032D01*
X0344859Y0091105D01*
X0344881Y0091178D01*
X0344906Y0091248D01*
X0344935Y0091318D01*
X0344968Y0091386D01*
X0345004Y0091452D01*
X0345044Y0091516D01*
X0345087Y0091578D01*
X0345133Y0091637D01*
X0345182Y0091694D01*
X0345235Y0091749D01*
X0345290Y0091800D01*
X0345347Y0091849D01*
X0345407Y0091894D01*
X0345470Y0091936D01*
X0345534Y0091975D01*
X0345601Y0092010D01*
X0345669Y0092042D01*
X0345739Y0092070D01*
X0345810Y0092095D01*
X0345883Y0092115D01*
X0345956Y0092132D01*
X0346031Y0092145D01*
X0346105Y0092154D01*
X0346181Y0092159D01*
X0346256Y0092160D01*
X0346331Y0092157D01*
X0346406Y0092150D01*
X0346481Y0092139D01*
X0346555Y0092124D01*
X0346628Y0092106D01*
X0346699Y0092083D01*
X0346770Y0092057D01*
X0346839Y0092027D01*
X0346907Y0091993D01*
X0346972Y0091956D01*
X0347036Y0091916D01*
X0347097Y0091872D01*
X0347156Y0091825D01*
X0347212Y0091775D01*
X0347266Y0091722D01*
X0347317Y0091666D01*
X0347364Y0091608D01*
X0347409Y0091547D01*
X0347450Y0091484D01*
X0347488Y0091419D01*
X0347523Y0091352D01*
X0347554Y0091283D01*
X0347581Y0091213D01*
X0347604Y0091142D01*
X0347624Y0091069D01*
X0347640Y0090995D01*
X0347652Y0090921D01*
X0347660Y0090846D01*
X0347664Y0090771D01*
X0347664Y0090695D01*
X0347660Y0090620D01*
X0347652Y0090545D01*
X0347640Y0090471D01*
X0347624Y0090397D01*
X0347604Y0090324D01*
X0347581Y0090253D01*
X0347554Y0090183D01*
X0347523Y0090114D01*
X0347488Y0090047D01*
X0347450Y0089982D01*
X0347409Y0089919D01*
X0347364Y0089858D01*
X0347317Y0089800D01*
X0347266Y0089744D01*
X0347212Y0089691D01*
X0347156Y0089641D01*
X0347097Y0089594D01*
X0347036Y0089550D01*
X0346972Y0089510D01*
X0346907Y0089473D01*
X0346839Y0089439D01*
X0346770Y0089409D01*
X0346699Y0089383D01*
X0346628Y0089360D01*
X0346555Y0089342D01*
X0346481Y0089327D01*
X0346406Y0089316D01*
X0346331Y0089309D01*
X0346256Y0089306D01*
X0346181Y0089307D01*
X0346105Y0089312D01*
X0346031Y0089321D01*
X0345956Y0089334D01*
X0345883Y0089351D01*
X0345810Y0089371D01*
X0345739Y0089396D01*
X0345669Y0089424D01*
X0345601Y0089456D01*
X0345534Y0089491D01*
X0345470Y0089530D01*
X0345407Y0089572D01*
X0345347Y0089617D01*
X0345290Y0089666D01*
X0345235Y0089717D01*
X0345182Y0089772D01*
X0345133Y0089829D01*
X0345087Y0089888D01*
X0345044Y0089950D01*
X0345004Y0090014D01*
X0344968Y0090080D01*
X0344935Y0090148D01*
X0344906Y0090218D01*
X0344881Y0090288D01*
X0344859Y0090361D01*
X0344842Y0090434D01*
X0344828Y0090508D01*
X0344818Y0090583D01*
X0344812Y0090658D01*
X0344810Y0090733D01*
X0344812Y0090808D01*
X0344818Y0090883D01*
X0344828Y0090958D01*
X0344842Y0091032D01*
X0344859Y0091105D01*
X0344881Y0091178D01*
X0344906Y0091248D01*
X0344935Y0091318D01*
X0344968Y0091386D01*
X0345004Y0091452D01*
X0345044Y0091516D01*
X0345087Y0091578D01*
X0345133Y0091637D01*
X0345182Y0091694D01*
X0345235Y0091749D01*
X0345290Y0091800D01*
X0345347Y0091849D01*
X0345407Y0091894D01*
X0345470Y0091936D01*
X0345534Y0091975D01*
X0345601Y0092010D01*
X0345669Y0092042D01*
X0345739Y0092070D01*
X0345810Y0092095D01*
X0345883Y0092115D01*
X0345956Y0092132D01*
X0346031Y0092145D01*
X0346105Y0092154D01*
X0346181Y0092159D01*
X0346256Y0092160D01*
X0346331Y0092157D01*
X0346406Y0092150D01*
X0346481Y0092139D01*
X0346555Y0092124D01*
X0346628Y0092106D01*
X0346699Y0092083D01*
X0346770Y0092057D01*
X0346839Y0092027D01*
X0346907Y0091993D01*
X0346972Y0091956D01*
X0347036Y0091916D01*
X0347097Y0091872D01*
X0347156Y0091825D01*
X0347212Y0091775D01*
X0347266Y0091722D01*
X0347317Y0091666D01*
X0347364Y0091608D01*
X0347409Y0091547D01*
X0347450Y0091484D01*
X0347488Y0091419D01*
X0347523Y0091352D01*
X0347554Y0091283D01*
X0347581Y0091213D01*
X0347604Y0091142D01*
X0347624Y0091069D01*
X0347640Y0090995D01*
X0347652Y0090921D01*
X0347660Y0090846D01*
X0347664Y0090771D01*
X0347664Y0090695D01*
X0347660Y0090620D01*
X0347652Y0090545D01*
X0347640Y0090471D01*
X0347624Y0090397D01*
X0347604Y0090324D01*
X0347581Y0090253D01*
X0347554Y0090183D01*
X0347523Y0090114D01*
X0347488Y0090047D01*
X0347450Y0089982D01*
X0347409Y0089919D01*
X0347364Y0089858D01*
X0347317Y0089800D01*
X0347266Y0089744D01*
X0347212Y0089691D01*
X0347156Y0089641D01*
X0347097Y0089594D01*
X0347036Y0089550D01*
X0346972Y0089510D01*
X0346907Y0089473D01*
X0346839Y0089439D01*
X0346770Y0089409D01*
X0346699Y0089383D01*
X0346628Y0089360D01*
X0346555Y0089342D01*
X0346481Y0089327D01*
X0346406Y0089316D01*
X0346331Y0089309D01*
X0346256Y0089306D01*
X0346181Y0089307D01*
X0346105Y0089312D01*
X0346031Y0089321D01*
X0345956Y0089334D01*
X0345883Y0089351D01*
X0345810Y0089371D01*
X0345739Y0089396D01*
X0345669Y0089424D01*
X0345601Y0089456D01*
X0345534Y0089491D01*
X0345470Y0089530D01*
X0345407Y0089572D01*
X0345347Y0089617D01*
X0345290Y0089666D01*
X0345235Y0089717D01*
X0345182Y0089772D01*
X0345133Y0089829D01*
X0345087Y0089888D01*
X0345044Y0089950D01*
X0345004Y0090014D01*
X0344968Y0090080D01*
X0344935Y0090148D01*
X0344906Y0090218D01*
X0344881Y0090288D01*
X0344859Y0090361D01*
X0344842Y0090434D01*
X0344828Y0090508D01*
X0344818Y0090583D01*
X0344812Y0090658D01*
X0344810Y0090733D01*
X0344812Y0090808D01*
X0344818Y0090883D01*
X0344828Y0090958D01*
X0344842Y0091032D01*
X0344859Y0091105D01*
X0344881Y0091178D01*
X0344906Y0091248D01*
X0344935Y0091318D01*
X0344968Y0091386D01*
X0345004Y0091452D01*
X0345044Y0091516D01*
X0345087Y0091578D01*
X0345133Y0091637D01*
X0345182Y0091694D01*
X0345235Y0091749D01*
X0345290Y0091800D01*
X0345347Y0091849D01*
X0345407Y0091894D01*
X0345470Y0091936D01*
X0345534Y0091975D01*
X0345601Y0092010D01*
X0345669Y0092042D01*
X0345739Y0092070D01*
X0345810Y0092095D01*
X0345883Y0092115D01*
X0345956Y0092132D01*
X0346031Y0092145D01*
X0346105Y0092154D01*
X0346181Y0092159D01*
X0346256Y0092160D01*
X0346331Y0092157D01*
X0346406Y0092150D01*
X0346481Y0092139D01*
X0346555Y0092124D01*
X0346628Y0092106D01*
X0346699Y0092083D01*
X0346770Y0092057D01*
X0346839Y0092027D01*
X0346907Y0091993D01*
X0346972Y0091956D01*
X0347036Y0091916D01*
X0347097Y0091872D01*
X0347156Y0091825D01*
X0347212Y0091775D01*
X0347266Y0091722D01*
X0347317Y0091666D01*
X0347364Y0091608D01*
X0347409Y0091547D01*
X0347450Y0091484D01*
X0347488Y0091419D01*
X0347523Y0091352D01*
X0347554Y0091283D01*
X0347581Y0091213D01*
X0347604Y0091142D01*
X0347624Y0091069D01*
X0347640Y0090995D01*
X0347652Y0090921D01*
X0347660Y0090846D01*
X0347664Y0090771D01*
X0347664Y0090695D01*
X0347660Y0090620D01*
X0347652Y0090545D01*
X0347640Y0090471D01*
X0347624Y0090397D01*
X0347604Y0090324D01*
X0347581Y0090253D01*
X0347554Y0090183D01*
X0347523Y0090114D01*
X0347488Y0090047D01*
X0347450Y0089982D01*
X0347409Y0089919D01*
X0347364Y0089858D01*
X0347317Y0089800D01*
X0347266Y0089744D01*
X0347212Y0089691D01*
X0347156Y0089641D01*
X0347097Y0089594D01*
X0347036Y0089550D01*
X0346972Y0089510D01*
X0346907Y0089473D01*
X0346839Y0089439D01*
X0346770Y0089409D01*
X0346699Y0089383D01*
X0346628Y0089360D01*
X0346555Y0089342D01*
X0346481Y0089327D01*
X0346406Y0089316D01*
X0346331Y0089309D01*
X0346256Y0089306D01*
X0346181Y0089307D01*
X0346105Y0089312D01*
X0346031Y0089321D01*
X0345956Y0089334D01*
X0345883Y0089351D01*
X0345810Y0089371D01*
X0345739Y0089396D01*
X0345669Y0089424D01*
X0345601Y0089456D01*
X0345534Y0089491D01*
X0345470Y0089530D01*
X0345407Y0089572D01*
X0345347Y0089617D01*
X0345290Y0089666D01*
X0345235Y0089717D01*
X0345182Y0089772D01*
X0345133Y0089829D01*
X0345087Y0089888D01*
X0345044Y0089950D01*
X0345004Y0090014D01*
X0344968Y0090080D01*
X0344935Y0090148D01*
X0344906Y0090218D01*
X0344881Y0090288D01*
X0344859Y0090361D01*
X0344842Y0090434D01*
X0344828Y0090508D01*
X0344818Y0090583D01*
X0344812Y0090658D01*
X0344810Y0090733D01*
X0344812Y0090808D01*
X0344818Y0090883D01*
X0344828Y0090958D01*
X0344842Y0091032D01*
X0344859Y0091105D01*
X0344881Y0091178D01*
X0344906Y0091248D01*
X0344935Y0091318D01*
X0344968Y0091386D01*
X0345004Y0091452D01*
X0345044Y0091516D01*
X0345087Y0091578D01*
X0345133Y0091637D01*
X0345182Y0091694D01*
X0345235Y0091749D01*
X0345290Y0091800D01*
X0345347Y0091849D01*
X0345407Y0091894D01*
X0345470Y0091936D01*
X0345534Y0091975D01*
X0345601Y0092010D01*
X0345669Y0092042D01*
X0345739Y0092070D01*
X0345810Y0092095D01*
X0345883Y0092115D01*
X0345956Y0092132D01*
X0346031Y0092145D01*
X0346105Y0092154D01*
X0346181Y0092159D01*
X0346256Y0092160D01*
X0346331Y0092157D01*
X0346406Y0092150D01*
X0346481Y0092139D01*
X0346555Y0092124D01*
X0346628Y0092106D01*
X0346699Y0092083D01*
X0346770Y0092057D01*
X0346839Y0092027D01*
X0346907Y0091993D01*
X0346972Y0091956D01*
X0347036Y0091916D01*
X0347097Y0091872D01*
X0347156Y0091825D01*
X0347212Y0091775D01*
X0347266Y0091722D01*
X0347317Y0091666D01*
X0347364Y0091608D01*
X0347409Y0091547D01*
X0347450Y0091484D01*
X0347488Y0091419D01*
X0347523Y0091352D01*
X0347554Y0091283D01*
X0347581Y0091213D01*
X0347604Y0091142D01*
X0347624Y0091069D01*
X0347640Y0090995D01*
X0347652Y0090921D01*
X0347660Y0090846D01*
X0347664Y0090771D01*
X0347664Y0090695D01*
X0347660Y0090620D01*
X0347652Y0090545D01*
X0347640Y0090471D01*
X0347624Y0090397D01*
X0347604Y0090324D01*
X0347581Y0090253D01*
X0347554Y0090183D01*
X0347523Y0090114D01*
X0347488Y0090047D01*
X0347450Y0089982D01*
X0347409Y0089919D01*
X0347364Y0089858D01*
X0347317Y0089800D01*
X0347266Y0089744D01*
X0347212Y0089691D01*
X0347156Y0089641D01*
X0347097Y0089594D01*
X0347036Y0089550D01*
X0346972Y0089510D01*
X0346907Y0089473D01*
X0346839Y0089439D01*
X0346770Y0089409D01*
X0346699Y0089383D01*
X0346628Y0089360D01*
X0346555Y0089342D01*
X0346481Y0089327D01*
X0346406Y0089316D01*
X0346331Y0089309D01*
X0346256Y0089306D01*
X0346181Y0089307D01*
X0346105Y0089312D01*
X0346031Y0089321D01*
X0345956Y0089334D01*
X0345883Y0089351D01*
X0345810Y0089371D01*
X0345739Y0089396D01*
X0345669Y0089424D01*
X0345601Y0089456D01*
X0345534Y0089491D01*
X0345470Y0089530D01*
X0345407Y0089572D01*
X0345347Y0089617D01*
X0345290Y0089666D01*
X0345235Y0089717D01*
X0345182Y0089772D01*
X0345133Y0089829D01*
X0345087Y0089888D01*
X0345044Y0089950D01*
X0345004Y0090014D01*
X0344968Y0090080D01*
X0344935Y0090148D01*
X0344906Y0090218D01*
X0344881Y0090288D01*
X0344859Y0090361D01*
X0344842Y0090434D01*
X0344828Y0090508D01*
X0344818Y0090583D01*
X0344812Y0090658D01*
X0344810Y0090733D01*
X0354564Y0085733D02*
X0354566Y0085826D01*
X0354572Y0085918D01*
X0354582Y0086010D01*
X0354596Y0086101D01*
X0354613Y0086192D01*
X0354635Y0086282D01*
X0354660Y0086371D01*
X0354689Y0086459D01*
X0354722Y0086545D01*
X0354759Y0086630D01*
X0354799Y0086714D01*
X0354843Y0086795D01*
X0354890Y0086875D01*
X0354940Y0086953D01*
X0354994Y0087028D01*
X0355051Y0087101D01*
X0355111Y0087171D01*
X0355174Y0087239D01*
X0355240Y0087304D01*
X0355308Y0087366D01*
X0355379Y0087426D01*
X0355453Y0087482D01*
X0355529Y0087535D01*
X0355607Y0087584D01*
X0355687Y0087631D01*
X0355769Y0087673D01*
X0355853Y0087713D01*
X0355938Y0087748D01*
X0356025Y0087780D01*
X0356113Y0087809D01*
X0356202Y0087833D01*
X0356292Y0087854D01*
X0356383Y0087870D01*
X0356475Y0087883D01*
X0356567Y0087892D01*
X0356660Y0087897D01*
X0356752Y0087898D01*
X0356845Y0087895D01*
X0356937Y0087888D01*
X0357029Y0087877D01*
X0357120Y0087862D01*
X0357211Y0087844D01*
X0357301Y0087821D01*
X0357389Y0087795D01*
X0357477Y0087765D01*
X0357563Y0087731D01*
X0357647Y0087694D01*
X0357730Y0087652D01*
X0357811Y0087608D01*
X0357891Y0087560D01*
X0357968Y0087509D01*
X0358042Y0087454D01*
X0358115Y0087396D01*
X0358185Y0087336D01*
X0358252Y0087272D01*
X0358316Y0087206D01*
X0358378Y0087136D01*
X0358436Y0087065D01*
X0358491Y0086991D01*
X0358543Y0086914D01*
X0358592Y0086835D01*
X0358638Y0086755D01*
X0358680Y0086672D01*
X0358718Y0086588D01*
X0358753Y0086502D01*
X0358784Y0086415D01*
X0358811Y0086327D01*
X0358834Y0086237D01*
X0358854Y0086147D01*
X0358870Y0086056D01*
X0358882Y0085964D01*
X0358890Y0085872D01*
X0358894Y0085779D01*
X0358894Y0085687D01*
X0358890Y0085594D01*
X0358882Y0085502D01*
X0358870Y0085410D01*
X0358854Y0085319D01*
X0358834Y0085229D01*
X0358811Y0085139D01*
X0358784Y0085051D01*
X0358753Y0084964D01*
X0358718Y0084878D01*
X0358680Y0084794D01*
X0358638Y0084711D01*
X0358592Y0084631D01*
X0358543Y0084552D01*
X0358491Y0084475D01*
X0358436Y0084401D01*
X0358378Y0084330D01*
X0358316Y0084260D01*
X0358252Y0084194D01*
X0358185Y0084130D01*
X0358115Y0084070D01*
X0358042Y0084012D01*
X0357968Y0083957D01*
X0357891Y0083906D01*
X0357812Y0083858D01*
X0357730Y0083814D01*
X0357647Y0083772D01*
X0357563Y0083735D01*
X0357477Y0083701D01*
X0357389Y0083671D01*
X0357301Y0083645D01*
X0357211Y0083622D01*
X0357120Y0083604D01*
X0357029Y0083589D01*
X0356937Y0083578D01*
X0356845Y0083571D01*
X0356752Y0083568D01*
X0356660Y0083569D01*
X0356567Y0083574D01*
X0356475Y0083583D01*
X0356383Y0083596D01*
X0356292Y0083612D01*
X0356202Y0083633D01*
X0356113Y0083657D01*
X0356025Y0083686D01*
X0355938Y0083718D01*
X0355853Y0083753D01*
X0355769Y0083793D01*
X0355687Y0083835D01*
X0355607Y0083882D01*
X0355529Y0083931D01*
X0355453Y0083984D01*
X0355379Y0084040D01*
X0355308Y0084100D01*
X0355240Y0084162D01*
X0355174Y0084227D01*
X0355111Y0084295D01*
X0355051Y0084365D01*
X0354994Y0084438D01*
X0354940Y0084513D01*
X0354890Y0084591D01*
X0354843Y0084671D01*
X0354799Y0084752D01*
X0354759Y0084836D01*
X0354722Y0084921D01*
X0354689Y0085007D01*
X0354660Y0085095D01*
X0354635Y0085184D01*
X0354613Y0085274D01*
X0354596Y0085365D01*
X0354582Y0085456D01*
X0354572Y0085548D01*
X0354566Y0085640D01*
X0354564Y0085733D01*
X0364564Y0085733D02*
X0364566Y0085826D01*
X0364572Y0085918D01*
X0364582Y0086010D01*
X0364596Y0086101D01*
X0364613Y0086192D01*
X0364635Y0086282D01*
X0364660Y0086371D01*
X0364689Y0086459D01*
X0364722Y0086545D01*
X0364759Y0086630D01*
X0364799Y0086714D01*
X0364843Y0086795D01*
X0364890Y0086875D01*
X0364940Y0086953D01*
X0364994Y0087028D01*
X0365051Y0087101D01*
X0365111Y0087171D01*
X0365174Y0087239D01*
X0365240Y0087304D01*
X0365308Y0087366D01*
X0365379Y0087426D01*
X0365453Y0087482D01*
X0365529Y0087535D01*
X0365607Y0087584D01*
X0365687Y0087631D01*
X0365769Y0087673D01*
X0365853Y0087713D01*
X0365938Y0087748D01*
X0366025Y0087780D01*
X0366113Y0087809D01*
X0366202Y0087833D01*
X0366292Y0087854D01*
X0366383Y0087870D01*
X0366475Y0087883D01*
X0366567Y0087892D01*
X0366660Y0087897D01*
X0366752Y0087898D01*
X0366845Y0087895D01*
X0366937Y0087888D01*
X0367029Y0087877D01*
X0367120Y0087862D01*
X0367211Y0087844D01*
X0367301Y0087821D01*
X0367389Y0087795D01*
X0367477Y0087765D01*
X0367563Y0087731D01*
X0367647Y0087694D01*
X0367730Y0087652D01*
X0367811Y0087608D01*
X0367891Y0087560D01*
X0367968Y0087509D01*
X0368042Y0087454D01*
X0368115Y0087396D01*
X0368185Y0087336D01*
X0368252Y0087272D01*
X0368316Y0087206D01*
X0368378Y0087136D01*
X0368436Y0087065D01*
X0368491Y0086991D01*
X0368543Y0086914D01*
X0368592Y0086835D01*
X0368638Y0086755D01*
X0368680Y0086672D01*
X0368718Y0086588D01*
X0368753Y0086502D01*
X0368784Y0086415D01*
X0368811Y0086327D01*
X0368834Y0086237D01*
X0368854Y0086147D01*
X0368870Y0086056D01*
X0368882Y0085964D01*
X0368890Y0085872D01*
X0368894Y0085779D01*
X0368894Y0085687D01*
X0368890Y0085594D01*
X0368882Y0085502D01*
X0368870Y0085410D01*
X0368854Y0085319D01*
X0368834Y0085229D01*
X0368811Y0085139D01*
X0368784Y0085051D01*
X0368753Y0084964D01*
X0368718Y0084878D01*
X0368680Y0084794D01*
X0368638Y0084711D01*
X0368592Y0084631D01*
X0368543Y0084552D01*
X0368491Y0084475D01*
X0368436Y0084401D01*
X0368378Y0084330D01*
X0368316Y0084260D01*
X0368252Y0084194D01*
X0368185Y0084130D01*
X0368115Y0084070D01*
X0368042Y0084012D01*
X0367968Y0083957D01*
X0367891Y0083906D01*
X0367812Y0083858D01*
X0367730Y0083814D01*
X0367647Y0083772D01*
X0367563Y0083735D01*
X0367477Y0083701D01*
X0367389Y0083671D01*
X0367301Y0083645D01*
X0367211Y0083622D01*
X0367120Y0083604D01*
X0367029Y0083589D01*
X0366937Y0083578D01*
X0366845Y0083571D01*
X0366752Y0083568D01*
X0366660Y0083569D01*
X0366567Y0083574D01*
X0366475Y0083583D01*
X0366383Y0083596D01*
X0366292Y0083612D01*
X0366202Y0083633D01*
X0366113Y0083657D01*
X0366025Y0083686D01*
X0365938Y0083718D01*
X0365853Y0083753D01*
X0365769Y0083793D01*
X0365687Y0083835D01*
X0365607Y0083882D01*
X0365529Y0083931D01*
X0365453Y0083984D01*
X0365379Y0084040D01*
X0365308Y0084100D01*
X0365240Y0084162D01*
X0365174Y0084227D01*
X0365111Y0084295D01*
X0365051Y0084365D01*
X0364994Y0084438D01*
X0364940Y0084513D01*
X0364890Y0084591D01*
X0364843Y0084671D01*
X0364799Y0084752D01*
X0364759Y0084836D01*
X0364722Y0084921D01*
X0364689Y0085007D01*
X0364660Y0085095D01*
X0364635Y0085184D01*
X0364613Y0085274D01*
X0364596Y0085365D01*
X0364582Y0085456D01*
X0364572Y0085548D01*
X0364566Y0085640D01*
X0364564Y0085733D01*
X0364564Y0095733D02*
X0364566Y0095826D01*
X0364572Y0095918D01*
X0364582Y0096010D01*
X0364596Y0096101D01*
X0364613Y0096192D01*
X0364635Y0096282D01*
X0364660Y0096371D01*
X0364689Y0096459D01*
X0364722Y0096545D01*
X0364759Y0096630D01*
X0364799Y0096714D01*
X0364843Y0096795D01*
X0364890Y0096875D01*
X0364940Y0096953D01*
X0364994Y0097028D01*
X0365051Y0097101D01*
X0365111Y0097171D01*
X0365174Y0097239D01*
X0365240Y0097304D01*
X0365308Y0097366D01*
X0365379Y0097426D01*
X0365453Y0097482D01*
X0365529Y0097535D01*
X0365607Y0097584D01*
X0365687Y0097631D01*
X0365769Y0097673D01*
X0365853Y0097713D01*
X0365938Y0097748D01*
X0366025Y0097780D01*
X0366113Y0097809D01*
X0366202Y0097833D01*
X0366292Y0097854D01*
X0366383Y0097870D01*
X0366475Y0097883D01*
X0366567Y0097892D01*
X0366660Y0097897D01*
X0366752Y0097898D01*
X0366845Y0097895D01*
X0366937Y0097888D01*
X0367029Y0097877D01*
X0367120Y0097862D01*
X0367211Y0097844D01*
X0367301Y0097821D01*
X0367389Y0097795D01*
X0367477Y0097765D01*
X0367563Y0097731D01*
X0367647Y0097694D01*
X0367730Y0097652D01*
X0367811Y0097608D01*
X0367891Y0097560D01*
X0367968Y0097509D01*
X0368042Y0097454D01*
X0368115Y0097396D01*
X0368185Y0097336D01*
X0368252Y0097272D01*
X0368316Y0097206D01*
X0368378Y0097136D01*
X0368436Y0097065D01*
X0368491Y0096991D01*
X0368543Y0096914D01*
X0368592Y0096835D01*
X0368638Y0096755D01*
X0368680Y0096672D01*
X0368718Y0096588D01*
X0368753Y0096502D01*
X0368784Y0096415D01*
X0368811Y0096327D01*
X0368834Y0096237D01*
X0368854Y0096147D01*
X0368870Y0096056D01*
X0368882Y0095964D01*
X0368890Y0095872D01*
X0368894Y0095779D01*
X0368894Y0095687D01*
X0368890Y0095594D01*
X0368882Y0095502D01*
X0368870Y0095410D01*
X0368854Y0095319D01*
X0368834Y0095229D01*
X0368811Y0095139D01*
X0368784Y0095051D01*
X0368753Y0094964D01*
X0368718Y0094878D01*
X0368680Y0094794D01*
X0368638Y0094711D01*
X0368592Y0094631D01*
X0368543Y0094552D01*
X0368491Y0094475D01*
X0368436Y0094401D01*
X0368378Y0094330D01*
X0368316Y0094260D01*
X0368252Y0094194D01*
X0368185Y0094130D01*
X0368115Y0094070D01*
X0368042Y0094012D01*
X0367968Y0093957D01*
X0367891Y0093906D01*
X0367812Y0093858D01*
X0367730Y0093814D01*
X0367647Y0093772D01*
X0367563Y0093735D01*
X0367477Y0093701D01*
X0367389Y0093671D01*
X0367301Y0093645D01*
X0367211Y0093622D01*
X0367120Y0093604D01*
X0367029Y0093589D01*
X0366937Y0093578D01*
X0366845Y0093571D01*
X0366752Y0093568D01*
X0366660Y0093569D01*
X0366567Y0093574D01*
X0366475Y0093583D01*
X0366383Y0093596D01*
X0366292Y0093612D01*
X0366202Y0093633D01*
X0366113Y0093657D01*
X0366025Y0093686D01*
X0365938Y0093718D01*
X0365853Y0093753D01*
X0365769Y0093793D01*
X0365687Y0093835D01*
X0365607Y0093882D01*
X0365529Y0093931D01*
X0365453Y0093984D01*
X0365379Y0094040D01*
X0365308Y0094100D01*
X0365240Y0094162D01*
X0365174Y0094227D01*
X0365111Y0094295D01*
X0365051Y0094365D01*
X0364994Y0094438D01*
X0364940Y0094513D01*
X0364890Y0094591D01*
X0364843Y0094671D01*
X0364799Y0094752D01*
X0364759Y0094836D01*
X0364722Y0094921D01*
X0364689Y0095007D01*
X0364660Y0095095D01*
X0364635Y0095184D01*
X0364613Y0095274D01*
X0364596Y0095365D01*
X0364582Y0095456D01*
X0364572Y0095548D01*
X0364566Y0095640D01*
X0364564Y0095733D01*
X0374564Y0095733D02*
X0374566Y0095826D01*
X0374572Y0095918D01*
X0374582Y0096010D01*
X0374596Y0096101D01*
X0374613Y0096192D01*
X0374635Y0096282D01*
X0374660Y0096371D01*
X0374689Y0096459D01*
X0374722Y0096545D01*
X0374759Y0096630D01*
X0374799Y0096714D01*
X0374843Y0096795D01*
X0374890Y0096875D01*
X0374940Y0096953D01*
X0374994Y0097028D01*
X0375051Y0097101D01*
X0375111Y0097171D01*
X0375174Y0097239D01*
X0375240Y0097304D01*
X0375308Y0097366D01*
X0375379Y0097426D01*
X0375453Y0097482D01*
X0375529Y0097535D01*
X0375607Y0097584D01*
X0375687Y0097631D01*
X0375769Y0097673D01*
X0375853Y0097713D01*
X0375938Y0097748D01*
X0376025Y0097780D01*
X0376113Y0097809D01*
X0376202Y0097833D01*
X0376292Y0097854D01*
X0376383Y0097870D01*
X0376475Y0097883D01*
X0376567Y0097892D01*
X0376660Y0097897D01*
X0376752Y0097898D01*
X0376845Y0097895D01*
X0376937Y0097888D01*
X0377029Y0097877D01*
X0377120Y0097862D01*
X0377211Y0097844D01*
X0377301Y0097821D01*
X0377389Y0097795D01*
X0377477Y0097765D01*
X0377563Y0097731D01*
X0377647Y0097694D01*
X0377730Y0097652D01*
X0377811Y0097608D01*
X0377891Y0097560D01*
X0377968Y0097509D01*
X0378042Y0097454D01*
X0378115Y0097396D01*
X0378185Y0097336D01*
X0378252Y0097272D01*
X0378316Y0097206D01*
X0378378Y0097136D01*
X0378436Y0097065D01*
X0378491Y0096991D01*
X0378543Y0096914D01*
X0378592Y0096835D01*
X0378638Y0096755D01*
X0378680Y0096672D01*
X0378718Y0096588D01*
X0378753Y0096502D01*
X0378784Y0096415D01*
X0378811Y0096327D01*
X0378834Y0096237D01*
X0378854Y0096147D01*
X0378870Y0096056D01*
X0378882Y0095964D01*
X0378890Y0095872D01*
X0378894Y0095779D01*
X0378894Y0095687D01*
X0378890Y0095594D01*
X0378882Y0095502D01*
X0378870Y0095410D01*
X0378854Y0095319D01*
X0378834Y0095229D01*
X0378811Y0095139D01*
X0378784Y0095051D01*
X0378753Y0094964D01*
X0378718Y0094878D01*
X0378680Y0094794D01*
X0378638Y0094711D01*
X0378592Y0094631D01*
X0378543Y0094552D01*
X0378491Y0094475D01*
X0378436Y0094401D01*
X0378378Y0094330D01*
X0378316Y0094260D01*
X0378252Y0094194D01*
X0378185Y0094130D01*
X0378115Y0094070D01*
X0378042Y0094012D01*
X0377968Y0093957D01*
X0377891Y0093906D01*
X0377812Y0093858D01*
X0377730Y0093814D01*
X0377647Y0093772D01*
X0377563Y0093735D01*
X0377477Y0093701D01*
X0377389Y0093671D01*
X0377301Y0093645D01*
X0377211Y0093622D01*
X0377120Y0093604D01*
X0377029Y0093589D01*
X0376937Y0093578D01*
X0376845Y0093571D01*
X0376752Y0093568D01*
X0376660Y0093569D01*
X0376567Y0093574D01*
X0376475Y0093583D01*
X0376383Y0093596D01*
X0376292Y0093612D01*
X0376202Y0093633D01*
X0376113Y0093657D01*
X0376025Y0093686D01*
X0375938Y0093718D01*
X0375853Y0093753D01*
X0375769Y0093793D01*
X0375687Y0093835D01*
X0375607Y0093882D01*
X0375529Y0093931D01*
X0375453Y0093984D01*
X0375379Y0094040D01*
X0375308Y0094100D01*
X0375240Y0094162D01*
X0375174Y0094227D01*
X0375111Y0094295D01*
X0375051Y0094365D01*
X0374994Y0094438D01*
X0374940Y0094513D01*
X0374890Y0094591D01*
X0374843Y0094671D01*
X0374799Y0094752D01*
X0374759Y0094836D01*
X0374722Y0094921D01*
X0374689Y0095007D01*
X0374660Y0095095D01*
X0374635Y0095184D01*
X0374613Y0095274D01*
X0374596Y0095365D01*
X0374582Y0095456D01*
X0374572Y0095548D01*
X0374566Y0095640D01*
X0374564Y0095733D01*
X0374564Y0085733D02*
X0374566Y0085826D01*
X0374572Y0085918D01*
X0374582Y0086010D01*
X0374596Y0086101D01*
X0374613Y0086192D01*
X0374635Y0086282D01*
X0374660Y0086371D01*
X0374689Y0086459D01*
X0374722Y0086545D01*
X0374759Y0086630D01*
X0374799Y0086714D01*
X0374843Y0086795D01*
X0374890Y0086875D01*
X0374940Y0086953D01*
X0374994Y0087028D01*
X0375051Y0087101D01*
X0375111Y0087171D01*
X0375174Y0087239D01*
X0375240Y0087304D01*
X0375308Y0087366D01*
X0375379Y0087426D01*
X0375453Y0087482D01*
X0375529Y0087535D01*
X0375607Y0087584D01*
X0375687Y0087631D01*
X0375769Y0087673D01*
X0375853Y0087713D01*
X0375938Y0087748D01*
X0376025Y0087780D01*
X0376113Y0087809D01*
X0376202Y0087833D01*
X0376292Y0087854D01*
X0376383Y0087870D01*
X0376475Y0087883D01*
X0376567Y0087892D01*
X0376660Y0087897D01*
X0376752Y0087898D01*
X0376845Y0087895D01*
X0376937Y0087888D01*
X0377029Y0087877D01*
X0377120Y0087862D01*
X0377211Y0087844D01*
X0377301Y0087821D01*
X0377389Y0087795D01*
X0377477Y0087765D01*
X0377563Y0087731D01*
X0377647Y0087694D01*
X0377730Y0087652D01*
X0377811Y0087608D01*
X0377891Y0087560D01*
X0377968Y0087509D01*
X0378042Y0087454D01*
X0378115Y0087396D01*
X0378185Y0087336D01*
X0378252Y0087272D01*
X0378316Y0087206D01*
X0378378Y0087136D01*
X0378436Y0087065D01*
X0378491Y0086991D01*
X0378543Y0086914D01*
X0378592Y0086835D01*
X0378638Y0086755D01*
X0378680Y0086672D01*
X0378718Y0086588D01*
X0378753Y0086502D01*
X0378784Y0086415D01*
X0378811Y0086327D01*
X0378834Y0086237D01*
X0378854Y0086147D01*
X0378870Y0086056D01*
X0378882Y0085964D01*
X0378890Y0085872D01*
X0378894Y0085779D01*
X0378894Y0085687D01*
X0378890Y0085594D01*
X0378882Y0085502D01*
X0378870Y0085410D01*
X0378854Y0085319D01*
X0378834Y0085229D01*
X0378811Y0085139D01*
X0378784Y0085051D01*
X0378753Y0084964D01*
X0378718Y0084878D01*
X0378680Y0084794D01*
X0378638Y0084711D01*
X0378592Y0084631D01*
X0378543Y0084552D01*
X0378491Y0084475D01*
X0378436Y0084401D01*
X0378378Y0084330D01*
X0378316Y0084260D01*
X0378252Y0084194D01*
X0378185Y0084130D01*
X0378115Y0084070D01*
X0378042Y0084012D01*
X0377968Y0083957D01*
X0377891Y0083906D01*
X0377812Y0083858D01*
X0377730Y0083814D01*
X0377647Y0083772D01*
X0377563Y0083735D01*
X0377477Y0083701D01*
X0377389Y0083671D01*
X0377301Y0083645D01*
X0377211Y0083622D01*
X0377120Y0083604D01*
X0377029Y0083589D01*
X0376937Y0083578D01*
X0376845Y0083571D01*
X0376752Y0083568D01*
X0376660Y0083569D01*
X0376567Y0083574D01*
X0376475Y0083583D01*
X0376383Y0083596D01*
X0376292Y0083612D01*
X0376202Y0083633D01*
X0376113Y0083657D01*
X0376025Y0083686D01*
X0375938Y0083718D01*
X0375853Y0083753D01*
X0375769Y0083793D01*
X0375687Y0083835D01*
X0375607Y0083882D01*
X0375529Y0083931D01*
X0375453Y0083984D01*
X0375379Y0084040D01*
X0375308Y0084100D01*
X0375240Y0084162D01*
X0375174Y0084227D01*
X0375111Y0084295D01*
X0375051Y0084365D01*
X0374994Y0084438D01*
X0374940Y0084513D01*
X0374890Y0084591D01*
X0374843Y0084671D01*
X0374799Y0084752D01*
X0374759Y0084836D01*
X0374722Y0084921D01*
X0374689Y0085007D01*
X0374660Y0085095D01*
X0374635Y0085184D01*
X0374613Y0085274D01*
X0374596Y0085365D01*
X0374582Y0085456D01*
X0374572Y0085548D01*
X0374566Y0085640D01*
X0374564Y0085733D01*
X0384564Y0085733D02*
X0384566Y0085826D01*
X0384572Y0085918D01*
X0384582Y0086010D01*
X0384596Y0086101D01*
X0384613Y0086192D01*
X0384635Y0086282D01*
X0384660Y0086371D01*
X0384689Y0086459D01*
X0384722Y0086545D01*
X0384759Y0086630D01*
X0384799Y0086714D01*
X0384843Y0086795D01*
X0384890Y0086875D01*
X0384940Y0086953D01*
X0384994Y0087028D01*
X0385051Y0087101D01*
X0385111Y0087171D01*
X0385174Y0087239D01*
X0385240Y0087304D01*
X0385308Y0087366D01*
X0385379Y0087426D01*
X0385453Y0087482D01*
X0385529Y0087535D01*
X0385607Y0087584D01*
X0385687Y0087631D01*
X0385769Y0087673D01*
X0385853Y0087713D01*
X0385938Y0087748D01*
X0386025Y0087780D01*
X0386113Y0087809D01*
X0386202Y0087833D01*
X0386292Y0087854D01*
X0386383Y0087870D01*
X0386475Y0087883D01*
X0386567Y0087892D01*
X0386660Y0087897D01*
X0386752Y0087898D01*
X0386845Y0087895D01*
X0386937Y0087888D01*
X0387029Y0087877D01*
X0387120Y0087862D01*
X0387211Y0087844D01*
X0387301Y0087821D01*
X0387389Y0087795D01*
X0387477Y0087765D01*
X0387563Y0087731D01*
X0387647Y0087694D01*
X0387730Y0087652D01*
X0387811Y0087608D01*
X0387891Y0087560D01*
X0387968Y0087509D01*
X0388042Y0087454D01*
X0388115Y0087396D01*
X0388185Y0087336D01*
X0388252Y0087272D01*
X0388316Y0087206D01*
X0388378Y0087136D01*
X0388436Y0087065D01*
X0388491Y0086991D01*
X0388543Y0086914D01*
X0388592Y0086835D01*
X0388638Y0086755D01*
X0388680Y0086672D01*
X0388718Y0086588D01*
X0388753Y0086502D01*
X0388784Y0086415D01*
X0388811Y0086327D01*
X0388834Y0086237D01*
X0388854Y0086147D01*
X0388870Y0086056D01*
X0388882Y0085964D01*
X0388890Y0085872D01*
X0388894Y0085779D01*
X0388894Y0085687D01*
X0388890Y0085594D01*
X0388882Y0085502D01*
X0388870Y0085410D01*
X0388854Y0085319D01*
X0388834Y0085229D01*
X0388811Y0085139D01*
X0388784Y0085051D01*
X0388753Y0084964D01*
X0388718Y0084878D01*
X0388680Y0084794D01*
X0388638Y0084711D01*
X0388592Y0084631D01*
X0388543Y0084552D01*
X0388491Y0084475D01*
X0388436Y0084401D01*
X0388378Y0084330D01*
X0388316Y0084260D01*
X0388252Y0084194D01*
X0388185Y0084130D01*
X0388115Y0084070D01*
X0388042Y0084012D01*
X0387968Y0083957D01*
X0387891Y0083906D01*
X0387812Y0083858D01*
X0387730Y0083814D01*
X0387647Y0083772D01*
X0387563Y0083735D01*
X0387477Y0083701D01*
X0387389Y0083671D01*
X0387301Y0083645D01*
X0387211Y0083622D01*
X0387120Y0083604D01*
X0387029Y0083589D01*
X0386937Y0083578D01*
X0386845Y0083571D01*
X0386752Y0083568D01*
X0386660Y0083569D01*
X0386567Y0083574D01*
X0386475Y0083583D01*
X0386383Y0083596D01*
X0386292Y0083612D01*
X0386202Y0083633D01*
X0386113Y0083657D01*
X0386025Y0083686D01*
X0385938Y0083718D01*
X0385853Y0083753D01*
X0385769Y0083793D01*
X0385687Y0083835D01*
X0385607Y0083882D01*
X0385529Y0083931D01*
X0385453Y0083984D01*
X0385379Y0084040D01*
X0385308Y0084100D01*
X0385240Y0084162D01*
X0385174Y0084227D01*
X0385111Y0084295D01*
X0385051Y0084365D01*
X0384994Y0084438D01*
X0384940Y0084513D01*
X0384890Y0084591D01*
X0384843Y0084671D01*
X0384799Y0084752D01*
X0384759Y0084836D01*
X0384722Y0084921D01*
X0384689Y0085007D01*
X0384660Y0085095D01*
X0384635Y0085184D01*
X0384613Y0085274D01*
X0384596Y0085365D01*
X0384582Y0085456D01*
X0384572Y0085548D01*
X0384566Y0085640D01*
X0384564Y0085733D01*
X0384564Y0095733D02*
X0384566Y0095826D01*
X0384572Y0095918D01*
X0384582Y0096010D01*
X0384596Y0096101D01*
X0384613Y0096192D01*
X0384635Y0096282D01*
X0384660Y0096371D01*
X0384689Y0096459D01*
X0384722Y0096545D01*
X0384759Y0096630D01*
X0384799Y0096714D01*
X0384843Y0096795D01*
X0384890Y0096875D01*
X0384940Y0096953D01*
X0384994Y0097028D01*
X0385051Y0097101D01*
X0385111Y0097171D01*
X0385174Y0097239D01*
X0385240Y0097304D01*
X0385308Y0097366D01*
X0385379Y0097426D01*
X0385453Y0097482D01*
X0385529Y0097535D01*
X0385607Y0097584D01*
X0385687Y0097631D01*
X0385769Y0097673D01*
X0385853Y0097713D01*
X0385938Y0097748D01*
X0386025Y0097780D01*
X0386113Y0097809D01*
X0386202Y0097833D01*
X0386292Y0097854D01*
X0386383Y0097870D01*
X0386475Y0097883D01*
X0386567Y0097892D01*
X0386660Y0097897D01*
X0386752Y0097898D01*
X0386845Y0097895D01*
X0386937Y0097888D01*
X0387029Y0097877D01*
X0387120Y0097862D01*
X0387211Y0097844D01*
X0387301Y0097821D01*
X0387389Y0097795D01*
X0387477Y0097765D01*
X0387563Y0097731D01*
X0387647Y0097694D01*
X0387730Y0097652D01*
X0387811Y0097608D01*
X0387891Y0097560D01*
X0387968Y0097509D01*
X0388042Y0097454D01*
X0388115Y0097396D01*
X0388185Y0097336D01*
X0388252Y0097272D01*
X0388316Y0097206D01*
X0388378Y0097136D01*
X0388436Y0097065D01*
X0388491Y0096991D01*
X0388543Y0096914D01*
X0388592Y0096835D01*
X0388638Y0096755D01*
X0388680Y0096672D01*
X0388718Y0096588D01*
X0388753Y0096502D01*
X0388784Y0096415D01*
X0388811Y0096327D01*
X0388834Y0096237D01*
X0388854Y0096147D01*
X0388870Y0096056D01*
X0388882Y0095964D01*
X0388890Y0095872D01*
X0388894Y0095779D01*
X0388894Y0095687D01*
X0388890Y0095594D01*
X0388882Y0095502D01*
X0388870Y0095410D01*
X0388854Y0095319D01*
X0388834Y0095229D01*
X0388811Y0095139D01*
X0388784Y0095051D01*
X0388753Y0094964D01*
X0388718Y0094878D01*
X0388680Y0094794D01*
X0388638Y0094711D01*
X0388592Y0094631D01*
X0388543Y0094552D01*
X0388491Y0094475D01*
X0388436Y0094401D01*
X0388378Y0094330D01*
X0388316Y0094260D01*
X0388252Y0094194D01*
X0388185Y0094130D01*
X0388115Y0094070D01*
X0388042Y0094012D01*
X0387968Y0093957D01*
X0387891Y0093906D01*
X0387812Y0093858D01*
X0387730Y0093814D01*
X0387647Y0093772D01*
X0387563Y0093735D01*
X0387477Y0093701D01*
X0387389Y0093671D01*
X0387301Y0093645D01*
X0387211Y0093622D01*
X0387120Y0093604D01*
X0387029Y0093589D01*
X0386937Y0093578D01*
X0386845Y0093571D01*
X0386752Y0093568D01*
X0386660Y0093569D01*
X0386567Y0093574D01*
X0386475Y0093583D01*
X0386383Y0093596D01*
X0386292Y0093612D01*
X0386202Y0093633D01*
X0386113Y0093657D01*
X0386025Y0093686D01*
X0385938Y0093718D01*
X0385853Y0093753D01*
X0385769Y0093793D01*
X0385687Y0093835D01*
X0385607Y0093882D01*
X0385529Y0093931D01*
X0385453Y0093984D01*
X0385379Y0094040D01*
X0385308Y0094100D01*
X0385240Y0094162D01*
X0385174Y0094227D01*
X0385111Y0094295D01*
X0385051Y0094365D01*
X0384994Y0094438D01*
X0384940Y0094513D01*
X0384890Y0094591D01*
X0384843Y0094671D01*
X0384799Y0094752D01*
X0384759Y0094836D01*
X0384722Y0094921D01*
X0384689Y0095007D01*
X0384660Y0095095D01*
X0384635Y0095184D01*
X0384613Y0095274D01*
X0384596Y0095365D01*
X0384582Y0095456D01*
X0384572Y0095548D01*
X0384566Y0095640D01*
X0384564Y0095733D01*
M02*
