%
M48
M72
T01C0.0080
T02C0.0100
T03C0.0130
T04C0.0150
T05C0.0160
T06C0.0236
T07C0.0246
T08C0.0250
T09C0.0276
T10C0.0285
T11C0.0315
T12C0.0360
T13C0.0400
T14C0.0433
T15C0.0443
T16C0.0472
T17C0.0846
T18C0.1250
%
T01
X4683Y9758
X6183Y9758
X7683Y9758
X9133Y10208
X9683Y9980
X10233Y10208
X10461Y10758
X10933Y10883
X11683Y10883
X12433Y10883
X12433Y10258
X12433Y9758
X11683Y10133
X13183Y10258
X13183Y9758
X13933Y9758
X13933Y10258
X13933Y10758
X13183Y10758
X14683Y10758
X14683Y10258
X14683Y9758
X15433Y9758
X15433Y10258
X16183Y10258
X16183Y9758
X16933Y9758
X16933Y10258
X17683Y10258
X17683Y9758
X18433Y9758
X18433Y10258
X19183Y10258
X19183Y9758
X19933Y9758
X19933Y10258
X20467Y10408
X19933Y10758
X19183Y11008
X18433Y11008
X17683Y10758
X16933Y10758
X15933Y10758
X13508Y12758
X13902Y13074
X14689Y13074
X14689Y14058
X13902Y14058
X13016Y14058
X12229Y14058
X11441Y14058
X10654Y14058
X9866Y14058
X9177Y13074
X8683Y13133
X9571Y12758
X8683Y12383
X9433Y12258
X10183Y12258
X9683Y11536
X9133Y11308
X8683Y11633
X7933Y11536
X7933Y12324
X7933Y13210
X7933Y13899
X7933Y14686
X7433Y15493
X7933Y16243
X8683Y16383
X9608Y16383
X9571Y15883
X9571Y15383
X9177Y15042
X10359Y15383
X10359Y15883
X10359Y16383
X11146Y16383
X11146Y15883
X11146Y15383
X11933Y15383
X11933Y15883
X11933Y16383
X12721Y16383
X12721Y15883
X12721Y15383
X13508Y15383
X13508Y15883
X13902Y15883
X13902Y16383
X13508Y16383
X13183Y17008
X12396Y17008
X11808Y17008
X11412Y17008
X10821Y17008
X10231Y17008
X9433Y17258
X8933Y17758
X9660Y18146
X9837Y17969
X10231Y17969
X10427Y18146
X10624Y17969
X10821Y18146
X11018Y17969
X11412Y17969
X11805Y17969
X12199Y17969
X12396Y18146
X12593Y17969
X12986Y17969
X13183Y18146
X13380Y17969
X13577Y18146
X13774Y17969
X14168Y17969
X14738Y18146
X14738Y18736
X14207Y18736
X14601Y19524
X15624Y19524
X15983Y19524
X16433Y19883
X16762Y19883
X17683Y20608
X17683Y20883
X17683Y21383
X17433Y21383
X17183Y21383
X17433Y22133
X17683Y22633
X17683Y23133
X17683Y23633
X17683Y24133
X16933Y24133
X16933Y23633
X16933Y23133
X16933Y22633
X16183Y22634
X15762Y23055
X15387Y23430
X15808Y23758
X16183Y23383
X16433Y23884
X15933Y24384
X15433Y24134
X14776Y24002
X14645Y24647
X14645Y25134
X15433Y24884
X15433Y25634
X15933Y25634
X16233Y25516
X16083Y25319
X16233Y25122
X16433Y24634
X16233Y25910
X16083Y26106
X16233Y26303
X16083Y26500
X16233Y26697
X15933Y27009
X16183Y27384
X15683Y27620
X16058Y28009
X16933Y28259
X17933Y28259
X18183Y27759
X19058Y28134
X19933Y28258
X20624Y27595
X21254Y27595
X21884Y27595
X22042Y27908
X22357Y27908
X22672Y27595
X22672Y26965
X22672Y26650
X22558Y26258
X22808Y25758
X23308Y26258
X23459Y26650
X23808Y26758
X24089Y27122
X24089Y27595
X23459Y27595
X23459Y27122
X24058Y26258
X24308Y25758
X24808Y26258
X24558Y26758
X24876Y27122
X24876Y27595
X25821Y27595
X25808Y27258
X26058Y26758
X26308Y26258
X26558Y25758
X27058Y26258
X26808Y26758
X27533Y26733
X27983Y27183
X28383Y27183
X28971Y27122
X28833Y26733
X29308Y26258
X29808Y25758
X30058Y26258
X29916Y26650
X29916Y27122
X29916Y27595
X30860Y27595
X30860Y27122
X30860Y26650
X30808Y26258
X30558Y25758
X31308Y25758
X31805Y26177
X31805Y26650
X31805Y27122
X31805Y27595
X32750Y27595
X32750Y27122
X32750Y26650
X32750Y26177
X32808Y25758
X32058Y25758
X31808Y25258
X31558Y24758
X31308Y24258
X30808Y24758
X31058Y25258
X30308Y25258
X30433Y24258
X31183Y23508
X31808Y23758
X32308Y23258
X32558Y23758
X33058Y23258
X32808Y22758
X33308Y22258
X33558Y22758
X33808Y23258
X34058Y23758
X34558Y23258
X34308Y22758
X34058Y22258
X33808Y21758
X34283Y21283
X34558Y21758
X34933Y21383
X35058Y20833
X34733Y20833
X34733Y20183
X35058Y20208
X34933Y19633
X34558Y19258
X34283Y19733
X33808Y19258
X34058Y18758
X34308Y18258
X34558Y17758
X34808Y17258
X35058Y16758
X34558Y16258
X34308Y16758
X33808Y16258
X33558Y16758
X33058Y16258
X32808Y16758
X32308Y16258
X32058Y16758
X31558Y16258
X31308Y16758
X30808Y16258
X31058Y15758
X30308Y15758
X30558Y15258
X30808Y14758
X31058Y14258
X30860Y13894
X30860Y13421
X31805Y13421
X31805Y13894
X31808Y14258
X31558Y14758
X31308Y15258
X31808Y15758
X32058Y15258
X32308Y14758
X32558Y14258
X32750Y13894
X32750Y13421
X33695Y13421
X33695Y13894
X33695Y14366
X33808Y14758
X33558Y15258
X33058Y14758
X32808Y15258
X32558Y15758
X33308Y15758
X34058Y15758
X34308Y15258
X34558Y14758
X34558Y14383
X34808Y14133
X35183Y14133
X35308Y13758
X34933Y13383
X35683Y13383
X36058Y13758
X35683Y14133
X35233Y14701
X35083Y14898
X35233Y15095
X34808Y15758
X36254Y15488
X36558Y15708
X36254Y16079
X36558Y16258
X36558Y16758
X37308Y16758
X37183Y16258
X37533Y16258
X37183Y15708
X37183Y15158
X36683Y15158
X36433Y14133
X37433Y14133
X38738Y14122
X38933Y13921
X39128Y14122
X40133Y14319
X40283Y14516
X40133Y14713
X40283Y14910
X40133Y15106
X40133Y15500
X40283Y15697
X40133Y15894
X40433Y16383
X40058Y16758
X40433Y17133
X40058Y17383
X40058Y17883
X40808Y17507
X41433Y17008
X41808Y16633
X42093Y16965
X42683Y16965
X43183Y16965
X43675Y16965
X44168Y16965
X44561Y16965
X45270Y16965
X45127Y16382
X45027Y15882
X45221Y15390
X45627Y15882
X45777Y16382
X46277Y15882
X46008Y15390
X46796Y15390
X47189Y15042
X46500Y14058
X45713Y14058
X44925Y14058
X44138Y14058
X43351Y14058
X42465Y14058
X42071Y14452
X41677Y15042
X42465Y15042
X42859Y15390
X42683Y15882
X42683Y16382
X42183Y16258
X41558Y15883
X40808Y15883
X40808Y15258
X40808Y14508
X40808Y13758
X40308Y13009
X39433Y12758
X38433Y12758
X36433Y12758
X36433Y11758
X36433Y10758
X34325Y9758
X33695Y10008
X33380Y10408
X33065Y10408
X32750Y10008
X32435Y10408
X32120Y10408
X31805Y10008
X31490Y10408
X31175Y10408
X30860Y10008
X30546Y10408
X30231Y10408
X29916Y10008
X29601Y10408
X29286Y10408
X28971Y10008
X28656Y10408
X28341Y10408
X28026Y10008
X27711Y10408
X27396Y10408
X27081Y9758
X26766Y9758
X26294Y9758
X25821Y10008
X25506Y10408
X25191Y10408
X24876Y10008
X24561Y10408
X24246Y10408
X23301Y10408
X22986Y10408
X22672Y10008
X22357Y10408
X22042Y10408
X21727Y10008
X21412Y10408
X21097Y10408
X20683Y9758
X22183Y9758
X24404Y9758
X25349Y9758
X26136Y10408
X26451Y10408
X25820Y11758
X24875Y11758
X23933Y11758
X22670Y11758
X21725Y11758
X19933Y11758
X19933Y12758
X19933Y14133
X18933Y14133
X20133Y14898
X20133Y15291
X19808Y15508
X19933Y15983
X19933Y16273
X19933Y16569
X19683Y16758
X20058Y16883
X19808Y17383
X19808Y17883
X19808Y18383
X19058Y18383
X18864Y18638
X18696Y18835
X18864Y19228
X18696Y19425
X18864Y19819
X18696Y20016
X19058Y20183
X19433Y20183
X19808Y20183
X19808Y19633
X19183Y19633
X19183Y19008
X19808Y19008
X19058Y17883
X19058Y17383
X18696Y16866
X18933Y16758
X19183Y16758
X18733Y16079
X19183Y15883
X18733Y15488
X17683Y16008
X17308Y16133
X16933Y16133
X17183Y15508
X17433Y15258
X16433Y15008
X16433Y14758
X16433Y14508
X15808Y14633
X16183Y15258
X15433Y15383
X16183Y15758
X16183Y16133
X15433Y16133
X14689Y16383
X14689Y15883
X14168Y17008
X14933Y17133
X15433Y16883
X16183Y16883
X16183Y17633
X15433Y17633
X16183Y18383
X16933Y18383
X16933Y17883
X16933Y17383
X16933Y16883
X17683Y16883
X17683Y17383
X17683Y17883
X17683Y18383
X18696Y21000
X18864Y21197
X19183Y21383
X18864Y21787
X18696Y21591
X18696Y22181
X18864Y22378
X19058Y22633
X19058Y23133
X19058Y23633
X19808Y23633
X19808Y23133
X19808Y22633
X19808Y22008
X19183Y22008
X19808Y21383
X19808Y20833
X19433Y20833
X19058Y20833
X21308Y20833
X21633Y20833
X22083Y21283
X21808Y21758
X21308Y21383
X22558Y21758
X22308Y22258
X22058Y22758
X21808Y23258
X21558Y23758
X21308Y24258
X21808Y24758
X21558Y25258
X22058Y25758
X21808Y26258
X21808Y26633
X21558Y26883
X21183Y26883
X20683Y26883
X21133Y26315
X21283Y26118
X21133Y25921
X20112Y25528
X19683Y25308
X19183Y25308
X19183Y25858
X19683Y25858
X20112Y24937
X19683Y24758
X19183Y24758
X18833Y24758
X19058Y24258
X19808Y24258
X21308Y22758
X21558Y22258
X22558Y23258
X22308Y23758
X23058Y23758
X23308Y23258
X23558Y22758
X23058Y22258
X22808Y22758
X24058Y23258
X23808Y23758
X24558Y23758
X24308Y24258
X24058Y24758
X23808Y25258
X23308Y24758
X23058Y25258
X22558Y24758
X22308Y25258
X22058Y24258
X22808Y24258
X23558Y24258
X24808Y24758
X24558Y25258
X25308Y25258
X25558Y24758
X25058Y24258
X26058Y25258
X25808Y25758
X25558Y26258
X25308Y26758
X25058Y25758
X23558Y25758
X22199Y26965
X19933Y26883
X18933Y26883
X17628Y26894
X17433Y27095
X17238Y26894
X15433Y26958
X14689Y26958
X13902Y26958
X13016Y26958
X12229Y26958
X11441Y26958
X10654Y26958
X9866Y26958
X9177Y27942
X8784Y28258
X9571Y28258
X9433Y28758
X8683Y28758
X8433Y29258
X7933Y29758
X7933Y30633
X7433Y30758
X7683Y31258
X9133Y30808
X9683Y31036
X10233Y30808
X10461Y30258
X10933Y30133
X11683Y30133
X12433Y30133
X12433Y30758
X12433Y31258
X11683Y30883
X13183Y30758
X13183Y31258
X13933Y31258
X13933Y30758
X13933Y30258
X13183Y30258
X14683Y30258
X14683Y30758
X14683Y31258
X15433Y31258
X15433Y30758
X16183Y30758
X16183Y31258
X16933Y31258
X16933Y30758
X17683Y30758
X17683Y31258
X18433Y31258
X18433Y30758
X19183Y30758
X19183Y31258
X19933Y31258
X19933Y30758
X19933Y30258
X19183Y30008
X18433Y30008
X17683Y30258
X16933Y30258
X15933Y30258
X14689Y27942
X13902Y27942
X12721Y28258
X11933Y28258
X11146Y28258
X10359Y28258
X10183Y28758
X9683Y29480
X9133Y29708
X8906Y30258
X10233Y29708
X10933Y29383
X11183Y28883
X11683Y29383
X7933Y28758
X7933Y27633
X7433Y26773
X7933Y25936
X7933Y25149
X8683Y25134
X8683Y24634
X9183Y25134
X9483Y24634
X9771Y25133
X9571Y25633
X9177Y25974
X8784Y25633
X10233Y24634
X10359Y25133
X10359Y25633
X11146Y25633
X11096Y25133
X10983Y24634
X11633Y24634
X11783Y25133
X11933Y25633
X12371Y25133
X12183Y24634
X12683Y24634
X13183Y24634
X13071Y25133
X12721Y25633
X13508Y25633
X13880Y25134
X13880Y24634
X13683Y24051
X13183Y24051
X12691Y24051
X12199Y24051
X11805Y24051
X11412Y24051
X10979Y24051
X10231Y24051
X9683Y24009
X9183Y23509
X8558Y23759
X7933Y23574
X7933Y24361
X8683Y23009
X7933Y22786
X8558Y22008
X8754Y21492
X9660Y21295
X9660Y20705
X9660Y20311
X9660Y19524
X9660Y18933
X9660Y18539
X8683Y18508
X7933Y18508
X7933Y17868
X7933Y17133
X8683Y17133
X6183Y17048
X6183Y17836
X7933Y19368
X6933Y20008
X7820Y20630
X7933Y21258
X6433Y21171
X6183Y21008
X5933Y21171
X4683Y21008
X4933Y20008
X5433Y20008
X6183Y22786
X6183Y23574
X6183Y24361
X6183Y25149
X6183Y25936
X4933Y26773
X6183Y28298
X6183Y29086
X6183Y31258
X4683Y31258
X15433Y26171
X14168Y23047
X13971Y22870
X13774Y23047
X13380Y22870
X13183Y23047
X12790Y23047
X12494Y23047
X12199Y23047
X11805Y23047
X11412Y23047
X11018Y23047
X10624Y23047
X10231Y23047
X9935Y23047
X9660Y22083
X10860Y22083
X11549Y21787
X11313Y21394
X11884Y20823
X11884Y20193
X11313Y19622
X11727Y19327
X12199Y19130
X12475Y19130
X12750Y19130
X13085Y19622
X13813Y19524
X12514Y20193
X12514Y20823
X13085Y21394
X13006Y22083
X12672Y21984
X12376Y21886
X12042Y21787
X14109Y21827
X14109Y22122
X14738Y22083
X15624Y21492
X15933Y21492
X15933Y21098
X15624Y21098
X16183Y22134
X14738Y22870
X14109Y21265
X11451Y18835
X6183Y14686
X6183Y13899
X6183Y13111
X6183Y12324
X6183Y11536
X8906Y10758
X10233Y11308
X10933Y11633
X11183Y12133
X11683Y11633
X11933Y12758
X12721Y12758
X11146Y12758
X10359Y12758
X4933Y15493
X20683Y14133
X20933Y13883
X21183Y13633
X21727Y13421
X21727Y13894
X21727Y14366
X21727Y14839
X21727Y15311
X21133Y15488
X21133Y15095
X21133Y14701
X22672Y14839
X22808Y15258
X23558Y15258
X23459Y14839
X23459Y14366
X23459Y13894
X23459Y13421
X24089Y13421
X24089Y13894
X24089Y14366
X24058Y14758
X24308Y15258
X24808Y14758
X24876Y14366
X24876Y13894
X24876Y13421
X25821Y13421
X25821Y13894
X25821Y14366
X25558Y14758
X25808Y15258
X26308Y14758
X26558Y15258
X27058Y14758
X26808Y14258
X26609Y13894
X26609Y13421
X27238Y13421
X27308Y13758
X28026Y13421
X28383Y13833
X28833Y14283
X29308Y14758
X29558Y14258
X30058Y14758
X29808Y15258
X30308Y14258
X29808Y13758
X29916Y13421
X29058Y13758
X28971Y13421
X27533Y14283
X26058Y15758
X25558Y16258
X25308Y15758
X24808Y16258
X24558Y15758
X24058Y16258
X23808Y15758
X23308Y16258
X23058Y15758
X22558Y16258
X22308Y15758
X21808Y16258
X21558Y15758
X21133Y15979
X21308Y16758
X22058Y16758
X22308Y17258
X22558Y17758
X22808Y18258
X23058Y18758
X23558Y18258
X23308Y17758
X23058Y17258
X22808Y16758
X23558Y16758
X24308Y16758
X24558Y17258
X25183Y17508
X25058Y16758
X25933Y16758
X27433Y18008
X27183Y18258
X26683Y18758
X26433Y19008
X24058Y17758
X23808Y17258
X22308Y18758
X22058Y18258
X21808Y17758
X21558Y17258
X21308Y18258
X21558Y18758
X21308Y19008
X21808Y19258
X22083Y19733
X21633Y20183
X21308Y20183
X21308Y19633
X22558Y19258
X26433Y22008
X26683Y22258
X27183Y22758
X27433Y23008
X28933Y23008
X29183Y22758
X29683Y22258
X29933Y22008
X32058Y24258
X32308Y24758
X32558Y25258
X33058Y24758
X32808Y24258
X33308Y23758
X33558Y24258
X33808Y24758
X34058Y25258
X34558Y24758
X34308Y24258
X35058Y24258
X34808Y23758
X35058Y22758
X34808Y22258
X36558Y22008
X37183Y22008
X37452Y21787
X37671Y21591
X37452Y21197
X37671Y21000
X37308Y20833
X36933Y20833
X36558Y20833
X36558Y21383
X37183Y21383
X37671Y22181
X37452Y22378
X37308Y22633
X37308Y23133
X37308Y23633
X36558Y23633
X36558Y23133
X36558Y22633
X36308Y24133
X36433Y24447
X36433Y24743
X36433Y25033
X36558Y25508
X36233Y25724
X36233Y26118
X36433Y26883
X36083Y27258
X35683Y27633
X35058Y27258
X34640Y27122
X34640Y26650
X34640Y26177
X34640Y25705
X35233Y25528
X35233Y25921
X35233Y26315
X35683Y26883
X34640Y27595
X33695Y27595
X33695Y27122
X33695Y26650
X33695Y26177
X33695Y25705
X33308Y25258
X34808Y25258
X35233Y25037
X36683Y24258
X37183Y24258
X37435Y24258
X37683Y24150
X37633Y24937
X37183Y25133
X37633Y25528
X38683Y25258
X39433Y24839
X39933Y24458
X39933Y24133
X39433Y24133
X39433Y23633
X39433Y23133
X39933Y23133
X39933Y22758
X39808Y22508
X39558Y22508
X39433Y22258
X39933Y22258
X40683Y21508
X40183Y21183
X39883Y21183
X39583Y21183
X39896Y20508
X40433Y19758
X40565Y19524
X40723Y19721
X40183Y19258
X39558Y18833
X39308Y18633
X39058Y18458
X38683Y18758
X38933Y19138
X38933Y19378
X38683Y19508
X39183Y19508
X39183Y19008
X39433Y17883
X39433Y17383
X39433Y16883
X38683Y16883
X38683Y17383
X38683Y17883
X37452Y18638
X37308Y18383
X37308Y17883
X37308Y17383
X36558Y17383
X36558Y17883
X36558Y18383
X36558Y19008
X37183Y19008
X37452Y19228
X37671Y19425
X37452Y19819
X37671Y20016
X37308Y20183
X36933Y20183
X36558Y20183
X36558Y19633
X37183Y19633
X37671Y18835
X38683Y20133
X38683Y20408
X38683Y21883
X38683Y22633
X38683Y23133
X38683Y23633
X38683Y24133
X39933Y23633
X40683Y23258
X41183Y23758
X40683Y24133
X41183Y24633
X40808Y25008
X40433Y25258
X40183Y25508
X40433Y25758
X40183Y26008
X39683Y26258
X39433Y26508
X39933Y26508
X39433Y26008
X38883Y26508
X40933Y26633
X40933Y26008
X41677Y25974
X41683Y25383
X42465Y25974
X42859Y25633
X42859Y25133
X42957Y24633
X43646Y24633
X43646Y25133
X43646Y25633
X44433Y25633
X44433Y25133
X44433Y24633
X45221Y24633
X45221Y25133
X45221Y25633
X46008Y25633
X46008Y25133
X46008Y24633
X46758Y24633
X47183Y24633
X46796Y25133
X46796Y25633
X47189Y25974
X46500Y26958
X45713Y26958
X44925Y26958
X44138Y26958
X43351Y26958
X42465Y26958
X42071Y26564
X41677Y27942
X42465Y27942
X40433Y30258
X39433Y30258
X36453Y30258
X36453Y29258
X36433Y28258
X34433Y29258
X33694Y29258
X32749Y29258
X31804Y29258
X30859Y29258
X29914Y29258
X28971Y29258
X28028Y29258
X28341Y30608
X28656Y30608
X28971Y31008
X29286Y30608
X29601Y30608
X29916Y31008
X30231Y30608
X30546Y30608
X30860Y31008
X31175Y30608
X31490Y30608
X31805Y31008
X32120Y30608
X32435Y30608
X32750Y31008
X33065Y30608
X33380Y30608
X33695Y31008
X34010Y30608
X34325Y30608
X34640Y31008
X34955Y31258
X28971Y27595
X27641Y27595
X27308Y27258
X26766Y27595
X26558Y27258
X25823Y29258
X24878Y29258
X23933Y29258
X22643Y29258
X22198Y29258
X21568Y29258
X21412Y30608
X21727Y30608
X22672Y31008
X22248Y31258
X21461Y31258
X20683Y31258
X20683Y30758
X19933Y29258
X22986Y30608
X23301Y30608
X24246Y30608
X24561Y30608
X24876Y31008
X25191Y30608
X25506Y30608
X25821Y31008
X26136Y30608
X26451Y30608
X26294Y31258
X26766Y31258
X27081Y31268
X28026Y31008
X27711Y30608
X27396Y30608
X25349Y31258
X24404Y31258
X41628Y22870
X41805Y23047
X42199Y23047
X42593Y23047
X42986Y23047
X43183Y22870
X43380Y23047
X43774Y23047
X43971Y22870
X44168Y23047
X44561Y23047
X44955Y23047
X45349Y23047
X45546Y22870
X45742Y23047
X45939Y22870
X46136Y23047
X46707Y22870
X47433Y23258
X46933Y23758
X46235Y24008
X45546Y24008
X44955Y24008
X44558Y24008
X43971Y24008
X43183Y24008
X42396Y24008
X41683Y24258
X42183Y24758
X42160Y22280
X41628Y22280
X41808Y21383
X42455Y21197
X43282Y21394
X43853Y20823
X44483Y20823
X45053Y21394
X44640Y21689
X44168Y21886
X43892Y21886
X43616Y21886
X44916Y22181
X46707Y21492
X46707Y20705
X46707Y20311
X46707Y19622
X46707Y18933
X45506Y18933
X44817Y19228
X45053Y19622
X44483Y20193
X43853Y20193
X43282Y19622
X44325Y19228
X43990Y19130
X43695Y19032
X43360Y18933
X42986Y18146
X43183Y17969
X43577Y17969
X43872Y17969
X44168Y17969
X44561Y17969
X44955Y17969
X46136Y17969
X47183Y17507
X47183Y16258
X44479Y16382
X44377Y15882
X44433Y15390
X43646Y15390
X43646Y15882
X43880Y16382
X43282Y16382
X42593Y17969
X41628Y18146
X41628Y18933
X41894Y19383
X42258Y19228
X42258Y18933
X42455Y20114
X40808Y16758
X41677Y13074
X42465Y13074
X40433Y10758
X39433Y10758
X34166Y11758
X32749Y11758
X31804Y11758
X30859Y11758
X30078Y11758
X28975Y11758
X28026Y11758
X25058Y15258
X22672Y14366
X22672Y13894
X22672Y13421
X28933Y18008
X29183Y18258
X29683Y18758
X29933Y19008
X31808Y17258
X32308Y17758
X32558Y17258
X33058Y17758
X32808Y18258
X33308Y18758
X33558Y18258
X33808Y17758
X34058Y17258
X33308Y17258
X35058Y18258
X34808Y18758
X45906Y10758
X46133Y11308
X46683Y11536
X47233Y11308
X47461Y10758
X47233Y10208
X46683Y9980
X46133Y10208
X47189Y13074
X47189Y27942
X46673Y28633
X46683Y29480
X46133Y29708
X45906Y30258
X46133Y30808
X46683Y31036
X47233Y30808
X47461Y30258
X47233Y29708
T02
X43683Y10258
T03
X45939Y19327
X45939Y19622
X45939Y19917
X45939Y20213
X45939Y20508
X45939Y20803
X45939Y21098
X45939Y21394
X45939Y21689
X10427Y21689
X10427Y21394
X10427Y21098
X10427Y20803
X10427Y20508
X10427Y20213
X10427Y19917
X10427Y19622
X10427Y19327
T04
X25183Y23508
X25933Y24258
X31183Y17508
X30433Y16758
T05
X28183Y14758
X22433Y20508
X14955Y23559
X28183Y26258
X33933Y20508
X41412Y17457
T06
X33433Y20008
X32933Y19508
X33433Y21008
X32933Y21508
X29183Y25258
X28683Y25758
X27683Y25758
X27183Y25258
X23433Y21508
X22933Y21008
X22933Y20008
X23433Y19508
X27183Y15758
X27683Y15258
X28683Y15258
X29183Y15758
T07
X39524Y16307
X39524Y13709
X16843Y24709
X16843Y27307
T08
X15979Y13668
X40433Y27352
T09
X7463Y27511
X6675Y27905
X7463Y28298
X6675Y28692
X7463Y29086
X6675Y29479
X7463Y29873
X5691Y29479
X4904Y29086
X5691Y28692
X4904Y28298
X5691Y27905
X4904Y27511
X5691Y26330
X4904Y25936
X5691Y25542
X4904Y25149
X5691Y24755
X4904Y24361
X5691Y23968
X4904Y23574
X5691Y23180
X4904Y22786
X5691Y22393
X6675Y22393
X7463Y22786
X6675Y23180
X7463Y23574
X6675Y23968
X7463Y24361
X6675Y24755
X7463Y25149
X6675Y25542
X7463Y25936
X6675Y26330
X4904Y29873
X4904Y18623
X5691Y18229
X4904Y17836
X5691Y17442
X4904Y17048
X5691Y16655
X4904Y16261
X5691Y15080
X4904Y14686
X5691Y14292
X4904Y13899
X5691Y13505
X4904Y13111
X5691Y12718
X4904Y12324
X5691Y11930
X4904Y11536
X5691Y11143
X6675Y11143
X7463Y11536
X6675Y11930
X7463Y12324
X6675Y12718
X7463Y13111
X6675Y13505
X7463Y13899
X6675Y14292
X7463Y14686
X6675Y15080
X7463Y16261
X6675Y16655
X7463Y17048
X6675Y17442
X7463Y17836
X6675Y18229
X7463Y18623
T10
X19483Y11758
X19483Y11758
X19483Y29258
X19483Y29258
T11
X14689Y27352
X13902Y27352
X13114Y27352
X12327Y27352
X11540Y27352
X11540Y26564
X12327Y26564
X13114Y26564
X13902Y26564
X14689Y26564
X10752Y26564
X9965Y26564
X9177Y26564
X9177Y27352
X9965Y27352
X10752Y27352
X10752Y14452
X9965Y14452
X9177Y14452
X9177Y13664
X9965Y13664
X10752Y13664
X11540Y13664
X12327Y13664
X13114Y13664
X13902Y13664
X14689Y13664
X14689Y14452
X13902Y14452
X13114Y14452
X12327Y14452
X11540Y14452
X41677Y14452
X42465Y14452
X43252Y14452
X44040Y14452
X44827Y14452
X45614Y14452
X46402Y14452
X47189Y14452
X47189Y13664
X46402Y13664
X45614Y13664
X44827Y13664
X44040Y13664
X43252Y13664
X42465Y13664
X41677Y13664
X41677Y26564
X42465Y26564
X43252Y26564
X44040Y26564
X44827Y26564
X45614Y26564
X46402Y26564
X47189Y26564
X47189Y27352
X46402Y27352
X45614Y27352
X44827Y27352
X44040Y27352
X43252Y27352
X42465Y27352
X41677Y27352
T12
X43540Y29258
X44327Y29258
X44325Y11008
X43538Y11008
T13
X40933Y11258
X39933Y11258
X39933Y12258
X40933Y12258
X40933Y28758
X39933Y28758
X39933Y29758
X40933Y29758
X16433Y29758
X15433Y29758
X15433Y28758
X16433Y28758
X16433Y12258
X15433Y12258
X15433Y11258
X16433Y11258
T14
X19433Y14130
X36933Y26886
T15
X36884Y29258
X36884Y29258
X36884Y11758
X36884Y11758
T16
X37933Y12258
X38933Y12258
X36933Y14130
X18433Y12258
X17433Y12258
X19433Y26886
X18433Y28758
X17433Y28758
X37933Y28758
X38933Y28758
T17
X6183Y26979
X6183Y30582
X6183Y19332
X6183Y15729
T18
X9683Y10758
X9683Y30258
X46683Y30258
X46683Y10758
M30
